<svg width="64" height="64" viewBox="0 0 64 64" fill="none" xmlns="http://www.w3.org/2000/svg">
<circle cx="32" cy="32" r="32" fill="#17CE4E" fill-opacity="0.2"/>
<path d="M32 49.9163C22.1167 49.9163 14.0834 41.883 14.0834 31.9997C14.0834 22.1163 22.1167 14.083 32 14.083C41.8834 14.083 49.9167 22.1163 49.9167 31.9997C49.9167 41.883 41.8834 49.9163 32 49.9163ZM32 16.583C23.5 16.583 16.5834 23.4997 16.5834 31.9997C16.5834 40.4997 23.5 47.4163 32 47.4163C40.5 47.4163 47.4167 40.4997 47.4167 31.9997C47.4167 23.4997 40.5 16.583 32 16.583Z" fill="#17CE4E"/>
<path d="M29.6333 37.9663C29.2999 37.9663 28.9833 37.833 28.7499 37.5997L24.0333 32.883C23.5499 32.3997 23.5499 31.5997 24.0333 31.1163C24.5166 30.633 25.3166 30.633 25.7999 31.1163L29.6333 34.9497L38.1999 26.383C38.6833 25.8997 39.4833 25.8997 39.9666 26.383C40.4499 26.8663 40.4499 27.6663 39.9666 28.1497L30.5166 37.5997C30.2833 37.833 29.9666 37.9663 29.6333 37.9663Z" fill="#17CE4E"/>
</svg>
