<svg width="20" height="20" viewBox="0 0 20 20" fill="none" xmlns="http://www.w3.org/2000/svg">
<path d="M18.3334 18.958H1.66675C1.32508 18.958 1.04175 18.6747 1.04175 18.333C1.04175 17.9913 1.32508 17.708 1.66675 17.708H18.3334C18.6751 17.708 18.9584 17.9913 18.9584 18.333C18.9584 18.6747 18.6751 18.958 18.3334 18.958Z" fill="#858793"/>
<path d="M3.0835 18.3333H1.8335L1.87516 8.30826C1.87516 7.59992 2.20016 6.94161 2.7585 6.50828L8.59183 1.9666C9.41683 1.32493 10.5752 1.32493 11.4085 1.9666L17.2418 6.49994C17.7918 6.93327 18.1252 7.60826 18.1252 8.30826V18.3333H16.8752V8.3166C16.8752 7.99993 16.7252 7.69161 16.4752 7.49161L10.6418 2.95827C10.2668 2.6666 9.74183 2.6666 9.35849 2.95827L3.52516 7.49995C3.27516 7.69161 3.12516 7.99993 3.12516 8.3166L3.0835 18.3333Z" fill="#858793"/>
<path d="M12.0834 18.9587H7.91675C7.57508 18.9587 7.29175 18.6753 7.29175 18.3337V15.417C7.29175 14.3837 8.13341 13.542 9.16675 13.542H10.8334C11.8667 13.542 12.7084 14.3837 12.7084 15.417V18.3337C12.7084 18.6753 12.4251 18.9587 12.0834 18.9587ZM8.54175 17.7087H11.4584V15.417C11.4584 15.0753 11.1751 14.792 10.8334 14.792H9.16675C8.82508 14.792 8.54175 15.0753 8.54175 15.417V17.7087Z" fill="#858793"/>
<path d="M7.91675 12.0837H6.25008C5.45008 12.0837 4.79175 11.4253 4.79175 10.6253V9.37533C4.79175 8.57533 5.45008 7.91699 6.25008 7.91699H7.91675C8.71675 7.91699 9.37508 8.57533 9.37508 9.37533V10.6253C9.37508 11.4253 8.71675 12.0837 7.91675 12.0837ZM6.25008 9.16699C6.13341 9.16699 6.04175 9.25866 6.04175 9.37533V10.6253C6.04175 10.742 6.13341 10.8337 6.25008 10.8337H7.91675C8.03341 10.8337 8.12508 10.742 8.12508 10.6253V9.37533C8.12508 9.25866 8.03341 9.16699 7.91675 9.16699H6.25008Z" fill="#858793"/>
<path d="M13.75 12.0837H12.0833C11.2833 12.0837 10.625 11.4253 10.625 10.6253V9.37533C10.625 8.57533 11.2833 7.91699 12.0833 7.91699H13.75C14.55 7.91699 15.2083 8.57533 15.2083 9.37533V10.6253C15.2083 11.4253 14.55 12.0837 13.75 12.0837ZM12.0833 9.16699C11.9667 9.16699 11.875 9.25866 11.875 9.37533V10.6253C11.875 10.742 11.9667 10.8337 12.0833 10.8337H13.75C13.8667 10.8337 13.9583 10.742 13.9583 10.6253V9.37533C13.9583 9.25866 13.8667 9.16699 13.75 9.16699H12.0833Z" fill="#858793"/>
<path d="M15.8335 6.45801C15.4918 6.45801 15.2085 6.18302 15.2085 5.84135L15.1918 3.95801H12.1501C11.8085 3.95801 11.5251 3.67467 11.5251 3.33301C11.5251 2.99134 11.8085 2.70801 12.1501 2.70801H15.8168C16.1585 2.70801 16.4418 2.983 16.4418 3.32467L16.4668 5.82467C16.4585 6.17467 16.1835 6.45801 15.8335 6.45801C15.8418 6.45801 15.8335 6.45801 15.8335 6.45801Z" fill="#858793"/>
</svg>
