<svg width="70" height="70" viewBox="0 0 70 70" fill="none" xmlns="http://www.w3.org/2000/svg">
<g clip-path="url(#clip0_460_7371)">
<rect width="70" height="70" rx="35" fill="white"/>
<path fill-rule="evenodd" clip-rule="evenodd" d="M0 0H42V32.6667H0V0Z" fill="#1A47B8"/>
<path fill-rule="evenodd" clip-rule="evenodd" d="M42 0V4.66667H98V0H42ZM42 9.33333V14H98V9.33333H42ZM42 18.6667V23.3333H98V18.6667H42ZM42 28V32.6667H98V28H42ZM0 37.3333V42H98V37.3333H0ZM0 46.6667V51.3333H98V46.6667H0ZM0 56V60.6667H98V56H0ZM0 65.3333V70H98V65.3333H0Z" fill="#F93939"/>
<path fill-rule="evenodd" clip-rule="evenodd" d="M4.66663 4.66699V9.33366H9.33329V4.66699H4.66663ZM14 4.66699V9.33366H18.6666V4.66699H14ZM23.3333 4.66699V9.33366H28V4.66699H23.3333ZM32.6666 4.66699V9.33366H37.3333V4.66699H32.6666ZM28 9.33366V14.0003H32.6666V9.33366H28ZM18.6666 9.33366V14.0003H23.3333V9.33366H18.6666ZM9.33329 9.33366V14.0003H14V9.33366H9.33329ZM4.66663 14.0003V18.667H9.33329V14.0003H4.66663ZM14 14.0003V18.667H18.6666V14.0003H14ZM23.3333 14.0003V18.667H28V14.0003H23.3333ZM32.6666 14.0003V18.667H37.3333V14.0003H32.6666ZM4.66663 23.3337V28.0003H9.33329V23.3337H4.66663ZM14 23.3337V28.0003H18.6666V23.3337H14ZM23.3333 23.3337V28.0003H28V23.3337H23.3333ZM32.6666 23.3337V28.0003H37.3333V23.3337H32.6666ZM28 18.667V23.3337H32.6666V18.667H28ZM18.6666 18.667V23.3337H23.3333V18.667H18.6666ZM9.33329 18.667V23.3337H14V18.667H9.33329Z" fill="white"/>
</g>
<defs>
<clipPath id="clip0_460_7371">
<rect width="70" height="70" rx="35" fill="white"/>
</clipPath>
</defs>
</svg>
