<svg width="24" height="24" viewBox="0 0 24 24" fill="none" xmlns="http://www.w3.org/2000/svg">
<g clip-path="url(#clip0_289_8574)">
<path d="M15.5934 3.828C16.0554 3.30513 16.4078 2.6978 16.6301 2.04088C16.8524 1.38396 16.9404 0.690393 16.8889 0C15.4704 0.112424 14.1536 0.767467 13.2223 1.824C12.7763 2.33037 12.4383 2.91946 12.2284 3.55637C12.0184 4.19329 11.9408 4.86509 12.0001 5.532C12.692 5.53766 13.376 5.38691 13.9991 5.09143C14.6222 4.79595 15.1677 4.36365 15.5934 3.828ZM18.6734 12.756C18.6816 11.8365 18.9283 10.9342 19.3902 10.1342C19.8521 9.3343 20.514 8.66311 21.3134 8.184C20.8089 7.47029 20.1419 6.8818 19.3655 6.46521C18.589 6.04862 17.7243 5.81538 16.8401 5.784C14.9334 5.592 13.1734 6.876 12.1589 6.876C11.1445 6.876 9.7145 5.808 8.12561 5.832C7.08688 5.86559 6.07475 6.16294 5.18793 6.69502C4.30112 7.22711 3.56991 7.97578 3.06561 8.868C0.914499 12.54 2.51561 18 4.66672 20.964C5.6445 22.416 6.86672 24.06 8.48005 24C10.0934 23.94 10.6189 23.016 12.4889 23.016C14.3589 23.016 14.9334 24 16.5223 23.964C18.1112 23.928 19.2356 22.476 20.2623 21.024C20.9896 19.9698 21.5577 18.8179 21.9489 17.604C20.9803 17.1984 20.1539 16.5231 19.5718 15.6616C18.9897 14.8 18.6773 13.7899 18.6734 12.756Z" fill="black"/>
</g>
<defs>
<clipPath id="clip0_289_8574">
<rect width="22" height="24" fill="white" transform="translate(1)"/>
</clipPath>
</defs>
</svg>
