<svg width="32" height="32" viewBox="0 0 32 32" fill="none" xmlns="http://www.w3.org/2000/svg">
<rect width="32" height="32" rx="16" fill="#249F58"/>
<path fill-rule="evenodd" clip-rule="evenodd" d="M27.7333 21.3335V19.2002H4.26666L8.53333 21.3335H21.3333C21.3333 22.5111 22.7669 23.4669 24.5333 23.4669C26.2997 23.4669 27.7333 22.5111 27.7333 21.3335ZM12.224 8.33301C12.1984 8.33301 12.16 8.34581 12.1109 8.37567C11.9957 8.45247 11.7696 8.68928 11.7611 8.96234C11.7547 9.11808 11.7248 9.11807 11.8251 9.21834C11.8976 9.32074 11.9744 9.31221 12.1195 9.23327C12.2048 9.16927 12.2325 9.13301 12.2624 9.02847C12.2965 8.85781 12.0768 9.11381 12.0491 8.91754C12 8.73834 12.1408 8.66154 12.2731 8.49087C12.2773 8.40554 12.2773 8.34154 12.224 8.33727V8.33301ZM14.3637 8.34367C14.3211 8.35221 14.272 8.40767 14.2016 8.53141C14.1525 8.66367 13.9371 8.86421 14.0949 9.27807C14.2187 9.54047 14.272 9.96501 14.2144 10.4407C14.1248 10.5751 14.1077 10.6221 13.9904 10.7565C13.8283 10.9335 13.6491 10.8887 13.5168 10.8205C13.3888 10.7351 13.2907 10.6925 13.2331 10.4237C13.2437 9.99701 13.2693 9.28874 13.1904 9.13941C13.0752 8.90901 12.8832 8.99008 12.8021 9.06048C12.4117 9.42314 12.2176 10.0269 12.0981 10.5111C11.9915 10.861 11.8741 10.7586 11.7931 10.6178C11.5947 10.4301 11.5797 8.97514 11.3408 9.21621C10.9568 10.3127 11.5605 11.5138 11.9808 11.3965C12.2795 11.5245 12.4715 10.9485 12.5952 10.3191C12.6805 10.1421 12.7445 10.1207 12.7872 10.2125C12.7765 11.0487 12.8512 11.2365 13.0645 11.4882C13.5424 11.8594 13.9392 11.5351 13.9712 11.5053L14.3445 11.1341C14.4299 11.0487 14.5365 11.0402 14.6539 11.117C14.7691 11.2237 14.7541 11.4007 14.9952 11.5223C15.2043 11.6077 15.6416 11.5437 15.7419 11.3666C15.8805 11.1319 15.9125 11.0509 15.9765 10.9613C16.0747 10.8333 16.2432 10.8909 16.2432 10.9314C16.2283 11.0061 16.1301 11.0807 16.1963 11.2087C16.3136 11.2941 16.3413 11.2386 16.4096 11.2194C16.6528 11.1042 16.8363 10.5751 16.8363 10.5751C16.8469 10.3789 16.736 10.3938 16.6656 10.4343C16.5696 10.4919 16.5653 10.5111 16.4736 10.5687C16.352 10.5858 16.1216 10.6647 16.0085 10.4877C15.8912 10.2743 15.8912 9.97994 15.8016 9.76234C15.8016 9.74954 15.6459 9.42741 15.7888 9.40821C15.8592 9.42101 16.0171 9.46154 16.0405 9.33141C16.1173 9.20341 15.8763 8.84074 15.712 8.66154C15.5712 8.50581 15.3749 8.48661 15.1851 8.64447C15.0507 8.76821 15.072 8.90474 15.0443 9.03487C15.0123 9.18421 15.0187 9.36981 15.1723 9.56821C15.3045 9.82847 15.5456 10.1655 15.4645 10.6391C15.4645 10.6391 15.3259 10.8653 15.0805 10.8354C14.9739 10.8141 14.8075 10.7714 14.7179 10.1101C14.6539 9.61301 14.7349 8.91541 14.5259 8.58901C14.4768 8.46741 14.4363 8.34794 14.368 8.35434L14.3637 8.34367ZM13.6853 8.39914C13.6213 8.40554 13.5509 8.48021 13.4933 8.62314C13.4443 8.73407 13.3824 9.30581 13.3931 9.30581C13.3504 9.47647 13.5701 9.54901 13.6704 9.33141C13.8197 8.92607 13.8197 8.75541 13.8283 8.58901C13.8069 8.46101 13.7493 8.39701 13.6853 8.40127V8.39914ZM16.1877 8.44181C16.1237 8.45034 16.0704 8.48874 16.0512 8.58687C16.0235 8.81301 16.0384 8.93887 16.0768 9.12874C16.1045 9.25674 16.2901 9.46581 16.3797 9.58954C16.8128 10.1719 17.2331 10.7565 17.6341 11.3602C17.6981 11.8125 17.7408 12.2519 17.7728 12.6914C17.8411 13.6514 17.8581 14.8461 17.8005 15.8594C17.9797 15.8658 18.2699 15.5671 18.3701 15.1341C18.4341 14.5282 18.3488 13.2994 18.3403 12.941L18.3189 12.4333C18.7883 13.2013 19.2405 14.0119 19.6843 14.8994C19.8485 14.8226 19.8123 13.9074 19.7184 13.7794C19.36 13.0114 18.8651 12.2519 18.7093 11.9597C18.6517 11.853 18.4576 11.5607 18.2293 11.2215C18.1867 10.7351 18.1397 10.3255 18.1099 10.2018C18.0352 9.68981 18.3189 10.2594 18.2805 9.96287C18.1867 9.45087 17.9051 9.10527 17.5723 8.63594C17.4656 8.48661 17.4656 8.45247 17.3013 8.67434C17.2053 8.89834 17.2053 9.08607 17.2373 9.26101C17.1904 9.19701 17.1371 9.12447 17.0603 9.03061L16.5163 8.56981C16.4416 8.51648 16.2965 8.43541 16.1877 8.44181ZM23.6032 8.52074C23.5712 8.51647 23.5392 8.53141 23.4965 8.58901C23.4219 8.65301 23.3429 8.77461 23.3472 8.93034C23.3621 9.19701 23.4112 9.47221 23.4283 9.74101L23.4496 9.84767C23.4197 9.81354 23.3941 9.78367 23.3792 9.77087C22.8523 9.21621 23.6203 9.67701 23.2768 9.25247C22.9888 8.93247 22.9035 8.83434 22.6581 8.64234C22.5301 8.56554 22.4576 8.41194 22.4171 8.67221C22.4 8.90047 22.3829 9.16714 22.3957 9.35914C22.3957 9.46581 22.5088 9.66847 22.6048 9.78581C22.9547 10.2189 23.3131 10.6775 23.6715 11.1554C23.7483 12.1303 23.7675 13.0242 23.8421 14.0013C23.8336 14.4194 23.7056 14.9741 23.5861 15.0253C23.5861 15.0253 23.3984 15.1319 23.2747 15.0146C23.1829 14.9783 22.8224 14.4109 22.8224 14.4109C22.6368 14.2402 22.5131 14.2893 22.3829 14.4109C22.0203 14.7607 21.8539 15.4178 21.6085 15.8701C21.5445 15.9703 21.3675 16.0578 21.1691 15.8615C20.6635 15.1703 20.9557 14.1869 20.896 14.4407C20.448 14.9485 20.6443 15.789 20.7467 15.9703C20.896 16.269 21.0155 16.461 21.3013 16.6039C21.568 16.7959 21.7707 16.6786 21.8859 16.5399C22.1504 16.2669 22.1547 15.565 22.2784 15.4263C22.3637 15.1703 22.5835 15.213 22.6901 15.3282C22.7968 15.4775 22.9163 15.5735 23.0677 15.6546C23.3152 15.8722 23.6096 15.9106 23.8997 15.7122C24.0981 15.6013 24.2283 15.4562 24.3435 15.1703C24.4715 14.8375 24.4075 13.0882 24.3797 12.1154L24.9344 12.9175C25.0112 13.7709 25.0475 14.6135 25.0197 15.4199C25.0027 15.5799 25.5808 14.9421 25.5744 14.6391C25.5744 14.3767 25.5787 14.1357 25.5744 13.9138C25.8581 14.3618 26.1291 14.8162 26.3851 15.2791C26.5451 15.1938 26.4917 14.2914 26.3915 14.1698C26.1227 13.7175 25.7771 13.2311 25.5104 12.8514C25.4571 12.3757 25.3867 11.8146 25.3525 11.6418C25.3035 11.373 25.2523 10.9698 25.1755 10.6519C25.1541 10.5303 25.0901 10.1335 25.1115 10.0973C25.1413 10.0055 25.2608 10.0973 25.3184 9.99487C25.4037 9.89887 25.0155 8.88554 24.8171 8.59967C24.7467 8.47167 24.6165 8.51434 24.4587 8.72767C24.3093 8.86421 24.3648 9.17994 24.4203 9.48074C24.5653 10.2487 24.6976 11.0253 24.8 11.8061C24.608 11.5181 24.3733 11.1725 24.1429 10.8418L24.1131 10.6925C24.1131 10.6754 24.0832 10.0631 24.0555 9.91807C24.0491 9.85834 24.0341 9.84127 24.0981 9.84981C24.1621 9.90527 24.1707 9.90741 24.2112 9.92661C24.2795 9.93514 24.3392 9.82421 24.2965 9.71968L23.6779 8.58047C23.6565 8.55274 23.6267 8.52714 23.5925 8.52287L23.6032 8.52074ZM4.4672 8.54208C4.34986 8.53781 4.22613 8.60607 4.2752 8.74474C4.24533 8.81941 4.49706 9.07114 4.54186 9.20981C4.57813 9.31007 4.4992 9.62581 4.58453 9.65781C4.6592 9.68981 4.76373 9.43594 4.80213 9.20341C4.82346 9.07541 4.80853 8.63594 4.50986 8.54634C4.49493 8.54207 4.48 8.54207 4.46293 8.53994L4.4672 8.54208ZM26.2699 8.54208C26.2421 8.54634 26.2101 8.58474 26.1632 8.69141C26.0459 8.88341 26.0053 9.22474 26.0523 9.52341C26.3296 11.4221 26.5429 13.261 26.5856 14.9421C26.56 15.1042 26.5515 15.1895 26.4789 15.3901C26.3125 15.6034 26.1291 15.8679 25.9563 15.9959C25.7856 16.1239 25.4187 16.2477 25.2992 16.3415C24.9152 16.5591 24.9152 16.8109 25.2224 16.8215C25.7515 16.7575 26.3787 16.7149 26.8096 16.0642C26.9248 15.8829 27.0613 15.3879 27.0656 15.0829C27.1083 13.3122 27.0443 11.5735 26.7776 10.2914C26.7605 10.1634 26.7051 9.87967 26.7264 9.84341C26.7584 9.75381 26.9312 9.84981 26.9931 9.74954C27.0848 9.65567 26.5451 8.96661 26.3573 8.67221C26.3189 8.59967 26.2933 8.53781 26.2635 8.54421L26.2699 8.54208ZM20.7168 8.57194C20.6955 8.57621 20.6656 8.61034 20.6059 8.68927C20.4565 9.17141 20.4053 9.56394 20.4629 9.86687C20.8469 11.8509 21.2309 13.6535 21.1712 15.5415C21.3504 15.5415 21.5595 15.1298 21.6491 14.7202C21.6981 14.1549 21.6149 13.8114 21.6021 13.4829C21.5872 13.1501 21.2267 10.4621 21.1541 10.2125C21.0645 9.73888 21.504 10.1485 21.4571 9.87541C21.3035 9.52554 20.9237 9.02207 20.8085 8.71701C20.7659 8.63594 20.7573 8.56127 20.7232 8.56767L20.7168 8.57194ZM7.20426 8.61034C7.1616 8.61887 7.11253 8.65727 7.0976 8.71701C7.08693 8.75967 7.11466 8.83008 7.07626 8.85141C7.05493 8.87274 6.97386 8.85781 6.97813 8.74474C6.97813 8.70634 6.9504 8.66794 6.93546 8.64447C6.9184 8.63594 6.90773 8.63381 6.87786 8.63381C6.8416 8.63381 6.8416 8.64447 6.8224 8.67647C6.81386 8.70634 6.80106 8.73621 6.80106 8.77034C6.7968 8.81301 6.77973 8.82367 6.752 8.83007C6.71786 8.83007 6.72426 8.83434 6.69866 8.81514C6.67733 8.80021 6.66026 8.79381 6.66026 8.76394C6.66026 8.73194 6.65173 8.67861 6.6432 8.66154C6.62826 8.64021 6.6048 8.63168 6.5792 8.62528C6.4384 8.62528 6.42986 8.79168 6.43626 8.85141C6.4256 8.86421 6.42133 9.15007 6.61333 9.23114C6.86933 9.35487 7.35573 9.30154 7.33866 8.88554C7.33866 8.84927 7.328 8.72554 7.32373 8.69354C7.29813 8.62954 7.24906 8.60821 7.20213 8.61461L7.20426 8.61034ZM10.6731 8.61461C10.5835 8.61887 10.5024 8.64447 10.4384 8.67861C10.2677 8.84287 10.2251 9.10527 10.3616 9.26954C10.4896 9.33354 10.624 9.46154 10.5365 9.53621C10.1653 9.93087 9.19893 10.5943 9.14986 10.7159V10.7287H9.1584V10.733C9.20746 10.765 9.81333 10.765 9.87946 10.733H9.88373C10.0928 10.6541 11.0784 9.52767 11.0784 9.52767C11.0272 9.48501 10.9803 9.45087 10.9291 9.40607C10.8736 9.35914 10.88 9.31221 10.9291 9.26527C11.1723 9.12447 11.0955 8.81088 10.9675 8.66794C10.8608 8.62101 10.7627 8.60394 10.6731 8.61034V8.61461ZM19.7397 8.61461C19.7141 8.62101 19.6821 8.65727 19.6331 8.76394C19.5157 8.95594 19.4368 9.28661 19.4475 9.59594C19.6992 11.3453 19.776 12.8749 19.9424 14.6242C19.9552 14.7949 19.9296 15.0381 19.8187 15.1362C19.4005 15.5714 18.8011 16.1047 18.1483 16.3522C18.0779 16.4311 18.3232 16.7661 18.6389 16.7661C19.168 16.7021 19.6331 16.4077 20.0683 15.6247C20.1813 15.4434 20.384 15.053 20.3883 14.7501C20.4309 12.9751 20.3029 11.5927 20.0341 10.3127C20.0192 10.1847 20.0299 10.0354 20.0512 10.0013C20.0853 9.95861 20.2005 10.0013 20.2645 9.90101C20.3541 9.80714 20.0213 9.04127 19.8336 8.74901C19.7952 8.67434 19.7739 8.61461 19.7397 8.61674V8.61461ZM5.69386 8.67221C5.62133 8.68074 5.55306 8.73621 5.51893 8.82154C5.50826 9.09888 5.50613 9.37621 5.54026 9.63648C5.66826 10.0909 5.70453 10.4898 5.7664 10.9527C5.78773 11.5757 5.408 11.2215 5.42506 10.9143C5.5104 10.5133 5.48906 9.88394 5.41226 9.72394C5.34826 9.56394 5.28 9.52554 5.13066 9.55327C5.01333 9.54474 4.70826 9.87327 4.62293 10.4279C4.62293 10.4279 4.5504 10.7095 4.52053 10.9613C4.47786 11.245 4.29013 11.4477 4.15786 10.9229C4.0448 10.5389 3.97653 9.60021 3.78666 9.81781C3.7312 10.5517 3.6672 11.8445 4.29013 11.9767C5.04533 12.0493 4.6272 10.701 4.90026 10.4557C4.9536 10.3383 5.0496 10.3362 5.056 10.4877V11.6333C5.04746 12.0045 5.29066 12.1154 5.48266 12.1922C5.68106 12.1773 5.8112 12.1837 5.888 12.3757L5.984 14.3597C5.984 14.3597 6.44053 14.4877 6.46186 13.2439C6.4832 12.5122 6.31253 11.8999 6.4128 11.757C6.41706 11.6162 6.59626 11.6077 6.72 11.6781C6.9184 11.8167 7.00586 11.9874 7.31306 11.9191C7.7824 11.7911 8.05973 11.565 8.06613 11.2066C8.0448 10.8653 8.00213 10.5239 7.8528 10.1826C7.87413 10.1229 7.76746 9.96287 7.7888 9.90101C7.86986 10.029 7.99786 10.0205 8.02346 9.90101C7.94666 9.63861 7.82293 9.38901 7.6224 9.28234C7.45813 9.13301 7.21706 9.16501 7.12746 9.46794C7.0848 9.81781 7.25546 10.2317 7.51146 10.5709C7.56266 10.7031 7.63946 10.9229 7.60533 11.1213C7.47093 11.1981 7.33653 11.1639 7.22133 11.0466C7.22133 11.0466 6.85226 10.7693 6.85226 10.7053C6.95253 10.0759 6.8736 10.0013 6.82026 9.83061C6.78186 9.58741 6.66666 9.51061 6.57493 9.34421C6.48106 9.24394 6.3552 9.24394 6.2976 9.34421C6.1312 9.62794 6.208 10.2402 6.32746 10.5111C6.4128 10.7629 6.54506 10.9207 6.4832 10.9207C6.432 11.0594 6.32533 11.0274 6.24853 10.8631C6.14186 10.5218 6.11626 10.0183 6.11626 9.79008C6.08426 9.50848 6.048 8.90474 5.86026 8.75114C5.8112 8.68288 5.7536 8.65941 5.696 8.66581L5.69386 8.67221ZM8.34346 8.67221C8.3072 8.68074 8.26453 8.70207 8.21546 8.71487C8.05546 8.76394 7.90613 8.90261 7.95306 9.17141C8.14506 10.3234 8.26666 11.2045 8.45653 12.3565C8.48426 12.493 8.3712 12.6701 8.22613 12.6551C7.97866 12.4845 7.9168 12.1431 7.4944 12.1602C7.1872 12.1602 6.83733 12.4973 6.79466 12.8173C6.74346 13.0733 6.7264 13.3506 6.79466 13.5725C7.008 13.8285 7.26826 13.8029 7.4944 13.7431C7.68 13.6685 7.83573 13.4871 7.89973 13.5298C7.9424 13.6002 7.89546 14.1997 7.02506 14.6605C6.48746 14.9037 6.0608 14.9591 5.8304 14.5239C5.6896 14.2509 5.8432 13.2098 5.49333 13.4487C4.45653 16.1197 7.91893 16.4909 8.30506 13.5597C8.33066 13.4743 8.40533 13.3933 8.4608 13.4146C8.48213 13.4253 8.50346 13.4573 8.512 13.517C8.43093 16.1709 5.83253 16.3543 5.39306 15.5181C5.28213 15.3218 5.25013 14.8823 5.23946 14.6221C5.21813 14.4621 5.17973 14.3703 5.1328 14.3341C5.02613 14.2551 4.88533 14.4621 4.85546 14.8183C4.8128 15.1063 4.82346 15.1853 4.82346 15.4626C4.96426 17.5597 8.3072 16.6573 8.8512 14.9293C9.12 14.0333 8.8448 13.357 8.93653 13.2738L8.94293 13.2695H8.94933L8.96 13.2653C9.2928 13.6237 9.75786 13.3079 9.86026 13.1863C9.90293 13.1223 10.0139 13.0797 10.0907 13.165C10.3467 13.3485 10.8032 13.261 10.8971 12.9303C10.9525 12.6103 10.9995 12.2818 11.0101 11.9383C10.8395 11.9917 10.7029 12.0301 10.6475 12.0877C10.6347 12.1026 10.6261 12.1197 10.6219 12.1367L10.5792 12.4205C10.5792 12.4311 10.5749 12.4375 10.5707 12.4418C10.5643 12.4567 10.5493 12.4674 10.5408 12.4738C10.4811 12.5058 10.3765 12.4887 10.3701 12.4013C10.2912 12.0386 9.96053 11.9917 9.76 12.557C9.6256 12.6637 9.376 12.685 9.35466 12.5229C9.38666 12.1431 9.23306 12.0919 8.928 12.2711L8.6336 10.0525C8.7616 10.0461 8.8768 10.1378 8.99626 9.99274C8.86826 9.60021 8.6016 8.80234 8.45013 8.72554H8.44586L8.42453 8.70421C8.42453 8.69994 8.41813 8.69781 8.41386 8.69568L8.40533 8.68288C8.3968 8.68288 8.38826 8.67861 8.384 8.67647C8.36906 8.67221 8.35626 8.67221 8.34133 8.67221H8.34346ZM18.6731 8.68074C18.5408 8.67647 18.3957 8.75967 18.4512 8.92607C18.4171 9.01781 18.7349 9.32501 18.7861 9.49141C18.8779 9.74741 18.7157 9.99701 18.8117 10.0333C18.9013 10.0717 19.0251 9.76661 19.0677 9.48287C19.1232 9.25248 18.9611 8.78314 18.7264 8.68714L18.6731 8.68288V8.68074ZM10.624 8.96021C10.6837 8.95594 10.7563 9.01141 10.7947 9.08821C10.8309 9.17354 10.8117 9.25247 10.752 9.26741C10.688 9.28234 10.6069 9.22901 10.5685 9.14367C10.5301 9.05834 10.5472 8.97941 10.6112 8.96447H10.624V8.96021ZM25.5509 9.34847C25.4293 9.34421 25.2949 9.43381 25.3504 9.61514C25.3205 9.71327 25.6064 10.0461 25.6555 10.2295C25.6981 10.3575 25.5915 10.7757 25.6768 10.8141C25.7579 10.8567 25.8688 10.5239 25.9115 10.2167C25.9371 10.0461 25.8133 9.45941 25.6021 9.35488C25.5872 9.35061 25.5701 9.34634 25.5531 9.34634L25.5509 9.34847ZM17.2949 9.55327C17.3099 9.60234 17.3205 9.65141 17.3269 9.70261C17.3525 9.80927 17.3739 9.91594 17.3952 10.0269C17.3013 9.89461 17.2245 9.78794 17.1883 9.74954C16.9749 9.49354 17.1925 9.58314 17.2949 9.55327ZM19.2 10.4877C19.1531 10.4962 19.1083 10.5367 19.0933 10.6007C19.0805 10.6391 19.1104 10.7074 19.072 10.7287C19.0507 10.7501 18.9653 10.7373 18.9717 10.6221C18.9717 10.5837 18.944 10.5431 18.9291 10.5218C18.912 10.5111 18.9013 10.5069 18.8715 10.5069C18.8352 10.5069 18.8352 10.5175 18.816 10.5495C18.8075 10.5794 18.7947 10.6093 18.7947 10.6455C18.7947 10.6882 18.7776 10.701 18.7477 10.7095C18.7136 10.7095 18.72 10.7095 18.6923 10.6946C18.6752 10.6733 18.656 10.669 18.656 10.6391C18.656 10.6071 18.6496 10.5581 18.6389 10.5367C18.624 10.5154 18.6027 10.509 18.5749 10.5005C18.4363 10.5005 18.4256 10.6626 18.4341 10.7223C18.4256 10.7351 18.4192 11.0253 18.6112 11.1063C18.8715 11.2279 19.3579 11.1703 19.3365 10.7565C19.3365 10.7202 19.3259 10.5965 19.3237 10.5645C19.296 10.5005 19.2469 10.4791 19.2021 10.4855L19.2 10.4877ZM10.5173 10.573C10.4875 10.573 10.4448 10.5815 10.3957 10.6114C10.1675 10.7351 10.08 11.1021 10.2251 11.3154C10.3531 11.5074 10.5664 11.437 10.5941 11.437C10.8181 11.4669 10.9504 11.0189 10.9504 11.0189C10.9504 11.0189 10.9568 10.8909 10.6944 11.1298C10.5792 11.1511 10.5664 11.1085 10.5365 11.0445C10.5109 10.9314 10.5152 10.8098 10.5685 10.6967C10.5941 10.6263 10.5685 10.5815 10.5173 10.5773V10.573ZM22.7904 10.6306C22.6624 10.6242 22.528 10.7074 22.4917 10.8802C22.4917 10.9826 22.5387 11.0381 22.5301 11.1319C22.5195 11.1853 22.4661 11.2173 22.3339 11.1575C22.3552 11.1362 22.2485 10.9911 22.2485 10.9911C22.1483 10.9271 22.0139 10.9911 21.9243 11.0509C21.8752 11.1405 21.8389 11.2919 21.8944 11.4455C22.0395 11.7165 22.5408 12.1773 22.7797 12.1815C22.784 11.9383 22.8075 11.6141 22.8224 11.4135C22.8267 11.3367 22.8437 11.2535 22.9184 11.2343C22.9909 11.213 23.1168 11.3069 23.1168 11.2279C23.104 11.0743 23.0741 10.8439 22.9888 10.7373C22.9419 10.6733 22.8672 10.6349 22.7925 10.6306H22.7904ZM12.6293 11.4775L12.6229 11.4839C12.6229 11.4839 12.6187 11.4839 12.6165 11.4882C12.5909 11.5095 12.5611 11.5522 12.4949 11.5949C12.3819 11.7229 12.3627 11.8146 12.3669 12.0706C12.3755 12.0983 12.5803 12.6743 12.7573 13.0775C12.8768 13.4978 12.9856 13.9799 12.9067 14.4343C12.6293 15.0359 12.0747 15.5757 11.5349 15.8701C11.2576 15.9554 11.0229 15.9255 10.9589 15.8658C10.8011 15.7591 10.7989 15.5671 10.8096 15.5373V15.5309C11.2619 15.2151 11.7803 14.9591 12.1856 14.1079C12.3051 13.7815 12.3435 13.5853 12.224 13.0839C12.1771 12.8919 12.1173 12.7426 11.9893 12.6061H11.9936C12.0704 12.5698 12.2709 12.717 12.3029 12.6274C12.2539 12.3842 12.0896 12.0621 11.9083 11.8957C11.7461 11.7463 11.5669 11.7314 11.4219 11.8658C11.2555 11.9597 11.2213 12.2925 11.3003 12.5826C11.3899 12.8002 11.6309 12.8386 11.8016 13.2802C11.8059 13.3101 11.8592 13.6109 11.7739 13.7346C11.7013 13.9522 10.8032 14.6605 10.7392 14.7031L10.7328 14.7074L10.7285 14.7117H10.7243H10.72V14.7053C10.7157 14.6882 10.72 14.6413 10.72 14.5709C10.7136 14.4386 10.7691 14.1378 10.7627 14.0845V14.0802C10.464 14.2722 10.3637 14.8589 10.3104 15.0338C9.55733 15.5522 8.704 15.9383 8.2112 16.4631C7.9552 16.8685 9.9776 16.0066 10.2123 15.9021L10.2187 15.9085C10.2656 15.9575 10.2677 16.1282 10.4021 16.2839C10.6155 16.5677 11.0592 16.7426 11.4944 16.6338C12.224 16.3714 12.6464 15.8743 13.0731 15.3218C13.1328 15.2365 13.2288 15.1639 13.3184 15.2322C13.6107 15.8893 14.4597 16.3586 15.5541 16.4055C15.8101 16.0983 15.6885 15.9469 15.5861 15.8829C15.5541 15.8615 15.0421 15.661 14.9611 15.4626C14.912 15.2791 15.0336 15.1149 15.2768 14.9933C15.9808 14.9079 16.672 14.8119 17.3419 14.5965C17.3483 14.3703 17.4805 14.0354 17.5701 13.8882C17.6341 13.7879 17.6704 13.7773 17.6853 13.7645V13.7602H17.6896V13.7538V13.7325L17.5744 13.6642L15.328 13.6557C15.3003 13.645 15.2811 13.6343 15.2683 13.6237L15.264 13.6173C15.264 13.6173 15.2597 13.6173 15.2597 13.613C15.2597 13.6087 15.2555 13.6087 15.2555 13.6087V13.6109V13.6066V13.6023V13.5981L15.2597 13.5917C15.2704 13.5789 15.2981 13.5639 15.3301 13.549C15.8677 13.4786 16.8192 13.3229 16.8832 12.4077C16.8725 11.9298 16.6784 11.6183 16.0939 11.533C15.6629 11.565 15.3557 11.981 15.4048 12.4375C15.3835 12.5591 15.4475 12.8002 15.3195 12.8279C14.496 12.9047 13.5957 13.421 13.5659 13.7922H13.5616H13.5573H13.5531C13.5531 13.7965 13.5488 13.7965 13.5467 13.7965H13.5381H13.5339H13.5253C13.472 13.7794 13.4037 13.6898 13.4144 13.5682C13.3824 12.9282 13.1733 12.2029 12.8491 11.6482C12.7317 11.5309 12.6784 11.4839 12.6485 11.4775H12.6421H12.6357H12.6315H12.6293ZM14.7797 11.8146C14.7371 11.8231 14.688 11.8615 14.6731 11.9255C14.6624 11.9682 14.6944 12.0365 14.656 12.0578C14.6347 12.0791 14.5493 12.0663 14.5536 11.9511C14.5536 11.9149 14.5259 11.8743 14.5109 11.8509C14.4939 11.8402 14.4832 11.8381 14.4555 11.8381C14.4192 11.8381 14.4171 11.8466 14.3979 11.8765C14.3872 11.9063 14.3765 11.9405 14.3765 11.9725C14.3723 12.0151 14.3552 12.0279 14.3275 12.0322C14.2933 12.0322 14.3019 12.0386 14.2741 12.0215C14.2571 12.0045 14.2357 11.9959 14.2357 11.9661C14.2357 11.9341 14.2293 11.8807 14.2208 11.8594C14.2059 11.8445 14.1824 11.8381 14.1568 11.8295C14.0139 11.8295 14.0075 11.9895 14.0139 12.0514C14.0032 12.0621 13.9968 12.3501 14.1888 12.4311C14.4448 12.5549 15.0635 12.4823 14.9141 12.0834C14.9141 12.0471 14.9035 11.9234 14.9013 11.8914C14.8736 11.8274 14.8245 11.8061 14.7776 11.8125L14.7797 11.8146ZM23.4517 12.1709H23.4304C23.4304 12.1709 22.2315 13.0242 22.2037 13.0541C22.0843 13.1607 22.144 13.5298 22.2037 13.4871C22.2891 13.5191 23.4944 12.7021 23.4709 12.6061C23.5243 12.6103 23.5499 12.1858 23.4496 12.1687L23.4517 12.1709ZM15.9125 12.2989C15.9595 12.2925 16.0235 12.3095 16.0832 12.3415C16.1749 12.397 16.2325 12.4738 16.2219 12.5335V12.5421C16.2176 12.5421 16.2176 12.5421 16.2176 12.5463V12.5506C16.2176 12.5506 16.2133 12.5506 16.2133 12.5549C16.2133 12.5591 16.2069 12.5634 16.2027 12.5677C16.16 12.6103 16.0619 12.6018 15.968 12.5463C15.8784 12.4973 15.8251 12.4183 15.8293 12.3629V12.3565L15.84 12.3351C15.84 12.3351 15.84 12.3309 15.8443 12.3287L15.8549 12.3159C15.8699 12.3053 15.8891 12.2946 15.9125 12.2946V12.2989ZM5.4208 12.5122C4.80213 12.525 3.8912 13.3271 3.86773 13.7709L5.8304 12.8322C5.72373 12.6701 5.824 12.525 5.4208 12.5122ZM7.43253 12.7895C7.49226 12.7938 7.55626 12.8237 7.5904 12.909C7.62026 12.9879 7.5904 13.069 7.55413 13.1095V13.1159C7.52426 13.1501 7.43466 13.1373 7.36853 13.1373C7.2896 13.133 7.2512 13.1202 7.20426 13.0562C7.17866 12.9815 7.24693 12.9111 7.27893 12.8599L7.29386 12.8386C7.3152 12.8173 7.35786 12.8002 7.40053 12.7959L7.42826 12.7917L7.43253 12.7895ZM23.2192 13.0391C23.1061 13.0519 23.0016 13.1565 23.0485 13.3229C23.0187 13.421 23.1979 13.7645 23.2469 13.9458C23.2896 14.0738 23.1915 14.4429 23.2789 14.4791C23.36 14.5218 23.5712 14.2658 23.5648 13.9373C23.5861 13.7666 23.5051 13.1479 23.2939 13.0455C23.2683 13.0391 23.2427 13.037 23.2171 13.0391H23.2192ZM9.81333 13.645C9.7152 13.6514 9.62773 13.7026 9.66826 13.8413C9.66186 13.9394 9.9456 14.061 9.96053 14.2893C9.99893 14.3874 9.89653 14.6946 9.98186 14.7202C10.0587 14.7522 10.1653 14.5069 10.2059 14.285C10.2272 14.1613 10.1077 13.7303 9.9072 13.6514C9.8752 13.6429 9.8432 13.6407 9.8112 13.6429L9.81333 13.645ZM13.824 14.1911H13.8496C14.1013 14.2594 14.4683 14.2679 14.7883 14.2978C15.0507 14.3191 15.1787 14.5197 14.9376 14.6071C14.6944 14.6882 14.4619 14.7565 14.4619 15.1021C14.4917 15.2727 14.4832 15.3623 14.4576 15.4007C14.4576 15.4071 14.4512 15.4114 14.4491 15.4135C14.4491 15.4135 14.4491 15.4178 14.4448 15.4178V15.4221H14.4384L14.4235 15.4285H14.4128C14.3552 15.4391 14.272 15.3858 14.2101 15.3517C14.0608 15.245 13.6448 14.989 13.5851 14.4343C13.5765 14.3063 13.6704 14.1997 13.8197 14.189L13.824 14.1911ZM4.02346 14.6178C4.00853 14.6178 3.9808 14.6647 3.93813 14.7181C3.56693 15.3047 3.5328 16.1815 3.7376 16.4461C3.84426 16.5677 4.02346 16.6231 4.15573 16.5847C4.3904 16.4845 4.49066 16.013 4.43306 15.8423C4.3584 15.7207 4.29653 15.7015 4.21973 15.8039C4.05546 16.1346 3.98506 15.9063 3.9744 15.7186C3.9488 15.3709 3.98293 15.0466 4.02133 14.7906C4.04266 14.6626 4.04266 14.6135 4.02133 14.6135L4.02346 14.6178ZM16.6037 15.3901C16.576 15.3901 16.5483 15.3943 16.5184 15.4114C16.512 15.4114 16.2539 15.5821 16.1707 15.7058C16.1195 15.7442 16.128 15.7762 16.1408 15.8445C16.1792 15.9362 16.2475 15.9085 16.3285 15.8658C16.4352 15.8487 16.4843 15.9191 16.4779 16.045C16.4288 16.205 16.4992 16.2626 16.4992 16.2733C16.4992 16.2818 16.5995 16.3693 16.7189 16.301C16.9685 16.205 17.1243 16.109 17.4763 16.0343C17.568 16.0343 17.5616 15.7869 17.4165 15.7783C17.2245 15.7869 17.0539 15.7997 16.8619 15.949C16.7445 15.9746 16.7253 15.9021 16.6976 15.8381C16.6677 15.6802 16.7659 15.5693 16.7445 15.4498C16.7488 15.4562 16.6848 15.3986 16.6016 15.3943L16.6037 15.3901ZM24.6592 15.6887L24.4885 15.7058C24.4117 15.7207 24.3861 15.7549 24.3712 15.8487C24.3776 15.9874 24.4629 15.981 24.5525 16.0365C24.6037 16.1005 24.6379 16.1602 24.5483 16.2711C24.4629 16.3458 24.4053 16.3885 24.32 16.4631C24.2837 16.5314 24.256 16.6338 24.3797 16.6679C24.6037 16.7319 25.1221 16.3949 25.1221 16.3906C25.2075 16.3266 25.1776 16.205 25.1712 16.205C25.12 16.1495 25.0091 16.1837 24.9365 16.173C24.9003 16.173 24.7872 16.1559 24.8384 16.0535C24.8853 15.9895 24.9024 15.9533 24.9344 15.8743C24.9664 15.7975 24.9344 15.7463 24.8107 15.7037C24.7467 15.6909 24.704 15.6866 24.6549 15.6887H24.6592ZM21.5595 23.9234C22.1355 23.9511 22.6731 23.9298 23.2448 23.9575C23.3387 24.0343 23.2939 24.2135 23.2341 24.2434L23.2235 24.2477H23.2171H23.2085L22.7264 24.2349V24.2071C22.6795 24.0749 22.3595 24.0834 22.2827 24.1858V24.1922C22.2784 24.1922 22.2763 24.1986 22.2763 24.2007L22.272 24.2114V24.237C22.016 24.269 21.792 24.2285 21.5403 24.2199C21.4656 24.1282 21.4763 23.9639 21.5616 23.9213L21.5595 23.9234Z" fill="white"/>
</svg>
