<svg width="20" height="20" viewBox="0 0 20 20" fill="none" xmlns="http://www.w3.org/2000/svg">
<path d="M12.025 15.6834C12.1834 15.6834 12.3417 15.6251 12.4667 15.5001L17.525 10.4418C17.7667 10.2001 17.7667 9.8001 17.525 9.55843L12.4667 4.5001C12.225 4.25843 11.825 4.25843 11.5834 4.5001C11.3417 4.74176 11.3417 5.14176 11.5834 5.38343L16.2 10.0001L11.5834 14.6168C11.3417 14.8584 11.3417 15.2584 11.5834 15.5001C11.7 15.6251 11.8667 15.6834 12.025 15.6834Z" fill="#6E7079"/>
<path d="M2.91665 10.625H16.9417C17.2833 10.625 17.5667 10.3417 17.5667 10C17.5667 9.65833 17.2833 9.375 16.9417 9.375H2.91665C2.57498 9.375 2.29165 9.65833 2.29165 10C2.29165 10.3417 2.57498 10.625 2.91665 10.625Z" fill="#6E7079"/>
</svg>
