<svg width="21" height="20" viewBox="0 0 21 20" fill="none" xmlns="http://www.w3.org/2000/svg">
<path d="M10.5001 1.66675C5.90008 1.66675 2.16675 5.40008 2.16675 10.0001C2.16675 14.6001 5.90008 18.3334 10.5001 18.3334C15.1001 18.3334 18.8334 14.6001 18.8334 10.0001C18.8334 5.40008 15.1001 1.66675 10.5001 1.66675ZM13.4417 10.0251C13.3167 10.1501 13.1584 10.2084 13.0001 10.2084C12.8417 10.2084 12.6834 10.1501 12.5584 10.0251L11.1251 8.59175V12.9167C11.1251 13.2584 10.8417 13.5417 10.5001 13.5417C10.1584 13.5417 9.87508 13.2584 9.87508 12.9167V8.59175L8.44175 10.0251C8.20008 10.2667 7.80008 10.2667 7.55842 10.0251C7.31675 9.78341 7.31675 9.38342 7.55842 9.14175L10.0584 6.64175C10.3001 6.40008 10.7001 6.40008 10.9417 6.64175L13.4417 9.14175C13.6834 9.38342 13.6834 9.78341 13.4417 10.0251Z" fill="#384EDD"/>
</svg>
