<svg width="40" height="40" viewBox="0 0 40 40" fill="none" xmlns="http://www.w3.org/2000/svg">
<path d="M19.8666 37.9163C9.99995 37.9163 1.94995 29.883 1.94995 19.9997C1.94995 10.1163 9.99995 2.08301 19.8666 2.08301C29.7333 2.08301 37.7833 10.1163 37.7833 19.9997C37.7833 29.883 29.75 37.9163 19.8666 37.9163ZM19.8666 4.58301C11.3666 4.58301 4.44995 11.4997 4.44995 19.9997C4.44995 28.4997 11.3666 35.4163 19.8666 35.4163C28.3666 35.4163 35.2833 28.4997 35.2833 19.9997C35.2833 11.4997 28.3666 4.58301 19.8666 4.58301Z" fill="#DA2424"/>
<path d="M29.8728 10.6654L11.3242 31.3997C10.3736 32.4624 9.16296 32.9658 8.65367 32.5102C8.14438 32.0546 8.51036 30.7955 9.46097 29.7329L28.0095 8.99859C28.9602 7.93596 30.1708 7.43257 30.6801 7.88816C31.1894 8.34376 30.8466 9.57687 29.8728 10.6654Z" fill="#DA2424"/>
</svg>
