<svg width="329" height="280" viewBox="0 0 329 280" fill="none" xmlns="http://www.w3.org/2000/svg">
<path d="M128.224 38.8075C149.936 35.6191 176.989 38.6342 193.4 54.7939C218.206 79.2039 243.675 69.7379 270.288 123.263C274.208 131.061 277.271 139.26 279.423 147.718C280.462 151.856 281.235 156.057 281.738 160.295C286.183 197.677 267.703 228.623 239.919 245.64C203.382 268.026 171.106 251.694 151.282 240.446C131.457 229.199 79.6205 231.036 53.0411 178.622C48.958 170.634 45.8096 162.202 43.6584 153.493C38.7971 133.596 39.4765 110.293 49.0034 91.6954C49.715 90.2933 50.4736 88.9192 51.2793 87.573C66.9687 61.1365 98.6235 43.1349 128.224 38.8075Z" fill="#384EDD"/>
<path opacity="0.8" d="M128.224 38.8075C149.936 35.6191 176.989 38.6342 193.4 54.7939C218.206 79.2039 243.675 69.7379 270.288 123.263C274.208 131.061 277.271 139.26 279.423 147.718C280.462 151.856 281.235 156.057 281.738 160.295C286.183 197.677 267.703 228.623 239.919 245.64C203.382 268.026 171.106 251.694 151.282 240.446C131.457 229.199 79.6205 231.036 53.0411 178.622C48.958 170.634 45.8096 162.202 43.6584 153.493C38.7971 133.596 39.4765 110.293 49.0034 91.6954C49.715 90.2933 50.4736 88.9192 51.2793 87.573C66.9687 61.1365 98.6235 43.1349 128.224 38.8075Z" fill="white"/>
<path d="M122.958 105.375L95.8442 106.483L95.9978 105.042C95.9978 105.042 98.2481 105.077 98.5815 104.797C98.9149 104.517 100.463 101.95 100.933 102.108C101.402 102.265 123.489 104.376 123.489 104.376L122.958 105.375Z" fill="#F5F5F5"/>
<path d="M91.8304 104.806C92.0616 104.372 92.4167 104.015 92.8508 103.782C93.2848 103.549 93.7783 103.45 94.2689 103.497C94.7595 103.544 95.2251 103.735 95.6068 104.046C95.9885 104.357 96.2692 104.775 96.4134 105.245C96.5576 105.716 96.5589 106.218 96.4169 106.69C96.275 107.161 95.9963 107.58 95.616 107.893C95.2358 108.206 94.7711 108.399 94.2808 108.448C93.7905 108.498 93.2965 108.401 92.8613 108.17C92.572 108.017 92.3158 107.809 92.1074 107.557C91.8989 107.305 91.7423 107.014 91.6465 106.702C91.5508 106.389 91.5177 106.061 91.5493 105.736C91.5808 105.41 91.6764 105.094 91.8304 104.806Z" fill="#F5F5F5"/>
<path d="M93.9097 107.933L92.7692 110.07C92.7692 110.07 93.7956 113.596 93.6991 113.78C93.6026 113.964 81.1138 131.944 81.1138 131.944L79.9513 131.327L92.7472 107.315L93.9097 107.933Z" fill="#F5F5F5"/>
<path d="M93.7869 104.184L92.427 104.67L91.0408 102.41L87.1674 101.871L78.2405 81.3424L79.0872 80.7861L93.7869 104.184Z" fill="#F5F5F5"/>
<path d="M93.1947 105.822L92.5454 156.017H97.5287L96.0943 106.887L93.1947 105.822Z" fill="#F5F5F5"/>
<path d="M16.5333 107.832L48.1436 89.3486L48.8762 91.1576C48.8762 91.1576 46.174 92.5416 45.9547 93.0891C45.7353 93.6366 45.516 97.675 44.8624 97.7845C44.2088 97.894 16.5333 109.361 16.5333 109.361V107.832Z" fill="#E0E0E0"/>
<path d="M53.9911 88.8058C53.991 89.4704 53.7936 90.1201 53.4237 90.6726C53.0538 91.2252 52.5281 91.6558 51.913 91.9099C51.298 92.164 50.6212 92.2303 49.9685 92.1003C49.3157 91.9704 48.7162 91.65 48.2458 91.1797C47.7754 90.7094 47.4553 90.1104 47.326 89.4585C47.1967 88.8065 47.2639 88.1309 47.5193 87.5171C47.7746 86.9033 48.2065 86.3789 48.7604 86.0103C49.3143 85.6417 49.9652 85.4454 50.6309 85.4463C51.0725 85.4463 51.5098 85.5332 51.9178 85.7021C52.3257 85.871 52.6963 86.1185 53.0084 86.4305C53.3205 86.7425 53.5679 87.1129 53.7365 87.5205C53.9051 87.928 53.9916 88.3648 53.9911 88.8058Z" fill="#E0E0E0"/>
<path d="M49.5342 86.3923V83.1249C49.5342 83.1249 46.0687 79.5727 46.0687 79.2924C46.0687 79.012 49.5342 49.6748 49.5342 49.6748H51.2889V86.3923H49.5342Z" fill="#E0E0E0"/>
<path d="M52.0565 90.7853L53.3681 89.3486L56.4563 91.1576L61.4177 89.3486L85.0925 108.165L84.4389 109.361L52.0565 90.7853Z" fill="#E0E0E0"/>
<path d="M48.1436 89.3486L47.2663 157.112H53.9911L52.0565 90.7853L48.1436 89.3486Z" fill="#E0E0E0"/>
<path d="M278.303 127.945L263.682 105.125L264.998 104.525C264.998 104.525 266.104 106.488 266.512 106.632C266.92 106.777 269.925 106.821 270.021 107.302C270.118 107.784 279.426 127.888 279.426 127.888L278.303 127.945Z" fill="#E0E0E0"/>
<path d="M260.901 101.595C261.133 101.162 261.488 100.807 261.922 100.576C262.355 100.344 262.848 100.246 263.337 100.294C263.827 100.342 264.291 100.533 264.671 100.845C265.051 101.156 265.331 101.572 265.474 102.042C265.617 102.511 265.618 103.013 265.476 103.483C265.334 103.953 265.056 104.37 264.676 104.683C264.297 104.995 263.833 105.187 263.344 105.237C262.855 105.286 262.362 105.189 261.928 104.959C261.345 104.648 260.91 104.12 260.717 103.489C260.525 102.858 260.591 102.177 260.901 101.595Z" fill="#E0E0E0"/>
<path d="M261.445 104.184L259.019 104.276C259.019 104.276 256.488 106.939 256.282 106.948C256.076 106.957 234.248 105.248 234.248 105.248L234.195 103.934L261.393 102.87L261.445 104.184Z" fill="#E0E0E0"/>
<path d="M264.634 102.186L263.533 101.262L264.784 98.9277L263.296 95.3142L276.557 77.2686L277.465 77.7197L264.634 102.186Z" fill="#E0E0E0"/>
<path d="M262.261 102.607L261.616 152.802H266.6L265.165 103.672L262.261 102.607Z" fill="#E0E0E0"/>
<path d="M322.788 162.548C317.257 157.02 309.229 154.795 301.456 153.884C293.683 152.973 285.765 153.14 278.132 151.405C259.322 147.121 244.925 131.993 227.054 124.722C212.029 118.682 195.293 118.428 180.09 124.008C168.36 128.388 157.385 136.237 144.87 136.101C135.408 135.996 125.954 131.226 116.795 133.605C108.46 135.769 102.731 143.241 95.4187 147.809C83.1624 155.439 67.6336 154.283 53.2058 153.687C38.7781 153.091 22.7009 153.959 12.4976 164.16L322.788 162.548Z" fill="#EBEBEB"/>
<path d="M104.03 73.3622H150.318C150.318 73.3622 146.225 65.9162 134.311 67.0112C122.932 68.0449 122.353 63.3495 116.567 62.7714C110.781 62.1932 105.96 66.617 104.03 73.3622Z" fill="#F5F5F5"/>
<path d="M140.777 90.7939H179.064C179.064 90.7939 175.677 84.6619 165.825 85.5379C156.411 86.4139 155.933 82.5113 151.147 82.0339C146.361 81.5565 142.369 85.2182 140.777 90.7939Z" fill="#EBEBEB"/>
<path d="M208.542 74.1236H261.507C261.507 74.1236 256.826 65.6133 243.192 66.8528C230.173 68.0354 229.51 62.6655 222.886 62.0042C216.263 61.3428 210.753 66.4104 208.542 74.1236Z" fill="#EBEBEB"/>
<path d="M313.344 218.016C313.344 218.078 249.619 218.13 171.032 218.13C92.4446 218.13 28.7019 218.078 28.7019 218.016C28.7019 217.955 92.4139 217.902 171.032 217.902C249.65 217.902 313.344 217.951 313.344 218.016Z" fill="#263238"/>
<path d="M37.5201 204.031L232.047 204.336L232.092 175.59L37.5653 175.285L37.5201 204.031Z" fill="#455A64"/>
<path d="M242.219 154.414C242.219 154.414 237.354 154.957 236.49 154.414C234.533 153.157 191.956 136.018 155.371 135.979C126.029 135.939 99.608 143.709 73.9109 160.84C73.9109 160.84 42.6164 164.282 30.3952 173.428C27.5394 175.083 21.7096 181.61 23.9336 196.431C25.3505 205.883 32.3999 206.282 42.0286 206.067C42.0286 206.067 38.4447 177.357 64.0716 179.551C85.847 181.412 81.6797 207.955 81.6797 207.955L190.789 208.126C190.789 208.126 191.267 196.335 191.732 193.479C192.658 187.759 199.778 178.386 213.069 179.779C227.65 181.307 232.502 194.592 231.568 205.805C231.568 205.805 246.952 209.125 249.031 196.769L252.703 195.63C252.703 195.63 254.115 169.998 241.297 159.223L244.048 157.397L242.219 154.414Z" fill="#384EDD"/>
<path d="M234.963 153.595C234.963 153.595 234.055 156.065 230.927 155.785C228.379 155.561 213.819 150.051 208.511 148.019C207.753 147.742 207.072 147.291 206.521 146.702C205.97 146.113 205.565 145.403 205.34 144.629C205.229 144.304 205.205 143.955 205.27 143.617C205.27 143.617 227.905 149.048 234.963 153.595Z" fill="#455A64"/>
<path d="M109.982 142.859C109.978 143.899 109.68 144.916 109.123 145.793C108.566 146.671 107.772 147.374 106.833 147.822L75.6875 162.639L73.9065 160.725C73.9065 160.725 77.1614 158.386 81.4165 155.859C85.3645 153.525 90.1898 151.041 93.0719 149.64C98.5383 146.977 104.19 144.711 109.982 142.859Z" fill="#455A64"/>
<g opacity="0.3">
<path d="M213.385 155.789C213.595 155.969 213.764 156.192 213.88 156.443C213.996 156.694 214.055 156.967 214.055 157.243C214.055 157.52 213.996 157.793 213.88 158.044C213.764 158.295 213.595 158.518 213.385 158.697C211.841 160.27 204.484 165.732 201.067 166.065C197.65 166.397 93.8746 173.313 87.7333 171.557C81.592 169.801 77.9949 166.691 79.539 164.904L82.3245 163.984L131.245 164.983L213.385 155.789Z" fill="white"/>
</g>
<g opacity="0.7">
<path d="M251.132 177.821C251.132 177.821 245.092 179.608 242.512 174.851C239.933 170.094 237.09 165.066 237.09 163.98C237.09 162.618 238.069 158.238 241.297 159.127C241.297 159.127 250.277 166.271 251.132 177.821Z" fill="white"/>
</g>
<g opacity="0.7">
<path d="M27.7369 182.7C27.7369 182.7 51.1266 173.358 47.3409 170.173C45.3449 168.491 26.1138 177.742 27.7369 182.7Z" fill="white"/>
</g>
<path d="M37.2866 205.984C37.2866 205.984 37.2866 205.905 37.2866 205.752C37.2866 205.599 37.2603 205.366 37.2559 205.06C37.2559 204.455 37.2296 203.566 37.2559 202.432C37.3856 199.184 37.886 195.961 38.7474 192.827C39.344 190.655 40.1781 188.556 41.2346 186.568C42.4395 184.276 44.0438 182.217 45.9722 180.488L46.7487 179.809L47.5865 179.192C48.1599 178.776 48.7544 178.39 49.3675 178.035C49.6702 177.847 50.0036 177.707 50.3238 177.54C50.644 177.374 50.9643 177.203 51.3064 177.067L52.3285 176.664L52.8461 176.463L53.3769 176.301C54.0964 176.068 54.8287 175.876 55.5703 175.727L56.6845 175.495C57.0617 175.438 57.4434 175.399 57.8206 175.346C58.1979 175.293 58.5839 175.245 58.9699 175.206L60.128 175.149C60.9086 175.085 61.6922 175.068 62.4749 175.096C65.5499 175.089 68.5994 175.654 71.4675 176.761C74.1313 177.819 76.528 179.453 78.4862 181.544C80.2316 183.453 81.6566 185.632 82.7062 187.995C83.6259 190.046 84.3358 192.184 84.8249 194.377C85.5285 197.542 85.8989 200.771 85.9304 204.013C85.9304 205.165 85.8997 206.059 85.8646 206.663C85.8646 206.961 85.8251 207.193 85.8076 207.346C85.79 207.5 85.7725 207.578 85.7725 207.578C85.7725 207.578 85.7725 207.5 85.7725 207.346C85.7725 207.193 85.7725 206.952 85.8032 206.659C85.8295 206.054 85.847 205.165 85.8032 204.031C85.7442 200.787 85.3517 197.558 84.6319 194.395C84.1341 192.216 83.4199 190.093 82.5 188.057C81.4526 185.716 80.0335 183.56 78.2976 181.671C76.3534 179.603 73.9743 177.992 71.3316 176.953C68.4884 175.857 65.4657 175.299 62.4178 175.307C59.3733 175.228 56.3354 175.631 53.4164 176.498L52.8856 176.656L52.3768 176.857L51.3634 177.251C51.0257 177.387 50.7142 177.567 50.394 177.72C50.0738 177.873 49.7448 178.022 49.4465 178.21C48.8417 178.557 48.256 178.936 47.6918 179.345L46.8583 179.958L46.0907 180.628C44.1763 182.339 42.5811 184.375 41.3794 186.642C40.3164 188.608 39.4735 190.685 38.8658 192.835C37.9916 195.956 37.4678 199.165 37.3042 202.401C37.2471 203.549 37.2384 204.438 37.2428 205.029V205.717C37.2866 205.905 37.2866 205.984 37.2866 205.984Z" fill="#263238"/>
<path d="M187.113 208.025C187.113 208.025 187.113 207.946 187.083 207.793C187.052 207.64 187.052 207.416 187.034 207.119C186.995 206.523 186.96 205.638 186.968 204.491C186.982 201.281 187.336 198.082 188.026 194.946C188.499 192.779 189.19 190.664 190.087 188.635C191.12 186.298 192.533 184.148 194.268 182.271C196.201 180.201 198.576 178.592 201.216 177.562C204.06 176.479 207.078 175.923 210.121 175.92C213.152 175.798 216.184 176.152 219.105 176.967C219.281 177.019 219.46 177.059 219.632 177.116L220.145 177.304L221.167 177.685C221.834 177.948 222.483 178.289 223.106 178.587C223.707 178.955 224.325 179.288 224.891 179.687L225.72 180.295C225.856 180.396 226.001 180.492 226.128 180.602L226.51 180.939C228.439 182.62 230.05 184.633 231.265 186.883C232.312 188.842 233.128 190.916 233.695 193.063C234.522 196.166 234.964 199.358 235.011 202.568C235.033 203.702 235.011 204.587 234.963 205.196C234.963 205.494 234.928 205.721 234.91 205.875C234.893 206.028 234.875 206.102 234.875 206.102C234.867 206.025 234.867 205.947 234.875 205.87C234.875 205.708 234.875 205.485 234.91 205.191C234.91 204.596 234.95 203.715 234.91 202.585C234.83 199.386 234.369 196.207 233.537 193.116C232.959 190.986 232.139 188.928 231.094 186.984C229.879 184.758 228.272 182.768 226.352 181.11L225.975 180.777C225.843 180.672 225.703 180.58 225.571 180.475L224.746 179.875C224.189 179.485 223.575 179.157 222.992 178.793C222.356 178.5 221.733 178.162 221.07 177.917L220.061 177.545L219.553 177.361C219.382 177.299 219.202 177.26 219.026 177.212C216.131 176.397 213.127 176.039 210.121 176.152C207.111 176.158 204.126 176.71 201.313 177.781C198.696 178.794 196.341 180.38 194.421 182.424C192.697 184.281 191.291 186.409 190.258 188.723C189.364 190.741 188.671 192.841 188.188 194.995C187.492 198.118 187.115 201.304 187.065 204.504C187.043 205.638 187.065 206.518 187.087 207.132C187.087 207.425 187.087 207.648 187.118 207.811C187.148 207.973 187.113 208.025 187.113 208.025Z" fill="#263238"/>
<path d="M212.359 155.785C212.359 155.785 203.287 163.669 199.356 163.669C195.426 163.669 91.8348 169.941 87.2244 168.08C84.7956 167.147 82.448 166.016 80.2058 164.698C80.2058 164.698 114.009 140.389 153.402 141.554C182.319 142.408 212.359 155.785 212.359 155.785Z" fill="#455A64"/>
<path d="M101.13 153.092L94.287 168.422L90.8127 168.417L96.4672 155.295L101.13 153.092Z" fill="#263238"/>
<g opacity="0.3">
<path d="M187.487 175.519L175.204 175.499L175.208 173.051C175.208 172.903 175.267 172.762 175.372 172.658C175.476 172.554 175.618 172.495 175.766 172.495L186.934 172.513C187.082 172.513 187.224 172.572 187.328 172.677C187.432 172.781 187.491 172.923 187.491 173.07L187.487 175.497L187.487 175.519Z" fill="black"/>
</g>
<g opacity="0.3">
<path d="M139.615 175.444L127.332 175.425L127.336 172.999C127.336 172.851 127.395 172.71 127.5 172.605C127.605 172.501 127.746 172.443 127.894 172.443L139.067 172.461C139.215 172.461 139.356 172.52 139.461 172.624C139.565 172.729 139.623 172.87 139.623 173.018L139.619 175.444L139.615 175.444Z" fill="black"/>
</g>
<path d="M182.134 145.768L192.86 163.967L182.867 164.501L184.157 155.746L177.594 144.717L182.134 145.768Z" fill="#263238"/>
<path d="M143.032 141.813L141.36 166.674L145.006 166.495L146.58 141.59L143.032 141.813Z" fill="#263238"/>
<path d="M96.3487 172.18L97.906 170.572L95.4275 167.423L93.2956 169.46C92.9784 169.729 92.7812 170.114 92.7472 170.528C92.4489 172.486 94.9713 173.599 96.3487 172.18Z" fill="#263238"/>
<path d="M102.648 171.588C106.434 171.715 109.412 167.86 107.837 164.418C107.674 163.998 107.405 163.628 107.057 163.342C106.71 163.056 106.294 162.864 105.85 162.784C101.902 162.096 96.7918 161.842 95.4143 167.422C95.0108 169.074 95.9364 170.094 97.4498 170.712C98.8886 171.299 100.832 171.522 102.648 171.588Z" fill="#384EDD"/>
<path d="M78.5606 201.352C79.2226 191.802 72.0064 183.525 62.4427 182.864C52.879 182.203 44.5894 189.409 43.9274 198.958C43.2653 208.507 50.4815 216.784 60.0452 217.445C69.6089 218.106 77.8985 210.901 78.5606 201.352Z" fill="#263238"/>
<path d="M61.2597 188.605C58.9724 188.598 56.7346 189.27 54.8295 190.534C52.9244 191.798 51.4375 193.598 50.5569 195.706C49.6764 197.813 49.4418 200.135 49.8827 202.376C50.3236 204.617 51.4203 206.677 53.034 208.296C54.6477 209.914 56.706 211.019 58.9484 211.469C61.1909 211.92 63.5167 211.696 65.6318 210.826C67.7469 209.957 69.5561 208.48 70.8307 206.584C72.1053 204.687 72.7879 202.456 72.7923 200.172C72.7958 198.656 72.5002 197.155 71.9225 195.753C71.3448 194.352 70.4963 193.078 69.4254 192.003C68.3545 190.929 67.0822 190.076 65.6811 189.493C64.2801 188.91 62.7777 188.608 61.2597 188.605ZM51.9819 200.141C51.9846 198.313 52.5302 196.526 53.5499 195.007C54.5696 193.488 56.0175 192.305 57.7106 191.607C59.4037 190.91 61.2659 190.729 63.0617 191.089C64.8575 191.448 66.5063 192.331 67.7995 193.626C69.0927 194.921 69.9723 196.57 70.3271 198.364C70.6818 200.158 70.4958 202.017 69.7925 203.705C69.0892 205.394 67.9003 206.836 66.376 207.85C64.8517 208.864 63.0605 209.403 61.229 209.401C58.7745 209.393 56.4232 208.414 54.69 206.678C52.9569 204.943 51.9831 202.592 51.9819 200.141Z" fill="#E0E0E0"/>
<path d="M61.2554 190.891C59.4221 190.886 57.6288 191.425 56.1021 192.438C54.5754 193.452 53.384 194.894 52.6784 196.584C51.9728 198.273 51.7849 200.134 52.1383 201.93C52.4917 203.726 53.3705 205.377 54.6638 206.674C55.957 207.972 57.6065 208.857 59.4036 209.218C61.2008 209.58 63.0649 209.401 64.7603 208.704C66.4556 208.008 67.906 206.825 68.9281 205.306C69.9502 203.786 70.4981 201.998 70.5024 200.168C70.5059 197.714 69.5342 195.359 67.8006 193.619C66.0669 191.88 63.7129 190.899 61.2554 190.891Z" fill="#F5F5F5"/>
<path d="M58.5049 200.181C58.504 200.721 58.6637 201.25 58.9638 201.7C59.2639 202.15 59.6908 202.501 60.1906 202.709C60.6905 202.916 61.2408 202.971 61.7719 202.867C62.3031 202.762 62.7912 202.503 63.1746 202.121C63.5581 201.739 63.8196 201.253 63.926 200.723C64.0325 200.193 63.9792 199.643 63.7728 199.143C63.5664 198.644 63.2163 198.216 62.7666 197.915C62.3169 197.614 61.788 197.453 61.2466 197.452C60.8871 197.452 60.5311 197.522 60.1987 197.659C59.8664 197.795 59.5643 197.996 59.3098 198.25C59.0552 198.503 58.8531 198.804 58.715 199.135C58.5769 199.467 58.5055 199.822 58.5049 200.181Z" fill="#263238"/>
<path d="M222.867 213.024C229.645 206.255 229.645 195.282 222.867 188.513C216.088 181.745 205.097 181.745 198.319 188.513C191.54 195.282 191.54 206.255 198.319 213.024C205.097 219.792 216.088 219.792 222.867 213.024Z" fill="#263238"/>
<path d="M210.608 189.222C208.321 189.216 206.083 189.887 204.178 191.151C202.273 192.415 200.787 194.214 199.906 196.322C199.025 198.429 198.79 200.75 199.231 202.991C199.671 205.232 200.768 207.292 202.381 208.911C203.994 210.53 206.052 211.635 208.294 212.086C210.536 212.537 212.862 212.314 214.977 211.445C217.092 210.576 218.902 209.1 220.177 207.204C221.452 205.308 222.136 203.077 222.141 200.794C222.148 197.732 220.937 194.794 218.774 192.623C216.611 190.453 213.674 189.23 210.608 189.222ZM201.348 200.763C201.35 198.933 201.896 197.144 202.916 195.624C203.937 194.103 205.387 192.919 207.082 192.222C208.777 191.525 210.641 191.346 212.438 191.708C214.235 192.07 215.884 192.956 217.176 194.254C218.469 195.552 219.346 197.204 219.697 199.001C220.048 200.797 219.857 202.658 219.149 204.346C218.44 206.034 217.246 207.474 215.717 208.484C214.188 209.494 212.393 210.028 210.56 210.018C208.112 210.002 205.77 209.02 204.044 207.286C202.318 205.552 201.349 203.207 201.348 200.763Z" fill="#E0E0E0"/>
<path d="M210.604 191.513C208.77 191.508 206.977 192.045 205.449 193.058C203.922 194.071 202.73 195.513 202.024 197.203C201.318 198.892 201.129 200.753 201.482 202.549C201.835 204.345 202.713 205.997 204.006 207.295C205.299 208.593 206.949 209.478 208.746 209.84C210.543 210.202 212.408 210.023 214.103 209.327C215.799 208.631 217.25 207.448 218.272 205.928C219.294 204.408 219.842 202.62 219.847 200.79C219.851 198.336 218.88 195.981 217.147 194.242C215.415 192.502 213.061 191.521 210.604 191.513Z" fill="#F5F5F5"/>
<path d="M207.853 200.821C207.853 201.361 208.012 201.89 208.313 202.34C208.613 202.79 209.04 203.141 209.54 203.349C210.04 203.556 210.591 203.611 211.122 203.506C211.653 203.401 212.141 203.141 212.525 202.759C212.908 202.377 213.169 201.89 213.275 201.36C213.381 200.829 213.327 200.28 213.12 199.78C212.913 199.28 212.562 198.853 212.112 198.553C211.662 198.252 211.132 198.092 210.591 198.092C209.865 198.092 209.17 198.379 208.657 198.891C208.143 199.402 207.855 200.096 207.853 200.821Z" fill="#263238"/>
<path d="M218.811 168.207C218.804 168.739 218.639 169.258 218.337 169.697C218.034 170.137 217.608 170.476 217.112 170.674C216.617 170.871 216.073 170.917 215.551 170.806C215.029 170.695 214.552 170.431 214.18 170.049C213.808 169.667 213.557 169.184 213.461 168.66C213.364 168.136 213.425 167.595 213.636 167.105C213.847 166.616 214.199 166.2 214.647 165.91C215.095 165.621 215.619 165.47 216.153 165.478C216.868 165.488 217.549 165.781 218.048 166.293C218.546 166.805 218.821 167.493 218.811 168.207Z" fill="#263238"/>
<path d="M187.047 201.915H186.789H186.021L183.073 201.972L172.238 202.148L136.482 202.586C122.515 202.73 109.868 202.822 100.718 202.835C96.1425 202.835 92.4358 202.835 89.8784 202.791C87.321 202.748 85.8953 202.691 85.9304 202.607C86.2668 202.662 86.6075 202.684 86.9481 202.673C87.6193 202.673 88.615 202.699 89.8915 202.704C92.449 202.704 96.1557 202.704 100.731 202.678L136.491 202.353L172.247 201.977L183.086 201.876H186.034H186.802L187.047 201.915Z" fill="#263238"/>
<path d="M142.79 207.942C142.725 207.942 142.79 198.744 142.97 187.417C143.15 176.091 143.321 166.888 143.383 166.893C143.444 166.897 143.383 176.091 143.198 187.417C143.014 198.744 142.852 207.942 142.79 207.942Z" fill="#263238"/>
<path d="M166.86 148.807C166.899 148.855 164.07 151.435 160.539 154.571C157.008 157.707 154.112 160.208 154.068 160.16C154.025 160.112 156.858 157.532 160.39 154.4C163.921 151.269 166.816 148.763 166.86 148.807Z" fill="#F5F5F5"/>
<path d="M165.469 153.774C165.334 153.931 165.188 154.077 165.031 154.212C164.741 154.488 164.316 154.878 163.781 155.351C162.715 156.306 161.223 157.594 159.539 158.978C157.854 160.362 156.297 161.58 155.152 162.442C154.582 162.88 154.117 163.213 153.792 163.445C153.629 163.575 153.454 163.69 153.27 163.787C153.412 163.636 153.568 163.498 153.735 163.375L155.051 162.315C156.165 161.439 157.683 160.187 159.389 158.811C161.096 157.436 162.579 156.157 163.671 155.237L164.987 154.155C165.134 154.012 165.295 153.884 165.469 153.774Z" fill="#F5F5F5"/>
<path d="M129.78 149.355C129.815 149.408 125.687 152.281 120.568 155.776C115.448 159.272 111.255 162.062 111.22 162.009C111.184 161.956 115.308 159.083 120.432 155.588C125.555 152.093 129.744 149.303 129.78 149.355Z" fill="#F5F5F5"/>
<path d="M133.622 149.18C133.459 149.341 133.281 149.488 133.091 149.618L131.6 150.765L126.674 154.541L121.791 158.373L120.313 159.538C120.138 159.689 119.95 159.824 119.752 159.941C119.906 159.77 120.075 159.612 120.256 159.468C120.589 159.175 121.081 158.759 121.69 158.246C122.91 157.23 124.616 155.846 126.516 154.361C128.415 152.876 130.196 151.562 131.486 150.634C132.131 150.17 132.657 149.802 133.026 149.552C133.213 149.41 133.412 149.285 133.622 149.18Z" fill="#F5F5F5"/>
<path d="M71.6869 161.782C71.6474 161.796 71.606 161.805 71.564 161.808L71.2131 161.86L69.8532 162.044C68.6732 162.206 66.9668 162.447 64.87 162.807C59.4004 163.743 53.9966 165.029 48.6919 166.657C45.5862 167.611 42.6691 168.641 40.0458 169.661C37.7086 170.523 35.4313 171.538 33.2289 172.701C31.7503 173.494 30.3793 174.473 29.1493 175.614C28.9256 175.811 28.7458 176.003 28.5879 176.166C28.4299 176.328 28.2939 176.472 28.1931 176.604L27.9518 176.866C27.9261 176.897 27.8982 176.927 27.8684 176.954C27.8684 176.954 27.8684 176.915 27.9342 176.853L28.158 176.573C28.2545 176.45 28.3773 176.301 28.5352 176.135C28.6931 175.968 28.8686 175.767 29.0879 175.561C30.3028 174.389 31.6689 173.385 33.15 172.574C35.3493 171.387 37.6285 170.353 39.9713 169.482C42.6033 168.448 45.516 167.406 48.6261 166.455C53.9359 164.822 59.3515 163.555 64.8349 162.662C66.9405 162.325 68.6513 162.106 69.8357 161.97L71.1999 161.83L71.5553 161.799C71.5977 161.786 71.6423 161.78 71.6869 161.782Z" fill="#F5F5F5"/>
<path d="M180.941 138.97H180.761L180.231 138.883L178.204 138.532C176.449 138.234 173.887 137.832 170.716 137.45C162.454 136.426 154.112 136.214 145.808 136.82C136.083 137.582 127.433 139.518 121.243 141.033C118.142 141.804 115.646 142.474 113.922 142.947L111.935 143.486L111.417 143.622C111.359 143.641 111.298 143.654 111.237 143.661C111.293 143.635 111.352 143.614 111.413 143.6L111.921 143.442L113.895 142.86C115.615 142.36 118.107 141.664 121.204 140.876C127.398 139.321 136.052 137.372 145.8 136.592C154.116 135.982 162.473 136.215 170.742 137.288C173.918 137.691 176.471 138.121 178.23 138.445C179.108 138.602 179.787 138.747 180.248 138.835L180.775 138.944C180.831 138.947 180.887 138.956 180.941 138.97Z" fill="#F5F5F5"/>
<path d="M107.302 164.028C107.109 164.026 106.917 164.007 106.728 163.971C106.363 163.928 105.85 163.862 105.179 163.831C103.471 163.729 101.757 163.911 100.108 164.37C99.2096 164.632 98.3656 165.053 97.6164 165.614C97.0107 166.077 96.5036 166.656 96.125 167.318C95.7843 167.937 95.564 168.614 95.4758 169.315C95.4758 169.315 95.4758 169.262 95.4758 169.166C95.4733 169.02 95.4821 168.873 95.5021 168.728C95.5778 168.204 95.744 167.697 95.9934 167.23C96.3654 166.535 96.8778 165.926 97.498 165.439C98.2616 164.846 99.1288 164.401 100.055 164.125C101.728 163.658 103.471 163.495 105.201 163.643C105.724 163.683 106.244 163.755 106.758 163.858C106.945 163.895 107.128 163.952 107.302 164.028Z" fill="#F5F5F5"/>
<path d="M139.461 169.972C139.461 170.038 133.083 170.467 125.209 170.936C117.335 171.404 110.948 171.733 110.943 171.672C110.939 171.61 117.317 171.177 125.195 170.708C133.074 170.239 139.456 169.911 139.461 169.972Z" fill="#F5F5F5"/>
<path d="M67.695 175.263C67.6571 175.267 67.6189 175.267 67.581 175.263L67.2607 175.193C66.98 175.14 66.5764 175.013 66.0368 174.93C64.5247 174.649 62.9907 174.503 61.4528 174.492C59.1735 174.45 56.8972 174.676 54.671 175.166C51.9345 175.724 49.3245 176.781 46.9724 178.285C44.6654 179.856 42.6769 181.849 41.1118 184.159C39.8294 186.04 38.8248 188.097 38.1289 190.264C37.6588 191.726 37.3398 193.232 37.177 194.758C37.0936 195.297 37.098 195.722 37.0673 196.007L37.041 196.331C37.0455 196.368 37.0455 196.407 37.041 196.445C37.0344 196.407 37.0344 196.368 37.041 196.331V196.007C37.041 195.717 37.041 195.293 37.1068 194.749C37.2354 193.211 37.5295 191.691 37.9841 190.216C38.664 188.024 39.6615 185.944 40.9451 184.04C42.5096 181.682 44.5143 179.646 46.8496 178.044C49.2219 176.523 51.8584 175.46 54.6227 174.908C56.8675 174.426 59.162 174.215 61.4572 174.277C63.0029 174.309 64.5421 174.487 66.0544 174.807C66.594 174.904 66.9931 175.048 67.2739 175.114L67.5897 175.206L67.695 175.263Z" fill="#F5F5F5"/>
<path d="M228.651 144.782L223.259 156.17L220.364 157.966C220.049 158.075 219.784 158.295 219.618 158.584L218.689 160.962L221.483 161.339L222.053 160.147C222.603 160.345 223.201 160.366 223.763 160.209C224.326 160.052 224.826 159.725 225.194 159.271L233.428 146.508L228.651 144.782Z" fill="#FFBE9D"/>
<path d="M218.311 160.415C218.311 160.415 220.123 164.62 220.663 164.467C221.202 164.313 221.404 163.98 221.277 163.674C221.149 163.367 220.123 161.221 220.123 161.221C220.123 161.221 221.171 163.24 221.531 163.288C221.891 163.337 222.242 163.074 222.145 162.776C222.049 162.478 221.268 160.757 221.268 160.757C221.268 160.757 222.145 162.684 222.448 162.566C222.751 162.447 222.957 162.566 222.908 162.128C222.86 161.69 221.838 159.995 221.838 159.995L218.811 159.828L218.311 160.415Z" fill="#FFBE9D"/>
<path d="M234.345 218.205H234.301C232.59 217.885 228.361 216.755 226.036 213.189C224.488 210.811 224.374 207.649 224.282 205.113C223.931 195.293 223.29 170.782 223.106 163.503C223.067 162.686 222.711 161.917 222.115 161.357C221.519 160.797 220.728 160.49 219.909 160.501C219.091 160.512 218.309 160.839 217.727 161.415C217.146 161.99 216.811 162.769 216.793 163.586V168.04H215.916V163.59C215.933 162.543 216.359 161.543 217.102 160.803C217.845 160.063 218.847 159.642 219.896 159.627C220.946 159.613 221.959 160.007 222.722 160.727C223.485 161.446 223.937 162.434 223.983 163.481C224.167 170.76 224.808 195.271 225.154 205.091C225.242 207.522 225.352 210.544 226.769 212.721C228.247 214.99 231.103 216.715 234.419 217.346L257.511 217.127C260.507 216.509 262.775 215.572 264.823 212.843C265.902 211.402 266.683 209.475 267.284 206.786C268.547 201.149 268.508 195.183 268.473 189.415C268.373 185.292 268.496 181.168 268.841 177.059C269.039 175.127 269.363 173.117 270.385 171.466C271.355 169.906 273.289 168.544 275.255 169.276L274.952 170.099C273.522 169.578 271.943 170.629 271.131 171.943C270.206 173.432 269.903 175.333 269.714 177.164C269.372 181.242 269.25 185.336 269.35 189.428C269.385 195.245 269.425 201.254 268.144 206.996C267.512 209.812 266.683 211.84 265.512 213.382C263.292 216.352 260.853 217.355 257.616 218.012H257.532L234.345 218.205Z" fill="#263238"/>
<path d="M221.799 159.079C221.496 160.296 221.312 161.54 221.25 162.793C221.25 162.955 221.25 163.148 221.391 163.231C221.531 163.314 221.733 163.078 221.856 162.933C222.079 162.679 222.913 161.256 222.913 161.256C223.492 161.202 224.031 160.938 224.428 160.515C224.825 160.091 225.052 159.536 225.067 158.956" fill="#FFBE9D"/>
<path d="M225.067 158.956C225.083 159.041 225.083 159.129 225.067 159.214C225.047 159.456 224.987 159.693 224.891 159.915C224.74 160.256 224.51 160.557 224.22 160.791C223.841 161.091 223.385 161.279 222.904 161.334L222.97 161.295C222.702 161.733 222.417 162.241 222.093 162.745C222.04 162.819 221.992 162.894 221.93 162.968C221.869 163.043 221.821 163.1 221.755 163.17C221.688 163.25 221.597 163.308 221.496 163.336C221.435 163.342 221.373 163.328 221.32 163.296C221.267 163.265 221.226 163.217 221.202 163.161C221.147 162.99 221.133 162.808 221.163 162.631C221.163 162.469 221.185 162.311 221.198 162.158C221.243 161.614 221.316 161.073 221.417 160.537C221.5 160.077 221.588 159.709 221.658 159.46C221.681 159.326 221.724 159.196 221.786 159.074C221.78 159.209 221.759 159.343 221.724 159.473C221.68 159.731 221.61 160.099 221.544 160.555C221.478 161.01 221.408 161.562 221.364 162.171C221.364 162.324 221.342 162.482 221.334 162.64C221.312 162.786 221.323 162.936 221.364 163.078C221.391 163.13 221.439 163.165 221.465 163.156C221.528 163.13 221.583 163.09 221.628 163.038C221.68 162.981 221.737 162.911 221.79 162.845C221.843 162.779 221.893 162.711 221.939 162.64C222.264 162.145 222.558 161.65 222.816 161.203L222.838 161.164H222.882C223.328 161.117 223.753 160.948 224.11 160.677C224.391 160.459 224.619 160.181 224.777 159.863C224.911 159.574 225.008 159.269 225.067 158.956Z" fill="#EB996E"/>
<path d="M258.046 215.165L258.612 217.539C258.612 217.539 262.503 222.585 263.705 222.357C264.49 222.195 263.525 220.877 262.042 217.048L261.731 215.463L258.046 215.165Z" fill="#384EDD"/>
<path d="M263.862 221.595C263.856 221.62 263.846 221.644 263.832 221.665C263.791 221.73 263.733 221.783 263.665 221.818C263.559 221.876 263.439 221.902 263.318 221.893C263.16 221.879 263.009 221.823 262.88 221.731C262.183 221.171 261.528 220.562 260.919 219.909C260.297 219.263 259.711 218.583 259.164 217.872C258.958 217.6 258.791 217.377 258.686 217.219L258.559 217.035C258.533 216.996 258.519 216.97 258.524 216.97L258.572 217.027L258.708 217.202L259.204 217.841C259.642 218.376 260.239 219.098 260.958 219.856C261.565 220.506 262.211 221.117 262.893 221.687C262.995 221.771 263.118 221.825 263.249 221.843C263.38 221.862 263.513 221.844 263.634 221.792C263.728 221.749 263.807 221.681 263.862 221.595Z" fill="#263238"/>
<path d="M263.31 219.97C263.31 219.97 263.187 219.97 262.994 219.97C262.746 220.01 262.508 220.101 262.296 220.237C262.077 220.36 261.895 220.54 261.77 220.758C261.678 220.929 261.652 221.047 261.638 221.047C261.643 220.938 261.671 220.832 261.722 220.736C261.839 220.498 262.025 220.301 262.257 220.171C262.477 220.029 262.729 219.942 262.989 219.917C263.099 219.909 263.209 219.927 263.31 219.97Z" fill="#263238"/>
<path d="M259.629 218.778C259.629 218.778 259.669 218.607 259.699 218.34C259.739 217.982 259.67 217.62 259.502 217.302C259.341 216.98 259.081 216.717 258.761 216.553C258.62 216.488 258.473 216.437 258.322 216.4C258.363 216.393 258.404 216.393 258.445 216.4C258.556 216.418 258.664 216.452 258.765 216.5C259.108 216.656 259.387 216.925 259.555 217.262C259.727 217.595 259.79 217.974 259.735 218.344C259.718 218.454 259.692 218.563 259.656 218.668C259.652 218.706 259.643 218.743 259.629 218.778Z" fill="#263238"/>
<path d="M258.296 215.567C258.404 215.803 258.477 216.054 258.511 216.312C258.581 216.75 258.655 217.065 258.638 217.074C258.534 216.836 258.466 216.583 258.436 216.325C258.375 215.905 258.274 215.576 258.296 215.567Z" fill="#263238"/>
<path d="M262.112 217.363C262.112 217.385 261.888 217.363 261.63 217.442C261.371 217.521 261.191 217.6 261.16 217.582C261.283 217.471 261.435 217.396 261.599 217.368C261.766 217.315 261.944 217.314 262.112 217.363Z" fill="#263238"/>
<path d="M262.191 217.771C262.191 217.793 262.002 217.771 261.788 217.828C261.573 217.885 261.415 217.977 261.402 217.959C261.494 217.847 261.625 217.773 261.77 217.753C261.908 217.708 262.057 217.715 262.191 217.771Z" fill="#263238"/>
<path d="M262.503 218.279C262.357 218.265 262.21 218.265 262.064 218.279C261.931 218.321 261.803 218.377 261.682 218.445C261.721 218.381 261.774 218.326 261.837 218.284C261.9 218.242 261.972 218.215 262.046 218.204C262.123 218.182 262.204 218.177 262.283 218.19C262.362 218.203 262.437 218.233 262.503 218.279Z" fill="#263238"/>
<path d="M261.845 217.192C261.801 217.198 261.757 217.198 261.713 217.192C261.597 217.169 261.483 217.138 261.371 217.1C261.202 217.042 261.039 216.969 260.884 216.881C260.796 216.833 260.708 216.781 260.616 216.719C260.563 216.687 260.518 216.643 260.484 216.591C260.451 216.538 260.43 216.479 260.423 216.417C260.429 216.384 260.441 216.353 260.46 216.326C260.478 216.298 260.502 216.275 260.53 216.257C260.559 216.24 260.59 216.229 260.623 216.225C260.656 216.22 260.69 216.223 260.722 216.233C260.826 216.269 260.919 216.332 260.989 216.417C261.116 216.538 261.237 216.667 261.349 216.802C261.445 216.921 261.516 217.017 261.564 217.087C261.59 217.122 261.61 217.16 261.625 217.201C261.625 217.201 261.507 217.061 261.305 216.838C261.208 216.728 261.086 216.601 260.941 216.465C260.877 216.393 260.795 216.339 260.704 216.308C260.616 216.286 260.502 216.329 260.498 216.421C260.506 216.47 260.525 216.517 260.553 216.558C260.581 216.599 260.617 216.633 260.66 216.658C260.748 216.719 260.836 216.772 260.919 216.824C261.069 216.911 261.226 216.985 261.388 217.048C261.665 217.144 261.845 217.179 261.845 217.192Z" fill="#263238"/>
<path d="M261.638 217.145C261.634 217.105 261.634 217.066 261.638 217.026C261.638 216.948 261.638 216.838 261.665 216.702C261.683 216.541 261.724 216.383 261.788 216.234C261.826 216.143 261.878 216.059 261.941 215.984C261.974 215.935 262.023 215.898 262.08 215.881C262.136 215.863 262.197 215.866 262.253 215.888C262.298 215.923 262.332 215.971 262.351 216.025C262.369 216.08 262.372 216.138 262.358 216.194C262.341 216.291 262.313 216.385 262.274 216.475C262.204 216.622 262.109 216.757 261.994 216.873C261.919 216.951 261.837 217.021 261.748 217.083C261.687 217.127 261.647 217.149 261.643 217.145C261.638 217.14 261.774 217.035 261.954 216.838C262.058 216.721 262.144 216.59 262.209 216.448C262.245 216.364 262.27 216.276 262.283 216.186C262.295 216.144 262.294 216.1 262.282 216.059C262.269 216.018 262.245 215.982 262.213 215.953C262.143 215.91 262.055 215.953 261.994 216.037C261.936 216.106 261.888 216.183 261.849 216.264C261.787 216.404 261.743 216.552 261.717 216.702C261.701 216.851 261.674 216.999 261.638 217.145Z" fill="#263238"/>
<g opacity="0.4">
<path d="M258.612 217.539L258.34 216.4C258.34 216.4 259.292 216.576 259.537 217.276C259.685 217.665 259.749 218.079 259.726 218.494L261.796 220.723C261.796 220.723 262.318 219.707 263.257 219.953C263.257 219.953 263.998 221.578 263.976 221.985C263.955 222.392 263.476 222.344 263.31 222.27C262.626 221.871 262.001 221.378 261.454 220.807C260.357 219.681 259.142 218.24 258.612 217.539Z" fill="black"/>
</g>
<path d="M238.709 216.365V213.198L244.653 213.128L244.728 217.758L244.359 217.788C242.723 217.898 236.025 218.226 234.924 217.915C233.673 217.56 238.709 216.365 238.709 216.365Z" fill="#384EDD"/>
<g opacity="0.4">
<path d="M242.552 217.741C242.633 217.239 242.897 216.785 243.293 216.466C243.684 216.151 244.179 215.994 244.68 216.028L244.701 217.684L242.552 217.741Z" fill="black"/>
</g>
<g opacity="0.4">
<path d="M236.248 217.026C236.248 217.026 234.494 217.556 234.709 217.845C234.924 218.135 241.727 218.047 244.706 217.745V217.613L236.81 217.784C236.81 217.784 236.595 217.048 236.248 217.026Z" fill="black"/>
</g>
<path d="M244.776 217.622H244.675L244.381 217.644L243.302 217.705C242.39 217.749 241.131 217.793 239.736 217.81C238.341 217.828 237.104 217.81 236.169 217.81L235.09 217.78H234.796H234.691H235.125H236.204C237.117 217.78 238.398 217.78 239.771 217.78C241.144 217.78 242.403 217.723 243.333 217.692L244.416 217.653H244.811L244.776 217.622Z" fill="#263238"/>
<path d="M236.788 217.903C236.738 217.724 236.667 217.552 236.577 217.39C236.467 217.241 236.342 217.103 236.204 216.979C236.391 217.045 236.547 217.177 236.643 217.351C236.756 217.511 236.807 217.707 236.788 217.903Z" fill="#263238"/>
<path d="M238.529 216.978C238.529 216.978 238.429 216.886 238.336 216.751C238.244 216.615 238.192 216.497 238.209 216.488C238.227 216.479 238.31 216.575 238.398 216.711C238.486 216.847 238.547 216.965 238.529 216.978Z" fill="#263238"/>
<path d="M239.008 216.715C239.008 216.715 238.898 216.671 238.797 216.579C238.696 216.487 238.617 216.404 238.63 216.387C238.643 216.369 238.74 216.435 238.841 216.527C238.942 216.619 239.021 216.702 239.008 216.715Z" fill="#263238"/>
<path d="M239.301 216.15C239.203 216.187 239.099 216.202 238.994 216.194C238.823 216.194 238.683 216.194 238.683 216.163C238.683 216.133 238.819 216.124 238.99 216.12C239.161 216.115 239.301 216.15 239.301 216.15Z" fill="#263238"/>
<path d="M239.402 215.756C239.296 215.814 239.179 215.849 239.058 215.86C238.937 215.871 238.815 215.856 238.701 215.817C238.817 215.8 238.934 215.791 239.051 215.791C239.167 215.77 239.285 215.758 239.402 215.756Z" fill="#263238"/>
<path d="M238.319 216.461C238.193 216.482 238.064 216.482 237.937 216.461C237.799 216.445 237.662 216.416 237.529 216.373C237.448 216.354 237.37 216.323 237.297 216.281C237.251 216.258 237.216 216.217 237.2 216.168C237.193 216.139 237.195 216.109 237.205 216.082C237.215 216.055 237.233 216.031 237.257 216.014C237.403 215.938 237.571 215.916 237.731 215.951C237.892 215.986 238.035 216.077 238.135 216.207C238.193 216.281 238.237 216.366 238.262 216.457C238.262 216.522 238.262 216.562 238.262 216.562C238.223 216.444 238.163 216.335 238.086 216.238C237.999 216.139 237.885 216.067 237.757 216.032C237.612 215.986 237.455 215.999 237.319 216.067C237.262 216.115 237.284 216.185 237.354 216.225C237.422 216.261 237.494 216.29 237.569 216.312C237.697 216.355 237.829 216.387 237.964 216.408C238.196 216.452 238.319 216.448 238.319 216.461Z" fill="#263238"/>
<path d="M238.222 216.483C238.173 216.403 238.156 216.308 238.174 216.216C238.185 216.117 238.22 216.022 238.275 215.94C238.305 215.882 238.351 215.832 238.406 215.797C238.461 215.762 238.525 215.741 238.591 215.738C238.629 215.747 238.663 215.77 238.685 215.802C238.707 215.835 238.716 215.875 238.709 215.913C238.702 215.974 238.681 216.033 238.648 216.084C238.599 216.17 238.539 216.248 238.468 216.316C238.35 216.435 238.257 216.483 238.253 216.474C238.249 216.465 238.328 216.404 238.433 216.286C238.493 216.213 238.545 216.136 238.591 216.054C238.639 215.97 238.674 215.826 238.591 215.808C238.508 215.791 238.398 215.9 238.341 215.975C238.291 216.051 238.255 216.136 238.236 216.224C238.223 216.31 238.219 216.397 238.222 216.483Z" fill="#263238"/>
<path d="M244.649 216.001C244.649 216.001 244.478 216.001 244.21 216.001C243.86 216.045 243.529 216.184 243.254 216.404C242.985 216.631 242.782 216.926 242.666 217.258C242.583 217.512 242.574 217.696 242.561 217.696C242.552 217.657 242.552 217.617 242.561 217.578C242.57 217.468 242.589 217.36 242.618 217.254C242.724 216.91 242.93 216.605 243.21 216.378C243.493 216.149 243.838 216.009 244.201 215.975C244.311 215.965 244.421 215.965 244.53 215.975C244.571 215.976 244.611 215.985 244.649 216.001Z" fill="#263238"/>
<path d="M244 213.522C244.046 213.927 244.068 214.333 244.065 214.74C244.091 215.147 244.091 215.555 244.065 215.962C244.022 215.556 244 215.148 244 214.74C243.977 214.335 243.977 213.928 244 213.522Z" fill="#263238"/>
<path d="M241.797 217.171C241.51 217.24 241.216 217.273 240.92 217.267C240.626 217.286 240.332 217.267 240.043 217.21C240.043 217.188 240.433 217.21 240.92 217.21C241.407 217.21 241.793 217.149 241.797 217.171Z" fill="#263238"/>
<path d="M242.96 217.153C242.96 217.153 242.929 217.236 242.894 217.324C242.859 217.412 242.833 217.495 242.811 217.495C242.789 217.495 242.78 217.399 242.811 217.298C242.842 217.197 242.947 217.14 242.96 217.153Z" fill="#263238"/>
<path d="M243.394 216.588C243.394 216.588 243.368 216.667 243.311 216.728C243.254 216.789 243.188 216.833 243.175 216.816C243.162 216.798 243.175 216.741 243.258 216.68C243.342 216.619 243.381 216.588 243.394 216.588Z" fill="#263238"/>
<path d="M244.017 216.348C244.017 216.348 243.934 216.348 243.85 216.4C243.767 216.453 243.701 216.479 243.684 216.466C243.666 216.453 243.714 216.37 243.824 216.33C243.934 216.291 244.026 216.326 244.017 216.348Z" fill="#263238"/>
<path d="M244.465 216.22C244.465 216.22 244.439 216.273 244.39 216.291C244.342 216.308 244.294 216.313 244.285 216.291C244.276 216.269 244.311 216.238 244.36 216.22C244.408 216.203 244.456 216.203 244.465 216.22Z" fill="#263238"/>
<path d="M263.2 215.629L252.611 153.459L236.275 155.942L238.17 215.164L245.732 215.808L245.153 163.673L256.791 215.865L263.2 215.629Z" fill="#455A64"/>
<path d="M254.26 158.097L252.093 139.763L255.37 144.874L260.608 140.35L254.466 132.085C253.348 130.914 251.97 130.023 250.444 129.483C249.633 129.193 248.782 129.031 247.921 129.001C245.94 129.625 243.814 129.625 241.833 129.001C241.486 129.04 240.955 129.089 240.262 129.185C239.087 129.342 237.956 129.734 236.935 130.336C235.914 130.937 235.024 131.738 234.318 132.689L228.015 144.773L233.415 146.814L236.275 141.69L235.744 158.702L240.828 159.814L244.706 157.015L250.058 159.814L254.26 158.097Z" fill="#263238"/>
<path d="M236.555 135.273C236.612 135.273 236.555 138.107 236.428 141.594C236.301 145.08 236.143 147.91 236.082 147.905C236.02 147.901 236.082 145.076 236.213 141.585C236.345 138.094 236.498 135.273 236.555 135.273Z" fill="#455A64"/>
<path d="M251.725 136.391C251.944 137.6 252.091 138.821 252.163 140.048C252.317 141.267 252.4 142.494 252.413 143.723C252.189 142.514 252.035 141.292 251.953 140.065C251.806 138.846 251.73 137.619 251.725 136.391Z" fill="#455A64"/>
<path d="M243.219 113.54C244.05 113.308 244.909 113.19 245.772 113.189C246.204 113.19 246.632 113.278 247.03 113.447C247.428 113.616 247.788 113.864 248.088 114.175C248.375 114.621 248.704 115.039 249.071 115.423C249.593 115.835 250.422 115.971 250.597 116.61C250.773 117.25 250.08 117.876 250.128 118.555C250.203 118.937 250.378 119.292 250.637 119.584C250.764 119.73 250.856 119.904 250.905 120.092C250.954 120.28 250.958 120.476 250.917 120.666C250.808 120.96 250.514 121.148 250.369 121.428C250.145 121.866 250.325 122.379 250.255 122.856C250.176 123.203 249.999 123.52 249.746 123.77C249.493 124.019 249.173 124.192 248.825 124.266C248.125 124.402 247.406 124.402 246.706 124.266" fill="#263238"/>
<path d="M242.583 113.838C242.01 113.687 241.412 113.659 240.828 113.755C240.538 113.809 240.27 113.946 240.058 114.15C239.845 114.354 239.696 114.615 239.63 114.902C239.578 115.261 239.692 115.664 239.49 115.967C239.288 116.269 238.753 116.326 238.49 116.641C237.933 117.307 239.008 118.467 238.446 119.133C238.297 119.313 238.06 119.4 237.893 119.571C237.765 119.726 237.692 119.919 237.685 120.119C237.679 120.32 237.74 120.517 237.858 120.679C237.983 120.838 238.141 120.967 238.322 121.057C238.502 121.147 238.7 121.196 238.902 121.201C239.306 121.206 239.706 121.129 240.078 120.973C241.387 120.543 242.484 119.634 243.149 118.428C243.463 117.825 243.6 117.144 243.541 116.466C243.483 115.788 243.233 115.141 242.82 114.6" fill="#263238"/>
<path d="M247.996 118.353L248.154 129.864L242.377 129.982C242.276 129.317 242.061 126.728 242.061 126.728C242.061 126.728 239.639 126.597 239.372 124.218C239.24 123.062 239.165 120.657 239.126 118.485C239.103 117.327 239.535 116.207 240.33 115.364C241.124 114.52 242.218 114.021 243.377 113.973C243.97 113.949 244.563 114.044 245.119 114.253C245.675 114.462 246.183 114.78 246.614 115.188C247.045 115.597 247.389 116.087 247.626 116.631C247.864 117.175 247.989 117.76 247.996 118.353Z" fill="#FFBE9D"/>
<path d="M242.056 126.706C243.159 126.618 244.21 126.203 245.074 125.515C245.074 125.515 244.513 127.302 242.113 127.324L242.056 126.706Z" fill="#EB996E"/>
<path d="M240.21 119.887C240.217 119.976 240.26 120.059 240.328 120.117C240.396 120.175 240.484 120.204 240.574 120.198C240.617 120.197 240.66 120.187 240.7 120.169C240.74 120.152 240.776 120.126 240.805 120.094C240.835 120.062 240.858 120.025 240.873 119.984C240.889 119.943 240.896 119.9 240.894 119.856C240.885 119.768 240.842 119.686 240.774 119.628C240.706 119.57 240.619 119.541 240.53 119.545C240.486 119.546 240.443 119.555 240.403 119.573C240.363 119.591 240.327 119.616 240.297 119.648C240.267 119.68 240.244 119.718 240.229 119.759C240.214 119.8 240.207 119.843 240.21 119.887Z" fill="#263238"/>
<path d="M239.753 119.65C239.802 119.69 240.038 119.471 240.407 119.436C240.775 119.401 241.061 119.558 241.096 119.51C241.131 119.462 241.061 119.41 240.938 119.339C240.768 119.246 240.574 119.206 240.381 119.226C240.19 119.245 240.011 119.323 239.867 119.449C239.762 119.545 239.731 119.633 239.753 119.65Z" fill="#263238"/>
<path d="M243.899 119.667C243.907 119.756 243.949 119.839 244.017 119.897C244.085 119.955 244.173 119.984 244.263 119.978C244.307 119.978 244.35 119.968 244.39 119.951C244.43 119.933 244.466 119.908 244.496 119.876C244.526 119.844 244.549 119.806 244.564 119.765C244.579 119.724 244.585 119.68 244.583 119.637C244.574 119.548 244.531 119.466 244.463 119.408C244.396 119.35 244.308 119.321 244.219 119.326C244.175 119.327 244.132 119.337 244.093 119.354C244.053 119.372 244.017 119.398 243.987 119.43C243.957 119.461 243.934 119.499 243.919 119.54C243.904 119.58 243.897 119.624 243.899 119.667Z" fill="#263238"/>
<path d="M243.364 119.352C243.412 119.391 243.649 119.177 244.017 119.142C244.386 119.107 244.671 119.26 244.706 119.212C244.741 119.163 244.671 119.115 244.544 119.041C244.376 118.947 244.182 118.907 243.991 118.927C243.8 118.947 243.619 119.025 243.473 119.15C243.372 119.255 243.342 119.352 243.364 119.352Z" fill="#263238"/>
<path d="M242.306 122.204C242.108 122.161 241.904 122.145 241.701 122.156C241.604 122.156 241.517 122.156 241.495 122.085C241.476 121.989 241.488 121.89 241.53 121.801C241.591 121.564 241.661 121.319 241.732 121.061C241.932 120.433 242.079 119.79 242.17 119.138C241.928 119.75 241.731 120.38 241.583 121.021C241.517 121.28 241.451 121.529 241.39 121.766C241.346 121.884 241.346 122.015 241.39 122.134C241.405 122.166 241.429 122.194 241.458 122.215C241.487 122.237 241.521 122.251 241.556 122.256C241.609 122.262 241.662 122.262 241.714 122.256C241.913 122.264 242.112 122.247 242.306 122.204Z" fill="#263238"/>
<path d="M243.412 122.348C243.35 122.348 243.412 122.746 243.078 123.062C242.745 123.377 242.337 123.377 242.341 123.434C242.346 123.491 242.442 123.504 242.622 123.491C242.856 123.469 243.074 123.367 243.241 123.202C243.399 123.043 243.49 122.83 243.495 122.606C243.491 122.418 243.46 122.343 243.412 122.348Z" fill="#263238"/>
<path d="M243.127 117.933C243.171 118.03 243.53 117.933 243.969 117.933C244.408 117.933 244.763 118.025 244.811 117.933C244.859 117.841 244.763 117.797 244.614 117.714C244.415 117.616 244.196 117.563 243.973 117.561C243.75 117.556 243.528 117.606 243.328 117.705C243.175 117.802 243.105 117.885 243.127 117.933Z" fill="#263238"/>
<path d="M239.784 118.577C239.854 118.651 240.1 118.542 240.403 118.507C240.705 118.472 240.968 118.507 241.021 118.415C241.074 118.323 240.99 118.288 240.872 118.222C240.711 118.144 240.531 118.115 240.354 118.139C240.177 118.162 240.011 118.237 239.876 118.354C239.775 118.45 239.749 118.538 239.784 118.577Z" fill="#263238"/>
<path d="M247.369 120.228C247.408 120.228 248.961 119.58 249.071 121.214C249.18 122.848 247.518 122.62 247.513 122.576C247.509 122.532 247.369 120.228 247.369 120.228Z" fill="#FFBE9D"/>
<path d="M247.97 121.915C247.97 121.915 248 121.914 248.049 121.95C248.118 121.975 248.194 121.975 248.263 121.95C248.364 121.875 248.443 121.774 248.493 121.659C248.542 121.543 248.56 121.417 248.544 121.293C248.54 121.153 248.504 121.017 248.439 120.894C248.377 120.776 248.299 120.697 248.206 120.688C248.173 120.682 248.138 120.688 248.108 120.704C248.079 120.721 248.056 120.748 248.044 120.78C248.044 120.824 248.044 120.859 248.044 120.859C248.044 120.859 248.009 120.859 248.013 120.767C248.023 120.727 248.044 120.69 248.075 120.662C248.095 120.643 248.119 120.628 248.146 120.619C248.172 120.61 248.2 120.607 248.228 120.609C248.296 120.619 248.361 120.645 248.416 120.685C248.471 120.726 248.515 120.78 248.544 120.841C248.62 120.975 248.664 121.125 248.671 121.279C248.69 121.425 248.665 121.572 248.6 121.704C248.534 121.835 248.431 121.943 248.303 122.015C248.26 122.031 248.214 122.037 248.168 122.032C248.123 122.028 248.079 122.013 248.04 121.989C247.974 121.954 247.965 121.915 247.97 121.915Z" fill="#EB996E"/>
<path d="M241.824 114.096C242.014 113.844 242.251 113.63 242.521 113.466C242.837 113.283 243.192 113.178 243.557 113.159C244.294 113.09 245.038 113.158 245.75 113.36C246.461 113.563 247.065 114.034 247.434 114.674C247.698 115.183 247.772 115.804 248.18 116.212C248.509 116.536 249.027 116.689 249.215 117.114C249.549 117.867 248.549 118.73 248.873 119.488C248.95 119.611 249.004 119.748 249.031 119.891C249.028 119.979 248.999 120.064 248.948 120.135C248.896 120.206 248.824 120.26 248.742 120.29C248.577 120.348 248.403 120.373 248.228 120.364C247.614 120.364 246.864 120.29 246.605 119.729C246.346 119.168 246.684 118.529 246.333 118.086C245.982 117.644 245.517 117.854 245.096 117.609C244.917 117.506 244.752 117.381 244.605 117.237C244.326 117.222 244.051 117.172 243.785 117.088C243.446 116.991 243.157 116.769 242.978 116.466C242.793 116.129 242.793 115.691 242.539 115.419C242.284 115.147 241.719 115.099 241.583 114.718C241.551 114.602 241.557 114.479 241.6 114.368C241.644 114.256 241.722 114.16 241.824 114.096Z" fill="#263238"/>
<path d="M228.028 144.2L227.519 145.194C227.454 145.322 227.416 145.461 227.405 145.604C227.395 145.746 227.412 145.889 227.458 146.025C227.503 146.161 227.575 146.286 227.669 146.394C227.763 146.502 227.877 146.59 228.006 146.653L231.541 148.379C231.789 148.503 232.075 148.526 232.34 148.445C232.605 148.363 232.828 148.183 232.963 147.941L233.744 146.504L228.028 144.2Z" fill="#263238"/>
<path d="M264.13 130.363L260.906 131.178L260.726 130.346C260.611 129.939 260.637 129.505 260.801 129.115C260.825 129.046 260.84 128.974 260.844 128.9C260.617 128.259 260.343 127.636 260.024 127.035C259.77 126.518 260.024 126.159 260.191 126.373C260.48 126.745 261.375 128.401 261.586 128.528C261.796 128.655 261.533 127.77 261.533 127.77C260.906 125.887 260.735 125.624 261.064 125.493C261.393 125.361 262.38 128.143 262.38 128.143C262.38 128.143 262.248 127.748 262.542 127.613C262.836 127.477 263.051 127.849 263.051 127.849C262.976 127.652 263.266 127.569 263.266 127.569C264.012 127.543 264.143 130.385 264.143 130.385L260.906 131.178L261.257 142.347L260.081 141.09L256.133 144.331L260.081 147.936C260.492 148.283 260.978 148.532 261.5 148.661C262.023 148.791 262.569 148.799 263.095 148.685C263.958 148.506 264.722 148.009 265.234 147.293C265.747 146.577 265.972 145.695 265.863 144.822L264.13 130.363Z" fill="#FFBE9D"/>
<path d="M261.577 130.841C261.577 130.841 261.704 130.644 261.884 130.32C261.991 130.129 262.084 129.93 262.16 129.724C262.204 129.61 262.244 129.488 262.279 129.361C262.324 129.242 262.339 129.114 262.323 128.988C262.317 128.959 262.303 128.932 262.282 128.911C262.261 128.89 262.234 128.876 262.204 128.87C262.139 128.869 262.076 128.891 262.024 128.931C261.907 129.015 261.798 129.11 261.7 129.216C261.543 129.385 261.416 129.579 261.323 129.79L261.296 129.856L261.257 129.803C261.167 129.69 261.059 129.594 260.937 129.518C260.937 129.518 261.121 129.518 261.318 129.755H261.252C261.332 129.526 261.456 129.315 261.616 129.133C261.717 129.017 261.832 128.913 261.959 128.826C262.032 128.765 262.126 128.734 262.222 128.739C262.275 128.748 262.324 128.772 262.363 128.809C262.402 128.845 262.429 128.893 262.441 128.945C262.464 129.092 262.447 129.243 262.393 129.383C262.291 129.725 262.143 130.052 261.954 130.355C261.858 130.538 261.73 130.702 261.577 130.841Z" fill="#EB996E"/>
<path d="M262.459 128.301C262.515 128.497 262.55 128.698 262.564 128.901C262.586 129.103 262.612 129.339 262.643 129.554C262.649 129.679 262.667 129.804 262.696 129.926C262.726 130.04 262.845 130.119 262.919 130.057C262.994 129.996 263.016 129.847 263.029 129.72C263.042 129.593 263.029 129.457 263.029 129.335C263.029 129.089 263.029 128.866 263.029 128.678C263.019 128.476 263.03 128.273 263.064 128.073C263.1 128.273 263.117 128.475 263.117 128.678C263.117 128.866 263.117 129.089 263.117 129.339C263.117 129.462 263.117 129.593 263.117 129.729C263.122 129.809 263.11 129.889 263.083 129.964C263.056 130.04 263.014 130.108 262.959 130.167C262.919 130.194 262.873 130.208 262.825 130.208C262.777 130.208 262.731 130.194 262.691 130.167C262.622 130.119 262.572 130.047 262.551 129.965C262.521 129.836 262.504 129.704 262.498 129.571C262.481 129.335 262.463 129.116 262.446 128.914C262.429 128.71 262.433 128.504 262.459 128.301Z" fill="#EB996E"/>
<path d="M263.152 129.028C263.174 129.028 263.152 129.168 263.2 129.379C263.223 129.495 263.277 129.602 263.358 129.69C263.406 129.72 263.432 129.716 263.463 129.663C263.492 129.592 263.516 129.519 263.533 129.444C263.616 129.049 263.667 128.648 263.687 128.244C263.791 128.649 263.781 129.075 263.656 129.475C263.637 129.561 263.607 129.645 263.569 129.725C263.555 129.75 263.537 129.772 263.514 129.789C263.491 129.807 263.465 129.819 263.437 129.825C263.383 129.829 263.329 129.812 263.288 129.777C263.23 129.722 263.187 129.655 263.161 129.58C263.139 129.52 263.123 129.459 263.112 129.396C263.082 129.16 263.139 129.024 263.152 129.028Z" fill="#EB996E"/>
<path d="M260.608 140.057L254.931 144.783L255.019 144.879C255.335 145.225 255.775 145.433 256.243 145.459C256.711 145.485 257.171 145.327 257.524 145.019L260.665 142.277C260.925 142.049 261.091 141.732 261.129 141.389C261.167 141.045 261.075 140.699 260.871 140.42L260.608 140.057Z" fill="#263238"/>
<path d="M241.473 129.146L241.863 127.433C241.863 127.433 243.969 127.569 244.644 129.513C244.948 128.856 245.416 128.288 246.003 127.863C246.59 127.438 247.276 127.171 247.996 127.087L248.509 129.277L244.447 130.972L241.473 129.15" fill="#263238"/>
<path d="M233.423 146.727C232.581 146.375 231.758 145.979 230.958 145.54C230.122 145.174 229.306 144.764 228.515 144.31C230.263 144.866 231.917 145.681 233.423 146.727Z" fill="#455A64"/>
<path d="M260.27 139.991C260.139 140.295 259.963 140.577 259.748 140.827C259.269 141.46 258.733 142.046 258.147 142.579C257.56 143.115 256.924 143.595 256.247 144.012C255.976 144.197 255.681 144.344 255.37 144.45C255.33 144.384 256.642 143.644 258.002 142.4C259.362 141.156 260.213 139.938 260.27 139.991Z" fill="#455A64"/>
<path d="M244.644 129.514C244.657 129.604 244.657 129.695 244.644 129.785C244.644 129.987 244.644 130.223 244.671 130.56C244.671 131.266 244.697 132.234 244.715 133.416C244.715 135.856 244.75 139.176 244.776 142.842C244.802 146.508 244.776 149.85 244.776 152.268C244.776 153.455 244.776 154.423 244.75 155.128C244.75 155.443 244.75 155.702 244.728 155.903C244.761 155.909 244.792 155.927 244.813 155.954C244.834 155.98 244.844 156.014 244.841 156.048C244.839 156.082 244.823 156.114 244.798 156.137C244.773 156.16 244.74 156.173 244.706 156.173C244.672 156.173 244.639 156.16 244.614 156.137C244.589 156.114 244.573 156.082 244.57 156.048C244.568 156.014 244.578 155.98 244.599 155.954C244.62 155.927 244.65 155.909 244.684 155.903C244.684 155.702 244.684 155.443 244.658 155.124C244.658 154.423 244.631 153.45 244.614 152.268C244.614 149.828 244.579 146.512 244.557 142.842C244.535 139.172 244.557 135.856 244.557 133.416C244.557 132.234 244.579 131.266 244.587 130.56C244.587 130.245 244.587 129.987 244.587 129.785C244.597 129.693 244.616 129.602 244.644 129.514Z" fill="#455A64"/>
<path d="M244.232 128.866C244.232 128.866 244.166 128.835 244.065 128.866C243.965 128.896 243.872 129.001 243.772 129.19C243.509 129.652 243.359 130.17 243.333 130.701V130.964L243.149 130.775C242.271 129.855 241.433 129.22 241.473 129.168C242.17 129.535 242.794 130.027 243.315 130.618L243.118 130.692C243.146 130.125 243.329 129.576 243.649 129.106C243.763 128.936 243.921 128.778 244.087 128.782C244.254 128.787 244.245 128.861 244.232 128.866Z" fill="#455A64"/>
<path d="M248.048 127.127C248.29 127.795 248.476 128.482 248.606 129.181V129.247L248.549 129.291C248.184 129.54 247.772 129.803 247.329 130.066C246.886 130.329 246.412 130.578 246.013 130.775L245.86 130.85V130.684C245.862 130.202 245.72 129.731 245.452 129.33C245.254 129.037 245.092 128.892 245.109 128.892C245.127 128.892 245.311 128.984 245.548 129.273C245.871 129.678 246.052 130.179 246.061 130.697L245.912 130.605C246.311 130.394 246.754 130.167 247.228 129.882C247.702 129.597 248.079 129.365 248.443 129.129L248.399 129.238C248.227 128.545 248.11 127.839 248.048 127.127Z" fill="#455A64"/>
<path d="M245.311 134.363C245.311 134.363 245.289 134.451 245.311 134.543C245.333 134.635 245.416 134.7 245.517 134.635C245.618 134.569 245.592 134.472 245.517 134.407C245.443 134.341 245.368 134.363 245.355 134.332C245.342 134.302 245.416 134.214 245.583 134.262C245.633 134.277 245.678 134.304 245.715 134.341C245.752 134.377 245.779 134.423 245.794 134.472C245.809 134.539 245.804 134.608 245.778 134.671C245.752 134.734 245.707 134.787 245.649 134.823C245.594 134.863 245.528 134.885 245.46 134.885C245.392 134.885 245.326 134.863 245.272 134.823C245.232 134.79 245.2 134.749 245.18 134.701C245.159 134.654 245.15 134.603 245.153 134.551C245.175 134.372 245.302 134.332 245.311 134.363Z" fill="#455A64"/>
<path d="M245.474 141.835C245.474 141.835 245.452 141.923 245.474 142.015C245.495 142.106 245.579 142.172 245.68 142.106C245.781 142.041 245.754 141.944 245.68 141.879C245.605 141.813 245.531 141.831 245.517 141.804C245.504 141.778 245.579 141.682 245.745 141.734C245.796 141.748 245.842 141.775 245.878 141.812C245.915 141.849 245.942 141.894 245.956 141.944C245.972 142.011 245.966 142.08 245.94 142.143C245.914 142.206 245.869 142.259 245.811 142.295C245.757 142.335 245.691 142.357 245.623 142.357C245.555 142.357 245.489 142.335 245.434 142.295C245.394 142.262 245.363 142.221 245.342 142.173C245.321 142.126 245.312 142.075 245.316 142.023C245.338 141.844 245.465 141.804 245.474 141.835Z" fill="#455A64"/>
<path d="M245.513 150.117C245.535 150.143 245.513 150.209 245.513 150.297C245.513 150.384 245.614 150.459 245.719 150.389C245.824 150.318 245.789 150.226 245.719 150.165C245.649 150.104 245.574 150.117 245.557 150.091C245.539 150.064 245.618 149.968 245.789 150.016C245.839 150.032 245.883 150.06 245.919 150.098C245.955 150.135 245.982 150.181 245.996 150.231C246.009 150.297 246.003 150.365 245.977 150.427C245.951 150.489 245.908 150.543 245.852 150.58C245.795 150.617 245.729 150.637 245.662 150.636C245.595 150.636 245.529 150.615 245.474 150.577C245.433 150.544 245.401 150.502 245.381 150.453C245.361 150.405 245.354 150.353 245.359 150.301C245.377 150.13 245.504 150.091 245.513 150.117Z" fill="#455A64"/>
<path d="M231.774 143.881C231.713 143.881 231.594 143.561 231.506 143.14C231.419 142.72 231.405 142.365 231.467 142.352C231.528 142.339 231.647 142.672 231.73 143.097C231.813 143.521 231.835 143.881 231.774 143.881Z" fill="#F5F5F5"/>
<path d="M233.437 139.207C233.437 139.268 233.103 139.395 232.664 139.492C232.226 139.588 231.853 139.619 231.84 139.557C231.827 139.496 232.173 139.364 232.612 139.268C233.05 139.172 233.423 139.145 233.437 139.207Z" fill="#F5F5F5"/>
<path d="M234.59 141.87C234.638 141.913 234.494 142.141 234.274 142.373C234.055 142.605 233.836 142.768 233.792 142.724C233.748 142.68 233.888 142.457 234.108 142.22C234.327 141.983 234.546 141.826 234.59 141.87Z" fill="#F5F5F5"/>
<path d="M234.849 136.798C234.681 136.179 234.662 135.529 234.792 134.901C234.965 135.519 234.985 136.171 234.849 136.798Z" fill="#F5F5F5"/>
<path d="M238.196 132.554C237.592 132.703 236.962 132.703 236.358 132.554C236.652 132.447 236.968 132.409 237.279 132.445C237.589 132.407 237.904 132.445 238.196 132.554Z" fill="#F5F5F5"/>
<path d="M240.574 132.444C240.572 132.115 240.644 131.79 240.784 131.493C240.964 130.989 241.153 130.617 241.223 130.617C241.224 130.946 241.152 131.27 241.012 131.568C240.828 132.076 240.635 132.466 240.574 132.444Z" fill="#F5F5F5"/>
<path d="M239.683 137.713C239.63 137.744 239.394 137.411 239.161 136.968C238.929 136.526 238.784 136.145 238.841 136.114C238.898 136.084 239.13 136.421 239.363 136.863C239.595 137.306 239.74 137.682 239.683 137.713Z" fill="#F5F5F5"/>
<path d="M242.872 135.882C242.811 135.882 242.798 135.563 242.872 135.195C242.947 134.827 243.013 134.529 243.078 134.533C243.144 134.538 243.149 134.853 243.078 135.225C243.008 135.598 242.934 135.891 242.872 135.882Z" fill="#F5F5F5"/>
<path d="M242.499 139.062C242.499 139.128 242.214 139.215 241.841 139.264C241.468 139.312 241.157 139.299 241.153 139.237C241.148 139.176 241.438 139.084 241.811 139.036C242.184 138.988 242.491 139.005 242.499 139.062Z" fill="#F5F5F5"/>
<path d="M238.196 143.162C238.13 143.162 238.051 142.855 238.016 142.465C237.981 142.075 238.016 141.76 238.069 141.751C238.121 141.742 238.209 142.058 238.244 142.448C238.279 142.837 238.271 143.153 238.196 143.162Z" fill="#F5F5F5"/>
<path d="M241.754 144.375C241.802 144.414 241.583 144.765 241.262 145.155C240.942 145.544 240.644 145.825 240.596 145.785C240.547 145.746 240.767 145.396 241.087 145.01C241.407 144.625 241.705 144.318 241.754 144.375Z" fill="#F5F5F5"/>
<path d="M238.635 149.027C238.578 149.053 238.393 148.756 238.227 148.37C238.06 147.985 237.968 147.643 238.025 147.617C238.082 147.591 238.266 147.888 238.437 148.278C238.608 148.668 238.709 149.001 238.635 149.027Z" fill="#F5F5F5"/>
<path d="M242.679 149.522C242.741 149.522 242.723 149.899 242.635 150.337C242.548 150.775 242.429 151.125 242.368 151.112C242.306 151.099 242.324 150.735 242.412 150.293C242.499 149.85 242.618 149.509 242.679 149.522Z" fill="#F5F5F5"/>
<path d="M238.867 155.36C238.819 155.399 238.538 155.15 238.24 154.804C237.942 154.458 237.74 154.142 237.801 154.103C237.863 154.063 238.13 154.309 238.429 154.655C238.727 155.001 238.915 155.316 238.867 155.36Z" fill="#F5F5F5"/>
<path d="M239.073 157.585C239.073 157.647 238.736 157.752 238.297 157.822C237.858 157.892 237.494 157.896 237.481 157.822C237.468 157.748 237.823 157.651 238.262 157.581C238.701 157.511 239.073 157.52 239.073 157.585Z" fill="#F5F5F5"/>
<path d="M243.596 154.594C243.64 154.638 243.32 155.006 242.881 155.413C242.442 155.821 242.052 156.118 242.004 156.07C241.955 156.022 242.28 155.658 242.719 155.247C243.157 154.835 243.552 154.546 243.596 154.594Z" fill="#F5F5F5"/>
<path d="M239.911 151.357C239.977 151.357 239.999 151.576 239.959 151.83C239.92 152.084 239.845 152.268 239.784 152.268C239.723 152.268 239.701 152.049 239.736 151.795C239.771 151.541 239.85 151.348 239.911 151.357Z" fill="#F5F5F5"/>
<path d="M243.539 141.813C243.539 141.874 243.232 141.844 242.894 141.739C242.556 141.633 242.298 141.506 242.315 141.45C242.333 141.393 242.622 141.419 242.96 141.52C243.298 141.62 243.557 141.756 243.539 141.813Z" fill="#F5F5F5"/>
<path d="M246.597 139.5C246.536 139.191 246.549 138.871 246.636 138.567C246.719 138.059 246.838 137.656 246.904 137.665C246.964 137.977 246.949 138.298 246.86 138.602C246.776 139.097 246.658 139.5 246.597 139.5Z" fill="#F5F5F5"/>
<path d="M250.299 141.611C250.251 141.655 249.965 141.388 249.654 141.02C249.343 140.652 249.136 140.319 249.185 140.275C249.233 140.231 249.522 140.503 249.829 140.871C250.137 141.239 250.352 141.572 250.299 141.611Z" fill="#F5F5F5"/>
<path d="M248.013 143.403C248.01 143.71 247.931 144.011 247.781 144.279C247.597 144.717 247.399 145.085 247.342 145.063C247.345 144.757 247.425 144.455 247.575 144.187C247.755 143.732 247.956 143.381 248.013 143.403Z" fill="#F5F5F5"/>
<path d="M248.316 148.365C248.272 148.409 247.948 148.151 247.597 147.792C247.246 147.432 247 147.108 247.044 147.064C247.088 147.021 247.412 147.275 247.763 147.634C248.114 147.993 248.36 148.322 248.316 148.365Z" fill="#F5F5F5"/>
<path d="M251.128 148.602C251.067 148.602 251.097 148.208 251.203 147.752C251.308 147.297 251.435 146.937 251.496 146.951C251.558 146.964 251.527 147.345 251.426 147.8C251.325 148.256 251.189 148.615 251.128 148.602Z" fill="#F5F5F5"/>
<path d="M248.448 153.004C248.399 153.043 248.127 152.798 247.79 152.504C247.452 152.211 247.176 151.966 247.211 151.913C247.246 151.861 247.592 152.023 247.943 152.351C248.294 152.68 248.496 152.964 248.448 153.004Z" fill="#F5F5F5"/>
<path d="M248.628 155.707C248.667 155.75 248.399 156.044 247.983 156.289C247.566 156.535 247.176 156.618 247.154 156.561C247.132 156.504 247.469 156.324 247.864 156.092C248.259 155.86 248.584 155.65 248.628 155.707Z" fill="#F5F5F5"/>
<path d="M252.233 156.249C252.299 156.249 252.361 156.586 252.378 157.011C252.396 157.436 252.378 157.778 252.295 157.778C252.211 157.778 252.168 157.44 252.15 157.02C252.132 156.599 252.181 156.253 252.233 156.249Z" fill="#F5F5F5"/>
<path d="M250.917 153.008C250.815 152.608 250.785 152.193 250.83 151.782C250.801 151.371 250.849 150.958 250.97 150.564C251.072 150.963 251.102 151.377 251.058 151.786C251.089 152.199 251.041 152.614 250.917 153.008Z" fill="#F5F5F5"/>
<path d="M251.689 143.771C251.716 143.828 251.483 143.998 251.145 144.069C250.808 144.139 250.523 144.069 250.523 144.016C250.523 143.963 250.786 143.911 251.097 143.845C251.409 143.78 251.659 143.714 251.689 143.771Z" fill="#F5F5F5"/>
<path d="M250.43 134.415C250.496 135.079 250.406 135.75 250.167 136.373C250.092 136.046 250.092 135.706 250.167 135.379C250.178 135.041 250.268 134.711 250.43 134.415Z" fill="#F5F5F5"/>
<path d="M247.592 133.307C247.654 133.307 247.803 133.587 247.926 133.977C248.048 134.367 248.097 134.691 248.035 134.713C247.974 134.735 247.829 134.432 247.706 134.042C247.583 133.653 247.531 133.329 247.592 133.307Z" fill="#F5F5F5"/>
<path d="M248.864 130.916C248.891 130.968 248.544 131.192 248.062 131.354C247.775 131.477 247.457 131.506 247.154 131.437C247.154 131.371 247.531 131.271 247.996 131.135C248.461 130.999 248.838 130.855 248.864 130.916Z" fill="#F5F5F5"/>
<path d="M250.952 132.028C250.895 132.007 250.952 131.661 251.124 131.253C251.295 130.846 251.444 130.535 251.505 130.561C251.567 130.587 251.505 130.929 251.334 131.332C251.163 131.735 251.014 132.055 250.952 132.028Z" fill="#F5F5F5"/>
<path d="M255.186 134.464C255.15 134.516 254.786 134.297 254.378 133.978C253.97 133.658 253.677 133.356 253.716 133.307C253.756 133.259 254.115 133.478 254.523 133.798C254.931 134.118 255.225 134.416 255.186 134.464Z" fill="#F5F5F5"/>
<path d="M253.716 137.104C253.591 136.795 253.541 136.46 253.571 136.128C253.522 135.799 253.551 135.463 253.655 135.146C253.827 135.786 253.848 136.456 253.716 137.104Z" fill="#F5F5F5"/>
<path d="M255.177 140.307C255.177 140.368 254.839 140.39 254.435 140.355C254.032 140.32 253.703 140.237 253.712 140.175C253.72 140.114 254.049 140.088 254.453 140.127C254.857 140.166 255.186 140.241 255.177 140.307Z" fill="#F5F5F5"/>
<path d="M257.129 140.044C256.925 139.754 256.788 139.422 256.73 139.072C256.671 138.723 256.692 138.365 256.791 138.024C256.881 138.355 256.937 138.694 256.958 139.036C257.05 139.365 257.107 139.703 257.129 140.044Z" fill="#F5F5F5"/>
<path d="M256.769 142.837C256.769 142.899 256.506 143.004 256.151 143.074C255.795 143.144 255.497 143.148 255.484 143.074C255.471 142.999 255.751 142.907 256.107 142.837C256.462 142.767 256.76 142.776 256.769 142.837Z" fill="#F5F5F5"/>
<path d="M246.421 129.273C246.377 129.321 246.202 129.225 246.088 129.019C245.974 128.813 245.991 128.612 246.053 128.603C246.114 128.594 246.193 128.739 246.289 128.91C246.386 129.08 246.465 129.229 246.421 129.273Z" fill="#F5F5F5"/>
<path d="M247.645 128.905C247.588 128.936 247.448 128.765 247.329 128.529C247.211 128.292 247.158 128.091 247.215 128.051C247.272 128.012 247.412 128.192 247.531 128.428C247.649 128.665 247.702 128.879 247.645 128.905Z" fill="#F5F5F5"/>
<path d="M242.868 128.664C242.868 128.726 242.666 128.761 242.429 128.748C242.192 128.734 241.991 128.664 241.991 128.603C241.991 128.542 242.192 128.502 242.429 128.52C242.666 128.537 242.872 128.599 242.868 128.664Z" fill="#F5F5F5"/>
<path d="M250.628 120.999C250.628 120.999 250.58 120.999 250.501 120.999C250.38 120.959 250.265 120.905 250.158 120.837C249.958 120.712 249.786 120.547 249.655 120.351C249.523 120.156 249.435 119.935 249.395 119.702C249.364 119.397 249.315 119.095 249.246 118.796C249.2 118.647 249.106 118.518 248.978 118.428C248.831 118.338 248.669 118.273 248.5 118.235C248.3 118.192 248.106 118.121 247.926 118.025C247.735 117.9 247.592 117.715 247.518 117.499C247.36 117.096 247.351 116.623 247.11 116.339C246.579 115.725 245.474 116.339 244.842 115.607C244.652 115.288 244.522 114.938 244.456 114.573C244.34 114.223 244.092 113.931 243.764 113.761C243.437 113.59 243.055 113.553 242.701 113.658C242.552 113.713 242.405 113.776 242.262 113.846C242.262 113.846 242.262 113.807 242.355 113.754C242.456 113.679 242.569 113.618 242.688 113.575C242.911 113.493 243.15 113.466 243.386 113.495C243.622 113.524 243.847 113.608 244.043 113.741C244.321 113.928 244.531 114.198 244.644 114.512C244.713 114.85 244.838 115.174 245.013 115.471C245.151 115.592 245.313 115.682 245.488 115.736C245.664 115.791 245.848 115.808 246.031 115.787C246.247 115.789 246.462 115.808 246.675 115.844C246.915 115.888 247.133 116.011 247.294 116.194C247.601 116.597 247.588 117.07 247.733 117.42C247.788 117.598 247.901 117.752 248.053 117.858C248.214 117.946 248.387 118.011 248.566 118.051C248.758 118.096 248.941 118.175 249.106 118.283C249.263 118.4 249.379 118.564 249.435 118.752C249.502 119.062 249.545 119.377 249.562 119.694C249.593 119.91 249.667 120.117 249.779 120.304C249.892 120.491 250.04 120.655 250.216 120.784C250.479 120.933 250.637 120.981 250.628 120.999Z" fill="#455A64"/>
<path d="M241.797 215.165C241.793 215.118 241.793 215.071 241.797 215.025C241.797 214.915 241.797 214.779 241.797 214.587C241.797 214.206 241.762 213.667 241.736 212.979C241.688 211.564 241.622 209.545 241.539 207.057C241.363 202.047 241.126 195.153 240.863 187.531C240.6 179.91 240.455 172.998 240.424 167.997C240.424 165.496 240.424 163.472 240.424 162.075C240.424 161.387 240.424 160.844 240.424 160.463C240.424 160.288 240.424 160.152 240.424 160.025C240.419 159.978 240.419 159.931 240.424 159.885C240.431 159.931 240.431 159.978 240.424 160.025V160.463C240.424 160.844 240.424 161.387 240.424 162.075C240.446 163.485 240.468 165.504 240.503 167.992C240.578 172.994 240.762 179.897 241.012 187.527C241.262 195.157 241.495 202.055 241.622 207.053C241.683 209.554 241.727 211.578 241.745 212.975C241.745 213.662 241.745 214.201 241.745 214.587V215.003C241.767 215.055 241.785 215.109 241.797 215.165Z" fill="#263238"/>
<path d="M260.239 215.738C260.178 215.738 257.848 203.238 255.036 187.798C252.225 172.359 249.996 159.823 250.04 159.814C250.084 159.806 252.431 172.311 255.243 187.759C258.054 203.207 260.3 215.712 260.239 215.738Z" fill="#263238"/>
<path d="M245.456 163.433C245.456 163.433 245.373 163.49 245.193 163.472C244.944 163.429 244.72 163.295 244.565 163.095C244.357 162.8 244.222 162.459 244.171 162.101C244.087 161.716 244.008 161.291 243.943 160.84C243.825 160.074 243.754 159.302 243.732 158.527C243.702 158.206 243.714 157.882 243.767 157.563C243.837 157.563 243.899 159.026 244.166 160.809C244.236 161.247 244.307 161.685 244.377 162.057C244.413 162.39 244.521 162.711 244.693 162.999C244.817 163.182 244.999 163.318 245.21 163.385C245.364 163.428 245.456 163.411 245.456 163.433Z" fill="#263238"/>
<path d="M244.601 157.896C244.627 157.922 244.601 157.997 244.627 158.097C244.633 158.125 244.646 158.15 244.664 158.171C244.682 158.192 244.705 158.208 244.731 158.218C244.757 158.228 244.785 158.232 244.813 158.229C244.841 158.225 244.867 158.216 244.89 158.2C244.913 158.184 244.932 158.163 244.945 158.139C244.958 158.114 244.965 158.087 244.965 158.059C244.965 158.031 244.958 158.004 244.945 157.979C244.932 157.955 244.913 157.934 244.89 157.918C244.811 157.848 244.728 157.852 244.719 157.822C244.71 157.791 244.802 157.708 244.973 157.782C245.024 157.803 245.068 157.836 245.103 157.878C245.138 157.92 245.163 157.97 245.175 158.023C245.187 158.093 245.178 158.165 245.149 158.229C245.12 158.294 245.073 158.349 245.013 158.387C244.954 158.427 244.885 158.449 244.813 158.449C244.742 158.449 244.672 158.427 244.614 158.387C244.57 158.355 244.533 158.313 244.507 158.266C244.482 158.218 244.467 158.165 244.465 158.111C244.465 157.931 244.587 157.896 244.601 157.896Z" fill="#263238"/>
<path d="M312.765 217.591L286.62 217.875V152.215H312.765V217.591Z" fill="#384EDD"/>
<g opacity="0.3">
<path d="M312.765 217.591L286.62 217.875V152.215H312.765V217.591Z" fill="black"/>
</g>
<path d="M300.982 217.718L274.838 217.875V152.215H300.982V217.718Z" fill="#384EDD"/>
<path d="M295.985 159H281V175.872H295.985V159Z" fill="#EBEBEB"/>
<path d="M284.423 180.86C284.423 181.265 284.261 181.654 283.974 181.941C283.687 182.227 283.298 182.388 282.892 182.388C282.51 182.388 281.536 182.349 281.536 182.349C281.296 182.159 281.1 181.92 280.961 181.648C280.822 181.376 280.743 181.077 280.729 180.772C280.735 180.471 280.826 180.178 280.991 179.926C281.157 179.675 281.39 179.474 281.663 179.349C281.663 179.349 282.576 179.349 282.892 179.349C283.295 179.349 283.681 179.507 283.968 179.79C284.255 180.073 284.418 180.457 284.423 180.86Z" fill="#263238"/>
<path d="M281.87 182.388C282.715 182.388 283.401 181.704 283.401 180.86C283.401 180.015 282.715 179.331 281.87 179.331C281.024 179.331 280.339 180.015 280.339 180.86C280.339 181.704 281.024 182.388 281.87 182.388Z" fill="#455A64"/>
<path d="M290.002 180.86C290.002 181.265 289.841 181.654 289.554 181.941C289.267 182.227 288.878 182.388 288.472 182.388C288.09 182.388 287.116 182.349 287.116 182.349C286.876 182.159 286.68 181.92 286.541 181.648C286.402 181.376 286.322 181.077 286.309 180.772C286.315 180.471 286.406 180.178 286.571 179.926C286.736 179.675 286.969 179.474 287.243 179.349C287.243 179.349 288.156 179.349 288.472 179.349C288.875 179.349 289.261 179.507 289.548 179.79C289.835 180.073 289.998 180.457 290.002 180.86Z" fill="#263238"/>
<path d="M287.449 182.388C288.295 182.388 288.98 181.704 288.98 180.86C288.98 180.015 288.295 179.331 287.449 179.331C286.604 179.331 285.918 180.015 285.918 180.86C285.918 181.704 286.604 182.388 287.449 182.388Z" fill="#455A64"/>
<path d="M295.525 180.86C295.525 181.265 295.364 181.654 295.077 181.941C294.79 182.227 294.4 182.388 293.994 182.388C293.613 182.388 292.639 182.349 292.639 182.349C292.399 182.159 292.203 181.92 292.064 181.648C291.924 181.376 291.845 181.077 291.832 180.772C291.84 180.473 291.931 180.181 292.096 179.931C292.261 179.681 292.494 179.483 292.766 179.357C292.766 179.357 293.678 179.357 293.994 179.357C294.396 179.357 294.781 179.515 295.068 179.796C295.354 180.077 295.518 180.459 295.525 180.86Z" fill="#263238"/>
<path d="M294.503 180.86C294.503 181.162 294.413 181.458 294.245 181.709C294.077 181.96 293.838 182.156 293.558 182.272C293.278 182.388 292.971 182.418 292.674 182.359C292.377 182.3 292.104 182.154 291.89 181.941C291.676 181.727 291.53 181.454 291.471 181.158C291.412 180.861 291.442 180.554 291.558 180.275C291.674 179.995 291.87 179.757 292.122 179.589C292.373 179.421 292.669 179.331 292.972 179.331C293.173 179.331 293.372 179.371 293.558 179.447C293.744 179.524 293.913 179.637 294.055 179.779C294.197 179.921 294.31 180.089 294.387 180.275C294.464 180.46 294.503 180.659 294.503 180.86Z" fill="#455A64"/>
<path d="M297.087 214.472C297.087 214.472 297.087 214.428 297.087 214.34C297.087 214.253 297.087 214.126 297.087 213.964C297.087 213.622 297.087 213.136 297.087 212.51C297.087 211.231 297.087 209.387 297.056 207.052C297.056 202.383 297.026 195.782 297.004 187.999L297.109 188.104H279.312C279.286 188.131 279.527 187.894 279.426 187.999V195.305C279.426 197.683 279.426 199.996 279.426 202.225C279.426 206.684 279.426 210.81 279.426 214.459L279.334 214.371L292.275 214.419L295.859 214.441H296.802H297.131C297.131 214.441 297.03 214.441 296.824 214.441H295.894H292.332L279.334 214.489H279.242V214.397C279.242 210.749 279.242 206.623 279.242 202.164C279.242 199.935 279.242 197.622 279.242 195.244V188.012C279.141 188.109 279.378 187.863 279.356 187.89H297.153H297.258V187.99C297.258 195.8 297.219 202.444 297.205 207.113C297.205 209.435 297.205 211.274 297.179 212.545C297.179 213.162 297.179 213.644 297.179 213.981C297.179 214.135 297.179 214.253 297.179 214.345C297.155 214.392 297.124 214.435 297.087 214.472Z" fill="#263238"/>
<path d="M294.622 201.144C294.648 201.17 294.521 201.301 294.569 201.547C294.579 201.613 294.603 201.676 294.639 201.731C294.676 201.787 294.723 201.835 294.78 201.871C294.849 201.9 294.925 201.912 295 201.903C295.075 201.895 295.147 201.868 295.208 201.824C295.27 201.78 295.318 201.72 295.35 201.652C295.382 201.583 295.395 201.508 295.389 201.433C295.372 201.368 295.341 201.308 295.299 201.256C295.256 201.203 295.204 201.161 295.144 201.131C294.924 201.012 294.758 201.091 294.744 201.06C294.731 201.03 294.898 200.877 295.209 200.982C295.3 201.014 295.381 201.067 295.447 201.136C295.514 201.205 295.563 201.289 295.591 201.38C295.621 201.498 295.614 201.623 295.57 201.737C295.526 201.851 295.447 201.948 295.345 202.015C295.25 202.09 295.133 202.134 295.012 202.141C294.89 202.148 294.769 202.118 294.665 202.055C294.588 201.999 294.525 201.926 294.48 201.842C294.435 201.757 294.41 201.664 294.407 201.569C294.398 201.258 294.613 201.117 294.622 201.144Z" fill="#263238"/>
<path d="M288.746 167.413V167.614C288.746 167.995 288.693 168.337 288.585 168.64C288.481 168.94 288.331 169.198 288.138 169.412C287.944 169.624 287.715 169.787 287.451 169.901C287.186 170.013 286.895 170.068 286.576 170.068C286.254 170.068 285.96 170.013 285.694 169.901C285.43 169.787 285.199 169.624 285.003 169.412C284.81 169.198 284.659 168.94 284.552 168.64C284.447 168.337 284.395 167.995 284.395 167.614V167.413C284.395 167.032 284.447 166.69 284.552 166.387C284.659 166.084 284.809 165.827 285 165.615C285.194 165.401 285.423 165.238 285.687 165.126C285.954 165.012 286.248 164.955 286.569 164.955C286.888 164.955 287.18 165.012 287.444 165.126C287.71 165.238 287.941 165.401 288.134 165.615C288.328 165.827 288.478 166.084 288.585 166.387C288.693 166.69 288.746 167.032 288.746 167.413ZM287.529 167.614V167.406C287.529 167.16 287.508 166.943 287.464 166.756C287.423 166.567 287.362 166.409 287.28 166.281C287.198 166.154 287.096 166.058 286.976 165.994C286.857 165.928 286.722 165.895 286.569 165.895C286.409 165.895 286.27 165.928 286.152 165.994C286.033 166.058 285.934 166.154 285.854 166.281C285.775 166.409 285.714 166.567 285.673 166.756C285.635 166.943 285.615 167.16 285.615 167.406V167.614C285.615 167.858 285.635 168.075 285.673 168.264C285.714 168.451 285.775 168.609 285.854 168.739C285.937 168.869 286.037 168.967 286.155 169.033C286.276 169.099 286.416 169.132 286.576 169.132C286.728 169.132 286.864 169.099 286.982 169.033C287.101 168.967 287.2 168.869 287.28 168.739C287.362 168.609 287.423 168.451 287.464 168.264C287.508 168.075 287.529 167.858 287.529 167.614ZM290.53 166.302V170H289.375V166.302H290.53ZM289.307 165.348C289.307 165.184 289.366 165.05 289.484 164.945C289.603 164.84 289.757 164.788 289.946 164.788C290.135 164.788 290.289 164.84 290.407 164.945C290.526 165.05 290.585 165.184 290.585 165.348C290.585 165.512 290.526 165.647 290.407 165.751C290.289 165.856 290.135 165.909 289.946 165.909C289.757 165.909 289.603 165.856 289.484 165.751C289.366 165.647 289.307 165.512 289.307 165.348ZM292.458 164.75V170H291.303V164.75H292.458Z" fill="#384EDD"/>
</svg>
