<svg width="16" height="16" viewBox="0 0 16 16" fill="none" xmlns="http://www.w3.org/2000/svg">
<path d="M14.6666 6.16675H1.33325C1.05992 6.16675 0.833252 5.94008 0.833252 5.66675C0.833252 5.39341 1.05992 5.16675 1.33325 5.16675H14.6666C14.9399 5.16675 15.1666 5.39341 15.1666 5.66675C15.1666 5.94008 14.9399 6.16675 14.6666 6.16675Z" fill="#384EDD"/>
<path d="M5.33333 11.5H4C3.72667 11.5 3.5 11.2733 3.5 11C3.5 10.7267 3.72667 10.5 4 10.5H5.33333C5.60667 10.5 5.83333 10.7267 5.83333 11C5.83333 11.2733 5.60667 11.5 5.33333 11.5Z" fill="#384EDD"/>
<path d="M9.66667 11.5H7C6.72667 11.5 6.5 11.2733 6.5 11C6.5 10.7267 6.72667 10.5 7 10.5H9.66667C9.94 10.5 10.1667 10.7267 10.1667 11C10.1667 11.2733 9.94 11.5 9.66667 11.5Z" fill="#384EDD"/>
<path d="M11.7066 14.1666H4.29325C1.63992 14.1666 0.833252 13.3666 0.833252 10.7399V5.25992C0.833252 2.63325 1.63992 1.83325 4.29325 1.83325H11.6999C14.3533 1.83325 15.1599 2.63325 15.1599 5.25992V10.7333C15.1666 13.3666 14.3599 14.1666 11.7066 14.1666ZM4.29325 2.83325C2.19992 2.83325 1.83325 3.19325 1.83325 5.25992V10.7333C1.83325 12.7999 2.19992 13.1599 4.29325 13.1599H11.6999C13.7933 13.1599 14.1599 12.7999 14.1599 10.7333V5.25992C14.1599 3.19325 13.7933 2.83325 11.6999 2.83325H4.29325Z" fill="#384EDD"/>
</svg>
