<svg width="127" height="127" viewBox="0 0 127 127" fill="none" xmlns="http://www.w3.org/2000/svg">
<path d="M63.5002 126.3C98.1837 126.3 126.3 98.1837 126.3 63.5002C126.3 28.8167 98.1837 0.700195 63.5002 0.700195C28.8167 0.700195 0.700195 28.8167 0.700195 63.5002C0.700195 98.1837 28.8167 126.3 63.5002 126.3Z" fill="#17CE4E"/>
<path d="M55.182 94.3729C53.5743 94.3729 51.9666 93.7606 50.742 92.5328L26.9848 68.7756C24.5324 66.3232 24.5324 62.348 26.9848 59.8957C29.4371 57.4433 33.4123 57.4433 35.8647 59.8957L55.182 79.2129L91.135 43.2631C93.5873 40.8107 97.5625 40.8107 100.015 43.2631C102.467 45.7154 102.467 49.6907 100.015 52.143L59.6219 92.5328C58.3973 93.7606 56.7896 94.3729 55.182 94.3729Z" fill="white"/>
<path d="M115.31 66.6404C113.577 66.6404 112.17 65.2337 112.17 63.5004C112.17 49.1412 105.871 35.5827 94.8904 26.304C93.5653 25.1861 93.3989 23.2048 94.5199 21.8797C95.6377 20.5546 97.6191 20.3882 98.9442 21.5061C111.341 31.9811 118.45 47.2886 118.45 63.5004C118.45 65.2337 117.043 66.6404 115.31 66.6404Z" fill="#2AEE65"/>
<path d="M114.054 76.6882C115.788 76.6882 117.194 75.2824 117.194 73.5482C117.194 71.814 115.788 70.4082 114.054 70.4082C112.32 70.4082 110.914 71.814 110.914 73.5482C110.914 75.2824 112.32 76.6882 114.054 76.6882Z" fill="#2AEE65"/>
</svg>
