<svg width="63" height="63" viewBox="0 0 63 63" fill="none" xmlns="http://www.w3.org/2000/svg">
<circle cx="31.5" cy="31.5" r="31.5" fill="#DA2424" fill-opacity="0.2"/>
<path d="M47.0001 23.2168C46.9668 23.2168 46.9168 23.2168 46.8668 23.2168C38.0501 22.3335 29.2501 22.0001 20.5334 22.8835L17.1334 23.2168C16.4334 23.2835 15.8168 22.7835 15.7501 22.0835C15.6834 21.3835 16.1834 20.7835 16.8668 20.7168L20.2668 20.3835C29.1334 19.4835 38.1168 19.8335 47.1168 20.7168C47.8001 20.7835 48.3001 21.4001 48.2334 22.0835C48.1834 22.7335 47.6334 23.2168 47.0001 23.2168Z" fill="#DA2424"/>
<path d="M26.1668 21.5335C26.1001 21.5335 26.0334 21.5335 25.9501 21.5168C25.2834 21.4002 24.8168 20.7502 24.9334 20.0835L25.3001 17.9002C25.5668 16.3002 25.9334 14.0835 29.8168 14.0835H34.1834C38.0834 14.0835 38.4501 16.3835 38.7001 17.9168L39.0668 20.0835C39.1834 20.7668 38.7168 21.4168 38.0501 21.5168C37.3668 21.6335 36.7168 21.1668 36.6168 20.5002L36.2501 18.3335C36.0168 16.8835 35.9668 16.6002 34.2001 16.6002H29.8334C28.0668 16.6002 28.0334 16.8335 27.7834 18.3168L27.4001 20.4835C27.3001 21.1002 26.7668 21.5335 26.1668 21.5335Z" fill="#DA2424"/>
<path d="M37.35 49.9168H26.65C20.8333 49.9168 20.6 46.7001 20.4167 44.1001L19.3333 27.3168C19.2833 26.6335 19.8167 26.0335 20.5 25.9835C21.2 25.9501 21.7833 26.4668 21.8333 27.1501L22.9167 43.9335C23.1 46.4668 23.1667 47.4168 26.65 47.4168H37.35C40.85 47.4168 40.9167 46.4668 41.0833 43.9335L42.1667 27.1501C42.2167 26.4668 42.8167 25.9501 43.5 25.9835C44.1833 26.0335 44.7167 26.6168 44.6667 27.3168L43.5833 44.1001C43.4 46.7001 43.1667 49.9168 37.35 49.9168Z" fill="#DA2424"/>
<path d="M34.7666 40.75H29.2166C28.5332 40.75 27.9666 40.1833 27.9666 39.5C27.9666 38.8167 28.5332 38.25 29.2166 38.25H34.7666C35.4499 38.25 36.0166 38.8167 36.0166 39.5C36.0166 40.1833 35.4499 40.75 34.7666 40.75Z" fill="#DA2424"/>
<path d="M36.1666 34.0835H27.8333C27.1499 34.0835 26.5833 33.5168 26.5833 32.8335C26.5833 32.1502 27.1499 31.5835 27.8333 31.5835H36.1666C36.8499 31.5835 37.4166 32.1502 37.4166 32.8335C37.4166 33.5168 36.8499 34.0835 36.1666 34.0835Z" fill="#DA2424"/>
</svg>
