<svg width="48" height="48" viewBox="0 0 48 48" fill="none" xmlns="http://www.w3.org/2000/svg">
<circle cx="24" cy="24" r="24" fill="#384EDD" fill-opacity="0.1"/>
<path d="M24 30.75C23.59 30.75 23.25 30.41 23.25 30V29C23.25 28.59 23.59 28.25 24 28.25C24.41 28.25 24.75 28.59 24.75 29V30C24.75 30.41 24.41 30.75 24 30.75Z" fill="#384EDD"/>
<path d="M24 34.75C23.59 34.75 23.25 34.41 23.25 34V33C23.25 32.59 23.59 32.25 24 32.25C24.41 32.25 24.75 32.59 24.75 33V34C24.75 34.41 24.41 34.75 24 34.75Z" fill="#384EDD"/>
<path d="M14.0001 34.7501C13.9401 34.7501 13.8801 34.7401 13.8201 34.7301C13.4201 34.6301 13.1701 34.2201 13.2701 33.8201L14.2701 29.8201C14.3701 29.4201 14.7701 29.1701 15.1801 29.2701C15.5801 29.3701 15.8301 29.7801 15.7301 30.1801L14.7301 34.1801C14.6401 34.5201 14.3401 34.7501 14.0001 34.7501Z" fill="#384EDD"/>
<path d="M33.7526 34.5026C33.4126 34.5026 33.1126 34.2726 33.0226 33.9326L32.0226 29.9326C31.9226 29.5326 32.1626 29.1226 32.5726 29.0226C32.9726 28.9226 33.3826 29.1626 33.4826 29.5726L34.4826 33.5726C34.5826 33.9726 34.3426 34.3826 33.9326 34.4826C33.8726 34.4926 33.8126 34.5026 33.7526 34.5026Z" fill="#384EDD"/>
<path d="M31.14 17.3C31.14 17.6 30.89 17.84 30.6 17.84H17.53C17.23 17.84 16.99 17.59 16.99 17.3C16.99 17 17.24 16.76 17.53 16.76H18.27L18.55 15.45C18.81 14.17 19.35 13 21.51 13H26.6C28.76 13 29.31 14.17 29.57 15.44L29.85 16.75H30.59C30.89 16.75 31.14 17 31.14 17.3Z" fill="#384EDD"/>
<path d="M31.4499 21.4002C31.3399 20.2002 31.0199 18.9302 28.6899 18.9302H19.4299C17.0999 18.9302 16.7899 20.2102 16.6699 21.4002L16.2599 25.8202C16.2099 26.3702 16.3899 26.9202 16.7699 27.3402C17.1599 27.7602 17.6999 28.0002 18.2799 28.0002H19.6399C20.8199 28.0002 21.0399 27.3302 21.1899 26.8802L21.3399 26.4402C21.5099 25.9402 21.5499 25.8202 22.1999 25.8202H25.9199C26.5699 25.8202 26.5899 25.8902 26.7799 26.4402L26.9299 26.8802C27.0699 27.3302 27.2999 28.0002 28.4699 28.0002H29.8299C30.3999 28.0002 30.9499 27.7602 31.3399 27.3402C31.7199 26.9302 31.8999 26.3702 31.8499 25.8202L31.4499 21.4002ZM21.8799 22.9202H19.7099C19.4099 22.9202 19.1699 22.6702 19.1699 22.3802C19.1699 22.0902 19.4199 21.8402 19.7099 21.8402H21.8899C22.1899 21.8402 22.4299 22.0902 22.4299 22.3802C22.4299 22.6702 22.1799 22.9202 21.8799 22.9202ZM28.4099 22.9202H26.2299C25.9299 22.9202 25.6899 22.6702 25.6899 22.3802C25.6899 22.0902 25.9399 21.8402 26.2299 21.8402H28.4099C28.7099 21.8402 28.9499 22.0902 28.9499 22.3802C28.9499 22.6702 28.7099 22.9202 28.4099 22.9202Z" fill="#384EDD"/>
</svg>
