<svg width="328" height="277" viewBox="0 0 328 277" fill="none" xmlns="http://www.w3.org/2000/svg">
<g clip-path="url(#clip0_289_8050)">
<path d="M204.32 19.6001C204.32 19.6001 128.042 15.9493 66 57.7929C3.95759 99.6365 35.4408 246.12 56.6424 255.394C77.844 264.668 159.374 280.678 222.307 253.455C285.24 226.231 305.887 127.636 296.826 99.3263C287.766 71.0169 270.17 27.6442 204.32 19.6001Z" fill="#384EDD"/>
<path opacity="0.8" d="M204.32 19.6001C204.32 19.6001 128.042 15.9493 66 57.7929C3.95759 99.6365 35.4408 246.12 56.6424 255.394C77.844 264.668 159.374 280.678 222.307 253.455C285.24 226.231 305.887 127.636 296.826 99.3263C287.766 71.0169 270.17 27.6442 204.32 19.6001Z" fill="white"/>
<g opacity="0.3">
<path d="M80.1064 180.249C79.7312 178.006 76.8304 173.79 76.8304 173.784C76.8304 173.779 74.5904 176.521 74.484 176.715C73.112 178.931 71.7848 183.994 73.7 186.199C74.0296 186.557 74.4319 186.841 74.8804 187.034C75.3289 187.227 75.8135 187.324 76.3026 187.319C76.7916 187.314 77.274 187.206 77.7182 187.004C78.1624 186.801 78.5583 186.508 78.88 186.144C80.2968 184.681 80.4256 182.161 80.1064 180.249Z" fill="black"/>
<path d="M91.6592 170.731C90.7408 168.748 87.1176 165.646 86.8264 165.402C88.6138 163.355 90.2619 161.194 91.76 158.931C92.6448 157.618 93.4904 156.266 94.3248 154.904C94.0392 155.579 93.7648 156.189 93.7648 156.278C93.0368 158.771 93.1096 164.034 95.5456 165.635C95.9575 165.893 96.4199 166.064 96.9026 166.134C97.3854 166.204 97.8777 166.173 98.3475 166.042C98.8172 165.911 99.2538 165.684 99.6289 165.375C100.004 165.066 100.309 164.683 100.524 164.25C101.504 162.444 100.955 159.978 100.138 158.217C99.32 156.455 96.2736 153.729 95.456 153.026C95.7752 152.472 96.0944 151.973 96.408 151.447C97.9032 148.915 99.3872 146.378 100.922 143.94C101.482 143.076 102.042 142.25 102.602 141.419C102.344 142.023 102.137 142.527 102.114 142.616C101.381 145.103 101.454 150.344 103.89 151.967C104.301 152.226 104.763 152.395 105.246 152.465C105.728 152.536 106.22 152.505 106.689 152.374C107.159 152.244 107.595 152.018 107.971 151.71C108.346 151.403 108.652 151.02 108.868 150.588C109.848 148.776 109.299 146.311 108.482 144.549C107.664 142.788 104.909 140.328 103.946 139.486C104.55 138.655 105.15 137.824 105.771 137.037C106.202 136.483 106.589 135.979 107.054 135.475L108.398 133.974C109.282 133.048 110.195 132.084 111.086 131.204C111.696 130.589 112.295 130.012 112.894 129.425C112.334 130.278 111.31 131.968 111.214 132.118C110.094 134.472 109.383 139.658 111.539 141.63C111.907 141.947 112.338 142.184 112.804 142.326C113.271 142.468 113.762 142.511 114.247 142.452C114.731 142.393 115.197 142.235 115.616 141.986C116.034 141.738 116.395 141.405 116.674 141.009C117.918 139.347 117.755 136.849 117.234 134.987C116.641 132.938 113.673 129.447 113.314 129.026C114.306 128.068 115.286 127.137 116.221 126.256C116.915 125.619 117.582 125.015 118.231 124.439L117.234 122.921C116.523 123.58 115.79 124.273 115.022 125.01C114.009 125.985 112.945 127.043 111.858 128.14C110.649 127.296 109.391 126.522 108.09 125.824C108.65 123.702 108.14 119.481 108.09 118.938C109.456 118.678 110.783 118.439 112.043 118.234L113.975 117.93L112.922 116.323L111.741 116.539C110.352 116.794 108.874 117.093 107.362 117.426C107.154 116.905 105.463 112.661 103.918 111.165C102.518 109.814 100.35 108.478 98.3176 108.783C97.8334 108.84 97.3665 108.996 96.9473 109.243C96.5282 109.489 96.1661 109.82 95.8847 110.214C95.6032 110.608 95.4086 111.056 95.3135 111.529C95.2185 112.002 95.225 112.49 95.3328 112.96C96.0664 115.775 101.028 117.597 103.649 117.752C103.8 117.752 105.486 117.675 106.55 117.608C105.934 117.741 105.329 117.869 104.696 118.013C103.436 118.295 102.193 118.617 100.849 118.955L98.9056 119.509C98.2504 119.686 97.584 119.952 96.912 120.173C95.372 120.727 93.8432 121.337 92.3088 121.996C92.0568 120.888 91.0992 117.054 89.9176 115.503C88.736 113.952 86.804 112.307 84.7264 112.307C84.2389 112.29 83.7533 112.375 83.3011 112.556C82.8489 112.737 82.4403 113.01 82.1017 113.357C81.7632 113.705 81.5023 114.119 81.3361 114.572C81.1699 115.026 81.102 115.509 81.1368 115.991C81.4336 118.877 86.0592 121.425 88.624 121.968C88.7808 122.002 90.668 122.19 91.704 122.273C90.7856 122.677 89.8672 123.076 88.9544 123.52C86.3168 124.788 83.6848 126.151 81.0528 127.503L78.6336 128.722C78.5496 128.334 77.5136 123.736 76.1864 121.99C75.0048 120.445 73.0728 118.799 70.9952 118.794C70.5079 118.777 70.0225 118.862 69.5706 119.043C69.1187 119.224 68.7104 119.497 68.3723 119.845C68.0342 120.192 67.7738 120.606 67.6082 121.06C67.4427 121.514 67.3755 121.997 67.4112 122.478C67.7024 125.364 72.328 127.913 74.8928 128.456C75.0832 128.5 77.7936 128.766 78.488 128.799C76.7072 129.691 74.932 130.566 73.14 131.359C70.7278 132.439 68.2474 133.365 65.7144 134.129C65.6752 133.946 64.5944 129.143 63.256 127.353C62.08 125.808 60.1424 124.157 58.0704 124.157C57.5829 124.138 57.097 124.222 56.6444 124.402C56.1918 124.582 55.7827 124.854 55.4439 125.202C55.1051 125.549 54.8442 125.963 54.6782 126.417C54.5123 126.871 54.445 127.354 54.4808 127.835C54.772 130.727 59.3976 133.275 61.9624 133.818C62.164 133.863 65.0816 134.145 65.6136 134.162C65.4624 134.201 65.3168 134.262 65.1712 134.306C62.6057 135.005 59.9818 135.474 57.3312 135.708C55.8752 135.857 54.4696 135.918 53.1032 135.951C52.9968 135.037 52.4704 130.854 51.4232 129.115C50.376 127.375 48.6848 125.603 46.624 125.375C46.1415 125.305 45.6494 125.336 45.1798 125.466C44.7102 125.597 44.2736 125.823 43.8985 126.132C43.5234 126.44 43.2182 126.823 43.0027 127.256C42.7873 127.689 42.6664 128.162 42.648 128.644C42.6144 131.547 46.932 134.583 49.4184 135.403C49.5528 135.447 50.9808 135.752 52.0224 135.957C51.4064 135.957 50.768 135.957 50.1744 135.957C47.9344 135.957 45.924 135.78 44.1264 135.624C43.1072 135.53 42.1832 135.425 41.3264 135.32C40.7664 134.472 38.3808 131.093 36.6784 130.046C34.976 128.999 32.6128 128.179 30.6752 128.938C30.2142 129.095 29.7919 129.347 29.4359 129.677C29.0799 130.007 28.7981 130.407 28.6089 130.852C28.4198 131.297 28.3275 131.776 28.3381 132.259C28.3487 132.741 28.4619 133.216 28.6704 133.652C29.992 136.239 35.2392 136.976 37.8264 136.561C38.0504 136.522 41.4888 135.58 41.4608 135.536L41.4272 135.486C42.2504 135.608 43.1408 135.724 44.1152 135.835C45.9128 136.029 47.9456 136.228 50.1744 136.3C52.5732 136.402 54.976 136.365 57.3704 136.19C60.0556 136.01 62.7189 135.591 65.328 134.937L65.4232 134.91C64.6896 135.364 62.696 136.688 62.5504 136.81C60.5568 138.472 57.6952 142.904 58.8152 145.58C59.0151 146.02 59.3064 146.414 59.6701 146.736C60.0338 147.058 60.4618 147.301 60.9265 147.449C61.3911 147.597 61.882 147.646 62.3672 147.594C62.8524 147.542 63.3212 147.39 63.7432 147.148C65.5632 146.173 66.4816 143.824 66.784 141.901C67.12 139.741 65.8264 135.181 65.72 134.821C68.359 134.094 70.9462 133.195 73.4648 132.129C74.932 131.514 76.3936 130.849 77.8552 130.168C77.2336 130.577 76.6848 130.949 76.612 131.01C74.6184 132.672 71.7568 137.104 72.8768 139.779C73.0739 140.217 73.3613 140.609 73.7205 140.93C74.0797 141.251 74.5028 141.494 74.9626 141.644C75.4225 141.794 75.9089 141.846 76.3907 141.799C76.8724 141.752 77.3388 141.606 77.76 141.369C79.5856 140.4 80.504 138.045 80.8064 136.129C81.1088 134.212 80.084 130.273 79.7984 129.242C80.3584 128.976 80.9184 128.716 81.4784 128.445C84.144 127.148 86.7928 125.846 89.436 124.644C90.3656 124.223 91.3008 123.841 92.236 123.453C91.676 123.819 91.228 124.129 91.1608 124.184C89.1672 125.846 86.3056 130.278 87.4256 132.954C87.6248 133.395 87.9157 133.79 88.2793 134.112C88.6429 134.435 89.0711 134.678 89.536 134.826C90.0009 134.974 90.4921 135.023 90.9775 134.971C91.463 134.918 91.9319 134.765 92.3536 134.522C94.1736 133.547 95.092 131.198 95.3944 129.276C95.6968 127.353 94.7728 123.808 94.4368 122.578C95.4056 122.212 96.3688 121.841 97.3208 121.531C97.976 121.331 98.592 121.093 99.264 120.927L101.224 120.406C102.478 120.118 103.772 119.813 105.004 119.564C105.861 119.387 106.684 119.232 107.507 119.071C106.578 119.481 104.769 120.323 104.629 120.412C102.711 121.679 101.154 123.413 100.11 125.447C99.8895 125.581 99.6815 125.733 99.488 125.902C99.1157 126.213 98.8138 126.599 98.602 127.033C98.3901 127.468 98.2729 127.942 98.2581 128.424C98.2434 128.906 98.3313 129.386 98.5161 129.832C98.701 130.279 98.9787 130.682 99.3312 131.015C101.51 132.96 106.667 131.769 108.935 130.461C109.07 130.384 110.425 129.392 111.276 128.755C110.834 129.204 110.402 129.636 109.954 130.107C109.064 131.032 108.202 131.979 107.272 132.993L105.962 134.528C105.514 135.026 105.11 135.636 104.674 136.19C103.694 137.48 102.758 138.838 101.874 140.228C101.056 139.458 98.1104 136.766 96.2736 136.117C94.4368 135.469 91.8944 135.154 90.164 136.278C89.7475 136.53 89.3892 136.865 89.1125 137.262C88.8358 137.66 88.6469 138.111 88.5582 138.585C88.4694 139.06 88.4827 139.548 88.5973 140.017C88.7119 140.486 88.9252 140.926 89.2232 141.308C91.0768 143.563 96.3576 143.159 98.7992 142.217C98.9504 142.156 100.625 141.286 101.538 140.788C100.978 141.624 100.457 142.45 99.9416 143.325C98.4464 145.824 97.0128 148.394 95.5736 150.959C95.1312 151.746 94.6832 152.521 94.2352 153.297C93.9496 153.02 90.5168 149.746 88.4392 149.02C86.5912 148.372 84.06 148.056 82.3296 149.186C81.9131 149.438 81.5548 149.773 81.2781 150.171C81.0014 150.568 80.8125 151.019 80.7238 151.494C80.635 151.968 80.6483 152.456 80.7629 152.925C80.8775 153.394 81.0908 153.834 81.3888 154.217C83.2424 156.466 88.5232 156.061 90.9648 155.12C91.1496 155.048 93.5576 153.79 94.1512 153.458C93.1712 155.175 92.1744 156.876 91.1216 158.516C89.7138 160.733 88.1611 162.858 86.4736 164.876C86.3392 164.748 82.772 161.313 80.6496 160.571C78.8016 159.923 76.2704 159.607 74.54 160.732C74.1235 160.983 73.7652 161.318 73.4885 161.716C73.2118 162.114 73.0229 162.564 72.9342 163.039C72.8454 163.514 72.8587 164.001 72.9733 164.471C73.0879 164.94 73.3012 165.38 73.5992 165.762C75.4528 168.017 80.7336 167.612 83.1752 166.671C83.3656 166.593 85.9752 165.241 86.4064 164.959C86.3112 165.081 86.2216 165.208 86.1208 165.324C84.3728 167.303 82.45 169.124 80.3752 170.765C79.2552 171.69 78.1352 172.504 76.9816 173.274C76.3824 172.571 73.6216 169.396 71.7736 168.488C69.9256 167.579 67.5288 167.053 65.6864 167.989C65.2461 168.19 64.8532 168.48 64.533 168.84C64.2128 169.2 63.9724 169.623 63.8274 170.081C63.6823 170.538 63.6357 171.021 63.6907 171.498C63.7456 171.974 63.9009 172.434 64.1464 172.848C65.7424 175.285 71.0344 175.457 73.5656 174.787C73.7056 174.753 75.0608 174.233 76.0464 173.828C75.5312 174.172 75.0104 174.532 74.512 174.848C72.6472 176.039 70.8664 177.019 69.2816 177.872C68.3744 178.349 67.5456 178.764 66.7672 179.147C65.8152 178.753 61.9568 177.23 59.952 177.285C57.9472 177.341 55.5168 177.944 54.3128 179.618C54.0165 180.001 53.805 180.441 53.6923 180.91C53.5795 181.38 53.5679 181.867 53.6582 182.341C53.7485 182.815 53.9388 183.265 54.2166 183.662C54.4944 184.058 54.8534 184.392 55.2704 184.642C57.8184 186.083 62.5952 183.822 64.5328 182.072C64.7008 181.922 67.036 179.257 66.9912 179.235H66.9296C67.6856 178.886 68.4976 178.498 69.3712 178.061C70.9784 177.241 72.7872 176.299 74.68 175.141C76.7408 173.918 78.7266 172.575 80.6272 171.119C82.7648 169.504 84.7515 167.701 86.5632 165.734L86.6248 165.662C86.2664 166.432 85.3424 168.632 85.292 168.809C84.564 171.302 84.6368 176.537 87.0672 178.161C87.479 178.419 87.941 178.588 88.4233 178.659C88.9057 178.729 89.3975 178.698 89.8669 178.568C90.3364 178.438 90.7729 178.211 91.1483 177.903C91.5236 177.596 91.8293 177.213 92.0456 176.781C93.0256 174.958 92.4768 172.493 91.6592 170.731Z" fill="black"/>
<path d="M52.6776 136.384C52.6776 136.328 49.3176 137.448 49.0936 137.547C46.7192 138.655 42.7824 142.145 43.1464 145.032C43.2245 145.507 43.4024 145.96 43.6686 146.362C43.9348 146.765 44.2834 147.108 44.6918 147.369C45.1003 147.63 45.5595 147.803 46.0399 147.878C46.5203 147.952 47.0112 147.927 47.4808 147.802C49.4968 147.342 51.0144 145.309 51.8152 143.542C52.7504 141.486 52.6776 136.389 52.6776 136.384Z" fill="black"/>
</g>
<g opacity="0.3">
<path d="M200.282 19.2452C201.699 21.0346 206.291 23.3559 206.297 23.3559C206.302 23.3559 206.924 19.8989 206.93 19.6773C207.058 17.0846 205.765 12.0044 203.01 10.9795C202.548 10.8219 202.059 10.7621 201.573 10.804C201.086 10.8458 200.615 10.9885 200.188 11.2226C199.761 11.4566 199.389 11.777 199.096 12.1627C198.802 12.5484 198.594 12.991 198.485 13.4615C197.964 15.4448 199.078 17.7273 200.282 19.2452Z" fill="black"/>
<path d="M194.766 33.079C196.536 34.3809 201.218 35.3781 201.593 35.4612C201.011 38.107 200.612 40.7891 200.4 43.4887C200.26 45.062 200.17 46.6465 200.103 48.242C200.025 47.5107 199.946 46.857 199.93 46.7684C199.37 44.231 196.754 39.6716 193.831 39.4057C193.345 39.3741 192.857 39.4443 192.4 39.6116C191.943 39.7789 191.526 40.0395 191.177 40.3766C190.829 40.7137 190.556 41.1196 190.376 41.568C190.197 42.0164 190.115 42.4972 190.135 42.979C190.135 45.0288 191.815 46.9346 193.4 48.0869C194.985 49.2392 198.966 50.1921 200.025 50.4248C200.025 51.0342 199.974 51.6436 199.958 52.2585C199.874 55.1947 199.795 58.1198 199.638 60.9895C199.582 62.0034 199.487 62.995 199.398 63.9922C199.33 63.344 199.263 62.7956 199.246 62.7125C198.686 60.1807 196.077 55.6213 193.148 55.3498C192.662 55.3183 192.174 55.3884 191.717 55.5557C191.259 55.723 190.843 55.9837 190.494 56.3207C190.146 56.6578 189.873 57.0638 189.693 57.5121C189.513 57.9605 189.431 58.4413 189.452 58.9231C189.452 60.9729 191.132 62.8787 192.717 64.0365C194.302 65.1944 197.902 66.0476 199.151 66.3246C199.028 67.3439 198.91 68.3633 198.742 69.3383C198.614 70.0087 198.541 70.6568 198.373 71.3161C198.205 71.9754 198.07 72.6291 197.925 73.2773C197.594 74.5071 197.264 75.7869 196.911 76.978C196.67 77.8145 196.424 78.6012 196.183 79.399C196.25 78.3907 196.34 76.4184 196.329 76.2522C196.155 73.6651 194.279 68.7677 191.434 68.0641C190.958 67.9592 190.464 67.9549 189.986 68.0515C189.508 68.1481 189.055 68.3434 188.658 68.6247C188.262 68.906 187.929 69.2669 187.683 69.6838C187.436 70.1008 187.282 70.5645 187.229 71.0446C186.932 73.0723 188.298 75.2052 189.676 76.5846C191.194 78.1026 195.483 79.7424 196.021 79.9419C195.612 81.2604 195.203 82.5346 194.8 83.7368C194.501 84.6232 194.208 85.4726 193.921 86.2852L195.534 87.1439C195.836 86.2298 196.144 85.2714 196.458 84.2575C196.878 82.9224 197.298 81.4875 197.712 80.0139C199.183 80.1785 200.662 80.258 202.142 80.2521C202.702 82.3739 205.177 85.842 205.502 86.2852C204.426 87.166 203.379 88.0026 202.371 88.7837C201.839 89.1992 201.33 89.5815 200.826 89.9693L202.506 90.8723L203.441 90.1244C204.533 89.2435 205.681 88.274 206.851 87.2713C207.282 87.6314 210.827 90.551 212.905 91.1493C214.792 91.6701 217.34 91.8141 218.992 90.5953C219.39 90.3156 219.724 89.9561 219.972 89.5404C220.22 89.1246 220.377 88.6618 220.432 88.1821C220.488 87.7024 220.441 87.2166 220.294 86.7561C220.147 86.2957 219.904 85.8709 219.58 85.5096C217.575 83.3878 212.334 84.1467 209.965 85.2547C209.825 85.3212 208.386 86.1965 207.49 86.7616C207.966 86.3517 208.43 85.9528 208.918 85.5207C209.886 84.6786 210.822 83.8033 211.835 82.8725C212.306 82.4016 212.787 81.9307 213.269 81.4543C213.75 80.9779 214.215 80.4349 214.697 79.9253C215.783 78.7175 216.825 77.4433 217.844 76.1414C218.594 76.9724 221.305 79.8976 223.097 80.7009C224.889 81.5042 227.381 82.0249 229.201 81.0443C229.637 80.8275 230.021 80.5224 230.33 80.1489C230.639 79.7753 230.865 79.3417 230.993 78.8762C231.121 78.4107 231.149 77.9237 231.075 77.4468C231.001 76.9699 230.826 76.5139 230.562 76.1082C228.882 73.7094 223.612 73.6761 221.098 74.413C220.941 74.4573 219.194 75.1886 218.247 75.6096C218.852 74.8174 219.462 74.0307 220.056 73.2108C221.736 70.8452 223.416 68.4021 225.051 65.97L226.58 63.754C226.849 64.0587 229.99 67.632 231.995 68.5018C233.782 69.2995 236.279 69.8258 238.099 68.8397C238.535 68.6241 238.921 68.3199 239.23 67.9469C239.539 67.574 239.765 67.1407 239.894 66.6754C240.022 66.21 240.05 65.7231 239.975 65.2465C239.9 64.7698 239.725 64.3141 239.46 63.9091C237.78 61.5103 232.51 61.4771 229.996 62.2139C229.806 62.2693 227.297 63.3219 226.675 63.621C227.795 61.9923 228.915 60.3801 230.125 58.8345C231.715 56.7406 233.442 54.7512 235.294 52.879C235.417 53.0175 238.682 56.757 240.737 57.6545C242.523 58.4522 245.021 58.9785 246.841 57.9979C247.277 57.7811 247.661 57.476 247.97 57.1025C248.279 56.7289 248.505 56.2953 248.633 55.8298C248.761 55.3643 248.789 54.8773 248.715 54.4004C248.641 53.9235 248.466 53.4675 248.202 53.0618C246.522 50.663 241.246 50.6297 238.738 51.3666C238.536 51.422 235.842 52.5577 235.378 52.8014C235.484 52.6906 235.585 52.5687 235.697 52.4635C237.599 50.6378 239.66 48.9822 241.857 47.5163C243.066 46.6908 244.27 45.9706 245.452 45.3003C246.012 46.0537 248.476 49.4719 250.234 50.5023C251.993 51.5328 254.345 52.2807 256.26 51.5051C256.718 51.3386 257.135 51.0783 257.484 50.7414C257.834 50.4044 258.107 49.9983 258.287 49.5497C258.466 49.101 258.548 48.6199 258.527 48.1378C258.506 47.6556 258.382 47.1833 258.164 46.7517C256.781 44.1867 251.522 43.5773 248.946 44.0371C248.806 44.0371 247.406 44.4693 246.393 44.785C246.953 44.4859 247.485 44.1701 248.006 43.8986C249.966 42.8627 251.825 42.0372 253.477 41.317C254.418 40.9126 255.274 40.5691 256.086 40.2589C256.999 40.7242 260.718 42.5635 262.722 42.6743C264.727 42.7851 267.202 42.3807 268.535 40.8184C268.864 40.4618 269.113 40.0406 269.265 39.5823C269.418 39.1241 269.471 38.6391 269.422 38.1591C269.372 37.6791 269.22 37.2148 268.977 36.7967C268.734 36.3786 268.404 36.016 268.009 35.7327C265.59 34.0707 260.639 35.9377 258.562 37.5221C258.382 37.6606 255.829 40.1204 255.874 40.1481H255.93C255.146 40.4361 254.306 40.7519 253.398 41.1176C251.718 41.799 249.848 42.5912 247.86 43.5884C245.708 44.6307 243.621 45.7999 241.61 47.0897C239.344 48.5244 237.211 50.1559 235.238 51.9649L235.17 52.0314C235.59 51.289 236.699 49.1783 236.766 49.0065C237.707 46.5855 238.077 41.3558 235.792 39.5387C235.404 39.2462 234.957 39.0381 234.482 38.9277C234.007 38.8174 233.514 38.8074 233.035 38.8983C232.556 38.9893 232.101 39.1792 231.701 39.4556C231.301 39.732 230.964 40.0888 230.713 40.5026C229.593 42.22 229.918 44.7241 230.584 46.5468C231.334 48.6021 234.683 51.987 234.952 52.2585C232.99 54.1473 231.157 56.1628 229.464 58.2916C228.473 59.5325 227.515 60.8067 226.569 62.0975C226.91 61.4438 227.213 60.8566 227.246 60.7679C228.182 58.347 228.557 53.1227 226.266 51.3056C225.879 51.0133 225.433 50.8052 224.958 50.6949C224.483 50.5846 223.991 50.5746 223.512 50.6656C223.033 50.7566 222.579 50.9465 222.179 51.2229C221.78 51.4992 221.444 51.8559 221.193 52.2696C220.073 53.987 220.398 56.4911 221.064 58.3137C221.73 60.1364 224.536 63.1058 225.286 63.8537C224.928 64.3523 224.564 64.8454 224.211 65.344C222.498 67.7428 220.806 70.1472 219.07 72.4518C218.46 73.2662 217.827 74.0473 217.2 74.8285C217.502 74.2745 217.76 73.7537 217.788 73.6761C218.723 71.2552 219.093 66.0309 216.808 64.2083C216.42 63.9158 215.973 63.7077 215.498 63.5973C215.023 63.487 214.53 63.477 214.051 63.568C213.572 63.6589 213.117 63.8488 212.717 64.1252C212.317 64.4017 211.98 64.7584 211.729 65.1722C210.609 66.8896 210.939 69.3937 211.606 71.2164C212.272 73.039 214.803 75.7204 215.694 76.64C215.022 77.4212 214.355 78.2023 213.672 78.9336C213.19 79.4156 212.765 79.9142 212.255 80.3795L210.794 81.7645C209.83 82.6177 208.839 83.4986 207.882 84.3019C207.215 84.8559 206.571 85.4099 205.927 85.9251C206.543 85.1218 207.719 83.5263 207.803 83.3822C208.867 81.3578 209.392 79.0982 209.326 76.8173C209.454 76.5968 209.561 76.3649 209.646 76.1248C209.822 75.675 209.9 75.1934 209.876 74.7116C209.851 74.2298 209.725 73.7584 209.504 73.3283C209.283 72.8981 208.973 72.5188 208.594 72.2151C208.215 71.9114 207.776 71.69 207.305 71.5654C204.449 70.8895 200.501 74.3797 199.146 76.5957C199.062 76.7287 198.35 78.2577 197.919 79.2051C198.087 78.6012 198.255 78.014 198.418 77.3935C198.754 76.1581 199.05 74.9226 199.375 73.5875C199.51 72.9393 199.644 72.2856 199.778 71.6208C199.913 70.956 200.002 70.258 200.114 69.571C200.35 67.9699 200.512 66.3412 200.635 64.6903C201.727 64.9783 205.614 65.9423 207.557 65.6321C209.5 65.3218 211.869 64.3966 212.838 62.5851C213.08 62.1667 213.231 61.7027 213.28 61.223C213.33 60.7433 213.277 60.2586 213.125 59.8005C212.973 59.3424 212.725 58.921 212.398 58.5637C212.07 58.2064 211.671 57.9212 211.225 57.7265C208.503 56.6185 204.068 59.4937 202.382 61.4771C202.276 61.6045 201.229 63.1391 200.669 64.031C200.736 63.0393 200.809 62.0532 200.842 61.0449C200.943 58.1475 200.949 55.2058 200.971 52.2751C200.971 51.3776 200.971 50.4857 201.01 49.5882C201.397 49.6935 205.994 50.9344 208.173 50.591C210.105 50.2807 212.479 49.3555 213.448 47.544C213.691 47.1258 213.843 46.6617 213.893 46.1818C213.943 45.7019 213.89 45.2169 213.738 44.7586C213.586 44.3002 213.338 43.8787 213.01 43.5215C212.682 43.1643 212.282 42.8794 211.835 42.6854C209.114 41.5774 204.678 44.4526 202.993 46.436C202.87 46.5855 201.363 48.8348 201.01 49.422C201.044 47.4498 201.089 45.4886 201.218 43.5496C201.378 40.9348 201.709 38.3329 202.209 35.7604C202.388 35.8102 207.182 37.1288 209.41 36.7742C211.342 36.464 213.722 35.5388 214.691 33.7272C214.935 33.3091 215.086 32.845 215.136 32.365C215.186 31.8851 215.133 31.4002 214.981 30.9418C214.829 30.4834 214.581 30.0619 214.253 29.7047C213.925 29.3475 213.525 29.0626 213.078 28.8686C210.357 27.7606 205.922 30.6359 204.236 32.6192C204.102 32.7799 202.489 35.1953 202.226 35.6551C202.254 35.5055 202.27 35.3504 202.304 35.2008C202.877 32.6351 203.679 30.1248 204.701 27.6997C205.261 26.3535 205.849 25.0959 206.465 23.8882C207.333 24.2206 211.314 25.7164 213.353 25.6111C215.391 25.5058 217.771 24.8577 218.953 23.1624C219.237 22.7735 219.436 22.33 219.536 21.8605C219.637 21.391 219.637 20.9059 219.537 20.4363C219.437 19.9667 219.238 19.5231 218.955 19.1339C218.671 18.7447 218.308 18.4185 217.889 18.1764C215.307 16.797 210.581 19.157 208.688 20.9464C208.582 21.0461 207.646 22.1486 206.974 22.963C207.26 22.409 207.534 21.855 207.826 21.3453C208.884 19.4118 209.97 17.7111 210.95 16.2097C211.51 15.3566 212.037 14.6031 212.535 13.8995C213.56 13.7887 217.687 13.2957 219.418 12.2929C221.148 11.2902 222.99 9.60604 223.231 7.57286C223.306 7.09579 223.278 6.60858 223.149 6.14289C223.021 5.6772 222.795 5.24346 222.486 4.86986C222.177 4.49627 221.792 4.19117 221.356 3.97442C220.92 3.75767 220.443 3.6341 219.955 3.61176C217.021 3.5619 213.924 7.81108 213.078 10.2598C213.006 10.4758 212.244 13.9217 212.3 13.9162H212.362C211.863 14.581 211.342 15.3012 210.788 16.1322C209.78 17.6113 208.649 19.301 207.546 21.2123C206.333 23.2658 205.243 25.3875 204.281 27.5667C203.191 29.999 202.321 32.5223 201.682 35.1067V35.2008C201.621 34.3532 201.363 31.9876 201.324 31.8048C200.764 29.273 198.154 24.7136 195.231 24.4422C194.744 24.4106 194.256 24.4809 193.798 24.6485C193.34 24.816 192.923 25.0771 192.573 25.4147C192.224 25.7523 191.951 26.1589 191.771 26.6079C191.591 27.0569 191.509 27.5384 191.53 28.021C191.513 30.0209 193.193 31.9212 194.766 33.079Z" fill="black"/>
<path d="M245.626 44.7075C245.654 44.7518 248.073 42.1646 248.207 41.9873C249.758 39.8932 251.511 34.9515 249.792 32.5693C249.495 32.1868 249.12 31.8703 248.692 31.6406C248.263 31.4108 247.791 31.2729 247.305 31.2358C246.819 31.1987 246.33 31.2632 245.871 31.4252C245.412 31.5872 244.993 31.843 244.64 32.176C243.089 33.5388 242.747 36.054 242.904 37.9708C243.089 40.2644 245.626 44.7019 245.626 44.7075Z" fill="black"/>
</g>
<path d="M213.829 153.513L167.707 130.478L214.618 37.9873L260.74 61.0226L213.829 153.513Z" fill="#384EDD" stroke="#263238" stroke-miterlimit="10"/>
<path d="M250.503 70.0803C249.77 69.7148 249.116 69.2097 248.58 68.5938C248.044 67.978 247.637 67.2635 247.381 66.4914C247.125 65.7193 247.026 64.9048 247.089 64.0946C247.152 63.2844 247.376 62.4945 247.748 61.7703C247.867 61.5455 247.997 61.3273 248.14 61.1165L221.68 47.9092C221.597 48.1502 221.498 48.3853 221.383 48.6128C220.638 50.0724 219.338 51.1795 217.768 51.6907C216.198 52.2018 214.487 52.0751 213.011 51.3384C212.895 51.2823 212.783 51.2194 212.675 51.1501L177.25 121.093L177.602 121.248C179.078 121.985 180.197 123.271 180.714 124.824C181.23 126.378 181.102 128.07 180.358 129.53C180.24 129.758 180.108 129.979 179.96 130.189L206.442 143.413C206.527 143.173 206.626 142.938 206.739 142.71C207.109 141.984 207.62 141.338 208.243 140.809C208.865 140.279 209.587 139.876 210.368 139.623C211.148 139.37 211.971 139.271 212.79 139.333C213.609 139.395 214.407 139.616 215.139 139.984C215.368 140.1 215.589 140.231 215.8 140.377L251.214 70.3573C250.971 70.2811 250.734 70.1885 250.503 70.0803ZM209.181 104.805C207.378 103.904 205.886 102.494 204.893 100.753C203.9 99.0132 203.451 97.0207 203.602 95.028C203.754 93.0352 204.499 91.1317 205.744 89.558C206.989 87.9844 208.678 86.8113 210.597 86.187C212.516 85.5627 214.579 85.5153 216.525 86.0508C218.471 86.5863 220.213 87.6807 221.531 89.1955C222.848 90.7103 223.682 92.5776 223.927 94.5612C224.172 96.5448 223.817 98.5558 222.906 100.34C221.684 102.732 219.552 104.546 216.978 105.383C214.404 106.221 211.6 106.013 209.181 104.805Z" fill="white" stroke="#263238" stroke-linecap="round" stroke-linejoin="round"/>
<path d="M213.185 153.712L169.858 125.873L226.614 38.9453L269.941 66.7838L213.185 153.712Z" fill="#384EDD" stroke="#263238" stroke-miterlimit="10"/>
<path d="M258.774 74.6949C257.388 73.8039 256.416 72.4048 256.071 70.8051C255.727 69.2054 256.038 67.5359 256.938 66.1633C257.082 65.9523 257.237 65.7488 257.402 65.5539L232.527 49.5654C232.415 49.7959 232.29 50.0197 232.152 50.2358C231.708 50.9173 231.133 51.5055 230.459 51.9669C229.786 52.4283 229.026 52.7537 228.225 52.9245C227.424 53.0954 226.597 53.1083 225.791 52.9625C224.985 52.8167 224.216 52.5152 223.528 52.075C223.422 52.0086 223.321 51.9255 223.214 51.8534L180.369 117.563C180.481 117.624 180.593 117.685 180.699 117.757C181.389 118.198 181.985 118.769 182.451 119.439C182.917 120.108 183.245 120.861 183.415 121.656C183.586 122.451 183.596 123.272 183.445 124.071C183.294 124.869 182.985 125.631 182.536 126.311C182.393 126.525 182.238 126.73 182.071 126.926L206.946 142.909C207.059 142.679 207.185 142.455 207.322 142.239C208.223 140.868 209.638 139.907 211.255 139.568C212.872 139.228 214.559 139.537 215.946 140.427C216.159 140.57 216.364 140.723 216.562 140.887L259.446 75.066C259.215 74.9553 258.991 74.8314 258.774 74.6949ZM213.896 104.794C212.2 103.705 210.869 102.144 210.07 100.306C209.272 98.4692 209.042 96.439 209.41 94.4726C209.777 92.5061 210.727 90.6918 212.137 89.259C213.547 87.8262 215.355 86.8393 217.332 86.4231C219.309 86.007 221.367 86.1802 223.245 86.921C225.122 87.6618 226.736 88.9368 227.881 90.5848C229.026 92.2327 229.652 94.1797 229.678 96.1793C229.705 98.179 229.131 100.141 228.03 101.819C226.554 104.067 224.236 105.644 221.586 106.201C218.935 106.759 216.169 106.253 213.896 104.794Z" fill="white" stroke="#263238" stroke-linecap="round" stroke-linejoin="round"/>
<path d="M212.339 153.862L173.318 120.356L241.694 42.043L280.71 75.5434L212.339 153.862Z" fill="#384EDD" stroke="#263238" stroke-miterlimit="10"/>
<path d="M268.541 81.8477C267.871 81.2766 267.332 80.5705 266.96 79.7767C266.588 78.9829 266.392 78.1197 266.385 77.2449C266.377 76.37 266.559 75.5037 266.917 74.7039C267.275 73.904 267.802 73.1891 268.462 72.607L246.062 53.3721C245.92 53.584 245.764 53.7875 245.598 53.9815C245.061 54.5937 244.408 55.0953 243.675 55.4576C242.942 55.8199 242.145 56.0358 241.328 56.0929C240.511 56.15 239.69 56.0473 238.913 55.7905C238.136 55.5337 237.418 55.1279 236.8 54.5964C236.699 54.5078 236.61 54.4191 236.52 54.3305L184.894 113.57C184.994 113.647 185.101 113.719 185.196 113.808C185.866 114.379 186.405 115.085 186.777 115.879C187.149 116.673 187.345 117.536 187.352 118.411C187.36 119.286 187.178 120.152 186.82 120.952C186.461 121.752 185.935 122.467 185.274 123.049L207.674 142.284C207.818 142.072 207.973 141.869 208.139 141.674C208.712 141.004 209.424 140.464 210.227 140.092C211.03 139.719 211.905 139.522 212.792 139.515C213.678 139.507 214.557 139.69 215.366 140.049C216.175 140.408 216.896 140.936 217.48 141.597L269.157 82.3186C268.94 82.1765 268.734 82.0191 268.541 81.8477ZM219.888 105.515C218.361 104.204 217.261 102.475 216.728 100.546C216.194 98.6171 216.251 96.5749 216.891 94.6779C217.53 92.7808 218.724 91.1141 220.322 89.8884C221.919 88.6628 223.848 87.9333 225.865 87.7923C227.881 87.6512 229.894 88.1049 231.65 89.096C233.406 90.0871 234.825 91.5711 235.728 93.3602C236.632 95.1493 236.978 97.1632 236.724 99.1472C236.471 101.131 235.628 102.996 234.302 104.506C233.423 105.509 232.353 106.331 231.152 106.924C229.952 107.518 228.645 107.872 227.306 107.965C225.968 108.059 224.624 107.891 223.351 107.47C222.078 107.05 220.901 106.385 219.888 105.515Z" fill="white" stroke="#263238" stroke-linecap="round" stroke-linejoin="round"/>
<path d="M212.222 156.377L178.084 118.018L256.428 49.4443L290.566 87.8088L212.222 156.377Z" fill="#384EDD" stroke="#263238" stroke-miterlimit="10"/>
<path d="M277.68 92.4451C276.589 91.2169 276.035 89.6106 276.14 87.9788C276.245 86.347 277 84.8231 278.24 83.7418C278.435 83.5736 278.641 83.4182 278.856 83.2764L259.256 61.2494C258.675 61.9097 257.957 62.4391 257.151 62.8018C256.346 63.1646 255.471 63.3523 254.586 63.3523C253.7 63.3523 252.826 63.1646 252.02 62.8018C251.214 62.4391 250.497 61.9097 249.915 61.2494C249.826 61.1496 249.753 61.0499 249.674 60.9502L190.471 112.816C190.561 112.91 190.656 112.993 190.74 113.093C191.281 113.7 191.696 114.408 191.96 115.174C192.225 115.94 192.334 116.751 192.282 117.559C192.23 118.367 192.018 119.157 191.657 119.884C191.296 120.611 190.794 121.261 190.18 121.796C189.986 121.962 189.782 122.118 189.57 122.261L209.17 144.288C209.343 144.091 209.53 143.906 209.73 143.734C210.344 143.199 211.058 142.788 211.833 142.526C212.608 142.263 213.427 142.155 214.244 142.206C215.062 142.258 215.861 142.468 216.595 142.825C217.33 143.183 217.987 143.68 218.527 144.288C218.697 144.48 218.854 144.681 218.998 144.892L278.223 92.9714C278.032 92.8069 277.85 92.6311 277.68 92.4451ZM226.266 109.458C224.932 107.958 224.077 106.1 223.81 104.119C223.544 102.138 223.876 100.124 224.767 98.33C225.657 96.5362 227.065 95.0439 228.812 94.0416C230.56 93.0394 232.569 92.5722 234.585 92.6993C236.6 92.8263 238.533 93.5418 240.138 94.7552C241.743 95.9687 242.948 97.6257 243.601 99.5167C244.254 101.408 244.326 103.448 243.807 105.379C243.288 107.31 242.202 109.046 240.686 110.367C239.678 111.248 238.505 111.923 237.232 112.355C235.96 112.786 234.614 112.964 233.272 112.88C231.929 112.795 230.617 112.45 229.41 111.863C228.203 111.276 227.125 110.459 226.238 109.458H226.266Z" fill="white" stroke="#263238" stroke-linecap="round" stroke-linejoin="round"/>
<path d="M202.214 198.736L298.305 158.998C299.12 158.656 299.767 158.01 300.103 157.2C300.44 156.39 300.439 155.481 300.102 154.671L276.168 98.0189C275.823 97.2108 275.169 96.5704 274.349 96.2373C273.528 95.9042 272.608 95.9053 271.789 96.2406L175.698 135.968C174.883 136.309 174.237 136.955 173.9 137.765C173.563 138.576 173.564 139.485 173.901 140.295L197.835 196.958C198.18 197.766 198.834 198.406 199.654 198.739C200.475 199.073 201.395 199.071 202.214 198.736Z" fill="#263238" stroke="#263238" stroke-linecap="round" stroke-linejoin="round"/>
<path d="M185.863 147.72L191.648 150.208C193.071 150.82 194.726 150.175 195.344 148.768L197.86 143.044C198.479 141.637 197.827 140 196.404 139.388L190.618 136.899C189.196 136.287 187.541 136.932 186.922 138.34L184.407 144.063C183.788 145.471 184.44 147.108 185.863 147.72Z" fill="white" stroke="#263238" stroke-width="1.00319" stroke-miterlimit="10"/>
<path d="M278.986 156.588L289.811 152.112L287.939 147.681L277.114 152.156L278.986 156.588Z" fill="white" stroke="#263238" stroke-miterlimit="10"/>
<path d="M264.618 162.535L275.442 158.06L273.57 153.628L262.745 158.103L264.618 162.535Z" fill="white" stroke="#263238" stroke-miterlimit="10"/>
<path d="M250.247 168.471L261.072 163.996L259.2 159.564L248.375 164.04L250.247 168.471Z" fill="white" stroke="#263238" stroke-miterlimit="10"/>
<path d="M235.879 174.413L246.704 169.938L244.832 165.506L234.007 169.981L235.879 174.413Z" fill="white" stroke="#263238" stroke-miterlimit="10"/>
<path d="M221.511 180.354L232.335 175.879L230.463 171.447L219.638 175.922L221.511 180.354Z" fill="white" stroke="#263238" stroke-miterlimit="10"/>
<path d="M207.137 186.296L217.961 181.82L216.089 177.389L205.265 181.864L207.137 186.296Z" fill="white" stroke="#263238" stroke-miterlimit="10"/>
<path d="M261.769 146.362L281.863 138.055C282.808 137.664 283.253 136.59 282.859 135.656L276.957 121.686C276.563 120.751 275.477 120.31 274.532 120.701L254.438 129.008C253.493 129.399 253.048 130.473 253.442 131.407L259.344 145.377C259.738 146.312 260.824 146.753 261.769 146.362Z" fill="white" stroke="#263238" stroke-miterlimit="10"/>
<path d="M219.741 129.471L271.251 108.176L270.158 105.589L218.649 126.884L219.741 129.471Z" fill="white" stroke="#263238" stroke-miterlimit="10"/>
<path d="M203.708 36.3757V208.947C203.706 211.221 202.793 213.401 201.167 215.009C199.542 216.617 197.338 217.521 195.039 217.523H119.669C117.37 217.521 115.166 216.617 113.541 215.009C111.915 213.401 111.001 211.221 111 208.947V36.3702C111 34.0972 111.913 31.9173 113.537 30.31C115.162 28.7028 117.366 27.7998 119.663 27.7998H152.014V27.8995C152.821 30.7692 154.674 32.6362 156.735 32.6362H157.917C159.978 32.6362 161.837 30.7692 162.638 27.8995L162.671 27.7998H195.039C196.178 27.7998 197.305 28.0216 198.357 28.4526C199.408 28.8836 200.364 29.5153 201.169 30.3116C201.974 31.108 202.612 32.0534 203.048 33.0939C203.484 34.1343 203.708 35.2495 203.708 36.3757Z" fill="white" stroke="#263238" stroke-linecap="round" stroke-linejoin="round"/>
<path d="M203.861 78.2803V36.3757C203.861 35.2495 203.637 34.1343 203.201 33.0939C202.765 32.0534 202.127 31.108 201.322 30.3116C200.517 29.5153 199.561 28.8836 198.509 28.4526C197.458 28.0216 196.33 27.7998 195.192 27.7998H162.88L162.846 27.8995C162.04 30.7692 160.186 32.6362 158.126 32.6362H156.944C154.883 32.6362 153.024 30.7692 152.223 27.8995V27.7998H119.816C117.518 27.7998 115.315 28.7028 113.69 30.31C112.066 31.9173 111.153 34.0972 111.153 36.3702V78.2803H203.861Z" fill="#384EDD" stroke="#263238" stroke-miterlimit="10"/>
<path d="M184.619 134.117H129.812C126.843 134.117 124.436 136.498 124.436 139.436V156.305C124.436 159.242 126.843 161.623 129.812 161.623H184.619C187.588 161.623 189.995 159.242 189.995 156.305V139.436C189.995 136.498 187.588 134.117 184.619 134.117Z" fill="#384EDD" stroke="#263238" stroke-miterlimit="10"/>
<path d="M203.861 44.4032V36.3757C203.861 35.2495 203.637 34.1343 203.201 33.0939C202.765 32.0534 202.127 31.108 201.322 30.3116C200.517 29.5153 199.561 28.8836 198.509 28.4526C197.458 28.0216 196.33 27.7998 195.192 27.7998H162.88L162.846 27.8995C162.04 30.7692 160.186 32.6362 158.126 32.6362H156.944C154.883 32.6362 153.024 30.7692 152.223 27.8995V27.7998H119.816C117.518 27.7998 115.315 28.7028 113.69 30.31C112.066 31.9173 111.153 34.0972 111.153 36.3702V44.4032H203.861Z" fill="#DBDBDB" stroke="#263238" stroke-linecap="round" stroke-linejoin="round"/>
<path d="M111.153 207.595V208.946C111.154 211.221 112.068 213.401 113.693 215.009C115.319 216.617 117.523 217.521 119.822 217.522H195.192C197.491 217.521 199.695 216.617 201.32 215.009C202.946 213.401 203.859 211.221 203.861 208.946V207.595H111.153Z" fill="#DBDBDB" stroke="#263238" stroke-linecap="round" stroke-linejoin="round"/>
<path d="M209.758 77.5929V60.3856H208.184V38.2921C208.183 34.6845 206.733 31.2251 204.154 28.6746C201.575 26.1242 198.077 24.6914 194.43 24.6914H120.583C116.936 24.6914 113.439 26.1242 110.86 28.6746C108.281 31.2251 106.831 34.6845 106.83 38.2921V213.633C106.831 217.241 108.281 220.7 110.86 223.251C113.439 225.801 116.936 227.234 120.583 227.234H194.43C198.077 227.234 201.575 225.801 204.154 223.251C206.733 220.7 208.183 217.241 208.184 213.633V92.3071H209.758V82.0969H208.184V77.5929H209.758ZM203.861 203.905C203.861 207.513 202.413 210.972 199.834 213.524C197.256 216.075 193.759 217.51 190.113 217.511H124.901C121.254 217.51 117.757 216.075 115.179 213.524C112.601 210.972 111.153 207.513 111.153 203.905V41.4C111.153 37.7929 112.601 34.3335 115.179 31.7829C117.758 29.2323 121.255 27.7993 124.901 27.7993H152.167V27.8991C152.974 30.7688 154.827 32.6358 156.888 32.6358H158.07C160.13 32.6358 161.99 30.7688 162.79 27.8991L162.824 27.7993H190.085C193.731 27.7993 197.228 29.2323 199.806 31.7829C202.384 34.3335 203.833 37.7929 203.833 41.4L203.861 203.905Z" fill="#384EDD" stroke="#263238" stroke-linecap="round" stroke-linejoin="round"/>
<path d="M193.327 26.5918H121.686C118.169 26.5918 114.796 27.9739 112.31 30.4342C109.823 32.8944 108.426 36.2312 108.426 39.7105V212.243C108.426 215.722 109.823 219.059 112.31 221.519C114.796 223.979 118.169 225.361 121.686 225.361H193.327C196.844 225.361 200.217 223.979 202.704 221.519C205.191 219.059 206.588 215.722 206.588 212.243V39.6828C206.581 36.2083 205.18 32.8786 202.694 30.4244C200.208 27.9701 196.839 26.5918 193.327 26.5918ZM203.861 204.426C203.861 207.906 202.464 211.243 199.977 213.704C197.49 216.165 194.117 217.549 190.6 217.55H124.414C120.896 217.549 117.523 216.165 115.036 213.704C112.55 211.243 111.153 207.906 111.153 204.426V40.9127C111.153 39.1906 111.496 37.4855 112.162 35.8945C112.828 34.3035 113.804 32.8579 115.035 31.6403C116.266 30.4226 117.727 29.4567 119.335 28.7977C120.944 28.1387 122.667 27.7995 124.408 27.7995H152.167V27.8992C152.974 30.769 154.827 32.6359 156.888 32.6359H158.07C160.13 32.6359 161.99 30.769 162.79 27.8992L162.824 27.7995H190.6C194.117 27.7995 197.49 29.1817 199.977 31.6419C202.464 34.1021 203.861 37.4389 203.861 40.9182V204.426Z" fill="#263238" stroke="#263238" stroke-linecap="round" stroke-linejoin="round"/>
<path d="M158.512 28.4477C158.512 28.1944 158.436 27.9467 158.294 27.7361C158.151 27.5256 157.949 27.3615 157.712 27.2649C157.475 27.1682 157.215 27.1431 156.964 27.193C156.713 27.2428 156.482 27.3652 156.302 27.5448C156.121 27.7243 155.998 27.9528 155.949 28.2014C155.9 28.4501 155.926 28.7075 156.025 28.9413C156.124 29.175 156.29 29.3745 156.504 29.5145C156.717 29.6544 156.968 29.7285 157.224 29.7274C157.394 29.7274 157.562 29.6943 157.718 29.6299C157.875 29.5655 158.017 29.4712 158.137 29.3523C158.256 29.2334 158.351 29.0922 158.416 28.937C158.48 28.7818 158.513 28.6155 158.512 28.4477Z" fill="white"/>
<path d="M119.39 33.3446C119.39 34.6355 117.923 35.1008 117.918 36.1146V36.1811H119.34V36.5634H117.442V36.1977C117.442 34.8127 118.909 34.5357 118.909 33.3391C118.909 32.8959 118.763 32.6632 118.405 32.6632C118.046 32.6632 117.895 32.9181 117.895 33.2948V33.677H117.442V33.3502C117.442 32.6965 117.744 32.2422 118.416 32.2422C119.088 32.2422 119.39 32.6854 119.39 33.3446Z" fill="#263238"/>
<path d="M121.765 33.3394V33.4447C121.785 33.6289 121.745 33.8147 121.65 33.9744C121.556 34.1342 121.411 34.2593 121.238 34.3311C121.412 34.4021 121.557 34.5271 121.652 34.6871C121.747 34.847 121.786 35.0332 121.765 35.2175V35.5499C121.765 36.2036 121.451 36.6579 120.785 36.6579C120.118 36.6579 119.816 36.2313 119.816 35.5499V35.2507H120.264V35.5776C120.264 35.9654 120.426 36.1981 120.774 36.1981C121.121 36.1981 121.283 35.9709 121.283 35.5333V35.2064C121.283 34.7798 121.098 34.5804 120.723 34.5693H120.466V34.1372H120.751C120.826 34.1379 120.9 34.1226 120.969 34.0924C121.037 34.0621 121.098 34.0176 121.148 33.9618C121.197 33.906 121.234 33.8404 121.255 33.7693C121.277 33.6982 121.282 33.6234 121.272 33.55V33.3561C121.272 32.9129 121.115 32.6857 120.762 32.6857C120.41 32.6857 120.253 32.9295 120.253 33.3117V33.5333H119.805V33.3394C119.805 32.6802 120.113 32.2314 120.774 32.2314C121.434 32.2314 121.765 32.6857 121.765 33.3394Z" fill="#263238"/>
<path d="M122.7 33.6611V34.2539H122.235V33.6611H122.7ZM122.7 35.9935V36.5641H122.235V36.0101L122.7 35.9935Z" fill="#263238"/>
<path d="M123.68 34.0488C123.743 33.9363 123.837 33.8435 123.951 33.7809C124.065 33.7183 124.194 33.6883 124.324 33.6943C124.884 33.6943 125.13 34.0987 125.13 34.7081V35.5501C125.13 36.2039 124.817 36.6581 124.15 36.6581C123.484 36.6581 123.182 36.2316 123.182 35.5501V35.2621H123.63V35.5779C123.63 35.9657 123.792 36.1983 124.139 36.1983C124.486 36.1983 124.649 35.9657 124.649 35.5779V34.7469C124.649 34.3591 124.486 34.1264 124.139 34.1264C124.076 34.1241 124.014 34.1344 123.955 34.1564C123.897 34.1784 123.843 34.2119 123.798 34.2547C123.752 34.2976 123.716 34.349 123.691 34.4059C123.666 34.4628 123.653 34.5241 123.652 34.5862V34.6859H123.198L123.316 32.3037H124.996V32.7303H123.719L123.68 34.0488Z" fill="#263238"/>
<path d="M127.533 33.3284V33.4115H127.079V33.3007C127.079 32.9129 126.922 32.6857 126.57 32.6857C126.217 32.6857 126.043 32.9184 126.043 33.3782V34.3477C126.093 34.2069 126.187 34.0859 126.313 34.0029C126.438 33.92 126.587 33.8796 126.738 33.8879C127.298 33.8879 127.544 34.2868 127.544 34.9017V35.5554C127.544 36.2092 127.219 36.6634 126.553 36.6634C125.886 36.6634 125.556 36.2369 125.556 35.5554V33.3394C125.556 32.658 125.87 32.2314 126.553 32.2314C127.236 32.2314 127.533 32.6857 127.533 33.3284ZM126.043 34.935V35.5776C126.043 35.9654 126.2 36.1981 126.553 36.1981C126.906 36.1981 127.068 35.9654 127.068 35.5776V34.935C127.068 34.5472 126.9 34.3145 126.553 34.3145C126.206 34.3145 126.043 34.5472 126.043 34.935Z" fill="#263238"/>
<path d="M174.825 33.5166H173.604V36.5414H174.825V33.5166Z" fill="#263238"/>
<path d="M176.454 32.9131H175.234V36.5418H176.454V32.9131Z" fill="#263238"/>
<path d="M178.084 32.4805H176.863V36.5413H178.084V32.4805Z" fill="#263238"/>
<path d="M179.719 31.7324H178.498V36.5411H179.719V31.7324Z" fill="#263238"/>
<path d="M194.856 36.4642H187.52V32.0322H194.856V36.4642ZM187.923 36.0598H194.447V32.4256H187.923V36.0598Z" fill="#263238"/>
<path d="M192.409 32.8682H188.534V35.6215H192.409V32.8682Z" fill="#263238"/>
<path d="M195.522 33.7217H194.598V34.7687H195.522V33.7217Z" fill="#263238"/>
<path d="M184.826 35.4947C184.777 35.4956 184.728 35.4821 184.686 35.4559C183.191 34.5806 182.206 35.3949 182.161 35.4559C182.134 35.4797 182.103 35.4979 182.07 35.5094C182.036 35.5209 182 35.5255 181.964 35.523C181.929 35.5204 181.894 35.5106 181.862 35.4943C181.831 35.478 181.803 35.4555 181.78 35.4282C181.755 35.4035 181.735 35.3741 181.721 35.3418C181.708 35.3095 181.701 35.2748 181.701 35.2398C181.701 35.2048 181.708 35.1702 181.721 35.1378C181.735 35.1055 181.755 35.0762 181.78 35.0515C181.836 35.0016 183.096 33.9435 184.944 35.0182C185.006 35.0551 185.051 35.1148 185.069 35.1844C185.087 35.2539 185.076 35.3276 185.039 35.3894C185.015 35.4222 184.982 35.4489 184.945 35.4672C184.909 35.4855 184.868 35.4949 184.826 35.4947Z" fill="#263238"/>
<path d="M185.381 34.5862C185.331 34.5878 185.282 34.5743 185.241 34.5474C183.079 33.2788 181.629 34.5031 181.612 34.5474C181.585 34.5711 181.553 34.5892 181.519 34.6007C181.485 34.6123 181.448 34.617 181.412 34.6147C181.376 34.6124 181.341 34.603 181.308 34.5872C181.276 34.5714 181.247 34.5494 181.223 34.5225C181.199 34.4956 181.181 34.4643 181.169 34.4303C181.157 34.3964 181.152 34.3606 181.155 34.3248C181.157 34.2891 181.167 34.2541 181.183 34.222C181.199 34.1898 181.221 34.1611 181.248 34.1375C181.248 34.1375 183.018 32.6417 185.521 34.1375C185.582 34.1753 185.626 34.235 185.644 34.3042C185.661 34.3733 185.651 34.4465 185.616 34.5086C185.585 34.5379 185.548 34.56 185.507 34.5734C185.466 34.5868 185.423 34.5912 185.381 34.5862Z" fill="#263238"/>
<path d="M185.879 33.5275C185.83 33.5278 185.781 33.5144 185.739 33.4887C183.006 31.8821 181.186 33.3945 181.108 33.461C181.083 33.4866 181.053 33.507 181.02 33.5209C180.987 33.5349 180.951 33.542 180.915 33.542C180.879 33.542 180.843 33.5349 180.81 33.5209C180.777 33.507 180.747 33.4866 180.722 33.461C180.676 33.4069 180.653 33.3373 180.659 33.267C180.664 33.1967 180.696 33.1312 180.75 33.0843C180.75 33.0843 182.928 31.2339 186.019 33.051C186.081 33.0879 186.126 33.1476 186.144 33.2172C186.162 33.2867 186.151 33.3605 186.114 33.4222C186.088 33.4583 186.052 33.4869 186.011 33.5053C185.97 33.5238 185.924 33.5314 185.879 33.5275Z" fill="#263238"/>
<path d="M184.003 35.9483C184.004 36.0833 183.965 36.2156 183.89 36.3284C183.815 36.4412 183.708 36.5294 183.582 36.5818C183.456 36.6343 183.317 36.6485 183.183 36.6229C183.049 36.5972 182.926 36.5328 182.829 36.4377C182.732 36.3426 182.666 36.2212 182.639 36.0889C182.612 35.9565 182.626 35.8192 182.677 35.6944C182.729 35.5696 182.818 35.4628 182.931 35.3877C183.045 35.3126 183.178 35.2725 183.314 35.2725C183.496 35.2725 183.67 35.3435 183.799 35.4701C183.928 35.5967 184.002 35.7686 184.003 35.9483Z" fill="#263238"/>
<path d="M135.675 108.571V94.0253H136.607V108.571H135.675ZM138.812 98.3889C138.744 97.8132 138.467 97.3662 137.982 97.048C137.497 96.7298 136.903 96.5708 136.198 96.5708C135.683 96.5708 135.232 96.6541 134.846 96.8208C134.463 96.9874 134.164 97.2166 133.948 97.5083C133.736 97.7999 133.63 98.1314 133.63 98.5026C133.63 98.8132 133.704 99.0802 133.852 99.3037C134.003 99.5234 134.196 99.7071 134.431 99.8548C134.666 99.9988 134.912 100.118 135.17 100.213C135.427 100.304 135.664 100.378 135.88 100.434L137.062 100.753C137.365 100.832 137.702 100.942 138.073 101.082C138.448 101.222 138.806 101.414 139.147 101.656C139.492 101.895 139.776 102.201 139.999 102.576C140.223 102.951 140.335 103.412 140.335 103.957C140.335 104.586 140.17 105.154 139.84 105.662C139.514 106.169 139.037 106.573 138.408 106.872C137.783 107.171 137.024 107.321 136.13 107.321C135.297 107.321 134.575 107.186 133.965 106.917C133.359 106.648 132.882 106.273 132.533 105.792C132.189 105.311 131.994 104.753 131.948 104.116H133.403C133.441 104.556 133.588 104.919 133.846 105.207C134.107 105.491 134.437 105.703 134.835 105.843C135.236 105.98 135.668 106.048 136.13 106.048C136.668 106.048 137.151 105.961 137.579 105.787C138.007 105.609 138.346 105.362 138.596 105.048C138.846 104.73 138.971 104.359 138.971 103.934C138.971 103.548 138.863 103.234 138.647 102.991C138.431 102.749 138.147 102.552 137.795 102.4C137.442 102.249 137.062 102.116 136.653 102.003L135.221 101.593C134.312 101.332 133.592 100.959 133.062 100.474C132.531 99.9893 132.266 99.3548 132.266 98.5708C132.266 97.9192 132.442 97.3511 132.795 96.8662C133.151 96.3776 133.628 95.9988 134.227 95.7298C134.829 95.4571 135.501 95.3208 136.244 95.3208C136.994 95.3208 137.66 95.4552 138.244 95.7242C138.827 95.9893 139.289 96.353 139.63 96.8151C139.975 97.2772 140.156 97.8018 140.175 98.3889H138.812ZM146.174 107.275C145.394 107.275 144.704 107.137 144.106 106.861C143.511 106.58 143.047 106.196 142.714 105.707C142.38 105.215 142.216 104.654 142.219 104.025C142.216 103.533 142.312 103.078 142.509 102.662C142.706 102.241 142.975 101.891 143.316 101.611C143.661 101.326 144.045 101.147 144.469 101.071V101.003C143.913 100.859 143.469 100.546 143.14 100.065C142.81 99.5802 142.647 99.0291 142.651 98.4117C142.647 97.8208 142.797 97.2923 143.1 96.8264C143.403 96.3605 143.82 95.9931 144.35 95.7242C144.884 95.4552 145.492 95.3208 146.174 95.3208C146.848 95.3208 147.451 95.4552 147.981 95.7242C148.511 95.9931 148.928 96.3605 149.231 96.8264C149.538 97.2923 149.693 97.8208 149.697 98.4117C149.693 99.0291 149.524 99.5802 149.191 100.065C148.862 100.546 148.424 100.859 147.879 101.003V101.071C148.299 101.147 148.678 101.326 149.015 101.611C149.352 101.891 149.621 102.241 149.822 102.662C150.022 103.078 150.125 103.533 150.129 104.025C150.125 104.654 149.954 105.215 149.617 105.707C149.284 106.196 148.82 106.58 148.225 106.861C147.634 107.137 146.951 107.275 146.174 107.275ZM146.174 106.025C146.701 106.025 147.155 105.94 147.538 105.77C147.92 105.599 148.216 105.359 148.424 105.048C148.632 104.737 148.738 104.374 148.742 103.957C148.738 103.518 148.625 103.129 148.401 102.792C148.178 102.455 147.873 102.19 147.487 101.997C147.104 101.804 146.666 101.707 146.174 101.707C145.678 101.707 145.235 101.804 144.844 101.997C144.458 102.19 144.153 102.455 143.93 102.792C143.71 103.129 143.602 103.518 143.606 103.957C143.602 104.374 143.702 104.737 143.907 105.048C144.115 105.359 144.413 105.599 144.799 105.77C145.185 105.94 145.644 106.025 146.174 106.025ZM146.174 100.503C146.591 100.503 146.96 100.419 147.282 100.253C147.608 100.086 147.863 99.853 148.049 99.5537C148.235 99.2545 148.329 98.9041 148.333 98.5026C148.329 98.1086 148.237 97.7658 148.055 97.4742C147.873 97.1787 147.621 96.9514 147.299 96.7923C146.977 96.6295 146.602 96.548 146.174 96.548C145.738 96.548 145.358 96.6295 145.032 96.7923C144.706 96.9514 144.454 97.1787 144.276 97.4742C144.098 97.7658 144.011 98.1086 144.015 98.5026C144.011 98.9041 144.1 99.2545 144.282 99.5537C144.468 99.853 144.723 100.086 145.049 100.253C145.375 100.419 145.75 100.503 146.174 100.503ZM156.102 107.275C155.246 107.275 154.516 107.042 153.914 106.576C153.312 106.107 152.852 105.427 152.533 104.537C152.215 103.643 152.056 102.563 152.056 101.298C152.056 100.04 152.215 98.9666 152.533 98.0764C152.855 97.1825 153.317 96.5007 153.92 96.031C154.526 95.5575 155.253 95.3208 156.102 95.3208C156.95 95.3208 157.675 95.5575 158.278 96.031C158.884 96.5007 159.346 97.1825 159.664 98.0764C159.986 98.9666 160.147 100.04 160.147 101.298C160.147 102.563 159.988 103.643 159.67 104.537C159.352 105.427 158.891 106.107 158.289 106.576C157.687 107.042 156.958 107.275 156.102 107.275ZM156.102 106.025C156.95 106.025 157.609 105.616 158.079 104.798C158.549 103.98 158.783 102.813 158.783 101.298C158.783 100.29 158.675 99.4325 158.46 98.7242C158.247 98.0158 157.941 97.4761 157.539 97.1048C157.141 96.7336 156.662 96.548 156.102 96.548C155.261 96.548 154.603 96.9628 154.13 97.7923C153.656 98.6181 153.42 99.7867 153.42 101.298C153.42 102.306 153.526 103.162 153.738 103.866C153.95 104.571 154.255 105.107 154.653 105.474C155.054 105.842 155.537 106.025 156.102 106.025ZM162.9 107.207C162.62 107.207 162.379 107.107 162.178 106.906C161.978 106.705 161.877 106.465 161.877 106.184C161.877 105.904 161.978 105.664 162.178 105.463C162.379 105.262 162.62 105.162 162.9 105.162C163.18 105.162 163.421 105.262 163.621 105.463C163.822 105.664 163.923 105.904 163.923 106.184C163.923 106.37 163.875 106.54 163.781 106.696C163.69 106.851 163.567 106.976 163.411 107.071C163.26 107.162 163.089 107.207 162.9 107.207ZM169.901 95.3208C170.379 95.3245 170.856 95.4155 171.333 95.5935C171.81 95.7715 172.246 96.067 172.64 96.4798C173.034 96.8889 173.35 97.4476 173.589 98.156C173.827 98.8643 173.947 99.7526 173.947 100.821C173.947 101.855 173.848 102.773 173.651 103.576C173.458 104.376 173.178 105.05 172.81 105.599C172.447 106.148 172.004 106.565 171.481 106.849C170.962 107.133 170.375 107.275 169.719 107.275C169.068 107.275 168.487 107.147 167.975 106.889C167.468 106.628 167.051 106.266 166.725 105.804C166.403 105.338 166.197 104.798 166.106 104.184H167.492C167.617 104.718 167.865 105.16 168.237 105.508C168.612 105.853 169.106 106.025 169.719 106.025C170.617 106.025 171.326 105.633 171.844 104.849C172.367 104.065 172.629 102.957 172.629 101.525H172.538C172.326 101.843 172.074 102.118 171.782 102.349C171.49 102.58 171.166 102.758 170.81 102.883C170.454 103.008 170.076 103.071 169.674 103.071C169.007 103.071 168.396 102.906 167.839 102.576C167.286 102.243 166.843 101.787 166.509 101.207C166.18 100.624 166.015 99.9571 166.015 99.2071C166.015 98.495 166.174 97.8435 166.492 97.2526C166.814 96.6579 167.265 96.1844 167.844 95.8321C168.428 95.4798 169.113 95.3094 169.901 95.3208ZM169.901 96.5708C169.424 96.5708 168.994 96.6901 168.612 96.9287C168.233 97.1636 167.932 97.4817 167.708 97.8833C167.488 98.281 167.379 98.7223 167.379 99.2071C167.379 99.692 167.485 100.133 167.697 100.531C167.913 100.925 168.206 101.239 168.577 101.474C168.952 101.705 169.379 101.821 169.856 101.821C170.216 101.821 170.551 101.751 170.862 101.611C171.172 101.467 171.443 101.272 171.674 101.025C171.909 100.775 172.093 100.493 172.225 100.179C172.358 99.8605 172.424 99.5291 172.424 99.1844C172.424 98.7298 172.314 98.3037 172.094 97.906C171.879 97.5083 171.579 97.1863 171.197 96.9401C170.818 96.6939 170.386 96.5708 169.901 96.5708ZM179.886 95.3208C180.363 95.3245 180.84 95.4155 181.317 95.5935C181.795 95.7715 182.23 96.067 182.624 96.4798C183.018 96.8889 183.335 97.4476 183.573 98.156C183.812 98.8643 183.931 99.7526 183.931 100.821C183.931 101.855 183.833 102.773 183.636 103.576C183.442 104.376 183.162 105.05 182.795 105.599C182.431 106.148 181.988 106.565 181.465 106.849C180.946 107.133 180.359 107.275 179.704 107.275C179.052 107.275 178.471 107.147 177.96 106.889C177.452 106.628 177.035 106.266 176.71 105.804C176.388 105.338 176.181 104.798 176.09 104.184H177.477C177.602 104.718 177.85 105.16 178.221 105.508C178.596 105.853 179.09 106.025 179.704 106.025C180.602 106.025 181.31 105.633 181.829 104.849C182.352 104.065 182.613 102.957 182.613 101.525H182.522C182.31 101.843 182.058 102.118 181.766 102.349C181.475 102.58 181.151 102.758 180.795 102.883C180.439 103.008 180.06 103.071 179.658 103.071C178.992 103.071 178.38 102.906 177.823 102.576C177.27 102.243 176.827 101.787 176.494 101.207C176.164 100.624 175.999 99.9571 175.999 99.2071C175.999 98.495 176.158 97.8435 176.477 97.2526C176.799 96.6579 177.249 96.1844 177.829 95.8321C178.412 95.4798 179.098 95.3094 179.886 95.3208ZM179.886 96.5708C179.408 96.5708 178.978 96.6901 178.596 96.9287C178.217 97.1636 177.916 97.4817 177.692 97.8833C177.473 98.281 177.363 98.7223 177.363 99.2071C177.363 99.692 177.469 100.133 177.681 100.531C177.897 100.925 178.191 101.239 178.562 101.474C178.937 101.705 179.363 101.821 179.84 101.821C180.2 101.821 180.535 101.751 180.846 101.611C181.156 101.467 181.427 101.272 181.658 101.025C181.893 100.775 182.077 100.493 182.21 100.179C182.342 99.8605 182.408 99.5291 182.408 99.1844C182.408 98.7298 182.299 98.3037 182.079 97.906C181.863 97.5083 181.564 97.1863 181.181 96.9401C180.802 96.6939 180.371 96.5708 179.886 96.5708Z" fill="black"/>
<path d="M137.63 66.5244V57.1895H141.04V57.8653H138.526V61.3722H140.575V62.048H138.526V65.926H141.062V66.5798L137.63 66.5244Z" fill="white"/>
<path d="M141.958 63.1003V62.4355H144.428V63.1003H141.958Z" fill="white"/>
<path d="M146.92 66.5244L145.324 57.1895H146.08L147.329 64.7737L148.751 57.328H149.485L150.941 64.7848L152.094 57.1895H152.839L151.316 66.5244H150.627L149.121 58.8238L147.642 66.5244H146.92Z" fill="white"/>
<path d="M153.203 66.5244L155.197 57.1895H156.126L158.131 66.5244H157.28L156.815 64.0258H154.575L154.099 66.5244H153.203ZM154.67 63.3887H156.675L155.662 58.3529L154.67 63.3887Z" fill="white"/>
<path d="M159.274 66.5244V57.1895H160.158V65.8706H162.841V66.5244H159.274Z" fill="white"/>
<path d="M163.726 66.5244V57.1895H164.61V65.8706H167.293V66.5244H163.726Z" fill="white"/>
<path d="M168.166 66.5244V57.1895H171.582V57.8653H169.04V61.3722H171.09V62.048H169.04V65.926H171.582V66.5798L168.166 66.5244Z" fill="white"/>
<path d="M173.979 66.5244V57.8653H172.198V57.1895H176.589V57.8653H174.864V66.5244H173.979Z" fill="white"/>
<path d="M148.158 152.349V142.377H151.518C152.036 142.357 152.551 142.476 153.007 142.721C153.398 142.943 153.704 143.288 153.875 143.701C154.078 144.197 154.176 144.729 154.161 145.263C154.197 145.874 154.065 146.483 153.78 147.025C153.541 147.416 153.173 147.713 152.738 147.867C152.263 148.028 151.763 148.106 151.26 148.1H150.364V152.349H148.158ZM150.398 146.588H151.12C151.337 146.6 151.553 146.55 151.742 146.444C151.887 146.335 151.987 146.177 152.022 146C152.071 145.754 152.093 145.503 152.089 145.252C152.092 145.028 152.074 144.803 152.033 144.582C152.005 144.401 151.909 144.237 151.764 144.122C151.572 143.992 151.341 143.931 151.109 143.951H150.375L150.398 146.588Z" fill="white"/>
<path d="M154.172 152.35L156.07 142.378H158.602L160.478 152.35H158.428L158.098 150.25H156.619L156.272 152.35H154.172ZM156.815 148.932H157.885L157.325 145.054L156.815 148.932Z" fill="white"/>
<path d="M162.264 152.35V148.305L160.354 142.422H162.449L163.406 145.569L164.263 142.422H166.274L164.398 148.305V152.35H162.264Z" fill="white"/>
<path d="M105.9 38.1815C96.0552 33.7938 85.9696 28.2538 80.0616 18.9577C78.7624 16.919 77.7544 14.9079 77.1104 13.9717C76.4664 14.9356 75.464 16.9467 74.1648 18.9577C68.24 28.2538 58.16 33.7938 48.3208 38.1815C47.884 38.3809 40.8504 40.8074 40.856 40.8795C40.8616 40.9515 42.34 76.8895 53.5344 92.6563C63.0936 106.107 74.0976 110.888 77.1104 111.996C80.1232 110.888 91.1104 106.107 100.686 92.6563C111.886 76.9061 113.365 40.885 113.365 40.8795C113.365 40.8739 106.32 38.3809 105.9 38.1815Z" fill="#384EDD"/>
<path d="M102.803 40.8515C94.0168 36.9403 85.0176 31.9875 79.7424 23.6775C78.5832 21.8548 77.6816 20.0599 77.1104 19.2012C76.5504 20.0599 75.6376 21.8548 74.4784 23.6775C69.2088 31.9764 60.204 36.9403 51.44 40.8515C51.048 41.0232 44.7704 43.1894 44.7704 43.2559C44.7704 43.3223 46.0976 75.3879 56.088 89.465C64.6 101.465 74.4 105.73 77.1104 106.722C79.7984 105.73 89.6208 101.465 98.1496 89.465C108.14 75.41 109.467 43.2614 109.467 43.2559C109.467 43.2503 103.19 41.0232 102.803 40.8515Z" fill="white"/>
<path d="M77.3456 88.2245C89.8435 88.2245 99.9752 78.2014 99.9752 65.8373C99.9752 53.4733 89.8435 43.4502 77.3456 43.4502C64.8476 43.4502 54.716 53.4733 54.716 65.8373C54.716 78.2014 64.8476 88.2245 77.3456 88.2245Z" fill="#263238" stroke="#263238" stroke-linecap="round" stroke-linejoin="round"/>
<path d="M72.2506 77.6835H72.0434C71.6682 77.6528 71.3053 77.5368 70.9828 77.3446C70.6604 77.1524 70.3871 76.8893 70.1842 76.5755L63.425 65.9443C63.2401 65.6762 63.1116 65.3741 63.0473 65.0558C62.9831 64.7376 62.9843 64.4098 63.0509 64.092C63.1175 63.7742 63.2482 63.473 63.4351 63.2063C63.622 62.9396 63.8613 62.7129 64.1388 62.5397C64.4162 62.3665 64.7261 62.2504 65.0499 62.1984C65.3737 62.1463 65.7048 62.1593 66.0234 62.2367C66.342 62.314 66.6416 62.454 66.9042 62.6484C67.1669 62.8429 67.3873 63.0876 67.5522 63.3682L72.5922 71.2793L86.5306 55.8892C86.7392 55.6361 86.9975 55.4274 87.29 55.2758C87.5824 55.1243 87.9029 55.033 88.232 55.0074C88.5611 54.9819 88.892 55.0226 89.2048 55.1272C89.5175 55.2317 89.8056 55.398 90.0516 55.6158C90.2975 55.8336 90.4963 56.0985 90.6358 56.3945C90.7754 56.6905 90.8528 57.0114 90.8634 57.3379C90.874 57.6643 90.8175 57.9894 90.6975 58.2937C90.5775 58.5979 90.3963 58.8749 90.165 59.1079L74.065 76.8802C73.8369 77.1331 73.5573 77.3354 73.2446 77.4738C72.9319 77.6122 72.5932 77.6837 72.2506 77.6835Z" fill="white" stroke="#263238" stroke-miterlimit="10"/>
<path opacity="0.18" d="M84.3456 68.1421C71.5727 72.3222 60.436 80.3398 52.4872 91.0777C52.8288 91.6317 53.176 92.147 53.5344 92.6511C63.0936 106.102 74.0976 110.883 77.1104 111.991C80.1232 110.883 91.1104 106.102 100.686 92.6511C107.048 83.704 110.274 68.2086 111.886 56.4971C105.525 60.0704 96.6096 64.1644 84.3456 68.1421Z" fill="black"/>
<path d="M105.9 38.1815C96.0552 33.7938 85.9696 28.2538 80.0616 18.9577C78.7624 16.919 77.7544 14.9079 77.1104 13.9717C76.4664 14.9356 75.464 16.9467 74.1648 18.9577C68.24 28.2538 58.16 33.7938 48.3208 38.1815C47.884 38.3809 40.8504 40.8074 40.856 40.8795C40.8616 40.9515 42.34 76.8895 53.5344 92.6563C63.0936 106.107 74.0976 110.888 77.1104 111.996C80.1232 110.888 91.1104 106.107 100.686 92.6563C111.886 76.9061 113.365 40.885 113.365 40.8795C113.365 40.8739 106.32 38.3809 105.9 38.1815Z" stroke="#263238" stroke-miterlimit="10"/>
<path d="M86.7563 259.718C97.621 248.97 97.621 231.544 86.7563 220.795C75.8916 210.047 58.2765 210.047 47.4118 220.795C36.5471 231.544 36.5471 248.97 47.4118 259.718C58.2765 270.467 75.8916 270.467 86.7563 259.718Z" fill="white" stroke="#263238" stroke-miterlimit="10"/>
<path d="M72.4063 262.76C84.97 259.852 92.7717 247.419 89.8319 234.989C86.892 222.56 74.3238 214.842 61.7601 217.751C49.1963 220.659 41.3946 233.092 44.3345 245.522C47.2743 257.951 59.8425 265.669 72.4063 262.76Z" fill="white" stroke="#263238" stroke-miterlimit="10"/>
<path d="M71.8856 261.289L71.096 257.61C68.3259 258.086 66.0859 257.649 64.376 256.297C62.6661 254.945 61.4099 252.659 60.6072 249.438L66.0392 247.306C66.3019 248.411 66.6771 249.488 67.1592 250.519C67.4678 251.226 67.9678 251.836 68.604 252.28C68.8857 252.452 69.1996 252.566 69.5268 252.614C69.854 252.663 70.1878 252.645 70.508 252.563C70.8451 252.53 71.1665 252.406 71.4364 252.204C71.7063 252.001 71.9141 251.729 72.0368 251.416C72.2286 250.794 72.2518 250.133 72.104 249.499C71.8861 248.293 71.2998 247.181 70.424 246.314C69.4708 245.44 68.405 244.695 67.2544 244.098L63.2336 241.921C62.3457 241.4 61.4944 240.821 60.6856 240.187C59.8984 239.562 59.2209 238.814 58.6808 237.971C58.0659 236.97 57.6372 235.869 57.4152 234.719C56.8963 232.252 57.2005 230.168 58.328 228.47C59.5826 226.703 61.44 225.444 63.5584 224.924L62.8024 221.401L64.7232 220.996L65.4792 224.52C66.7288 224.28 68.0193 224.356 69.2312 224.741C70.2165 225.081 71.0975 225.665 71.7904 226.436C72.4647 227.215 73.0177 228.089 73.4312 229.029C73.8486 229.957 74.1949 230.914 74.4672 231.893L68.9232 233.926C68.7216 233.061 68.4559 232.211 68.128 231.384C67.8977 230.763 67.5124 230.21 67.008 229.777C66.7621 229.599 66.4763 229.482 66.1751 229.437C65.8738 229.392 65.5659 229.419 65.2776 229.517C64.9432 229.584 64.6306 229.731 64.367 229.945C64.1034 230.16 63.8969 230.435 63.7656 230.746C63.4996 231.373 63.4369 232.066 63.5864 232.73C63.7616 233.787 64.2948 234.754 65.0984 235.472C65.8717 236.107 66.6936 236.681 67.5568 237.19L71.4768 239.339C72.5283 239.945 73.5301 240.633 74.4728 241.394C75.4212 242.168 76.2495 243.075 76.9312 244.087C77.6678 245.218 78.1791 246.478 78.4376 247.799C78.739 249.117 78.7256 250.486 78.3984 251.798C78.0858 253.053 77.4378 254.201 76.5224 255.122C75.5337 256.096 74.3125 256.807 72.972 257.189L73.7728 260.912L71.8856 261.289Z" fill="#263238"/>
<path d="M246.298 251.848C252.784 238.069 246.75 221.697 232.822 215.28C218.893 208.863 202.343 214.832 195.857 228.611C189.371 242.391 195.404 258.763 209.333 265.18C223.262 271.597 239.811 265.628 246.298 251.848Z" fill="white" stroke="#263238" stroke-miterlimit="10"/>
<path d="M226.639 262.693C239.174 259.663 246.852 247.154 243.79 234.754C240.727 222.354 228.083 214.758 215.549 217.788C203.014 220.817 195.336 233.326 198.398 245.726C201.461 258.126 214.105 265.722 226.639 262.693Z" fill="white" stroke="#263238" stroke-miterlimit="10"/>
<path d="M225.886 261.289L225.09 257.61C222.324 258.087 220.084 257.649 218.37 256.297C216.657 254.946 215.399 252.659 214.596 249.439L220.034 247.306C220.294 248.412 220.669 249.489 221.154 250.519C221.46 251.228 221.961 251.838 222.598 252.281C222.879 252.453 223.192 252.566 223.518 252.615C223.845 252.663 224.178 252.646 224.497 252.563C224.835 252.533 225.157 252.409 225.427 252.206C225.697 252.004 225.905 251.73 226.026 251.417C226.222 250.795 226.247 250.134 226.098 249.5C225.878 248.294 225.292 247.183 224.418 246.314C223.464 245.442 222.399 244.697 221.249 244.098L217.222 241.921C216.336 241.401 215.487 240.821 214.68 240.187C213.891 239.564 213.214 238.815 212.675 237.971C212.06 236.971 211.632 235.869 211.41 234.719C210.876 232.241 211.173 230.16 212.3 228.475C213.554 226.702 215.414 225.437 217.536 224.913L216.78 221.39L218.701 220.985L219.457 224.509C220.705 224.269 221.993 224.346 223.203 224.73C224.189 225.069 225.071 225.653 225.762 226.426C226.44 227.203 226.995 228.077 227.409 229.018C227.824 229.946 228.169 230.904 228.439 231.883L222.901 233.916C222.697 233.051 222.431 232.201 222.106 231.373C221.875 230.753 221.49 230.2 220.986 229.766C220.741 229.588 220.456 229.472 220.156 229.426C219.855 229.381 219.548 229.408 219.261 229.506C218.926 229.573 218.614 229.72 218.35 229.935C218.087 230.149 217.88 230.424 217.749 230.736C217.48 231.362 217.417 232.056 217.57 232.719C217.741 233.776 218.272 234.744 219.076 235.461C219.85 236.095 220.672 236.669 221.534 237.179L225.454 239.328C226.507 239.933 227.509 240.621 228.45 241.384C229.4 242.156 230.229 243.063 230.909 244.076C231.647 245.207 232.16 246.467 232.421 247.788C232.719 249.106 232.706 250.475 232.382 251.788C232.066 253.042 231.416 254.19 230.5 255.112C229.513 256.085 228.294 256.796 226.955 257.178L227.75 260.901L225.886 261.289Z" fill="#263238"/>
<path d="M291.389 200.997V199.484" stroke="#263238" stroke-miterlimit="10"/>
<path d="M292.722 197.739H245.95V201.119H292.722V197.739Z" fill="white" stroke="#263238" stroke-miterlimit="10"/>
<path d="M248.017 201.418V199.318" stroke="#263238" stroke-miterlimit="10"/>
<path d="M249.462 197.889V199.988" stroke="#263238" stroke-miterlimit="10"/>
<path d="M289.692 198.061V200.072" stroke="#263238" stroke-miterlimit="10"/>
<path d="M287.486 198.061V199.988" stroke="#263238" stroke-miterlimit="10"/>
<path d="M282.054 197.972V200.409" stroke="#263238" stroke-miterlimit="10"/>
<path d="M252.939 198.227V199.318" stroke="#263238" stroke-miterlimit="10"/>
<path d="M253.79 200.742V198.814" stroke="#263238" stroke-miterlimit="10"/>
<path d="M259.816 197.972V200.409" stroke="#263238" stroke-miterlimit="10"/>
<path d="M270.422 198.227V199.905" stroke="#263238" stroke-miterlimit="10"/>
<path d="M294.771 204.321V202.809" stroke="#263238" stroke-miterlimit="10"/>
<path d="M296.104 201.063H249.333V204.443H296.104V201.063Z" fill="white" stroke="#263238" stroke-miterlimit="10"/>
<path d="M251.399 204.736V202.637" stroke="#263238" stroke-miterlimit="10"/>
<path d="M252.844 201.213V203.313" stroke="#263238" stroke-miterlimit="10"/>
<path d="M293.069 201.379V203.395" stroke="#263238" stroke-miterlimit="10"/>
<path d="M290.862 201.379V203.312" stroke="#263238" stroke-miterlimit="10"/>
<path d="M285.43 201.296V203.733" stroke="#263238" stroke-miterlimit="10"/>
<path d="M256.322 201.545V202.636" stroke="#263238" stroke-miterlimit="10"/>
<path d="M257.173 204.066V202.138" stroke="#263238" stroke-miterlimit="10"/>
<path d="M263.198 201.296V203.733" stroke="#263238" stroke-miterlimit="10"/>
<path d="M273.805 201.545V203.229" stroke="#263238" stroke-miterlimit="10"/>
<path d="M293.584 207.639V206.127" stroke="#263238" stroke-miterlimit="10"/>
<path d="M294.917 204.382H248.146V207.761H294.917V204.382Z" fill="white" stroke="#263238" stroke-miterlimit="10"/>
<path d="M250.212 208.061V205.961" stroke="#263238" stroke-miterlimit="10"/>
<path d="M251.657 204.537V206.631" stroke="#263238" stroke-miterlimit="10"/>
<path d="M291.887 204.703V206.72" stroke="#263238" stroke-miterlimit="10"/>
<path d="M289.675 204.703V206.631" stroke="#263238" stroke-miterlimit="10"/>
<path d="M284.249 204.62V207.052" stroke="#263238" stroke-miterlimit="10"/>
<path d="M255.134 204.869V205.961" stroke="#263238" stroke-miterlimit="10"/>
<path d="M255.986 207.39V205.456" stroke="#263238" stroke-miterlimit="10"/>
<path d="M262.011 204.62V207.052" stroke="#263238" stroke-miterlimit="10"/>
<path d="M272.618 204.869V206.548" stroke="#263238" stroke-miterlimit="10"/>
<path d="M294.771 210.964V209.451" stroke="#263238" stroke-miterlimit="10"/>
<path d="M296.11 207.706H249.338V211.085H296.11V207.706Z" fill="white" stroke="#263238" stroke-miterlimit="10"/>
<path d="M251.405 211.384V209.284" stroke="#263238" stroke-miterlimit="10"/>
<path d="M252.85 207.855V209.955" stroke="#263238" stroke-miterlimit="10"/>
<path d="M293.074 208.027V210.038" stroke="#263238" stroke-miterlimit="10"/>
<path d="M290.868 208.027V209.955" stroke="#263238" stroke-miterlimit="10"/>
<path d="M285.436 207.938V210.376" stroke="#263238" stroke-miterlimit="10"/>
<path d="M256.327 208.193V209.285" stroke="#263238" stroke-miterlimit="10"/>
<path d="M257.178 210.708V208.78" stroke="#263238" stroke-miterlimit="10"/>
<path d="M263.204 207.938V210.376" stroke="#263238" stroke-miterlimit="10"/>
<path d="M273.81 208.193V209.872" stroke="#263238" stroke-miterlimit="10"/>
<path d="M291.389 214.287V212.774" stroke="#263238" stroke-miterlimit="10"/>
<path d="M292.722 211.029H245.95V214.409H292.722V211.029Z" fill="white" stroke="#263238" stroke-miterlimit="10"/>
<path d="M248.017 214.703V212.604" stroke="#263238" stroke-miterlimit="10"/>
<path d="M249.462 211.18V213.279" stroke="#263238" stroke-miterlimit="10"/>
<path d="M289.692 211.346V213.362" stroke="#263238" stroke-miterlimit="10"/>
<path d="M287.486 211.346V213.279" stroke="#263238" stroke-miterlimit="10"/>
<path d="M282.054 211.263V213.7" stroke="#263238" stroke-miterlimit="10"/>
<path d="M252.939 211.512V212.603" stroke="#263238" stroke-miterlimit="10"/>
<path d="M253.79 214.032V212.104" stroke="#263238" stroke-miterlimit="10"/>
<path d="M259.816 211.263V213.7" stroke="#263238" stroke-miterlimit="10"/>
<path d="M270.422 211.512V213.196" stroke="#263238" stroke-miterlimit="10"/>
<path d="M291.389 217.606V216.094" stroke="#263238" stroke-miterlimit="10"/>
<path d="M292.722 214.349H245.95V217.728H292.722V214.349Z" fill="white" stroke="#263238" stroke-miterlimit="10"/>
<path d="M248.017 218.026V215.927" stroke="#263238" stroke-miterlimit="10"/>
<path d="M249.462 214.498V216.598" stroke="#263238" stroke-miterlimit="10"/>
<path d="M289.692 214.67V216.686" stroke="#263238" stroke-miterlimit="10"/>
<path d="M287.486 214.67V216.598" stroke="#263238" stroke-miterlimit="10"/>
<path d="M282.054 214.586V217.018" stroke="#263238" stroke-miterlimit="10"/>
<path d="M252.939 214.836V215.927" stroke="#263238" stroke-miterlimit="10"/>
<path d="M253.79 217.356V215.423" stroke="#263238" stroke-miterlimit="10"/>
<path d="M259.816 214.586V217.018" stroke="#263238" stroke-miterlimit="10"/>
<path d="M270.422 214.836V216.515" stroke="#263238" stroke-miterlimit="10"/>
<path d="M291.389 220.929V219.417" stroke="#263238" stroke-miterlimit="10"/>
<path d="M292.722 217.672H245.95V221.051H292.722V217.672Z" fill="white" stroke="#263238" stroke-miterlimit="10"/>
<path d="M248.017 221.351V219.251" stroke="#263238" stroke-miterlimit="10"/>
<path d="M249.462 217.821V219.921" stroke="#263238" stroke-miterlimit="10"/>
<path d="M289.692 217.988V220.005" stroke="#263238" stroke-miterlimit="10"/>
<path d="M287.486 217.988V219.922" stroke="#263238" stroke-miterlimit="10"/>
<path d="M282.054 217.905V220.343" stroke="#263238" stroke-miterlimit="10"/>
<path d="M252.939 218.16V219.252" stroke="#263238" stroke-miterlimit="10"/>
<path d="M253.79 220.675V218.747" stroke="#263238" stroke-miterlimit="10"/>
<path d="M259.816 217.905V220.343" stroke="#263238" stroke-miterlimit="10"/>
<path d="M270.422 218.16V219.839" stroke="#263238" stroke-miterlimit="10"/>
<path d="M295.046 224.254V222.741" stroke="#263238" stroke-miterlimit="10"/>
<path d="M296.378 220.996H249.607V224.375H296.378V220.996Z" fill="white" stroke="#263238" stroke-miterlimit="10"/>
<path d="M251.679 224.669V222.569" stroke="#263238" stroke-miterlimit="10"/>
<path d="M253.118 221.146V223.245" stroke="#263238" stroke-miterlimit="10"/>
<path d="M293.349 221.312V223.328" stroke="#263238" stroke-miterlimit="10"/>
<path d="M291.142 221.312V223.245" stroke="#263238" stroke-miterlimit="10"/>
<path d="M285.71 221.229V223.661" stroke="#263238" stroke-miterlimit="10"/>
<path d="M256.602 221.479V222.57" stroke="#263238" stroke-miterlimit="10"/>
<path d="M257.447 223.999V222.071" stroke="#263238" stroke-miterlimit="10"/>
<path d="M263.473 221.229V223.661" stroke="#263238" stroke-miterlimit="10"/>
<path d="M274.085 221.479V223.163" stroke="#263238" stroke-miterlimit="10"/>
<path d="M296.322 227.572V226.06" stroke="#263238" stroke-miterlimit="10"/>
<path d="M297.661 224.314H250.89V227.694H297.661V224.314Z" fill="white" stroke="#263238" stroke-miterlimit="10"/>
<path d="M252.956 227.993V225.894" stroke="#263238" stroke-miterlimit="10"/>
<path d="M254.401 224.464V226.564" stroke="#263238" stroke-miterlimit="10"/>
<path d="M294.626 224.636V226.652" stroke="#263238" stroke-miterlimit="10"/>
<path d="M292.419 224.636V226.564" stroke="#263238" stroke-miterlimit="10"/>
<path d="M286.987 224.553V226.985" stroke="#263238" stroke-miterlimit="10"/>
<path d="M257.878 224.802V225.893" stroke="#263238" stroke-miterlimit="10"/>
<path d="M258.73 227.323V225.39" stroke="#263238" stroke-miterlimit="10"/>
<path d="M264.755 224.553V226.985" stroke="#263238" stroke-miterlimit="10"/>
<path d="M275.362 224.802V226.48" stroke="#263238" stroke-miterlimit="10"/>
<path d="M294.777 230.896V229.384" stroke="#263238" stroke-miterlimit="10"/>
<path d="M296.11 227.639H249.338V231.018H296.11V227.639Z" fill="white" stroke="#263238" stroke-miterlimit="10"/>
<path d="M251.41 231.317V229.218" stroke="#263238" stroke-miterlimit="10"/>
<path d="M252.85 227.788V229.888" stroke="#263238" stroke-miterlimit="10"/>
<path d="M293.08 227.954V229.971" stroke="#263238" stroke-miterlimit="10"/>
<path d="M290.874 227.954V229.888" stroke="#263238" stroke-miterlimit="10"/>
<path d="M285.442 227.871V230.309" stroke="#263238" stroke-miterlimit="10"/>
<path d="M256.333 228.126V229.217" stroke="#263238" stroke-miterlimit="10"/>
<path d="M257.178 230.642V228.714" stroke="#263238" stroke-miterlimit="10"/>
<path d="M263.204 227.871V230.309" stroke="#263238" stroke-miterlimit="10"/>
<path d="M273.816 228.126V229.805" stroke="#263238" stroke-miterlimit="10"/>
<path d="M291.389 234.22V232.708" stroke="#263238" stroke-miterlimit="10"/>
<path d="M292.722 230.963H245.95V234.342H292.722V230.963Z" fill="white" stroke="#263238" stroke-miterlimit="10"/>
<path d="M248.017 234.636V232.536" stroke="#263238" stroke-miterlimit="10"/>
<path d="M249.462 231.112V233.212" stroke="#263238" stroke-miterlimit="10"/>
<path d="M289.692 231.278V233.295" stroke="#263238" stroke-miterlimit="10"/>
<path d="M287.486 231.278V233.212" stroke="#263238" stroke-miterlimit="10"/>
<path d="M282.054 231.195V233.627" stroke="#263238" stroke-miterlimit="10"/>
<path d="M252.939 231.444V232.536" stroke="#263238" stroke-miterlimit="10"/>
<path d="M253.79 233.965V232.037" stroke="#263238" stroke-miterlimit="10"/>
<path d="M259.816 231.195V233.627" stroke="#263238" stroke-miterlimit="10"/>
<path d="M270.422 231.444V233.129" stroke="#263238" stroke-miterlimit="10"/>
<path d="M290.258 237.539V236.026" stroke="#263238" stroke-miterlimit="10"/>
<path d="M291.59 234.281H244.819V237.661H291.59V234.281Z" fill="white" stroke="#263238" stroke-miterlimit="10"/>
<path d="M246.891 237.96V235.86" stroke="#263238" stroke-miterlimit="10"/>
<path d="M248.33 234.431V236.53" stroke="#263238" stroke-miterlimit="10"/>
<path d="M288.561 234.603V236.614" stroke="#263238" stroke-miterlimit="10"/>
<path d="M286.354 234.603V236.53" stroke="#263238" stroke-miterlimit="10"/>
<path d="M280.922 234.52V236.952" stroke="#263238" stroke-miterlimit="10"/>
<path d="M251.814 234.769V235.86" stroke="#263238" stroke-miterlimit="10"/>
<path d="M252.659 237.289V235.355" stroke="#263238" stroke-miterlimit="10"/>
<path d="M258.685 234.52V236.952" stroke="#263238" stroke-miterlimit="10"/>
<path d="M269.297 234.769V236.447" stroke="#263238" stroke-miterlimit="10"/>
<path d="M290.034 240.863V239.351" stroke="#263238" stroke-miterlimit="10"/>
<path d="M291.366 237.605H244.595V240.985H291.366V237.605Z" fill="white" stroke="#263238" stroke-miterlimit="10"/>
<path d="M246.662 241.283V239.184" stroke="#263238" stroke-miterlimit="10"/>
<path d="M248.106 237.755V239.855" stroke="#263238" stroke-miterlimit="10"/>
<path d="M288.337 237.921V239.937" stroke="#263238" stroke-miterlimit="10"/>
<path d="M286.13 237.921V239.854" stroke="#263238" stroke-miterlimit="10"/>
<path d="M280.698 237.838V240.275" stroke="#263238" stroke-miterlimit="10"/>
<path d="M251.584 238.093V239.184" stroke="#263238" stroke-miterlimit="10"/>
<path d="M252.435 240.608V238.68" stroke="#263238" stroke-miterlimit="10"/>
<path d="M258.461 237.838V240.275" stroke="#263238" stroke-miterlimit="10"/>
<path d="M269.067 238.093V239.771" stroke="#263238" stroke-miterlimit="10"/>
<path d="M290.146 244.186V242.674" stroke="#263238" stroke-miterlimit="10"/>
<path d="M291.478 240.929H244.707V244.308H291.478V240.929Z" fill="white" stroke="#263238" stroke-miterlimit="10"/>
<path d="M246.779 244.603V242.503" stroke="#263238" stroke-miterlimit="10"/>
<path d="M248.218 241.079V243.179" stroke="#263238" stroke-miterlimit="10"/>
<path d="M288.449 241.245V243.262" stroke="#263238" stroke-miterlimit="10"/>
<path d="M286.242 241.245V243.179" stroke="#263238" stroke-miterlimit="10"/>
<path d="M280.81 241.162V243.594" stroke="#263238" stroke-miterlimit="10"/>
<path d="M251.702 241.411V242.503" stroke="#263238" stroke-miterlimit="10"/>
<path d="M252.547 243.932V241.998" stroke="#263238" stroke-miterlimit="10"/>
<path d="M258.573 241.162V243.594" stroke="#263238" stroke-miterlimit="10"/>
<path d="M269.185 241.411V243.095" stroke="#263238" stroke-miterlimit="10"/>
<path d="M289.468 247.505V245.992" stroke="#263238" stroke-miterlimit="10"/>
<path d="M290.801 244.248H244.03V247.627H290.801V244.248Z" fill="white" stroke="#263238" stroke-miterlimit="10"/>
<path d="M246.102 247.926V245.826" stroke="#263238" stroke-miterlimit="10"/>
<path d="M247.541 244.397V246.497" stroke="#263238" stroke-miterlimit="10"/>
<path d="M287.771 244.569V246.58" stroke="#263238" stroke-miterlimit="10"/>
<path d="M285.565 244.569V246.497" stroke="#263238" stroke-miterlimit="10"/>
<path d="M280.133 244.485V246.917" stroke="#263238" stroke-miterlimit="10"/>
<path d="M251.024 244.735V245.827" stroke="#263238" stroke-miterlimit="10"/>
<path d="M251.87 247.256V245.322" stroke="#263238" stroke-miterlimit="10"/>
<path d="M257.895 244.485V246.917" stroke="#263238" stroke-miterlimit="10"/>
<path d="M268.507 244.735V246.414" stroke="#263238" stroke-miterlimit="10"/>
<path d="M289.58 250.829V249.316" stroke="#263238" stroke-miterlimit="10"/>
<path d="M290.913 247.571H244.142V250.951H290.913V247.571Z" fill="white" stroke="#263238" stroke-miterlimit="10"/>
<path d="M246.214 251.25V249.15" stroke="#263238" stroke-miterlimit="10"/>
<path d="M247.653 247.721V249.82" stroke="#263238" stroke-miterlimit="10"/>
<path d="M287.883 247.888V249.904" stroke="#263238" stroke-miterlimit="10"/>
<path d="M285.677 247.888V249.821" stroke="#263238" stroke-miterlimit="10"/>
<path d="M280.245 247.805V250.242" stroke="#263238" stroke-miterlimit="10"/>
<path d="M251.136 248.06V249.151" stroke="#263238" stroke-miterlimit="10"/>
<path d="M251.982 250.574V248.646" stroke="#263238" stroke-miterlimit="10"/>
<path d="M258.007 247.805V250.242" stroke="#263238" stroke-miterlimit="10"/>
<path d="M268.619 248.06V249.738" stroke="#263238" stroke-miterlimit="10"/>
<path d="M290.034 254.148V252.641" stroke="#263238" stroke-miterlimit="10"/>
<path d="M291.366 250.896H244.595V254.275H291.366V250.896Z" fill="white" stroke="#263238" stroke-miterlimit="10"/>
<path d="M246.662 254.568V252.469" stroke="#263238" stroke-miterlimit="10"/>
<path d="M248.106 251.045V253.145" stroke="#263238" stroke-miterlimit="10"/>
<path d="M288.337 251.211V253.227" stroke="#263238" stroke-miterlimit="10"/>
<path d="M286.13 251.211V253.144" stroke="#263238" stroke-miterlimit="10"/>
<path d="M280.698 251.128V253.56" stroke="#263238" stroke-miterlimit="10"/>
<path d="M251.584 251.378V252.469" stroke="#263238" stroke-miterlimit="10"/>
<path d="M252.435 253.898V251.965" stroke="#263238" stroke-miterlimit="10"/>
<path d="M258.461 251.128V253.56" stroke="#263238" stroke-miterlimit="10"/>
<path d="M269.067 251.378V253.057" stroke="#263238" stroke-miterlimit="10"/>
<path d="M290.146 257.471V255.959" stroke="#263238" stroke-miterlimit="10"/>
<path d="M291.478 254.214H244.707V257.593H291.478V254.214Z" fill="white" stroke="#263238" stroke-miterlimit="10"/>
<path d="M246.779 257.893V255.793" stroke="#263238" stroke-miterlimit="10"/>
<path d="M248.218 254.363V256.463" stroke="#263238" stroke-miterlimit="10"/>
<path d="M288.449 254.535V256.546" stroke="#263238" stroke-miterlimit="10"/>
<path d="M286.242 254.535V256.463" stroke="#263238" stroke-miterlimit="10"/>
<path d="M280.81 254.452V256.884" stroke="#263238" stroke-miterlimit="10"/>
<path d="M251.702 254.701V255.793" stroke="#263238" stroke-miterlimit="10"/>
<path d="M252.547 257.223V255.289" stroke="#263238" stroke-miterlimit="10"/>
<path d="M258.573 254.452V256.884" stroke="#263238" stroke-miterlimit="10"/>
<path d="M269.185 254.701V256.38" stroke="#263238" stroke-miterlimit="10"/>
<path d="M291.389 260.796V259.283" stroke="#263238" stroke-miterlimit="10"/>
<path d="M292.722 257.538H245.95V260.917H292.722V257.538Z" fill="white" stroke="#263238" stroke-miterlimit="10"/>
<path d="M248.017 261.217V259.117" stroke="#263238" stroke-miterlimit="10"/>
<path d="M249.462 257.688V259.787" stroke="#263238" stroke-miterlimit="10"/>
<path d="M289.692 257.854V259.87" stroke="#263238" stroke-miterlimit="10"/>
<path d="M287.486 257.854V259.787" stroke="#263238" stroke-miterlimit="10"/>
<path d="M282.054 257.771V260.208" stroke="#263238" stroke-miterlimit="10"/>
<path d="M252.939 258.025V259.117" stroke="#263238" stroke-miterlimit="10"/>
<path d="M253.79 260.54V258.612" stroke="#263238" stroke-miterlimit="10"/>
<path d="M259.816 257.771V260.208" stroke="#263238" stroke-miterlimit="10"/>
<path d="M270.422 258.025V259.704" stroke="#263238" stroke-miterlimit="10"/>
<path d="M291.389 264.114V262.607" stroke="#263238" stroke-miterlimit="10"/>
<path d="M292.722 260.856H245.95V264.23H292.722V260.856Z" fill="white" stroke="#263238" stroke-miterlimit="10"/>
<path d="M248.017 264.535V262.436" stroke="#263238" stroke-miterlimit="10"/>
<path d="M249.462 261.012V263.111" stroke="#263238" stroke-miterlimit="10"/>
<path d="M289.692 261.178V263.194" stroke="#263238" stroke-miterlimit="10"/>
<path d="M287.486 261.178V263.111" stroke="#263238" stroke-miterlimit="10"/>
<path d="M282.054 261.095V263.527" stroke="#263238" stroke-miterlimit="10"/>
<path d="M252.939 261.344V262.435" stroke="#263238" stroke-miterlimit="10"/>
<path d="M253.79 263.865V261.932" stroke="#263238" stroke-miterlimit="10"/>
<path d="M259.816 261.095V263.527" stroke="#263238" stroke-miterlimit="10"/>
<path d="M270.422 261.344V263.022" stroke="#263238" stroke-miterlimit="10"/>
<path d="M291.389 267.438V265.926" stroke="#263238" stroke-miterlimit="10"/>
<path d="M292.722 264.181H245.95V267.555H292.722V264.181Z" fill="white" stroke="#263238" stroke-miterlimit="10"/>
<path d="M248.017 267.859V265.76" stroke="#263238" stroke-miterlimit="10"/>
<path d="M249.462 264.33V266.43" stroke="#263238" stroke-miterlimit="10"/>
<path d="M289.692 264.502V266.513" stroke="#263238" stroke-miterlimit="10"/>
<path d="M287.486 264.502V266.43" stroke="#263238" stroke-miterlimit="10"/>
<path d="M282.054 264.419V266.851" stroke="#263238" stroke-miterlimit="10"/>
<path d="M252.939 264.668V265.759" stroke="#263238" stroke-miterlimit="10"/>
<path d="M253.79 267.188V265.255" stroke="#263238" stroke-miterlimit="10"/>
<path d="M259.816 264.419V266.851" stroke="#263238" stroke-miterlimit="10"/>
<path d="M270.422 264.668V266.347" stroke="#263238" stroke-miterlimit="10"/>
<path d="M148.438 170.449H130.075V217.439H148.438V170.449Z" fill="#263238" stroke="#263238" stroke-linecap="round" stroke-linejoin="round"/>
<path d="M191.328 177.878V177.324C191.328 175.499 190.595 173.749 189.291 172.459C187.987 171.168 186.217 170.443 184.373 170.443H130.053V170.51C131.727 170.724 133.264 171.534 134.378 172.788C135.492 174.042 136.107 175.654 136.106 177.324V189.29H136.23V259.371C136.23 260.458 136.446 261.533 136.866 262.537C137.286 263.54 137.902 264.452 138.678 265.22C139.455 265.988 140.377 266.597 141.391 267.013C142.405 267.429 143.492 267.643 144.59 267.643H191.317V177.895L191.328 177.878Z" fill="#DBDBDB" stroke="#263238" stroke-linecap="round" stroke-linejoin="round"/>
<path d="M154.547 255.354V260.767C154.546 262.309 154.02 263.807 153.056 265.018C152.091 266.23 150.743 267.086 149.227 267.448V267.648H173.223V255.354H154.547Z" fill="#263238" stroke="#263238" stroke-linecap="round" stroke-linejoin="round"/>
<path d="M158.288 248.801V260.767C158.286 262.435 157.672 264.046 156.559 265.299C155.447 266.553 153.912 267.364 152.24 267.581V267.642H200.4C201.313 267.642 202.218 267.464 203.062 267.119C203.906 266.773 204.672 266.266 205.318 265.627C205.964 264.988 206.476 264.23 206.826 263.395C207.175 262.56 207.355 261.665 207.355 260.762V248.801H158.288Z" fill="#DBDBDB" stroke="#263238" stroke-linecap="round" stroke-linejoin="round"/>
<path d="M146.937 179.806H183.13" stroke="#263238" stroke-miterlimit="10"/>
<path d="M146.937 186.332H183.13" stroke="#263238" stroke-miterlimit="10"/>
<path d="M146.937 191.872H183.13" stroke="#263238" stroke-miterlimit="10"/>
<path d="M146.937 230.447H183.13" stroke="#263238" stroke-miterlimit="10"/>
<path d="M146.937 239.948H183.13" stroke="#263238" stroke-miterlimit="10"/>
<path d="M146.937 197.611H168.536" stroke="#263238" stroke-miterlimit="10"/>
<path d="M146.937 202.753H168.536" stroke="#263238" stroke-miterlimit="10"/>
<path d="M146.937 207.894H168.536" stroke="#263238" stroke-miterlimit="10"/>
<path d="M146.937 213.04H168.536" stroke="#263238" stroke-miterlimit="10"/>
<path d="M146.937 218.182H168.536" stroke="#263238" stroke-miterlimit="10"/>
<path d="M146.937 223.328H168.536" stroke="#263238" stroke-miterlimit="10"/>
<path d="M96.0552 259.488C96.0552 259.488 98.5416 262.873 99.628 263.333C100.714 263.793 102.736 264.103 103.358 265.488C103.703 266.161 103.916 266.892 103.985 267.643H88.5904C88.5904 267.643 87.9688 265.643 88.5904 264.413C88.9737 263.637 89.2361 262.808 89.3688 261.954L96.0552 259.488Z" fill="white" stroke="#263238" stroke-linecap="round" stroke-linejoin="round"/>
<path d="M88.3272 266.104H103.61C103.814 266.595 103.941 267.114 103.985 267.644H88.5904C88.4468 267.141 88.3586 266.625 88.3272 266.104Z" fill="white" stroke="#263238" stroke-linecap="round" stroke-linejoin="round"/>
<path d="M79.5744 262.874L79.2664 267.793H71.8016C71.6273 266.871 71.6811 265.92 71.9584 265.023C72.4232 263.638 72.8936 262.408 72.8936 262.408L79.5744 262.874Z" fill="white" stroke="#263238" stroke-linecap="round" stroke-linejoin="round"/>
<path d="M79.2664 267.793H71.8016C71.6873 267.185 71.6703 266.562 71.7512 265.948H79.384L79.2664 267.793Z" fill="white" stroke="#263238" stroke-linecap="round" stroke-linejoin="round"/>
<path d="M102.114 187.807C102.114 187.807 100.871 203.801 100.563 209.49C100.255 215.18 96.0552 259.478 96.0552 259.478C96.0552 259.478 89.9904 263.173 89.212 263.173C88.4336 263.173 87.532 209.8 87.532 209.8L79.5744 262.874C78.7185 263.145 77.8293 263.3 76.9312 263.333C75.688 263.333 72.8936 262.414 72.8936 262.414L75.52 198.432V187.807C75.52 187.807 91.2 189.962 95.4168 189.347C97.6942 189.048 99.9372 188.532 102.114 187.807Z" fill="#263238" stroke="#263238" stroke-linecap="round" stroke-linejoin="round"/>
<path d="M83.1528 197.507L86.5688 200.122L87.504 209.811" stroke="#808080" stroke-linecap="round" stroke-linejoin="round"/>
<path d="M81.7416 122.833C81.7416 122.833 88.0808 122.047 89.9456 124.191C91.8104 126.335 92.1856 130.49 93.4792 131.487C94.7728 132.484 95.4952 131.243 96.072 132.539C96.6488 133.836 95.708 135.437 95.708 135.437C95.708 135.437 95.8648 141.68 95.148 141.98C94.4312 142.279 91.228 142.284 91.228 142.284L91.7488 144.849L83.7296 145.182L83.0296 142.5C83.0296 142.5 76.9312 138.999 75.2848 136.345C73.6384 133.692 74.0304 127.814 75.6768 125.758C77.3232 123.703 81.7416 122.833 81.7416 122.833Z" fill="white" stroke="#263238" stroke-linecap="round" stroke-linejoin="round"/>
<path d="M95.708 135.437C95.708 135.437 91.9896 134.279 91.788 134.827C91.5864 135.376 92.2304 142.378 92.2304 142.378C92.2304 142.378 94.8568 142.677 95.148 141.979C95.4392 141.281 95.9992 140.423 95.708 135.437ZM94.924 141.315C94.7112 141.869 92.8296 141.636 92.8296 141.636C92.8296 141.636 92.3536 135.996 92.5104 135.542C92.6672 135.088 95.3104 136.035 95.3104 136.035C95.54 140.062 95.12 140.755 94.924 141.315Z" fill="#263238"/>
<path d="M91.564 131.182C91.76 131.653 92.0736 131.969 92.264 131.891C92.4544 131.814 92.4488 131.37 92.264 130.9C92.0792 130.429 91.7544 130.113 91.564 130.19C91.3736 130.268 91.368 130.711 91.564 131.182Z" fill="#263238"/>
<path d="M95.0696 136.445C94.7358 136.612 94.3501 136.648 93.9905 136.545C93.6309 136.442 93.3241 136.208 93.132 135.891" stroke="#263238" stroke-linecap="round" stroke-linejoin="round"/>
<path d="M91.4968 128.999C91.4968 128.999 90.6848 128.562 90.5896 129.897" stroke="#263238" stroke-linecap="round" stroke-linejoin="round"/>
<path d="M75.6768 125.758C77.3232 123.709 81.7416 122.833 81.7416 122.833C81.7416 122.833 88.0808 122.047 89.9456 124.191C89.9456 124.191 86.44 123.315 86.8936 124.794C87.3472 126.274 90.9816 128.534 89.7328 129.409C88.484 130.285 87.0784 129.62 87.6608 130.916C88.2432 132.213 88.9712 133.481 88.3608 133.598C87.7504 133.714 86.0424 132.334 85.3144 132.634C84.5864 132.933 83.7576 135.138 84.4576 136.257C84.9283 136.942 85.6522 137.418 86.4736 137.581C86.4736 137.581 85.2248 140.811 84.1272 141.653C83.6516 142.025 83.052 142.207 82.4472 142.162C80.896 141.226 76.6064 138.506 75.268 136.345C73.6384 133.692 74.0304 127.814 75.6768 125.758Z" fill="#263238" stroke="#263238" stroke-linecap="round" stroke-linejoin="round"/>
<path d="M75.2792 149.375C75.2792 149.375 70.76 152.3 69.5448 154.533C68.3296 156.765 65.3728 177.734 65.0256 179.972C64.6784 182.211 69.9816 197.939 69.9816 197.939C69.9816 197.939 69.5448 201.54 69.9816 203.479C70.4184 205.418 71.712 206.548 72.3672 206.659C73.0224 206.769 73.5768 204.814 73.5768 204.814C74.0136 205.246 74.5624 204.703 74.5624 204.166C74.5624 203.628 74.8928 199.734 74.7808 199.18C74.6688 198.626 74.1816 196.836 74.1816 196.836L75.3016 183.053L75.2792 149.375Z" fill="white" stroke="#263238" stroke-linecap="round" stroke-linejoin="round"/>
<path d="M65.44 178.023C67.27 178.759 69.2167 179.172 71.1912 179.242C74.0696 179.242 74.8872 178.837 74.8872 178.837L75.0272 175.181C75.0272 175.181 68.4528 175.181 67.7472 174.909C67.0416 174.638 65.8264 174.233 65.8264 174.233L65.44 178.023Z" fill="#384EDD" stroke="#263238" stroke-linecap="round" stroke-linejoin="round"/>
<path d="M69.5448 154.533C68.6096 156.245 66.6608 168.937 65.6248 175.812C68.7322 176.806 72.0075 177.182 75.2624 176.92V149.375C75.2624 149.375 70.76 152.3 69.5448 154.533Z" fill="#384EDD" stroke="#263238" stroke-linecap="round" stroke-linejoin="round"/>
<path d="M72.4848 167.918L68.5592 165.524" stroke="#263238" stroke-linecap="round" stroke-linejoin="round"/>
<path d="M70.06 169.292L72.8264 168.948" stroke="#263238" stroke-linecap="round" stroke-linejoin="round"/>
<path d="M73.3528 199.623C73.2345 200.155 72.9689 200.644 72.5856 201.036L72.0256 201.468L71.7008 203.423C71.7008 203.423 71.9192 204.615 72.0256 205.263" stroke="#263238" stroke-linecap="round" stroke-linejoin="round"/>
<path d="M73.5768 204.831L73.4648 202.011" stroke="#263238" stroke-linecap="round" stroke-linejoin="round"/>
<path d="M73.2464 174.46C73.0336 166.859 71.348 160.472 71.2192 159.225C71.0736 157.757 70.6928 154.023 73.4928 150.771C74.917 149.399 76.5449 148.25 78.32 147.364C79.3112 147.071 80.0728 146.932 80.0728 146.932L79.5744 146.777C80.4418 146.409 81.3345 146.101 82.2456 145.857C84.5808 145.242 90.7968 144.932 92.6616 146.627C92.6616 146.627 98.0488 148.289 100.698 150.195C102.031 151.843 102.866 153.831 103.106 155.929C103.386 158.982 103.934 173.74 104.136 179.313C104.181 180.576 104.282 181.823 104.438 183.075C104.791 185.845 105.245 195.352 105.245 195.352C105.245 195.352 99.348 197.368 89.8616 197.063C80.3752 196.759 74.5904 194.349 74.5904 194.349L73.196 193.618C73.196 193.618 73.196 184.604 73.196 183.092C73.2128 180.139 73.28 174.51 73.2464 174.46Z" fill="#384EDD" stroke="#263238" stroke-linecap="round" stroke-linejoin="round"/>
<path d="M90.08 168.588C90.4977 169.344 90.9911 170.057 91.5528 170.715L90.08 168.588Z" fill="#384EDD"/>
<path d="M90.08 168.588C90.4977 169.344 90.9911 170.057 91.5528 170.715" stroke="#263238" stroke-linecap="round" stroke-linejoin="round"/>
<path d="M85.7456 156.539C86.5916 160.15 87.7804 163.675 89.296 167.065L85.7456 156.539Z" fill="#384EDD"/>
<path d="M85.7456 156.539C86.5916 160.15 87.7804 163.675 89.296 167.065" stroke="#263238" stroke-linecap="round" stroke-linejoin="round"/>
<path d="M86.0984 163.12C86.4736 163.829 86.8208 164.472 87.0952 164.965L86.0984 163.12Z" fill="#384EDD"/>
<path d="M86.0984 163.12C86.4736 163.829 86.8208 164.472 87.0952 164.965" stroke="#263238" stroke-linecap="round" stroke-linejoin="round"/>
<path d="M82.7664 156.672C82.7664 156.672 83.9536 159.021 85.1688 161.359L82.7664 156.672Z" fill="#384EDD"/>
<path d="M82.7664 156.672C82.7664 156.672 83.9536 159.021 85.1688 161.359" stroke="#263238" stroke-linecap="round" stroke-linejoin="round"/>
<path d="M96.4136 147.952C96.4136 147.952 94.14 144.733 93.6752 144.428C93.2104 144.124 83.78 143.132 81.7584 143.747C79.7368 144.362 78.32 147.365 78.32 147.365C78.32 147.365 88.3272 146.716 96.4136 147.952Z" fill="white" stroke="#263238" stroke-linecap="round" stroke-linejoin="round"/>
<path d="M98.4072 164.455L107.44 172.361C107.44 172.361 112.301 175.795 114.216 175.131C115.896 174.521 130.938 161.386 134.432 158.322L135.793 157.558C135.793 157.558 137.736 157.558 138.302 157.203C138.867 156.849 139.713 156.178 139.713 156.178H140.183C140.654 156.178 140.939 155.525 141.13 154.871C141.32 154.217 141.88 152.356 141.69 151.89C141.499 151.425 139.046 149.835 139.046 149.835C139.046 149.835 139.707 148.904 139.993 148.533C140.278 148.162 141.214 147.132 141.113 146.201C141.012 145.27 139.993 144.799 139.13 145.83C138.268 146.86 134.04 150.023 133.474 151.142C133.077 151.924 132.5 153.187 132.181 153.874L115.067 163.253C115.067 163.253 105.161 151.741 104.119 151.065C103.078 150.389 95.3384 148.073 95.3384 148.073" fill="white"/>
<path d="M98.4072 164.455L107.44 172.361C107.44 172.361 112.301 175.795 114.216 175.131C115.896 174.521 130.938 161.386 134.432 158.322L135.793 157.558C135.793 157.558 137.736 157.558 138.302 157.203C138.867 156.849 139.713 156.178 139.713 156.178H140.183C140.654 156.178 140.939 155.525 141.13 154.871C141.32 154.217 141.88 152.356 141.69 151.89C141.499 151.425 139.046 149.835 139.046 149.835C139.046 149.835 139.707 148.904 139.993 148.533C140.278 148.162 141.214 147.132 141.113 146.201C141.012 145.27 139.993 144.799 139.13 145.83C138.268 146.86 134.04 150.023 133.474 151.142C133.077 151.924 132.5 153.187 132.181 153.874L115.067 163.253C115.067 163.253 105.161 151.741 104.119 151.065C103.078 150.389 95.3384 148.073 95.3384 148.073" stroke="#263238" stroke-linecap="round" stroke-linejoin="round"/>
<path d="M98.4072 164.455L107.44 172.361C107.44 172.361 112.301 175.795 114.216 175.131C114.888 174.887 117.705 172.638 121.059 169.829C121.018 168.313 120.721 166.815 120.18 165.397C119.719 164.011 118.916 162.76 117.845 161.757L115.084 163.269C115.084 163.269 105.178 151.757 104.136 151.081C103.094 150.406 95.3552 148.09 95.3552 148.09" fill="#384EDD"/>
<path d="M98.4072 164.455L107.44 172.361C107.44 172.361 112.301 175.795 114.216 175.131C114.888 174.887 117.705 172.638 121.059 169.829C121.018 168.313 120.721 166.815 120.18 165.397C119.719 164.011 118.916 162.76 117.845 161.757L115.084 163.269C115.084 163.269 105.178 151.757 104.136 151.081C103.094 150.406 95.3552 148.09 95.3552 148.09" stroke="#263238" stroke-linecap="round" stroke-linejoin="round"/>
<path d="M116.165 162.101C116.165 162.101 116.68 161.414 118.17 163.248C119.659 165.081 120.41 169.375 120.41 169.984C120.41 170.594 121.401 170.35 122.017 169.619C122.633 168.887 124.615 168.638 124.867 166.677C125.119 164.716 124.246 162.023 123.131 160.312C122.017 158.6 122.14 158.594 121.026 158.838C119.911 159.082 116.518 161.215 116.165 162.101Z" fill="#384EDD" stroke="#263238" stroke-linecap="round" stroke-linejoin="round"/>
<path d="M115.09 163.248C115.09 163.248 116.238 164.838 115.778 167.918L115.09 163.248Z" fill="#384EDD"/>
<path d="M115.09 163.248C115.09 163.248 116.238 164.838 115.778 167.918" stroke="#263238" stroke-linecap="round" stroke-linejoin="round"/>
<path d="M116.96 166.322C116.96 166.322 117.419 167.464 116.495 169.979L116.96 166.322Z" fill="#384EDD"/>
<path d="M116.96 166.322C116.96 166.322 117.419 167.464 116.495 169.979" stroke="#263238" stroke-linecap="round" stroke-linejoin="round"/>
<path d="M139.36 156.051C139.604 155.491 139.731 154.888 139.735 154.278L139.36 156.051Z" fill="white"/>
<path d="M139.36 156.051C139.604 155.491 139.731 154.888 139.735 154.278" stroke="#263238" stroke-linecap="round" stroke-linejoin="round"/>
<path d="M35.6425 267.793H294.273" stroke="#263238" stroke-miterlimit="10"/>
</g>
<defs>
<clipPath id="clip0_289_8050">
<rect width="328" height="277" fill="white"/>
</clipPath>
</defs>
</svg>
