<svg width="40" height="40" viewBox="0 0 40 40" fill="none" xmlns="http://www.w3.org/2000/svg">
<rect width="40" height="40" rx="20" fill="#DFE3FA"/>
<path d="M25.74 30.75H15.63C15.31 30.75 15.03 30.55 14.92 30.26C14.81 29.96 14.9 29.63 15.14 29.43C15.38 29.23 15.6 28.97 15.76 28.69C16.08 28.18 16.24 27.6 16.24 27.01C16.24 25.22 14.78 23.76 12.99 23.76C12.25 23.76 11.55 24.01 10.96 24.48C10.73 24.66 10.43 24.69 10.17 24.57C9.91 24.45 9.75 24.18 9.75 23.89V19.52C9.75 17.03 11.77 15.01 14.26 15.01H25.74C28.23 15.01 30.25 17.03 30.25 19.52V20.96C30.25 21.37 29.91 21.71 29.5 21.71H27.48C27.13 21.71 26.81 21.84 26.58 22.08L26.57 22.09C26.29 22.36 26.16 22.73 26.19 23.11C26.25 23.77 26.88 24.3 27.6 24.3H29.5C29.91 24.3 30.25 24.64 30.25 25.05V26.24C30.25 28.73 28.23 30.75 25.74 30.75ZM17.18 29.25H25.74C27.4 29.25 28.75 27.9 28.75 26.24V25.8H27.6C26.09 25.8 24.81 24.68 24.69 23.24C24.61 22.42 24.91 21.61 25.51 21.02C26.03 20.49 26.73 20.2 27.48 20.2H28.75V19.51C28.75 17.85 27.4 16.5 25.74 16.5H14.26C12.6 16.5 11.25 17.85 11.25 19.51V22.59C11.81 22.37 12.4 22.25 13 22.25C15.62 22.25 17.75 24.38 17.75 27C17.75 27.79 17.55 28.57 17.18 29.25Z" fill="#384EDD"/>
<path d="M10.5 21.16C10.09 21.16 9.75 20.82 9.75 20.41V15.8401C9.75 14.3501 10.69 13 12.08 12.47L20.02 9.47001C20.83 9.16001 21.75 9.27005 22.46 9.77005C23.18 10.2701 23.6 11.08 23.6 11.95V15.75C23.6 16.16 23.26 16.5 22.85 16.5C22.44 16.5 22.1 16.16 22.1 15.75V11.95C22.1 11.57 21.92 11.22 21.6 11C21.28 10.78 20.9 10.73 20.54 10.87L12.6 13.87C11.79 14.18 11.24 14.9701 11.24 15.8401V20.41C11.25 20.83 10.91 21.16 10.5 21.16Z" fill="#384EDD"/>
<path d="M27.6 25.7999C26.09 25.7999 24.81 24.6799 24.69 23.2399C24.61 22.4099 24.91 21.5999 25.51 21.0099C26.02 20.4899 26.72 20.2 27.47 20.2H29.55C30.54 20.23 31.3 21.0099 31.3 21.9699V24.03C31.3 24.99 30.54 25.7699 29.58 25.7999H27.6ZM29.53 21.7H27.48C27.13 21.7 26.81 21.8299 26.58 22.0699C26.29 22.3499 26.15 22.7299 26.19 23.1099C26.25 23.7699 26.88 24.2999 27.6 24.2999H29.56C29.69 24.2999 29.81 24.18 29.81 24.03V21.9699C29.81 21.8199 29.69 21.71 29.53 21.7Z" fill="#384EDD"/>
<path d="M22 20.75H15C14.59 20.75 14.25 20.41 14.25 20C14.25 19.59 14.59 19.25 15 19.25H22C22.41 19.25 22.75 19.59 22.75 20C22.75 20.41 22.41 20.75 22 20.75Z" fill="#384EDD"/>
<path d="M13 31.75C11.34 31.75 9.78 30.87 8.94 29.44C8.49 28.72 8.25 27.87 8.25 27C8.25 25.54 8.9 24.19 10.03 23.29C10.87 22.62 11.93 22.25 13 22.25C15.62 22.25 17.75 24.38 17.75 27C17.75 27.87 17.51 28.72 17.06 29.45C16.82 29.87 16.49 30.25 16.11 30.57C15.28 31.33 14.17 31.75 13 31.75ZM13 23.75C12.26 23.75 11.56 24 10.97 24.47C10.2 25.08 9.75 26.01 9.75 27C9.75 27.59 9.91 28.17 10.22 28.67C10.81 29.67 11.85 30.25 13 30.25C13.79 30.25 14.55 29.96 15.13 29.44C15.39 29.22 15.61 28.96 15.77 28.68C16.09 28.17 16.25 27.59 16.25 27C16.25 25.21 14.79 23.75 13 23.75Z" fill="#384EDD"/>
<path d="M14.49 27.73H11.5C11.09 27.73 10.75 27.39 10.75 26.98C10.75 26.57 11.09 26.23 11.5 26.23H14.49C14.9 26.23 15.24 26.57 15.24 26.98C15.24 27.39 14.91 27.73 14.49 27.73Z" fill="#384EDD"/>
</svg>
