<svg width="90" height="90" viewBox="0 0 90 90" fill="none" xmlns="http://www.w3.org/2000/svg">
<path d="M48.75 63.75C48.75 63.258 48.6531 62.7709 48.4648 62.3164C48.2765 61.8618 48.0006 61.4489 47.6527 61.101C47.3048 60.7531 46.8919 60.4772 46.4373 60.2889C45.9828 60.1006 45.4957 60.0037 45.0037 60.0037C44.5118 60.0037 44.0246 60.1006 43.5701 60.2889C43.1156 60.4772 42.7026 60.7531 42.3547 61.101C42.0068 61.4489 41.7309 61.8618 41.5426 62.3164C41.3544 62.7709 41.2575 63.258 41.2575 63.75C41.2882 64.7225 41.6962 65.645 42.3951 66.322C43.0939 66.9991 44.0288 67.3777 45.0018 67.3777C45.9749 67.3777 46.9098 66.9991 47.6086 66.322C48.3074 65.645 48.7154 64.7225 48.7462 63.75M47.7712 34.3012C47.674 33.595 47.3123 32.952 46.7591 32.5023C46.2059 32.0526 45.5026 31.8297 44.7914 31.8788C44.0802 31.9278 43.4141 32.2452 42.9279 32.7666C42.4418 33.288 42.1717 33.9746 42.1725 34.6875L42.1875 51.5662L42.2137 51.9487C42.3109 52.655 42.6726 53.298 43.2258 53.7477C43.779 54.1974 44.4823 54.4203 45.1935 54.3712C45.9048 54.3222 46.5708 54.0048 47.057 53.4834C47.5432 52.962 47.8132 52.2754 47.8125 51.5625L47.7975 34.68L47.7712 34.3012ZM52.3837 13.7212C49.17 7.91624 40.8262 7.91624 37.6162 13.7212L8.57247 66.225C5.45997 71.85 9.52872 78.75 15.96 78.75H74.0475C80.475 78.75 84.5437 71.85 81.4312 66.225L52.3837 13.7212ZM42.5362 16.4437C42.7793 16.0037 43.1359 15.6368 43.5689 15.3814C44.0018 15.1259 44.4954 14.9911 44.9981 14.9911C45.5008 14.9911 45.9944 15.1259 46.4273 15.3814C46.8603 15.6368 47.2169 16.0037 47.46 16.4437L76.5075 68.9512C76.7444 69.3796 76.8654 69.8624 76.8586 70.3519C76.8517 70.8414 76.7172 71.3206 76.4683 71.7422C76.2195 72.1638 75.8649 72.5131 75.4397 72.7556C75.0144 72.9981 74.5333 73.1254 74.0437 73.125H15.96C15.4704 73.1254 14.9893 72.9981 14.564 72.7556C14.1388 72.5131 13.7842 72.1638 13.5353 71.7422C13.2865 71.3206 13.152 70.8414 13.1451 70.3519C13.1383 69.8624 13.2593 69.3796 13.4962 68.9512L42.5362 16.4437Z" fill="#274C77"/>
</svg>
