<svg width="32" height="32" viewBox="0 0 32 32" fill="none" xmlns="http://www.w3.org/2000/svg">
<g clip-path="url(#clip0_289_12597)">
<rect width="32" height="32" rx="16" fill="white"/>
<path fill-rule="evenodd" clip-rule="evenodd" d="M0 0H19.2V14.9333H0V0Z" fill="#1A47B8"/>
<path fill-rule="evenodd" clip-rule="evenodd" d="M19.2 0V2.13333H44.8V0H19.2ZM19.2 4.26667V6.4H44.8V4.26667H19.2ZM19.2 8.53333V10.6667H44.8V8.53333H19.2ZM19.2 12.8V14.9333H44.8V12.8H19.2ZM0 17.0667V19.2H44.8V17.0667H0ZM0 21.3333V23.4667H44.8V21.3333H0ZM0 25.6V27.7333H44.8V25.6H0ZM0 29.8667V32H44.8V29.8667H0Z" fill="#F93939"/>
<path fill-rule="evenodd" clip-rule="evenodd" d="M2.1333 2.1333V4.26663H4.26663V2.1333H2.1333ZM6.39997 2.1333V4.26663H8.5333V2.1333H6.39997ZM10.6666 2.1333V4.26663H12.8V2.1333H10.6666ZM14.9333 2.1333V4.26663H17.0666V2.1333H14.9333ZM12.8 4.26663V6.39997H14.9333V4.26663H12.8ZM8.5333 4.26663V6.39997H10.6666V4.26663H8.5333ZM4.26663 4.26663V6.39997H6.39997V4.26663H4.26663ZM2.1333 6.39997V8.5333H4.26663V6.39997H2.1333ZM6.39997 6.39997V8.5333H8.5333V6.39997H6.39997ZM10.6666 6.39997V8.5333H12.8V6.39997H10.6666ZM14.9333 6.39997V8.5333H17.0666V6.39997H14.9333ZM2.1333 10.6666V12.8H4.26663V10.6666H2.1333ZM6.39997 10.6666V12.8H8.5333V10.6666H6.39997ZM10.6666 10.6666V12.8H12.8V10.6666H10.6666ZM14.9333 10.6666V12.8H17.0666V10.6666H14.9333ZM12.8 8.5333V10.6666H14.9333V8.5333H12.8ZM8.5333 8.5333V10.6666H10.6666V8.5333H8.5333ZM4.26663 8.5333V10.6666H6.39997V8.5333H4.26663Z" fill="white"/>
</g>
<defs>
<clipPath id="clip0_289_12597">
<rect width="32" height="32" rx="16" fill="white"/>
</clipPath>
</defs>
</svg>
