<svg width="126" height="126" viewBox="0 0 126 126" fill="none" xmlns="http://www.w3.org/2000/svg">
<path d="M62.8 125.9C97.4835 125.9 125.6 97.7835 125.6 63.1001C125.6 28.4166 97.4835 0.300049 62.8 0.300049C28.1165 0.300049 0 28.4166 0 63.1001C0 97.7835 28.1165 125.9 62.8 125.9Z" fill="#DA2424"/>
<path d="M114.609 65.94C112.876 65.94 111.469 64.5333 111.469 62.8C111.469 48.4408 105.17 34.8822 94.1897 25.6035C92.8647 24.4857 92.6982 22.5044 93.8192 21.1793C94.9371 19.8542 96.9184 19.6878 98.2435 20.8056C110.64 31.2807 117.749 46.5882 117.749 62.8C117.749 64.5333 116.342 65.94 114.609 65.94Z" fill="#FF4949"/>
<path d="M113.354 75.988C115.088 75.988 116.494 74.5822 116.494 72.848C116.494 71.1138 115.088 69.708 113.354 69.708C111.62 69.708 110.214 71.1138 110.214 72.848C110.214 74.5822 111.62 75.988 113.354 75.988Z" fill="#FF4949"/>
<path d="M87 38.3L38 87.3001" stroke="white" stroke-width="12" stroke-linecap="round" stroke-linejoin="round"/>
<path d="M87 87.3001L38 38.3" stroke="white" stroke-width="12" stroke-linecap="round" stroke-linejoin="round"/>
</svg>
