<svg width="32" height="32" viewBox="0 0 32 32" fill="none" xmlns="http://www.w3.org/2000/svg">
<g clip-path="url(#clip0_289_12626)">
<rect width="32" height="32" rx="16" fill="#F93939"/>
<path d="M40.5333 0H4.26667C1.91025 0 0 1.91025 0 4.26667V27.7333C0 30.0898 1.91025 32 4.26667 32H40.5333C42.8897 32 44.8 30.0898 44.8 27.7333V4.26667C44.8 1.91025 42.8897 0 40.5333 0Z" fill="#F93939"/>
<path fill-rule="evenodd" clip-rule="evenodd" d="M0 8.5332H44.8V23.4665H0V8.5332Z" fill="#FFDA2C"/>
<path fill-rule="evenodd" clip-rule="evenodd" d="M19.1999 13.2735V18.6495C19.1999 20.1429 17.7663 21.3375 15.9999 21.3375H11.7332C9.97107 21.3333 8.5332 20.1322 8.5332 18.6453V13.2693C8.5332 12.049 9.48894 11.0293 10.8031 10.6986C11.1999 9.58928 12.4201 10.5834 13.8665 10.5834C15.3215 10.5834 16.5332 9.59568 16.93 10.7007C18.2399 11.0399 19.1999 12.0618 19.1999 13.2735Z" fill="#D4AF2C"/>
<path fill-rule="evenodd" clip-rule="evenodd" d="M19.1999 14.9331H21.3332V21.3331H19.1999V14.9331ZM6.3999 14.9331H8.53324V21.3331H6.3999V14.9331Z" fill="#CBCBCB"/>
<path fill-rule="evenodd" clip-rule="evenodd" d="M19.1999 19.2002H21.3332V21.3335H19.1999V19.2002ZM6.3999 19.2002H8.53324V21.3335H6.3999V19.2002Z" fill="#1A47B8"/>
<path fill-rule="evenodd" clip-rule="evenodd" d="M19.1999 12.7998H21.3332V14.9331H19.1999V12.7998ZM6.3999 12.7998H8.53324V14.9331H6.3999V12.7998Z" fill="#D4AF2C"/>
<path fill-rule="evenodd" clip-rule="evenodd" d="M10.6665 12.7998H12.7998V15.9998H10.6665V12.7998ZM14.9332 17.0665H17.0665V20.2665H14.9332V17.0665Z" fill="#AF010D"/>
<path fill-rule="evenodd" clip-rule="evenodd" d="M14.9331 12.7998H17.0664V15.9998H14.9331V12.7998Z" fill="#AE6A3E"/>
<path fill-rule="evenodd" clip-rule="evenodd" d="M10.6665 17.0669H12.7998V20.2669H10.6665V17.0669Z" fill="#FFDA2C"/>
<path fill-rule="evenodd" clip-rule="evenodd" d="M12.7998 12.7998L10.6665 10.6665H17.0665L14.9332 12.7998H12.7998Z" fill="#AF010D"/>
<path fill-rule="evenodd" clip-rule="evenodd" d="M12.7998 8.5332H14.9331V10.6665H12.7998V8.5332Z" fill="#D4AF2C"/>
</g>
<defs>
<clipPath id="clip0_289_12626">
<rect width="32" height="32" rx="16" fill="white"/>
</clipPath>
</defs>
</svg>
