<svg width="24" height="24" viewBox="0 0 24 24" fill="none" xmlns="http://www.w3.org/2000/svg">
<path d="M10.9401 22.6496C10.4601 22.6496 9.99015 22.5296 9.55015 22.2896C8.67015 21.7996 8.14015 20.9096 8.14015 19.9096V14.6096C8.14015 14.1096 7.81015 13.3596 7.50015 12.9796L3.76015 9.01961C3.13015 8.38961 2.65015 7.30961 2.65015 6.49961V4.19961C2.65015 2.59961 3.86015 1.34961 5.40015 1.34961H18.6001C20.1201 1.34961 21.3501 2.57961 21.3501 4.09961V6.29961C21.3501 7.34961 20.7201 8.53961 20.1301 9.12961L15.8001 12.9596C15.3801 13.3096 15.0501 14.0796 15.0501 14.6996V18.9996C15.0501 19.8896 14.4901 20.9196 13.7901 21.3396L12.4101 22.2296C11.9601 22.5096 11.4501 22.6496 10.9401 22.6496ZM5.40015 2.84961C4.70015 2.84961 4.15015 3.43961 4.15015 4.19961V6.49961C4.15015 6.86961 4.45015 7.58961 4.83015 7.96961L8.64015 11.9796C9.15015 12.6096 9.65015 13.6596 9.65015 14.5996V19.8996C9.65015 20.5496 10.1001 20.8696 10.2901 20.9696C10.7101 21.1996 11.2201 21.1996 11.6101 20.9596L13.0001 20.0696C13.2801 19.8996 13.5601 19.3596 13.5601 18.9996V14.6996C13.5601 13.6296 14.0801 12.4496 14.8301 11.8196L19.1101 8.02961C19.4501 7.68961 19.8601 6.87961 19.8601 6.28961V4.09961C19.8601 3.40961 19.3001 2.84961 18.6101 2.84961H5.40015V2.84961Z" fill="#384EDD"/>
<path d="M6.00017 10.7503C5.86017 10.7503 5.73017 10.7103 5.60017 10.6403C5.25017 10.4203 5.14017 9.95026 5.36017 9.60026L10.2902 1.70026C10.5102 1.35026 10.9702 1.24026 11.3202 1.46026C11.6702 1.68026 11.7802 2.14026 11.5602 2.49026L6.63017 10.3903C6.49017 10.6203 6.25017 10.7503 6.00017 10.7503Z" fill="#384EDD"/>
</svg>
