<svg width="48" height="48" viewBox="0 0 48 48" fill="none" xmlns="http://www.w3.org/2000/svg">
<circle cx="24" cy="24" r="24" fill="#384EDD" fill-opacity="0.1"/>
<path d="M34.34 21.33L32.34 20.33C31.97 20.15 31.51 20.29 31.33 20.66C31.14 21.04 31.29 21.49 31.66 21.67L33.25 22.46V27.25L29.5 27.26V17C29.5 15 28.16 14 26.5 14H18.5C16.84 14 15.5 15 15.5 17V33.25H14C13.59 33.25 13.25 33.59 13.25 34C13.25 34.41 13.59 34.75 14 34.75H31C31.41 34.75 31.75 34.41 31.75 34C31.75 33.59 31.41 33.25 31 33.25H29.5V28.76L34 28.75C34.42 28.75 34.75 28.41 34.75 28V22C34.75 21.72 34.59 21.46 34.34 21.33ZM18 18.89C18 17.5 18.85 17 19.89 17H25.12C26.15 17 27 17.5 27 18.89V20.12C27 21.5 26.15 22 25.11 22H19.89C18.85 22 18 21.5 18 20.11V18.89ZM18.5 24.25H21.5C21.91 24.25 22.25 24.59 22.25 25C22.25 25.41 21.91 25.75 21.5 25.75H18.5C18.09 25.75 17.75 25.41 17.75 25C17.75 24.59 18.09 24.25 18.5 24.25Z" fill="#384EDD"/>
</svg>
