<svg width="24" height="25" viewBox="0 0 24 25" fill="none" xmlns="http://www.w3.org/2000/svg">
<g clip-path="url(#clip0_289_8579)">
<path d="M23.9873 12.7343C23.9873 11.71 23.9057 10.9626 23.729 10.1875H12.239V14.8104H18.9833C18.8474 15.9593 18.1132 17.6894 16.4814 18.852L16.4585 19.0068L20.0915 21.8716L20.3431 21.8971C22.6547 19.724 23.9873 16.5267 23.9873 12.7343Z" fill="#4285F4"/>
<path d="M12.2391 24.9142C15.5433 24.9142 18.3171 23.8069 20.3432 21.8969L16.4815 18.8517C15.4481 19.5853 14.0611 20.0974 12.2391 20.0974C9.00291 20.0974 6.25622 17.9244 5.27711 14.9209L5.13359 14.9333L1.35604 17.9092L1.30664 18.049C3.31906 22.1182 7.45273 24.9142 12.2391 24.9142Z" fill="#34A853"/>
<path d="M5.27702 14.9209C5.01867 14.1458 4.86916 13.3153 4.86916 12.4572C4.86916 11.599 5.01867 10.7685 5.26343 9.99343L5.25658 9.82835L1.4317 6.80469L1.30655 6.86528C0.47714 8.55392 0.0012207 10.4502 0.0012207 12.4572C0.0012207 14.4641 0.47714 16.3603 1.30655 18.049L5.27702 14.9209Z" fill="#FBBC05"/>
<path d="M12.2391 4.8167C14.5371 4.8167 16.0871 5.8271 16.971 6.67147L20.4248 3.23884C18.3036 1.23187 15.5433 0 12.2391 0C7.45272 0 3.31906 2.7959 1.30664 6.86517L5.26351 9.99332C6.25622 6.98979 9.00291 4.8167 12.2391 4.8167Z" fill="#EB4335"/>
</g>
<defs>
<clipPath id="clip0_289_8579">
<rect width="24" height="25" fill="white"/>
</clipPath>
</defs>
</svg>
