<svg width="20" height="20" viewBox="0 0 20 20" fill="none" xmlns="http://www.w3.org/2000/svg">
<path d="M18.3333 17.7083H17.5V8.3166C17.5 7.79993 17.2666 7.3166 16.8583 6.99993L15.8333 6.19993L15.8166 4.15827C15.8166 3.69993 15.4416 3.33327 14.9833 3.33327H12.1416L11.025 2.4666C10.425 1.9916 9.57496 1.9916 8.97496 2.4666L3.14163 6.99993C2.73329 7.3166 2.49996 7.79994 2.49996 8.30827L2.45829 17.7083H1.66663C1.32496 17.7083 1.04163 17.9916 1.04163 18.3333C1.04163 18.6749 1.32496 18.9583 1.66663 18.9583H18.3333C18.675 18.9583 18.9583 18.6749 18.9583 18.3333C18.9583 17.9916 18.675 17.7083 18.3333 17.7083ZM5.41663 10.6249V9.37494C5.41663 8.9166 5.79163 8.5416 6.24996 8.5416H7.91663C8.37496 8.5416 8.74996 8.9166 8.74996 9.37494V10.6249C8.74996 11.0833 8.37496 11.4583 7.91663 11.4583H6.24996C5.79163 11.4583 5.41663 11.0833 5.41663 10.6249ZM12.0833 17.7083H7.91663V15.4166C7.91663 14.7249 8.47496 14.1666 9.16663 14.1666H10.8333C11.525 14.1666 12.0833 14.7249 12.0833 15.4166V17.7083ZM14.5833 10.6249C14.5833 11.0833 14.2083 11.4583 13.75 11.4583H12.0833C11.625 11.4583 11.25 11.0833 11.25 10.6249V9.37494C11.25 8.9166 11.625 8.5416 12.0833 8.5416H13.75C14.2083 8.5416 14.5833 8.9166 14.5833 9.37494V10.6249Z" fill="#17CE4E"/>
</svg>
