<svg width="25" height="24" viewBox="0 0 25 24" fill="none" xmlns="http://www.w3.org/2000/svg">
<path d="M15.76 22.2503H9.23998C4.32998 22.2503 2.22998 20.1503 2.22998 15.2403V15.1103C2.22998 10.6703 3.97998 8.53027 7.89998 8.16027C8.29998 8.13027 8.67998 8.43027 8.71998 8.84027C8.75998 9.25027 8.45998 9.62027 8.03998 9.66027C4.89998 9.95027 3.72998 11.4303 3.72998 15.1203V15.2503C3.72998 19.3203 5.16998 20.7603 9.23998 20.7603H15.76C19.83 20.7603 21.27 19.3203 21.27 15.2503V15.1203C21.27 11.4103 20.08 9.93027 16.88 9.66027C16.47 9.62027 16.16 9.26027 16.2 8.85027C16.24 8.44027 16.59 8.13027 17.01 8.17027C20.99 8.51027 22.77 10.6603 22.77 15.1303V15.2603C22.77 20.1503 20.67 22.2503 15.76 22.2503Z" fill="#384EDD"/>
<path d="M12.5 15.63C12.09 15.63 11.75 15.29 11.75 14.88V2C11.75 1.59 12.09 1.25 12.5 1.25C12.91 1.25 13.25 1.59 13.25 2V14.88C13.25 15.3 12.91 15.63 12.5 15.63Z" fill="#384EDD"/>
<path d="M12.5001 16.7498C12.3101 16.7498 12.1201 16.6798 11.9701 16.5298L8.62009 13.1798C8.33009 12.8898 8.33009 12.4098 8.62009 12.1198C8.91009 11.8298 9.39009 11.8298 9.68009 12.1198L12.5001 14.9398L15.3201 12.1198C15.6101 11.8298 16.0901 11.8298 16.3801 12.1198C16.6701 12.4098 16.6701 12.8898 16.3801 13.1798L13.0301 16.5298C12.8801 16.6798 12.6901 16.7498 12.5001 16.7498Z" fill="#384EDD"/>
</svg>
