<svg width="16" height="16" viewBox="0 0 16 16" fill="none" xmlns="http://www.w3.org/2000/svg">
<path d="M7.99992 15.2068C7.53992 15.2068 7.10659 14.9735 6.79992 14.5668L5.79992 13.2335C5.77992 13.2068 5.69992 13.1735 5.66659 13.1668H5.33325C2.55325 13.1668 0.833252 12.4135 0.833252 8.66683V5.3335C0.833252 2.38683 2.38659 0.833496 5.33325 0.833496H10.6666C13.6133 0.833496 15.1666 2.38683 15.1666 5.3335V8.66683C15.1666 11.6135 13.6133 13.1668 10.6666 13.1668H10.3333C10.2799 13.1668 10.2333 13.1935 10.1999 13.2335L9.19992 14.5668C8.89325 14.9735 8.45992 15.2068 7.99992 15.2068ZM5.33325 1.8335C2.94659 1.8335 1.83325 2.94683 1.83325 5.3335V8.66683C1.83325 11.6802 2.86659 12.1668 5.33325 12.1668H5.66659C6.00659 12.1668 6.39325 12.3602 6.59992 12.6335L7.59992 13.9668C7.83325 14.2735 8.16659 14.2735 8.39992 13.9668L9.39992 12.6335C9.61992 12.3402 9.96659 12.1668 10.3333 12.1668H10.6666C13.0533 12.1668 14.1666 11.0535 14.1666 8.66683V5.3335C14.1666 2.94683 13.0533 1.8335 10.6666 1.8335H5.33325Z" fill="#384EDD"/>
<path d="M11.3334 5.8335H4.66675C4.39341 5.8335 4.16675 5.60683 4.16675 5.3335C4.16675 5.06016 4.39341 4.8335 4.66675 4.8335H11.3334C11.6067 4.8335 11.8334 5.06016 11.8334 5.3335C11.8334 5.60683 11.6067 5.8335 11.3334 5.8335Z" fill="#384EDD"/>
<path d="M8.66675 9.1665H4.66675C4.39341 9.1665 4.16675 8.93984 4.16675 8.6665C4.16675 8.39317 4.39341 8.1665 4.66675 8.1665H8.66675C8.94008 8.1665 9.16675 8.39317 9.16675 8.6665C9.16675 8.93984 8.94008 9.1665 8.66675 9.1665Z" fill="#384EDD"/>
</svg>
