<svg width="16" height="16" viewBox="0 0 16 16" fill="none" xmlns="http://www.w3.org/2000/svg">
<path d="M7.99992 10.1663C6.80659 10.1663 5.83325 9.19301 5.83325 7.99967C5.83325 6.80634 6.80659 5.83301 7.99992 5.83301C9.19325 5.83301 10.1666 6.80634 10.1666 7.99967C10.1666 9.19301 9.19325 10.1663 7.99992 10.1663ZM7.99992 6.83301C7.35992 6.83301 6.83325 7.35967 6.83325 7.99967C6.83325 8.63967 7.35992 9.16634 7.99992 9.16634C8.63992 9.16634 9.16659 8.63967 9.16659 7.99967C9.16659 7.35967 8.63992 6.83301 7.99992 6.83301Z" fill="#292D32"/>
<path d="M12.3333 10.1663C12.0599 10.1663 11.8333 9.93967 11.8333 9.66634V6.33301C11.8333 6.05967 12.0599 5.83301 12.3333 5.83301C12.6066 5.83301 12.8333 6.05967 12.8333 6.33301V9.66634C12.8333 9.93967 12.6066 10.1663 12.3333 10.1663Z" fill="#292D32"/>
<path d="M3.33341 15.1663C1.58675 15.1663 0.166748 13.7463 0.166748 11.9997C0.166748 10.253 1.58675 8.83301 3.33341 8.83301C5.08008 8.83301 6.50008 10.253 6.50008 11.9997C6.50008 13.7463 5.08008 15.1663 3.33341 15.1663ZM3.33341 9.83301C2.14008 9.83301 1.16675 10.8063 1.16675 11.9997C1.16675 13.193 2.14008 14.1663 3.33341 14.1663C4.52675 14.1663 5.50008 13.193 5.50008 11.9997C5.50008 10.8063 4.52675 9.83301 3.33341 9.83301Z" fill="#292D32"/>
<path d="M2.66651 13.1672C2.49985 13.1672 2.33317 13.0805 2.23984 12.9272C2.09984 12.6938 2.17318 12.3805 2.41318 12.2405L2.91985 11.9338C2.96652 11.9072 2.99985 11.8472 2.99985 11.7938V11.1738C2.99985 10.9005 3.22651 10.6738 3.49985 10.6738C3.77318 10.6738 3.99985 10.9005 3.99985 11.1738V11.7938C3.99985 12.2005 3.77986 12.5872 3.4332 12.7938L2.92652 13.1005C2.84652 13.1472 2.75318 13.1672 2.66651 13.1672Z" fill="#292D32"/>
<path d="M11.3333 13.8337H5.66659C5.39325 13.8337 5.16659 13.607 5.16659 13.3337C5.16659 13.0603 5.39325 12.8337 5.66659 12.8337H11.3333C13.2399 12.8337 14.1666 11.907 14.1666 10.0003V6.00033C14.1666 4.09366 13.2399 3.16699 11.3333 3.16699H4.66659C2.75992 3.16699 1.83325 4.09366 1.83325 6.00033V10.1337C1.83325 10.407 1.60659 10.6337 1.33325 10.6337C1.05992 10.6337 0.833252 10.407 0.833252 10.1337V6.00033C0.833252 3.56699 2.23325 2.16699 4.66659 2.16699H11.3333C13.7666 2.16699 15.1666 3.56699 15.1666 6.00033V10.0003C15.1666 12.4337 13.7666 13.8337 11.3333 13.8337Z" fill="#292D32"/>
</svg>
