<svg width="82" height="26" viewBox="0 0 82 26" fill="none" xmlns="http://www.w3.org/2000/svg">
<g clip-path="url(#clip0_289_7716)">
<mask id="mask0_289_7716" style="mask-type:luminance" maskUnits="userSpaceOnUse" x="0" y="0" width="82" height="26">
<path d="M82 0H0V26H82V0Z" fill="white"/>
</mask>
<g mask="url(#mask0_289_7716)">
<path d="M4.41021 11.5066C4.2383 11.5066 4.14489 11.3963 4.12994 11.1757C4.05521 10.2862 3.973 9.54363 3.88332 8.94814C3.79362 8.34529 3.67031 7.85639 3.51337 7.48145C3.35642 7.09916 3.14716 6.80141 2.88559 6.58821C2.63149 6.37501 2.30263 6.21695 1.89905 6.11402C1.50295 6.00373 1.01343 5.9192 0.430491 5.86037C0.318385 5.84568 0.239912 5.81627 0.195071 5.77216C0.150229 5.7207 0.127808 5.66554 0.127808 5.60675C0.127808 5.53322 0.150229 5.46706 0.195071 5.40825C0.239912 5.34943 0.318385 5.31635 0.430491 5.309C1.02091 5.24283 1.51417 5.15828 1.91027 5.05536C2.31385 4.95243 2.64269 4.80172 2.89679 4.60322C3.15836 4.40472 3.36389 4.13271 3.51337 3.78717C3.67031 3.44163 3.79362 2.99685 3.88332 2.45282C3.973 1.90143 4.05521 1.22507 4.12994 0.423724C4.14489 0.306095 4.17478 0.228902 4.21962 0.192143C4.27195 0.148033 4.33548 0.125977 4.41021 0.125977C4.47001 0.125977 4.52606 0.148033 4.57835 0.192143C4.63815 0.228902 4.67178 0.302421 4.67925 0.412697C4.74653 1.22139 4.82499 1.90143 4.91469 2.45282C5.01184 2.99685 5.13515 3.4453 5.28462 3.79819C5.44157 4.14373 5.64709 4.41574 5.9012 4.61424C6.16277 4.81274 6.49162 4.96346 6.88773 5.06638C7.29131 5.16196 7.78457 5.24283 8.36749 5.309C8.4796 5.31635 8.55808 5.34943 8.60293 5.40825C8.65525 5.46706 8.6814 5.53322 8.6814 5.60675C8.6814 5.66554 8.65525 5.7207 8.60293 5.77216C8.55808 5.81627 8.4796 5.84568 8.36749 5.86037C7.78457 5.9192 7.29131 6.00373 6.88773 6.11402C6.49162 6.21695 6.16277 6.37501 5.9012 6.58821C5.64709 6.80141 5.44157 7.09916 5.28462 7.48145C5.12768 7.85639 5.00437 8.34529 4.91469 8.94814C4.82499 9.54363 4.74653 10.2862 4.67925 11.1757C4.67178 11.3963 4.5821 11.5066 4.41021 11.5066ZM16.9996 24.5744C16.9249 24.5744 16.8538 24.5487 16.7866 24.4972C16.7193 24.4457 16.6783 24.3575 16.6633 24.2325C16.5288 22.8725 16.3793 21.6741 16.2149 20.6375C16.058 19.5936 15.8673 18.6894 15.6431 17.9248C15.4264 17.16 15.161 16.5094 14.8471 15.9727C14.5333 15.436 14.1559 14.9876 13.715 14.6274C13.2814 14.2598 12.7657 13.9584 12.1679 13.7231C11.5774 13.4879 10.8899 13.293 10.1051 13.1386C9.32038 12.9842 8.41982 12.8446 7.4034 12.7196C7.26889 12.7049 7.17171 12.6645 7.11193 12.5983C7.05213 12.5321 7.02225 12.4623 7.02225 12.3888C7.02225 12.1976 7.1493 12.0874 7.4034 12.0579C8.58425 11.9109 9.61187 11.7455 10.4863 11.5617C11.3607 11.3706 12.1118 11.1279 12.7396 10.8339C13.3674 10.5325 13.8942 10.1391 14.3203 9.65392C14.7463 9.16869 15.0975 8.56216 15.374 7.83434C15.658 7.09916 15.8935 6.20591 16.0803 5.15461C16.2747 4.10331 16.4465 2.85718 16.596 1.41622C16.611 1.28389 16.6484 1.18831 16.7082 1.1295C16.7754 1.07068 16.8501 1.04128 16.9323 1.04128C17.1266 1.04128 17.2388 1.16626 17.2687 1.41622C17.433 2.85718 17.6087 4.10331 17.7955 5.15461C17.9899 6.20591 18.2252 7.09916 18.5017 7.83434C18.7857 8.56216 19.1407 9.16869 19.5668 9.65392C19.9928 10.1318 20.5159 10.5214 21.1362 10.8229C21.7565 11.1243 22.504 11.3706 23.3783 11.5617C24.2526 11.7455 25.2803 11.9109 26.4613 12.0579C26.7079 12.0874 26.8312 12.1976 26.8312 12.3888C26.8312 12.4623 26.8013 12.5321 26.7415 12.5983C26.6893 12.6645 26.5957 12.7049 26.4613 12.7196C25.4447 12.8446 24.5442 12.9842 23.7595 13.1386C22.9822 13.293 22.2984 13.4879 21.708 13.7231C21.1175 13.9584 20.6094 14.2598 20.1833 14.6274C19.7573 14.9876 19.3911 15.436 19.0847 15.9727C18.7782 16.5094 18.5203 17.16 18.3112 17.9248C18.1019 18.6894 17.9188 19.5936 17.7619 20.6375C17.6124 21.6741 17.4705 22.8725 17.3359 24.2325C17.3285 24.3575 17.2911 24.4457 17.2239 24.4972C17.1641 24.5487 17.0893 24.5744 16.9996 24.5744ZM8.5693 25.9198C8.39739 25.9198 8.30025 25.8096 8.27783 25.589C8.21055 24.6994 8.12835 23.9531 8.03119 23.3503C7.94151 22.7548 7.8182 22.266 7.66124 21.8836C7.51176 21.5087 7.30624 21.2146 7.04466 21.0015C6.79056 20.7882 6.46172 20.6302 6.05814 20.5272C5.66204 20.4168 5.17251 20.3324 4.58957 20.2736C4.47748 20.2588 4.399 20.2295 4.35416 20.1853C4.30931 20.1339 4.2869 20.0752 4.2869 20.009C4.2869 19.9353 4.30931 19.8729 4.35416 19.8215C4.399 19.7626 4.47748 19.7259 4.58957 19.7111C5.17999 19.645 5.67325 19.5604 6.06935 19.4575C6.47292 19.3546 6.80178 19.204 7.05588 19.0054C7.31746 18.8069 7.52298 18.535 7.67246 18.1893C7.8294 17.8439 7.95271 17.399 8.04239 16.855C8.13209 16.3036 8.21055 15.6273 8.27783 14.826C8.29278 14.7083 8.3264 14.631 8.37871 14.5943C8.43102 14.5503 8.49455 14.5281 8.5693 14.5281C8.62908 14.5281 8.68513 14.5503 8.73746 14.5943C8.78976 14.631 8.82339 14.7047 8.83834 14.8148C8.9056 15.6235 8.98408 16.3036 9.07376 16.855C9.17093 17.399 9.29424 17.8475 9.44371 18.2003C9.60066 18.5459 9.80618 18.8179 10.0603 19.0165C10.3219 19.2149 10.6507 19.3657 11.0468 19.4685C11.4504 19.5642 11.9436 19.645 12.5266 19.7111C12.6387 19.7259 12.7172 19.7626 12.762 19.8215C12.8069 19.8729 12.8293 19.9353 12.8293 20.009C12.8293 20.0752 12.8069 20.1339 12.762 20.1853C12.7172 20.2295 12.6387 20.2588 12.5266 20.2736C11.9362 20.3324 11.4392 20.4168 11.0356 20.5272C10.6395 20.6302 10.3106 20.7882 10.0491 21.0015C9.79496 21.2073 9.58944 21.4977 9.4325 21.8727C9.28302 22.2549 9.16346 22.7475 9.07376 23.3503C8.98408 23.9531 8.9056 24.6994 8.83834 25.589C8.81592 25.8096 8.72625 25.9198 8.5693 25.9198Z" fill="url(#paint0_linear_289_7716)"/>
<path d="M33.0724 5.33953C33.0724 4.95219 33.2223 4.61908 33.5224 4.3402C33.8381 4.06132 34.217 3.92188 34.6591 3.92188H45.2214C45.2214 4.85148 45.0556 5.53319 44.7241 5.96702C44.4084 6.38534 43.8874 6.5945 43.1611 6.5945H36.2458V10.6383H42.5453C42.5453 11.5679 42.3795 12.2496 42.048 12.6834C41.7323 13.1018 41.2113 13.3109 40.4849 13.3109H36.2458V17.5174H43.6584C44.3688 17.5174 44.882 17.7343 45.1977 18.1681C45.5293 18.5865 45.6951 19.2604 45.6951 20.19H34.6591C34.217 20.19 33.8381 20.0583 33.5224 19.7949C33.2223 19.5161 33.0724 19.1752 33.0724 18.7724V5.33953ZM50.8569 20.3992C50.0517 20.3992 49.3096 20.2442 48.6308 19.9344C47.9677 19.6246 47.4308 19.183 47.0204 18.6097C46.6256 18.021 46.4283 17.3238 46.4283 16.5181C46.4283 15.7124 46.6415 15.0152 47.0677 14.4265C47.494 13.8222 48.0702 13.3651 48.7966 13.0553C49.5386 12.7299 50.3516 12.5672 51.2358 12.5672C51.962 12.5672 52.6094 12.6834 53.1778 12.9158C53.7618 13.1327 54.2987 13.4659 54.7882 13.9152L54.9066 13.799C54.7645 13.6595 54.5197 13.4504 54.1724 13.1715V12.7067C54.1724 12.0715 53.9435 11.5679 53.4857 11.1961C53.0277 10.8242 52.3883 10.6383 51.5674 10.6383C50.0991 10.6383 49.0175 11.1651 48.3229 12.2186C47.9755 12.1102 47.6835 11.9398 47.4467 11.7074C47.2098 11.4594 47.0914 11.1961 47.0914 10.9172C47.0914 10.4524 47.3046 10.0263 47.7308 9.63897C48.1571 9.25163 48.7333 8.94176 49.4597 8.70936C50.1858 8.47696 50.9753 8.36076 51.8279 8.36076C53.5013 8.36076 54.796 8.7481 55.7118 9.52277C56.6274 10.282 57.0854 11.32 57.0854 12.637V18.447C57.0854 19.1287 56.8642 19.6246 56.4223 19.9344C55.9801 20.2442 55.2855 20.3992 54.3382 20.3992V19.4463C54.6066 19.183 54.7882 18.9892 54.8829 18.8653L54.7882 18.7491C54.2672 19.2914 53.7066 19.702 53.1067 19.9809C52.5225 20.2598 51.7725 20.3992 50.8569 20.3992ZM51.6147 18.2843C52.4356 18.2843 53.0751 18.1294 53.533 17.8195C53.9908 17.5097 54.2198 17.0681 54.2198 16.4948C54.2198 15.9371 53.983 15.4955 53.5093 15.1701C53.0514 14.8448 52.4278 14.6821 51.6384 14.6821C50.9121 14.6821 50.3359 14.8448 49.9096 15.1701C49.499 15.48 49.2939 15.9215 49.2939 16.4948C49.2939 17.0835 49.499 17.5329 49.9096 17.8428C50.3201 18.1372 50.8884 18.2843 51.6147 18.2843ZM64.1988 20.3992C62.6831 20.3992 61.4595 20.1359 60.528 19.609C59.6123 19.0668 59.1465 18.3464 59.1308 17.4477C59.1308 17.0603 59.2886 16.7349 59.6044 16.4716C59.936 16.2083 60.457 16.0688 61.1675 16.0533C61.3095 16.7349 61.6411 17.2618 62.1621 17.6336C62.6831 17.9899 63.3146 18.1681 64.0567 18.1681C64.8619 18.1681 65.4933 18.0675 65.9513 17.866C66.4091 17.6645 66.6381 17.3624 66.6381 16.9596C66.6381 16.5878 66.4486 16.278 66.0697 16.03C65.7065 15.7821 64.9803 15.5343 63.8909 15.2863C62.7068 15.0075 61.7832 14.7286 61.1199 14.4497C60.4727 14.1708 59.9912 13.8145 59.6755 13.3806C59.3596 12.9468 59.2018 12.3736 59.2018 11.6609C59.2018 10.6693 59.6281 9.87137 60.4807 9.26713C61.3332 8.66288 62.5015 8.36076 63.9856 8.36076C65.4223 8.36076 66.6144 8.6164 67.5617 9.12769C68.509 9.62347 68.9826 10.2897 68.9826 11.1263C68.9826 11.5447 68.8247 11.8545 68.509 12.056C68.1931 12.2574 67.6721 12.3658 66.9459 12.3813C66.788 11.7616 66.488 11.2968 66.046 10.9869C65.6039 10.677 64.9803 10.5221 64.1751 10.5221C63.5751 10.5221 63.054 10.6228 62.6121 10.8242C62.1858 11.0256 61.9727 11.289 61.9727 11.6144C61.9727 11.9553 62.1541 12.2186 62.5173 12.4046C62.8804 12.5905 63.512 12.7764 64.4119 12.9623C66.1801 13.3342 67.459 13.83 68.2485 14.4497C69.0537 15.0695 69.4563 15.9138 69.4563 16.9829C69.4563 18.021 68.9826 18.8498 68.0353 19.4696C67.1037 20.0894 65.8249 20.3992 64.1988 20.3992ZM72.41 25.0472C71.7943 25.0472 71.3048 24.8381 70.9417 24.4198C70.5943 24.0014 70.4207 23.3972 70.4207 22.607C70.8944 22.6844 71.289 22.7232 71.6048 22.7232C72.2047 22.7232 72.6784 22.5682 73.0258 22.2584C73.3889 21.9486 73.7836 21.3288 74.2099 20.3992L74.5888 19.5393L70.0181 8.59316C70.1285 8.53118 70.318 8.47696 70.5865 8.43048C70.8707 8.384 71.0995 8.36076 71.2733 8.36076C71.7311 8.36076 72.1495 8.46146 72.5285 8.66288C72.9074 8.8488 73.1679 9.11219 73.31 9.45305L75.844 15.9836L75.4414 17.0758L75.6545 17.1456L78.7095 9.45305C78.8516 9.0967 79.1041 8.82556 79.4674 8.63964C79.8463 8.45372 80.2646 8.36076 80.7225 8.36076C80.8962 8.36076 81.1171 8.384 81.3856 8.43048C81.6698 8.47696 81.875 8.53118 82.0014 8.59316L76.6965 21.2358C76.1439 22.5373 75.5361 23.4978 74.873 24.1176C74.2256 24.7374 73.4047 25.0472 72.41 25.0472Z" fill="black"/>
</g>
</g>
<defs>
<linearGradient id="paint0_linear_289_7716" x1="0.127808" y1="0.125977" x2="26.4297" y2="26.323" gradientUnits="userSpaceOnUse">
<stop stop-color="#7081F2"/>
<stop offset="1" stop-color="#1B30B8"/>
</linearGradient>
<clipPath id="clip0_289_7716">
<rect width="82" height="26" fill="white"/>
</clipPath>
</defs>
</svg>
