<svg width="99" height="31" viewBox="0 0 99 31" fill="none" xmlns="http://www.w3.org/2000/svg">
<g clip-path="url(#clip0_443_4258)">
<mask id="mask0_443_4258" style="mask-type:luminance" maskUnits="userSpaceOnUse" x="0" y="0" width="99" height="31">
<path d="M99 0H0V31H99V0Z" fill="white"/>
</mask>
<g mask="url(#mask0_443_4258)">
<path d="M5.32451 13.7195C5.11697 13.7195 5.00419 13.5881 4.98614 13.3251C4.89592 12.2645 4.79667 11.3791 4.68839 10.6691C4.5801 9.95034 4.43123 9.36742 4.24175 8.92037C4.05226 8.46457 3.79961 8.10956 3.48381 7.85536C3.17703 7.60116 2.78 7.4127 2.29275 7.28998C1.81453 7.15848 1.22353 7.05769 0.519732 6.98755C0.384384 6.97004 0.289643 6.93497 0.235505 6.88238C0.181366 6.82102 0.154297 6.75526 0.154297 6.68515C0.154297 6.59749 0.181366 6.5186 0.235505 6.44848C0.289643 6.37836 0.384384 6.33891 0.519732 6.33014C1.23255 6.25126 1.82808 6.15045 2.3063 6.02773C2.79354 5.90501 3.19056 5.72531 3.49734 5.48864C3.81314 5.25197 4.06128 4.92764 4.24175 4.51566C4.43123 4.10367 4.5801 3.57336 4.68839 2.9247C4.79667 2.26727 4.89592 1.46085 4.98614 0.505398C5.00419 0.365148 5.04027 0.273109 5.09442 0.229281C5.15759 0.176689 5.23429 0.150391 5.32451 0.150391C5.39671 0.150391 5.46438 0.176689 5.52752 0.229281C5.59971 0.273109 5.64031 0.360766 5.64934 0.492249C5.73056 1.45647 5.82528 2.26727 5.93358 2.9247C6.05088 3.57336 6.19975 4.10805 6.3802 4.5288C6.5697 4.94079 6.81782 5.26511 7.12461 5.50178C7.44041 5.73846 7.83743 5.91816 8.31567 6.04087C8.80292 6.15483 9.39843 6.25126 10.1022 6.33014C10.2376 6.33891 10.3323 6.37836 10.3865 6.44848C10.4496 6.5186 10.4812 6.59749 10.4812 6.68515C10.4812 6.75526 10.4496 6.82102 10.3865 6.88238C10.3323 6.93497 10.2376 6.97004 10.1022 6.98755C9.39843 7.05769 8.80292 7.15848 8.31567 7.28998C7.83743 7.4127 7.44041 7.60116 7.12461 7.85536C6.81782 8.10956 6.5697 8.46457 6.3802 8.92037C6.19073 9.36742 6.04185 9.95034 5.93358 10.6691C5.82528 11.3791 5.73056 12.2645 5.64934 13.3251C5.64031 13.5881 5.53204 13.7195 5.32451 13.7195ZM20.5239 29.3004C20.4337 29.3004 20.3479 29.2697 20.2668 29.2084C20.1855 29.147 20.136 29.0418 20.1179 28.8927C19.9555 27.2712 19.775 25.8424 19.5765 24.6064C19.3871 23.3617 19.1569 22.2837 18.8862 21.372C18.6245 20.4602 18.3041 19.6845 17.9251 19.0446C17.5463 18.4047 17.0906 17.8701 16.5583 17.4406C16.0349 17.0023 15.4123 16.6429 14.6904 16.3623C13.9776 16.0819 13.1475 15.8496 12.2001 15.6655C11.2526 15.4814 10.1654 15.3149 8.93824 15.1659C8.77584 15.1484 8.65852 15.1002 8.58635 15.0213C8.51415 14.9423 8.47807 14.8591 8.47807 14.7714C8.47807 14.5435 8.63147 14.412 8.93824 14.377C10.3639 14.2016 11.6046 14.0044 12.6603 13.7853C13.716 13.5574 14.6228 13.2681 15.3807 12.9175C16.1387 12.5581 16.7747 12.0891 17.2891 11.5106C17.8034 10.9321 18.2275 10.2089 18.5613 9.34113C18.9042 8.46457 19.1885 7.39954 19.414 6.14607C19.6487 4.89259 19.8561 3.40683 20.0366 1.68876C20.0547 1.53098 20.0999 1.41702 20.1721 1.3469C20.2532 1.27677 20.3435 1.24171 20.4426 1.24171C20.6773 1.24171 20.8127 1.39072 20.8488 1.68876C21.0472 3.40683 21.2593 4.89259 21.4848 6.14607C21.7194 7.39954 22.0036 8.46457 22.3374 9.34113C22.6803 10.2089 23.1088 10.9321 23.6233 11.5106C24.1376 12.0804 24.7691 12.545 25.5181 12.9044C26.267 13.2637 27.1695 13.5574 28.225 13.7853C29.2806 14.0044 30.5213 14.2016 31.9472 14.377C32.2449 14.412 32.3938 14.5435 32.3938 14.7714C32.3938 14.8591 32.3577 14.9423 32.2855 15.0213C32.2224 15.1002 32.1094 15.1484 31.9472 15.1659C30.7199 15.3149 29.6327 15.4814 28.6852 15.6655C27.7468 15.8496 26.9212 16.0819 26.2084 16.3623C25.4956 16.6429 24.8821 17.0023 24.3676 17.4406C23.8533 17.8701 23.4112 18.4047 23.0413 19.0446C22.6712 19.6845 22.3599 20.4602 22.1074 21.372C21.8547 22.2837 21.6337 23.3617 21.4443 24.6064C21.2638 25.8424 21.0924 27.2712 20.93 28.8927C20.921 29.0418 20.8758 29.147 20.7947 29.2084C20.7225 29.2697 20.6322 29.3004 20.5239 29.3004ZM10.3458 30.9046C10.1383 30.9046 10.021 30.7732 9.99395 30.5101C9.91273 29.4495 9.81348 28.5597 9.69618 27.841C9.58791 27.1309 9.43903 26.5482 9.24954 26.0922C9.06907 25.6452 8.82095 25.2945 8.50513 25.0404C8.19835 24.7862 7.80134 24.5977 7.31409 24.475C6.83587 24.3433 6.24486 24.2427 5.54106 24.1726C5.40573 24.1549 5.31099 24.1199 5.25684 24.0673C5.20269 24.006 5.17564 23.936 5.17564 23.857C5.17564 23.7692 5.20269 23.6948 5.25684 23.6335C5.31099 23.5633 5.40573 23.5195 5.54106 23.5018C6.25388 23.423 6.8494 23.3222 7.32762 23.1995C7.81486 23.0768 8.2119 22.8973 8.51867 22.6605C8.83449 22.4238 9.08262 22.0996 9.26309 21.6874C9.45256 21.2756 9.60144 20.7451 9.70971 20.0965C9.818 19.4391 9.91273 18.6328 9.99395 17.6773C10.012 17.537 10.0526 17.4449 10.1158 17.4011C10.1789 17.3486 10.2556 17.3221 10.3458 17.3221C10.418 17.3221 10.4857 17.3486 10.5489 17.4011C10.612 17.4449 10.6526 17.5327 10.6707 17.664C10.7519 18.6283 10.8466 19.4391 10.9549 20.0965C11.0722 20.7451 11.2211 21.2799 11.4015 21.7006C11.591 22.1126 11.8392 22.4369 12.146 22.6737C12.4618 22.9102 12.8588 23.09 13.337 23.2126C13.8242 23.3267 14.4198 23.423 15.1236 23.5018C15.2589 23.5195 15.3536 23.5633 15.4078 23.6335C15.462 23.6948 15.489 23.7692 15.489 23.857C15.489 23.936 15.462 24.006 15.4078 24.0673C15.3536 24.1199 15.2589 24.1549 15.1236 24.1726C14.4107 24.2427 13.8107 24.3433 13.3235 24.475C12.8452 24.5977 12.4482 24.7862 12.1324 25.0404C11.8256 25.2858 11.5775 25.632 11.388 26.0792C11.2075 26.5348 11.0632 27.1223 10.9549 27.841C10.8466 28.5597 10.7519 29.4495 10.6707 30.5101C10.6436 30.7732 10.5353 30.9046 10.3458 30.9046Z" fill="white"/>
<path d="M39.929 6.36704C39.929 5.90521 40.11 5.50804 40.4722 5.17553C40.8534 4.84301 41.3108 4.67676 41.8446 4.67676H54.5967C54.5967 5.78514 54.3965 6.59794 53.9962 7.11519C53.6151 7.61396 52.9861 7.86335 52.1092 7.86335H43.7603V12.6848H51.3658C51.3658 13.7932 51.1656 14.606 50.7653 15.1232C50.3842 15.622 49.7551 15.8714 48.8783 15.8714H43.7603V20.8868H52.7096C53.5674 20.8868 54.1869 21.1454 54.5681 21.6627C54.9684 22.1614 55.1685 22.965 55.1685 24.0734H41.8446C41.3108 24.0734 40.8534 23.9163 40.4722 23.6023C40.11 23.2698 39.929 22.8634 39.929 22.3831V6.36704ZM61.4005 24.3228C60.4284 24.3228 59.5324 24.138 58.7129 23.7686C57.9123 23.3992 57.2641 22.8727 56.7686 22.1892C56.292 21.4872 56.0538 20.656 56.0538 19.6953C56.0538 18.7347 56.3111 17.9034 56.8258 17.2015C57.3404 16.481 58.0361 15.936 58.913 15.5666C59.8088 15.1787 60.7904 14.9847 61.858 14.9847C62.7347 14.9847 63.5163 15.1232 64.2025 15.4003C64.9077 15.6589 65.5558 16.0561 66.1468 16.5918L66.2898 16.4533C66.1182 16.287 65.8226 16.0377 65.4034 15.7051V15.1509C65.4034 14.3936 65.127 13.7932 64.5742 13.3498C64.0213 12.9065 63.2494 12.6848 62.2583 12.6848C60.4856 12.6848 59.1798 13.3129 58.3412 14.569C57.9218 14.4397 57.5692 14.2365 57.2833 13.9594C56.9973 13.6639 56.8544 13.3498 56.8544 13.0173C56.8544 12.4631 57.1117 11.9551 57.6264 11.4933C58.141 11.0315 58.8367 10.662 59.7136 10.3849C60.5903 10.1078 61.5435 9.96927 62.5728 9.96927C64.5932 9.96927 66.1563 10.4311 67.2619 11.3547C68.3673 12.2599 68.9202 13.4976 68.9202 15.0678V21.9952C68.9202 22.8079 68.6532 23.3992 68.1197 23.7686C67.5859 24.138 66.7472 24.3228 65.6036 24.3228V23.1867C65.9275 22.8727 66.1468 22.6417 66.2612 22.494L66.1468 22.3554C65.5178 23.0019 64.841 23.4915 64.1168 23.824C63.4114 24.1565 62.506 24.3228 61.4005 24.3228ZM62.3155 21.8012C63.3065 21.8012 64.0785 21.6164 64.6314 21.247C65.1841 20.8776 65.4606 20.3512 65.4606 19.6676C65.4606 19.0026 65.1747 18.4761 64.6028 18.0882C64.0499 17.7002 63.2971 17.5063 62.3441 17.5063C61.4672 17.5063 60.7715 17.7002 60.2568 18.0882C59.7611 18.4576 59.5134 18.984 59.5134 19.6676C59.5134 20.3695 59.7611 20.9053 60.2568 21.2747C60.7524 21.6258 61.4386 21.8012 62.3155 21.8012ZM77.5084 24.3228C75.6785 24.3228 74.2012 24.0088 73.0766 23.3807C71.971 22.7342 71.4086 21.8752 71.3897 20.8037C71.3897 20.3418 71.5802 19.9539 71.9615 19.6399C72.3618 19.3259 72.9908 19.1596 73.8486 19.1411C74.0202 19.9539 74.4204 20.582 75.0495 21.0254C75.6785 21.4502 76.4408 21.6627 77.3368 21.6627C78.309 21.6627 79.0713 21.5427 79.6242 21.3025C80.1769 21.0622 80.4534 20.702 80.4534 20.2218C80.4534 19.7784 80.2246 19.409 79.7672 19.1134C79.3286 18.8178 78.4519 18.5223 77.1367 18.2267C75.7071 17.8942 74.592 17.5617 73.7912 17.2292C73.0098 16.8966 72.4285 16.4718 72.0473 15.9545C71.666 15.4373 71.4755 14.7538 71.4755 13.904C71.4755 12.7217 71.9901 11.7704 73.0194 11.0499C74.0488 10.3295 75.4592 9.96927 77.2511 9.96927C78.9855 9.96927 80.4248 10.2741 81.5685 10.8837C82.7121 11.4748 83.284 12.2692 83.284 13.2667C83.284 13.7655 83.0933 14.1349 82.7121 14.3751C82.3308 14.6152 81.7018 14.7445 80.8251 14.763C80.6344 14.0241 80.2722 13.4699 79.7386 13.1004C79.2048 12.731 78.4519 12.5463 77.4798 12.5463C76.7553 12.5463 76.1263 12.6663 75.5927 12.9065C75.0781 13.1466 74.8207 13.4607 74.8207 13.8486C74.8207 14.255 75.0398 14.569 75.4784 14.7907C75.9167 15.0124 76.6792 15.2341 77.7657 15.4558C79.9005 15.8991 81.4444 16.4902 82.3976 17.2292C83.3698 17.9681 83.8558 18.9749 83.8558 20.2495C83.8558 21.4872 83.284 22.4754 82.1403 23.2144C81.0156 23.9534 79.4716 24.3228 77.5084 24.3228ZM87.422 29.8647C86.6786 29.8647 86.0876 29.6153 85.6493 29.1165C85.2299 28.6178 85.0202 27.8973 85.0202 26.9552C85.5921 27.0475 86.0685 27.0937 86.4498 27.0937C87.1741 27.0937 87.746 26.909 88.1654 26.5396C88.6037 26.1701 89.0803 25.4312 89.595 24.3228L90.0524 23.2975L84.5342 10.2464C84.6675 10.1725 84.8962 10.1078 85.2204 10.0524C85.5635 9.99698 85.8398 9.96927 86.0495 9.96927C86.6023 9.96927 87.1075 10.0893 87.5649 10.3295C88.0224 10.5512 88.3369 10.8652 88.5085 11.2716L91.5678 19.058L91.0818 20.3603L91.3391 20.4435L95.0275 11.2716C95.199 10.8467 95.5039 10.5235 95.9424 10.3018C96.3999 10.0801 96.9049 9.96927 97.4578 9.96927C97.6674 9.96927 97.9342 9.99698 98.2584 10.0524C98.6015 10.1078 98.8491 10.1725 99.0017 10.2464L92.5971 25.3203C91.9299 26.8721 91.1961 28.0173 90.3955 28.7563C89.6139 29.4953 88.6228 29.8647 87.422 29.8647Z" fill="white"/>
</g>
</g>
<defs>
<clipPath id="clip0_443_4258">
<rect width="99" height="31" fill="white"/>
</clipPath>
</defs>
</svg>
