<svg width="40" height="40" viewBox="0 0 40 40" fill="none" xmlns="http://www.w3.org/2000/svg">
<path d="M20 22.9165C19.3167 22.9165 18.75 22.3498 18.75 21.6665V12.9165C18.75 12.2332 19.3167 11.6665 20 11.6665C20.6833 11.6665 21.25 12.2332 21.25 12.9165V21.6665C21.25 22.3498 20.6833 22.9165 20 22.9165Z" fill="#DA2424"/>
<path d="M20 28.75C19.55 28.75 19.1333 28.5834 18.8166 28.2667C18.6666 28.1001 18.55 27.9167 18.45 27.7167C18.3667 27.5167 18.3333 27.3 18.3333 27.0834C18.3333 26.65 18.5166 26.2167 18.8166 25.9C19.4333 25.2833 20.5667 25.2833 21.1833 25.9C21.4833 26.2167 21.6666 26.65 21.6666 27.0834C21.6666 27.3 21.6166 27.5167 21.5333 27.7167C21.4499 27.9167 21.3333 28.1001 21.1833 28.2667C20.8667 28.5834 20.45 28.75 20 28.75Z" fill="#DA2424"/>
<path d="M20.0003 37.9168C18.8837 37.9168 17.7503 37.6335 16.7503 37.0501L6.8503 31.3335C4.8503 30.1668 3.60028 28.0168 3.60028 25.7001V14.3002C3.60028 11.9835 4.8503 9.83352 6.8503 8.66685L16.7503 2.9502C18.7503 1.78353 21.2337 1.78353 23.2503 2.9502L33.1503 8.66685C35.1503 9.83352 36.4004 11.9835 36.4004 14.3002V25.7001C36.4004 28.0168 35.1503 30.1668 33.1503 31.3335L23.2503 37.0501C22.2503 37.6335 21.117 37.9168 20.0003 37.9168ZM20.0003 4.5835C19.317 4.5835 18.617 4.76684 18.0003 5.11684L8.1003 10.8335C6.86697 11.5502 6.10028 12.8669 6.10028 14.3002V25.7001C6.10028 27.1168 6.86697 28.4502 8.1003 29.1668L18.0003 34.8835C19.2336 35.6001 20.767 35.6001 21.9837 34.8835L31.8837 29.1668C33.117 28.4502 33.8837 27.1335 33.8837 25.7001V14.3002C33.8837 12.8835 33.117 11.5502 31.8837 10.8335L21.9837 5.11684C21.3837 4.76684 20.6837 4.5835 20.0003 4.5835Z" fill="#DA2424"/>
</svg>
