<svg width="103" height="77" viewBox="0 0 103 77" fill="none" xmlns="http://www.w3.org/2000/svg">
<path d="M82.5008 76.0843H2.14583C1.57672 76.0843 1.03092 75.8582 0.6285 75.4558C0.226078 75.0534 0 74.5076 0 73.9385V27.9447C0 27.3756 0.226078 26.8298 0.6285 26.4273C1.03092 26.0249 1.57672 25.7988 2.14583 25.7988H82.5008C83.07 25.7988 83.6158 26.0249 84.0182 26.4273C84.4206 26.8298 84.6467 27.3756 84.6467 27.9447V73.9385C84.6467 74.5076 84.4206 75.0534 84.0182 75.4558C83.6158 75.8582 83.07 76.0843 82.5008 76.0843ZM4.29167 71.7926H80.355V30.0905H4.29167V71.7926Z" fill="#1C1C1B"/>
<path d="M68.6667 69.5815H15.993C15.4238 69.5815 14.878 69.3554 14.4756 68.953C14.0732 68.5506 13.8471 68.0048 13.8471 67.4357C13.8454 66.2936 13.3908 65.1989 12.5831 64.3915C11.7753 63.5842 10.6803 63.1301 9.53829 63.129C8.96918 63.129 8.42338 62.9029 8.02096 62.5005C7.61853 62.0981 7.39246 61.5523 7.39246 60.9832V40.9003C7.39246 40.3312 7.61853 39.7854 8.02096 39.383C8.42338 38.9806 8.96918 38.7545 9.53829 38.7545C10.6805 38.7528 11.7755 38.2983 12.5832 37.4906C13.3909 36.6829 13.8454 35.5879 13.8471 34.4456C13.8471 33.8765 14.0732 33.3307 14.4756 32.9283C14.878 32.5259 15.4238 32.2998 15.993 32.2998H68.6667C69.2358 32.2998 69.7816 32.5259 70.1841 32.9283C70.5865 33.3307 70.8126 33.8765 70.8126 34.4456C70.8137 35.5851 71.2656 36.6778 72.0698 37.4851C72.8739 38.2925 73.9648 38.7488 75.1042 38.7545C75.6733 38.7545 76.2191 38.9806 76.6216 39.383C77.024 39.7854 77.2501 40.3312 77.2501 40.9003V60.9832C77.2501 61.5523 77.024 62.0981 76.6216 62.5005C76.2191 62.9029 75.6733 63.129 75.1042 63.129C73.9624 63.1301 72.8676 63.5842 72.0602 64.3916C71.2528 65.1991 70.7987 66.2938 70.7975 67.4357C70.7976 68.0022 70.5735 68.5457 70.1744 68.9477C69.7752 69.3497 69.2332 69.5775 68.6667 69.5815ZM17.877 65.2898H66.802C67.1857 63.8041 67.9583 62.4474 69.0404 61.3593C70.1224 60.2712 71.4748 59.4911 72.9584 59.0991V42.7736C71.4709 42.3868 70.1136 41.6098 69.0268 40.523C67.94 39.4362 67.1631 38.079 66.7762 36.5915H17.8663C17.4799 38.0792 16.703 39.4367 15.6162 40.5235C14.5293 41.6104 13.1718 42.3872 11.6841 42.7736V59.0991C13.1727 59.4867 14.5306 60.2649 15.6175 61.3533C16.7044 62.4417 17.4808 63.8008 17.8663 65.2898H17.877Z" fill="#1C1C1B"/>
<path d="M42.3244 62.769C39.9848 62.7694 37.6976 62.0759 35.7521 60.7764C33.8067 59.4768 32.2904 57.6294 31.3949 55.4679C30.4995 53.3065 30.2652 50.928 30.7217 48.6334C31.1782 46.3387 32.3049 44.231 33.9594 42.5768C35.6139 40.9226 37.7219 39.7963 40.0166 39.3402C42.3113 38.8841 44.6897 39.1188 46.851 40.0147C49.0123 40.9105 50.8594 42.4271 52.1586 44.3728C53.4579 46.3185 54.1509 48.6058 54.1501 50.9454C54.1449 54.08 52.8973 57.0847 50.6806 59.301C48.4639 61.5173 45.459 62.7644 42.3244 62.769ZM42.3244 43.4071C40.8339 43.4067 39.3767 43.8482 38.1371 44.676C36.8976 45.5037 35.9313 46.6804 35.3605 48.0573C34.7897 49.4342 34.6401 50.9494 34.9304 52.4114C35.2208 53.8734 35.9382 55.2164 36.9918 56.2706C38.0455 57.3249 39.3881 58.043 40.8499 58.3342C42.3117 58.6254 43.827 58.4766 45.2042 57.9066C46.5814 57.3366 47.7587 56.371 48.5871 55.1319C49.4156 53.8928 49.858 52.4359 49.8584 50.9454C49.8573 48.9472 49.0633 47.0311 47.6507 45.6178C46.2382 44.2045 44.3226 43.4094 42.3244 43.4071Z" fill="#1C1C1B"/>
<path d="M87.5908 63.7948C87.0402 63.7949 86.5107 63.5833 86.1118 63.2039C85.7128 62.8245 85.4749 62.3063 85.4474 61.7564C85.4198 61.2065 85.6047 60.6671 85.9637 60.2497C86.3227 59.8323 86.8284 59.5689 87.3762 59.5139L89.8525 59.2542L85.4965 17.7817L16.4156 25.0346C15.8494 25.0941 15.2827 24.9262 14.8402 24.5678C14.3978 24.2095 14.1158 23.69 14.0563 23.1238C13.9968 22.5575 14.1647 21.9908 14.5231 21.5483C14.8815 21.1059 15.4009 20.8239 15.9672 20.7644L87.1745 13.2883C87.4549 13.2586 87.7384 13.2844 88.0089 13.3643C88.2793 13.4442 88.5313 13.5766 88.7505 13.754C88.9697 13.9314 89.1519 14.1502 89.2865 14.398C89.421 14.6458 89.5055 14.9177 89.5349 15.1981L94.3394 60.9409C94.3692 61.2213 94.3434 61.5048 94.2635 61.7752C94.1835 62.0456 94.0511 62.2977 93.8738 62.5169C93.6964 62.7361 93.4776 62.9182 93.2298 63.0528C92.982 63.1874 92.7101 63.2718 92.4296 63.3013L87.8182 63.7862C87.741 63.7905 87.6659 63.7948 87.5908 63.7948Z" fill="#1C1C1B"/>
<path d="M97.35 51.0484C96.8163 51.0479 96.3019 50.8486 95.9072 50.4893C95.5126 50.13 95.266 49.6365 95.2156 49.1052C95.1652 48.5739 95.3146 48.0428 95.6347 47.6157C95.9547 47.1887 96.4225 46.8962 96.9466 46.7953L98.3435 46.5271L90.4855 5.57174L23.2329 18.4725C22.9557 18.5256 22.6709 18.5236 22.3945 18.4666C22.1181 18.4097 21.8557 18.2988 21.6221 18.1404C21.1505 17.8205 20.8253 17.3263 20.718 16.7666C20.6649 16.4894 20.6668 16.2045 20.7238 15.9281C20.7808 15.6518 20.8917 15.3893 21.0501 15.1558C21.2085 14.9223 21.4114 14.7222 21.6471 14.5671C21.8828 14.4119 22.1468 14.3048 22.4239 14.2516L91.7858 0.947473C92.3444 0.840528 92.9225 0.959677 93.3933 1.27874C93.864 1.59781 94.1889 2.09069 94.2965 2.64912L102.961 47.8211C103.068 48.3799 102.949 48.9583 102.629 49.4292C102.31 49.9 101.816 50.2246 101.258 50.3317L97.7555 51.0033C97.622 51.0309 97.4863 51.046 97.35 51.0484Z" fill="#1C1C1B"/>
</svg>
