<svg width="17" height="16" viewBox="0 0 17 16" fill="none" xmlns="http://www.w3.org/2000/svg">
<path d="M11.8333 14.1668H5.16659C2.73325 14.1668 1.33325 12.7668 1.33325 10.3335V5.66683C1.33325 3.2335 2.73325 1.8335 5.16659 1.8335H11.8333C14.2666 1.8335 15.6666 3.2335 15.6666 5.66683V10.3335C15.6666 12.7668 14.2666 14.1668 11.8333 14.1668ZM5.16659 2.8335C3.25992 2.8335 2.33325 3.76016 2.33325 5.66683V10.3335C2.33325 12.2402 3.25992 13.1668 5.16659 13.1668H11.8333C13.7399 13.1668 14.6666 12.2402 14.6666 10.3335V5.66683C14.6666 3.76016 13.7399 2.8335 11.8333 2.8335H5.16659Z" fill="#384EDD"/>
<path d="M8.5 10.5C7.12 10.5 6 9.38 6 8C6 6.62 7.12 5.5 8.5 5.5C9.88 5.5 11 6.62 11 8C11 9.38 9.88 10.5 8.5 10.5ZM8.5 6.5C7.67333 6.5 7 7.17333 7 8C7 8.82667 7.67333 9.5 8.5 9.5C9.32667 9.5 10 8.82667 10 8C10 7.17333 9.32667 6.5 8.5 6.5Z" fill="#384EDD"/>
<path d="M2.49992 6.49984H1.83325C1.55992 6.49984 1.33325 6.27317 1.33325 5.99984C1.33325 5.7265 1.55992 5.49984 1.83325 5.49984H2.49992C4.21992 5.49984 4.66658 5.05317 4.66658 3.33317V2.6665C4.66658 2.39317 4.89325 2.1665 5.16658 2.1665C5.43992 2.1665 5.66658 2.39317 5.66658 2.6665V3.33317C5.66658 5.61317 4.77992 6.49984 2.49992 6.49984Z" fill="#384EDD"/>
<path d="M15.1666 6.49984H14.4999C12.2199 6.49984 11.3333 5.61317 11.3333 3.33317V2.6665C11.3333 2.39317 11.5599 2.1665 11.8333 2.1665C12.1066 2.1665 12.3333 2.39317 12.3333 2.6665V3.33317C12.3333 5.05317 12.7799 5.49984 14.4999 5.49984H15.1666C15.4399 5.49984 15.6666 5.7265 15.6666 5.99984C15.6666 6.27317 15.4399 6.49984 15.1666 6.49984Z" fill="#384EDD"/>
<path d="M5.16658 13.8333C4.89325 13.8333 4.66658 13.6067 4.66658 13.3333V12.6667C4.66658 10.9467 4.21992 10.5 2.49992 10.5H1.83325C1.55992 10.5 1.33325 10.2733 1.33325 10C1.33325 9.72667 1.55992 9.5 1.83325 9.5H2.49992C4.77992 9.5 5.66658 10.3867 5.66658 12.6667V13.3333C5.66658 13.6067 5.43992 13.8333 5.16658 13.8333Z" fill="#384EDD"/>
<path d="M11.8333 13.8333C11.5599 13.8333 11.3333 13.6067 11.3333 13.3333V12.6667C11.3333 10.3867 12.2199 9.5 14.4999 9.5H15.1666C15.4399 9.5 15.6666 9.72667 15.6666 10C15.6666 10.2733 15.4399 10.5 15.1666 10.5H14.4999C12.7799 10.5 12.3333 10.9467 12.3333 12.6667V13.3333C12.3333 13.6067 12.1066 13.8333 11.8333 13.8333Z" fill="#384EDD"/>
</svg>
