<svg width="40" height="40" viewBox="0 0 40 40" fill="none" xmlns="http://www.w3.org/2000/svg">
<rect width="40" height="40" rx="20" fill="#DFE3FA"/>
<path d="M25 28.75H20C19.59 28.75 19.25 28.41 19.25 28C19.25 27.59 19.59 27.25 20 27.25H25C27.86 27.25 29.25 25.86 29.25 23V17C29.25 14.14 27.86 12.75 25 12.75H15C12.14 12.75 10.75 14.14 10.75 17V19C10.75 19.41 10.41 19.75 10 19.75C9.59 19.75 9.25 19.41 9.25 19V17C9.25 13.35 11.35 11.25 15 11.25H25C28.65 11.25 30.75 13.35 30.75 17V23C30.75 26.65 28.65 28.75 25 28.75Z" fill="#384EDD"/>
<path d="M20 23.25C18.21 23.25 16.75 21.79 16.75 20C16.75 18.21 18.21 16.75 20 16.75C21.79 16.75 23.25 18.21 23.25 20C23.25 21.79 21.79 23.25 20 23.25ZM20 18.25C19.04 18.25 18.25 19.04 18.25 20C18.25 20.96 19.04 21.75 20 21.75C20.96 21.75 21.75 20.96 21.75 20C21.75 19.04 20.96 18.25 20 18.25Z" fill="#384EDD"/>
<path d="M26.5 23.25C26.09 23.25 25.75 22.91 25.75 22.5V17.5C25.75 17.09 26.09 16.75 26.5 16.75C26.91 16.75 27.25 17.09 27.25 17.5V22.5C27.25 22.91 26.91 23.25 26.5 23.25Z" fill="#384EDD"/>
<path d="M16.5 26.69C16.09 26.69 15.75 26.35 15.75 25.94V24.66C15.75 24.44 15.57 24.25 15.34 24.25H10C9.59 24.25 9.25 23.91 9.25 23.5C9.25 23.09 9.59 22.75 10 22.75H15.34C16.39 22.75 17.25 23.61 17.25 24.66V25.94C17.25 26.35 16.91 26.69 16.5 26.69Z" fill="#384EDD"/>
<path d="M11.2199 25.4699C11.0299 25.4699 10.84 25.4 10.69 25.25L9.46994 24.03C9.17994 23.74 9.17994 23.2599 9.46994 22.9699L10.69 21.75C10.98 21.46 11.46 21.46 11.75 21.75C12.04 22.04 12.04 22.52 11.75 22.81L11.06 23.5L11.75 24.19C12.04 24.48 12.04 24.96 11.75 25.25C11.6 25.4 11.4099 25.4699 11.2199 25.4699Z" fill="#384EDD"/>
<path d="M16.5 29.5301H11.16C10.11 29.5301 9.25 28.6701 9.25 27.6201V26.3401C9.25 25.9301 9.59 25.5901 10 25.5901C10.41 25.5901 10.75 25.9301 10.75 26.3401V27.6201C10.75 27.8401 10.93 28.0301 11.16 28.0301H16.5C16.91 28.0301 17.25 28.3701 17.25 28.7801C17.25 29.1901 16.91 29.5301 16.5 29.5301Z" fill="#384EDD"/>
<path d="M15.2798 30.75C15.0898 30.75 14.8997 30.68 14.7497 30.53C14.4597 30.24 14.4597 29.7599 14.7497 29.4699L15.4397 28.78L14.7497 28.09C14.4597 27.8 14.4597 27.32 14.7497 27.03C15.0397 26.74 15.5197 26.74 15.8097 27.03L17.0298 28.25C17.3198 28.54 17.3198 29.02 17.0298 29.31L15.8097 30.53C15.6697 30.68 15.4698 30.75 15.2798 30.75Z" fill="#384EDD"/>
</svg>
