<svg width="38" height="35" viewBox="0 0 38 35" fill="none" xmlns="http://www.w3.org/2000/svg">
<path fill-rule="evenodd" clip-rule="evenodd" d="M11.5008 18.7871V18.5681C11.533 17.9202 11.7406 17.2925 12.1024 16.7496C12.7045 16.0975 13.1167 15.2983 13.2957 14.436C13.2957 13.7695 13.2957 13.0935 13.3539 12.427C13.6547 9.21842 16.8273 7 19.9611 7H20.0387C23.1725 7 26.345 9.21842 26.6555 12.427C26.7137 13.0935 26.6555 13.7695 26.704 14.436C26.8854 15.3003 27.2972 16.1019 27.8974 16.7591C28.2618 17.2972 28.4698 17.9227 28.4989 18.5681V18.7776C28.5206 19.648 28.2208 20.4968 27.6548 21.1674C26.907 21.9515 25.8921 22.4393 24.8024 22.5384C21.607 22.8812 18.383 22.8812 15.1876 22.5384C14.0991 22.435 13.0858 21.9479 12.3352 21.1674C11.778 20.4963 11.4822 19.6526 11.5008 18.7871Z" fill="#384EDD"/>
<circle cx="26" cy="10" r="3.5" fill="#FF0000" stroke="white"/>
<path d="M17 25C18 26 20.6 27.4 23 25" stroke="#384EDD" stroke-width="1.5" stroke-linecap="round"/>
</svg>
