<svg width="28" height="39" viewBox="0 0 28 39" fill="none" xmlns="http://www.w3.org/2000/svg">
<rect width="28" height="28" rx="8" fill="#384EDD"/>
<path d="M28 39V11L11.7931 13.1538L8 27.8718C8 27.8718 23.1724 26.0769 28 39Z" fill="#384EDD"/>
<path d="M20.8933 12.2202L19.5599 11.5535C19.3133 11.4335 19.0066 11.5268 18.8866 11.7735C18.7599 12.0268 18.8599 12.3268 19.1066 12.4468L20.1666 12.9735V16.1668L17.6666 16.1735V9.3335C17.6666 8.00016 16.7733 7.3335 15.6666 7.3335H10.3333C9.22659 7.3335 8.33325 8.00016 8.33325 9.3335V20.1668H7.33325C7.05992 20.1668 6.83325 20.3935 6.83325 20.6668C6.83325 20.9402 7.05992 21.1668 7.33325 21.1668H18.6666C18.9399 21.1668 19.1666 20.9402 19.1666 20.6668C19.1666 20.3935 18.9399 20.1668 18.6666 20.1668H17.6666V17.1735L20.6666 17.1668C20.9466 17.1668 21.1666 16.9402 21.1666 16.6668V12.6668C21.1666 12.4802 21.0599 12.3068 20.8933 12.2202ZM9.99992 10.5935C9.99992 9.66683 10.5666 9.3335 11.2599 9.3335H14.7466C15.4333 9.3335 15.9999 9.66683 15.9999 10.5935V11.4135C15.9999 12.3335 15.4333 12.6668 14.7399 12.6668H11.2599C10.5666 12.6668 9.99992 12.3335 9.99992 11.4068V10.5935ZM10.3333 14.1668H12.3333C12.6066 14.1668 12.8333 14.3935 12.8333 14.6668C12.8333 14.9402 12.6066 15.1668 12.3333 15.1668H10.3333C10.0599 15.1668 9.83325 14.9402 9.83325 14.6668C9.83325 14.3935 10.0599 14.1668 10.3333 14.1668Z" fill="white"/>
</svg>
