<svg width="106" height="106" viewBox="0 0 106 106" fill="none" xmlns="http://www.w3.org/2000/svg">
<path d="M79.1397 97.7187H26.8602C25.7504 97.7187 24.686 97.2778 23.9013 96.4931C23.1165 95.7083 22.6757 94.644 22.6757 93.5342V18.9268H40.6609L83.3234 44.0893V93.5342C83.3234 94.6439 82.8826 95.7081 82.0981 96.4928C81.3135 97.2775 80.2494 97.7185 79.1397 97.7187Z" fill="#FBBE2C"/>
<path d="M53 97.7186H79.1398C80.2496 97.7186 81.3139 97.2778 82.0987 96.493C82.8834 95.7083 83.3243 94.6439 83.3243 93.5341V44.0893L53 26.2051V97.7186Z" fill="#FD9E27"/>
<path d="M83.3243 53H22.6765V78.1195H83.3243V53Z" fill="#DEECF1"/>
<path d="M83.3234 53H53V78.1195H83.3234V53Z" fill="#C7E2E7"/>
<path d="M38.1211 13.6035H25.325V18.9259H38.1211V13.6035Z" fill="#DEECF1"/>
<path d="M39.3029 8.28125H24.144V13.6036H39.3029V8.28125Z" fill="#FBBE2C"/>
<path d="M70.1753 18.9268H40.6609L51.4911 25.3157H67.9965C69.1192 25.3157 70.231 25.5369 71.2682 25.9665C72.3055 26.3962 73.248 27.026 74.0419 27.8199C74.8358 28.6138 75.4656 29.5562 75.8952 30.5935C76.3249 31.6308 76.546 32.7426 76.546 33.8653V40.0928L83.3242 44.0902V32.0749C83.3242 30.3482 82.9841 28.6384 82.3233 27.0431C81.6625 25.4479 80.6939 23.9984 79.4729 22.7775C78.2519 21.5565 76.8024 20.5881 75.2071 19.9274C73.6118 19.2667 71.902 18.9266 70.1753 18.9268ZM57.813 67.5443C57.813 68.8208 57.3059 70.045 56.4033 70.9477C55.5007 71.8503 54.2765 72.3574 53 72.3574C51.7234 72.3574 50.4992 71.8503 49.5966 70.9477C48.694 70.045 48.1869 68.8208 48.1869 67.5443C48.1869 64.886 53 58.7662 53 58.7662C53 58.7662 57.813 64.886 57.813 67.5443Z" fill="#5A5A5A"/>
<path d="M34.1949 8.28125H29.251V13.6036H34.1949V8.28125Z" fill="#FD9E27"/>
<path d="M70.1753 18.9268H53V25.3157H67.9965C70.2639 25.3157 72.4383 26.2164 74.0417 27.8196C75.645 29.4227 76.5459 31.5971 76.5461 33.8645V40.092L83.3243 44.0893V32.0749C83.3243 30.3482 82.9842 28.6384 82.3234 27.0431C81.6626 25.4479 80.694 23.9984 79.473 22.7775C78.252 21.5565 76.8024 20.5881 75.2071 19.9274C73.6118 19.2667 71.902 18.9266 70.1753 18.9268ZM57.8131 67.5443C57.8131 64.886 53 58.7662 53 58.7662V72.3574C54.2765 72.3574 55.5007 71.8503 56.4033 70.9477C57.306 70.045 57.8131 68.8208 57.8131 67.5443Z" fill="#444444"/>
<path d="M67.2852 96.2697H66.7329C66.3485 96.2697 65.9799 96.4224 65.7081 96.6942C65.4363 96.966 65.2836 97.3346 65.2836 97.7189C65.2836 98.1033 65.4363 98.4719 65.7081 98.7437C65.9799 99.0155 66.3485 99.1682 66.7329 99.1682H67.2852C67.6696 99.1682 68.0382 99.0155 68.31 98.7437C68.5817 98.4719 68.7344 98.1033 68.7344 97.7189C68.7344 97.3346 68.5817 96.966 68.31 96.6942C68.0382 96.4224 67.6696 96.2697 67.2852 96.2697ZM51.4912 20.3721H70.1754C71.5338 20.3701 72.8821 20.6055 74.1595 21.0677C74.3391 21.1358 74.5305 21.1676 74.7225 21.1611C74.9145 21.1546 75.1033 21.11 75.2779 21.0299C75.4525 20.9498 75.6094 20.8357 75.7395 20.6944C75.8697 20.5531 75.9704 20.3873 76.0359 20.2067C76.1014 20.0261 76.1303 19.8343 76.121 19.6424C76.1117 19.4506 76.0643 19.2624 75.9816 19.089C75.899 18.9156 75.7826 18.7604 75.6394 18.6323C75.4962 18.5043 75.329 18.406 75.1474 18.3432C73.5545 17.766 71.8729 17.4718 70.1787 17.4736H51.4912C51.1069 17.4736 50.7382 17.6263 50.4665 17.8981C50.1947 18.1699 50.042 18.5385 50.042 18.9229C50.042 19.3072 50.1947 19.6758 50.4665 19.9476C50.7382 20.2194 51.1069 20.3721 51.4912 20.3721ZM78.1022 23.4709C78.2413 23.6038 78.4055 23.7077 78.5853 23.7765C78.765 23.8453 78.9566 23.8776 79.1489 23.8715C79.3413 23.8654 79.5305 23.8211 79.7055 23.7411C79.8805 23.6612 80.0379 23.5472 80.1684 23.4057C80.2988 23.2643 80.3999 23.0983 80.4655 22.9174C80.5312 22.7365 80.5601 22.5444 80.5507 22.3522C80.5413 22.16 80.4937 21.9716 80.4107 21.798C80.3277 21.6243 80.211 21.469 80.0673 21.341C79.9017 21.1853 79.7292 21.0338 79.5497 20.8863C79.2553 20.6393 78.8748 20.5192 78.4919 20.5527C78.109 20.5862 77.7551 20.7704 77.508 21.0648C77.2609 21.3592 77.1409 21.7397 77.1744 22.1226C77.2078 22.5055 77.392 22.8595 77.6865 23.1065C77.8272 23.2241 77.9664 23.3459 78.1022 23.4709Z" fill="#2D2D2D"/>
<path d="M83.0766 25.2404C82.9874 25.0723 82.8659 24.9234 82.7192 24.8022C82.5724 24.681 82.4032 24.5899 82.2212 24.5341C82.0392 24.4784 81.848 24.459 81.6585 24.4771C81.4691 24.4951 81.285 24.5504 81.1169 24.6396C80.9487 24.7289 80.7998 24.8503 80.6787 24.9971C80.5575 25.1439 80.4664 25.3131 80.4106 25.4951C80.3548 25.677 80.3354 25.8682 80.3535 26.0577C80.3716 26.2472 80.4268 26.4312 80.5161 26.5994C81.4077 28.2868 81.8739 30.1664 81.8742 32.0749V41.5528L56.8002 26.765H67.9957C69.8781 26.7672 71.6828 27.516 73.0139 28.8471C74.345 30.1782 75.0938 31.9829 75.096 33.8653C75.096 34.2497 75.2487 34.6183 75.5205 34.8901C75.7922 35.1619 76.1609 35.3146 76.5452 35.3146C76.9296 35.3146 77.2982 35.1619 77.57 34.8901C77.8417 34.6183 77.9944 34.2497 77.9944 33.8653C77.9916 31.2144 76.9372 28.6728 75.0627 26.7983C73.1882 24.9238 70.6466 23.8694 67.9957 23.8666H51.8861L41.3938 17.6788C41.1722 17.5462 40.9191 17.4753 40.6609 17.4734H39.5703V15.0222C39.9021 14.9602 40.2019 14.7841 40.4177 14.5245C40.6335 14.2648 40.7518 13.9379 40.752 13.6003V8.28125C40.752 7.8969 40.5993 7.52828 40.3275 7.2565C40.0557 6.98472 39.6871 6.83204 39.3028 6.83204H24.1431C23.9525 6.8316 23.7637 6.86876 23.5875 6.9414C23.4113 7.01403 23.2512 7.12071 23.1162 7.25533C22.9813 7.38994 22.8743 7.54985 22.8012 7.7259C22.7282 7.90194 22.6906 8.09066 22.6906 8.28125V13.6036C22.6908 13.9412 22.8091 14.2681 23.0249 14.5278C23.2407 14.7875 23.5404 14.9635 23.8723 15.0255V17.4734H22.6765C22.2922 17.4734 21.9235 17.6261 21.6518 17.8979C21.38 18.1697 21.2273 18.5383 21.2273 18.9227V93.5301C21.2297 95.0229 21.8238 96.4538 22.8793 97.5093C23.9349 98.5649 25.3658 99.1589 26.8585 99.1614H61.971C62.3554 99.1614 62.724 99.0087 62.9958 98.7369C63.2676 98.4651 63.4203 98.0965 63.4203 97.7121C63.4203 97.3278 63.2676 96.9592 62.9958 96.6874C62.724 96.4156 62.3554 96.2629 61.971 96.2629H26.8585C26.1342 96.2616 25.4398 95.9733 24.9276 95.461C24.4154 94.9488 24.127 94.2545 24.1257 93.5301V54.4492H76.546C76.9304 54.4492 77.299 54.2965 77.5708 54.0248C77.8426 53.753 77.9953 53.3844 77.9953 53C77.9953 52.6157 77.8426 52.247 77.5708 51.9753C77.299 51.7035 76.9304 51.5508 76.546 51.5508H24.1257V20.3719H40.2626L81.8742 44.9175V76.6703H28.7773C28.393 76.6703 28.0243 76.823 27.7526 77.0948C27.4808 77.3666 27.3281 77.7352 27.3281 78.1195C27.3281 78.5039 27.4808 78.8725 27.7526 79.1443C28.0243 79.4161 28.393 79.5687 28.7773 79.5687H81.8742V93.5342C81.8729 94.2586 81.5845 94.953 81.0723 95.4652C80.5601 95.9774 79.8658 96.2657 79.1414 96.2671H72.6679C72.2836 96.2671 71.915 96.4197 71.6432 96.6915C71.3714 96.9633 71.2187 97.3319 71.2187 97.7163C71.2187 98.1006 71.3714 98.4692 71.6432 98.741C71.915 99.0128 72.2836 99.1655 72.6679 99.1655H79.1389C80.6317 99.1631 82.0626 98.569 83.1181 97.5135C84.1737 96.4579 84.7677 95.027 84.7702 93.5342V32.0749C84.7705 29.6929 84.1892 27.3467 83.0766 25.2404ZM37.8536 12.1544H35.6441V9.73047H37.8536V12.1544ZM32.7457 9.73047V12.1544H30.7002V9.73047H32.7457ZM25.5923 9.73047H27.8018V12.1544H25.589L25.5923 9.73047ZM26.7741 15.0528H36.6718V17.4734H26.7741V15.0528Z" fill="#2D2D2D"/>
<path d="M59.2623 67.5441C59.2623 64.5372 54.995 58.9548 54.1387 57.8667C53.9978 57.7022 53.823 57.5703 53.6263 57.4798C53.4296 57.3893 53.2157 57.3424 52.9992 57.3424C52.7827 57.3424 52.5687 57.3893 52.372 57.4798C52.1753 57.5703 52.0005 57.7022 51.8597 57.8667C51.0042 58.9548 46.7361 64.5372 46.7361 67.5441C46.7361 69.2051 47.3959 70.798 48.5704 71.9725C49.7448 73.147 51.3378 73.8068 52.9988 73.8068C54.6597 73.8068 56.2527 73.147 57.4272 71.9725C58.6016 70.798 59.2623 69.2051 59.2623 67.5441ZM49.6353 67.5441C49.6353 66.4477 51.2253 63.671 52.9983 61.1841C54.6248 63.4714 56.3638 66.3599 56.3638 67.5441C56.3638 68.4364 56.0094 69.2921 55.3785 69.923C54.7476 70.5539 53.8918 70.9084 52.9996 70.9084C52.1073 70.9084 51.2516 70.5539 50.6207 69.923C49.9898 69.2921 49.6353 68.4364 49.6353 67.5441ZM28.7773 29.5365C28.393 29.5365 28.0244 29.6892 27.7526 29.961C27.4808 30.2327 27.3281 30.6014 27.3281 30.9857V46.7888C27.3281 47.1732 27.4808 47.5418 27.7526 47.8136C28.0244 48.0854 28.393 48.238 28.7773 48.238C29.1617 48.238 29.5303 48.0854 29.8021 47.8136C30.0739 47.5418 30.2266 47.1732 30.2266 46.7888V30.9857C30.2266 30.6014 30.0739 30.2327 29.8021 29.961C29.5303 29.6892 29.1617 29.5365 28.7773 29.5365ZM30.2266 24.2266C30.2266 23.8422 30.0739 23.4736 29.8021 23.2018C29.5303 22.93 29.1617 22.7773 28.7773 22.7773C28.393 22.7773 28.0244 22.93 27.7526 23.2018C27.4808 23.4736 27.3281 23.8422 27.3281 24.2266V25.3155C27.3281 25.6999 27.4808 26.0685 27.7526 26.3403C28.0244 26.6121 28.393 26.7648 28.7773 26.7648C29.1617 26.7648 29.5303 26.6121 29.8021 26.3403C30.0739 26.0685 30.2266 25.6999 30.2266 25.3155V24.2266Z" fill="#2D2D2D"/>
</svg>
