<svg width="20" height="20" viewBox="0 0 20 20" fill="none" xmlns="http://www.w3.org/2000/svg">
<path d="M15.4166 3.42493L11.2582 1.8666C10.5666 1.60827 9.43322 1.60827 8.74155 1.8666L4.58322 3.42493C3.62489 3.78327 2.84155 4.9166 2.84155 5.93327V12.1249C2.84155 13.1083 3.49155 14.3999 4.28322 14.9916L7.86655 17.6666C9.04155 18.5499 10.9749 18.5499 12.1499 17.6666L15.7332 14.9916C16.5249 14.3999 17.1749 13.1083 17.1749 12.1249V5.93327C17.1582 4.9166 16.3749 3.78327 15.4166 3.42493ZM9.94155 5.85827C10.9249 5.85827 11.7249 6.65827 11.7249 7.6416C11.7249 8.60827 10.9666 9.38327 10.0082 9.4166H9.99155H9.97489C9.95822 9.4166 9.94155 9.4166 9.92489 9.4166C8.92489 9.38327 8.17489 8.60827 8.17489 7.6416C8.16655 6.65827 8.96655 5.85827 9.94155 5.85827ZM11.8249 13.6333C11.3166 13.9666 10.6582 14.1416 9.99989 14.1416C9.34155 14.1416 8.67489 13.9749 8.17489 13.6333C7.69989 13.3166 7.44155 12.8833 7.43322 12.4083C7.43322 11.9416 7.69989 11.4916 8.17489 11.1749C9.18322 10.5083 10.8249 10.5083 11.8332 11.1749C12.3082 11.4916 12.5749 11.9249 12.5749 12.3999C12.5666 12.8666 12.2999 13.3166 11.8249 13.6333Z" fill="#17CE4E"/>
</svg>
