<svg width="178" height="178" viewBox="0 0 178 178" fill="none" xmlns="http://www.w3.org/2000/svg">
<rect x="2" y="2" width="28.1203" height="28.1203" stroke="#252525" stroke-width="4"/>
<rect x="6.68408" y="6.68457" width="18.7519" height="18.7519" stroke="#252525" stroke-width="4"/>
<rect x="152.564" y="152.563" width="18.7519" height="18.7519" stroke="#252525" stroke-width="4"/>
<rect x="11.3684" y="156.579" width="10.0526" height="10.0526" stroke="#252525" stroke-width="4"/>
<rect x="2" y="147.88" width="28.1203" height="28.1203" stroke="#252525" stroke-width="4"/>
<rect x="147.88" y="147.88" width="28.1203" height="28.1203" stroke="#252525" stroke-width="4"/>
<rect x="147.88" y="2" width="28.1203" height="28.1203" stroke="#252525" stroke-width="4"/>
<circle cx="39.1467" cy="9.70337" r="5.0188" fill="#252525"/>
<circle cx="51.1917" cy="9.70337" r="5.0188" fill="#252525"/>
<circle cx="63.2368" cy="9.70337" r="5.0188" fill="#252525"/>
<circle cx="75.282" cy="9.70337" r="5.0188" fill="#252525"/>
<circle cx="87.3271" cy="9.70337" r="5.0188" fill="#252525"/>
<circle cx="99.3721" cy="9.70337" r="5.0188" fill="#252525"/>
<circle cx="111.417" cy="9.70337" r="5.0188" fill="#252525"/>
<circle cx="123.462" cy="9.70337" r="5.0188" fill="#252525"/>
<circle cx="135.508" cy="22.4172" r="5.0188" fill="#252525"/>
<circle cx="135.508" cy="35.1321" r="5.0188" fill="#252525"/>
<circle cx="147.553" cy="40.4846" r="5.0188" fill="#252525"/>
<circle cx="160.267" cy="40.4846" r="5.0188" fill="#252525"/>
<circle cx="168.297" cy="50.5227" r="5.0188" fill="#252525"/>
<circle cx="168.297" cy="63.9055" r="5.0188" fill="#252525"/>
<circle cx="168.966" cy="77.2893" r="5.0188" fill="#252525"/>
<circle cx="168.966" cy="104.056" r="5.0188" fill="#252525"/>
<circle cx="168.966" cy="117.44" r="5.0188" fill="#252525"/>
<circle cx="168.966" cy="130.823" r="5.0188" fill="#252525"/>
<circle cx="160.267" cy="139.523" r="5.0188" fill="#252525"/>
<circle cx="147.553" cy="139.523" r="5.0188" fill="#252525"/>
<circle cx="135.508" cy="150.899" r="5.0188" fill="#252525"/>
<circle cx="135.508" cy="163.613" r="5.0188" fill="#252525"/>
<circle cx="125.47" cy="168.966" r="5.0188" fill="#252525"/>
<circle cx="111.417" cy="168.966" r="5.0188" fill="#252525"/>
<circle cx="83.312" cy="168.966" r="5.0188" fill="#252525"/>
<circle cx="69.2595" cy="168.966" r="5.0188" fill="#252525"/>
<circle cx="55.2068" cy="168.966" r="5.0188" fill="#252525"/>
<circle cx="41.1543" cy="168.966" r="5.0188" fill="#252525"/>
<circle cx="41.1543" cy="155.582" r="5.0188" fill="#252525"/>
<circle cx="41.1543" cy="142.199" r="5.0188" fill="#252525"/>
<circle cx="28.4399" cy="137.515" r="5.0188" fill="#252525"/>
<circle cx="14.3872" cy="139.523" r="5.0188" fill="#252525"/>
<circle cx="9.03393" cy="128.147" r="5.0188" fill="#252525"/>
<circle cx="9.03393" cy="94.0188" r="5.0188" fill="#252525"/>
<circle cx="9.03393" cy="82.6428" r="5.0188" fill="#252525"/>
<circle cx="9.03393" cy="71.2668" r="5.0188" fill="#252525"/>
<circle cx="9.03393" cy="59.8909" r="5.0188" fill="#252525"/>
<circle cx="9.03393" cy="48.5149" r="5.0188" fill="#252525"/>
<circle cx="21.0789" cy="59.8909" r="5.0188" fill="#252525"/>
<circle cx="21.0789" cy="82.6428" r="5.0188" fill="#252525"/>
<circle cx="21.0789" cy="94.0188" r="5.0188" fill="#252525"/>
<circle cx="21.0789" cy="105.395" r="5.0188" fill="#252525"/>
<circle cx="21.0789" cy="116.771" r="5.0188" fill="#252525"/>
<circle cx="21.0789" cy="128.147" r="5.0188" fill="#252525"/>
<circle cx="33.124" cy="48.5149" r="5.0188" fill="#252525"/>
<circle cx="33.124" cy="71.2668" r="5.0188" fill="#252525"/>
<circle cx="33.124" cy="82.6428" r="5.0188" fill="#252525"/>
<circle cx="33.124" cy="94.0188" r="5.0188" fill="#252525"/>
<circle cx="33.124" cy="105.395" r="5.0188" fill="#252525"/>
<circle cx="33.124" cy="116.771" r="5.0188" fill="#252525"/>
<circle cx="33.124" cy="128.147" r="5.0188" fill="#252525"/>
<circle cx="45.1689" cy="48.5149" r="5.0188" fill="#252525"/>
<circle cx="45.1689" cy="59.8909" r="5.0188" fill="#252525"/>
<circle cx="45.1689" cy="71.2668" r="5.0188" fill="#252525"/>
<circle cx="45.1689" cy="82.6428" r="5.0188" fill="#252525"/>
<circle cx="45.1689" cy="94.0188" r="5.0188" fill="#252525"/>
<circle cx="45.1689" cy="105.395" r="5.0188" fill="#252525"/>
<circle cx="45.1689" cy="37.1389" r="5.0188" fill="#252525"/>
<circle cx="57.2144" cy="48.5149" r="5.0188" fill="#252525"/>
<circle cx="57.2144" cy="59.8909" r="5.0188" fill="#252525"/>
<circle cx="57.2144" cy="71.2668" r="5.0188" fill="#252525"/>
<circle cx="57.2144" cy="94.0188" r="5.0188" fill="#252525"/>
<circle cx="57.2144" cy="116.771" r="5.0188" fill="#252525"/>
<circle cx="57.2144" cy="128.147" r="5.0188" fill="#252525"/>
<circle cx="57.2144" cy="139.523" r="5.0188" fill="#252525"/>
<circle cx="57.2144" cy="150.899" r="5.0188" fill="#252525"/>
<circle cx="63.2368" cy="22.4172" r="5.0188" fill="#252525"/>
<circle cx="69.2595" cy="48.5149" r="5.0188" fill="#252525"/>
<circle cx="69.2595" cy="59.8909" r="5.0188" fill="#252525"/>
<circle cx="69.2595" cy="71.2668" r="5.0188" fill="#252525"/>
<circle cx="69.2595" cy="82.6428" r="5.0188" fill="#252525"/>
<circle cx="69.2595" cy="94.0188" r="5.0188" fill="#252525"/>
<circle cx="69.2595" cy="105.395" r="5.0188" fill="#252525"/>
<circle cx="69.2595" cy="116.771" r="5.0188" fill="#252525"/>
<circle cx="69.2595" cy="128.147" r="5.0188" fill="#252525"/>
<circle cx="69.2595" cy="139.523" r="5.0188" fill="#252525"/>
<circle cx="69.2595" cy="150.899" r="5.0188" fill="#252525"/>
<circle cx="69.2595" cy="37.1389" r="5.0188" fill="#252525"/>
<circle cx="75.282" cy="22.4172" r="5.0188" fill="#252525"/>
<circle cx="81.3044" cy="48.5149" r="5.0188" fill="#252525"/>
<circle cx="81.3044" cy="71.2668" r="5.0188" fill="#252525"/>
<circle cx="81.3044" cy="82.6428" r="5.0188" fill="#252525"/>
<circle cx="81.3044" cy="94.0188" r="5.0188" fill="#252525"/>
<circle cx="81.3044" cy="105.395" r="5.0188" fill="#252525"/>
<circle cx="81.3044" cy="128.147" r="5.0188" fill="#252525"/>
<circle cx="81.3044" cy="139.523" r="5.0188" fill="#252525"/>
<circle cx="81.3044" cy="150.899" r="5.0188" fill="#252525"/>
<circle cx="81.3044" cy="37.1389" r="5.0188" fill="#252525"/>
<circle cx="87.3271" cy="22.4172" r="5.0188" fill="#252525"/>
<circle cx="93.3496" cy="48.5149" r="5.0188" fill="#252525"/>
<circle cx="93.3496" cy="59.8909" r="5.0188" fill="#252525"/>
<circle cx="93.3496" cy="71.2668" r="5.0188" fill="#252525"/>
<circle cx="93.3496" cy="82.6428" r="5.0188" fill="#252525"/>
<circle cx="93.3496" cy="94.0188" r="5.0188" fill="#252525"/>
<circle cx="93.3496" cy="105.395" r="5.0188" fill="#252525"/>
<circle cx="93.3496" cy="116.771" r="5.0188" fill="#252525"/>
<circle cx="93.3496" cy="128.147" r="5.0188" fill="#252525"/>
<circle cx="93.3496" cy="37.1389" r="5.0188" fill="#252525"/>
<circle cx="99.3721" cy="22.4172" r="5.0188" fill="#252525"/>
<circle cx="105.395" cy="48.5149" r="5.0188" fill="#252525"/>
<circle cx="105.395" cy="71.2668" r="5.0188" fill="#252525"/>
<circle cx="105.395" cy="82.6428" r="5.0188" fill="#252525"/>
<circle cx="105.395" cy="94.0188" r="5.0188" fill="#252525"/>
<circle cx="105.395" cy="139.523" r="5.0188" fill="#252525"/>
<circle cx="105.395" cy="150.899" r="5.0188" fill="#252525"/>
<circle cx="117.44" cy="48.5149" r="5.0188" fill="#252525"/>
<circle cx="117.44" cy="59.8909" r="5.0188" fill="#252525"/>
<circle cx="117.44" cy="71.2668" r="5.0188" fill="#252525"/>
<circle cx="117.44" cy="94.0188" r="5.0188" fill="#252525"/>
<circle cx="117.44" cy="105.395" r="5.0188" fill="#252525"/>
<circle cx="117.44" cy="116.771" r="5.0188" fill="#252525"/>
<circle cx="117.44" cy="128.147" r="5.0188" fill="#252525"/>
<circle cx="117.44" cy="139.523" r="5.0188" fill="#252525"/>
<circle cx="117.44" cy="150.899" r="5.0188" fill="#252525"/>
<circle cx="117.44" cy="37.1389" r="5.0188" fill="#252525"/>
<circle cx="123.462" cy="22.4172" r="5.0188" fill="#252525"/>
<circle cx="129.485" cy="48.5149" r="5.0188" fill="#252525"/>
<circle cx="129.485" cy="59.8909" r="5.0188" fill="#252525"/>
<circle cx="140.861" cy="71.2668" r="5.0188" fill="#252525"/>
<circle cx="152.237" cy="71.2668" r="5.0188" fill="#252525"/>
<circle cx="129.485" cy="82.6428" r="5.0188" fill="#252525"/>
<circle cx="140.861" cy="82.6428" r="5.0188" fill="#252525"/>
<circle cx="152.237" cy="82.6428" r="5.0188" fill="#252525"/>
<circle cx="129.485" cy="94.0188" r="5.0188" fill="#252525"/>
<circle cx="140.861" cy="94.0188" r="5.0188" fill="#252525"/>
<circle cx="152.237" cy="94.0188" r="5.0188" fill="#252525"/>
<circle cx="129.485" cy="105.395" r="5.0188" fill="#252525"/>
<circle cx="140.861" cy="105.395" r="5.0188" fill="#252525"/>
<circle cx="152.237" cy="105.395" r="5.0188" fill="#252525"/>
<circle cx="129.485" cy="116.771" r="5.0188" fill="#252525"/>
<circle cx="140.861" cy="116.771" r="5.0188" fill="#252525"/>
<circle cx="129.485" cy="128.147" r="5.0188" fill="#252525"/>
<circle cx="140.861" cy="128.147" r="5.0188" fill="#252525"/>
<circle cx="152.237" cy="128.147" r="5.0188" fill="#252525"/>
<circle cx="129.485" cy="139.523" r="5.0188" fill="#252525"/>
<circle cx="156.252" cy="57.8831" r="5.0188" fill="#252525"/>
<circle cx="9.03393" cy="37.1389" r="5.0188" fill="#252525"/>
<circle cx="21.0789" cy="37.1389" r="5.0188" fill="#252525"/>
<circle cx="33.124" cy="37.1389" r="5.0188" fill="#252525"/>
<circle cx="39.1467" cy="22.4172" r="5.0188" fill="#252525"/>
<circle cx="168.966" cy="90.6731" r="5.0188" fill="#252525"/>
</svg>
