<svg width="227" height="194" viewBox="0 0 227 194" fill="none" xmlns="http://www.w3.org/2000/svg">
<rect x="19.5038" y="2" width="31.0075" height="31.0075" stroke="white" stroke-width="4"/>
<rect x="24.609" y="7.10547" width="20.797" height="20.797" stroke="white" stroke-width="4"/>
<rect x="183.602" y="166.098" width="20.797" height="20.797" stroke="white" stroke-width="4"/>
<rect x="29.7143" y="170.474" width="11.3158" height="11.3158" stroke="white" stroke-width="4"/>
<rect x="19.5038" y="160.993" width="31.0075" height="31.0075" stroke="white" stroke-width="4"/>
<rect x="178.496" y="160.993" width="31.0075" height="31.0075" stroke="white" stroke-width="4"/>
<rect x="178.496" y="2" width="31.0075" height="31.0075" stroke="white" stroke-width="4"/>
<circle cx="60.1692" cy="10.5754" r="5.46992" fill="white"/>
<circle cx="73.297" cy="10.5754" r="5.46992" fill="white"/>
<circle cx="86.4248" cy="10.5754" r="5.46992" fill="white"/>
<circle cx="99.5526" cy="10.5754" r="5.46992" fill="white"/>
<circle cx="112.68" cy="10.5754" r="5.46992" fill="white"/>
<circle cx="125.808" cy="10.5754" r="5.46992" fill="white"/>
<circle cx="138.936" cy="10.5754" r="5.46992" fill="white"/>
<circle cx="152.064" cy="10.5754" r="5.46992" fill="white"/>
<circle cx="165.192" cy="24.4323" r="5.46992" fill="white"/>
<circle cx="165.192" cy="38.2893" r="5.46992" fill="white"/>
<circle cx="178.32" cy="44.1242" r="5.46992" fill="white"/>
<circle cx="192.177" cy="44.1242" r="5.46992" fill="white"/>
<circle cx="200.929" cy="55.0637" r="5.46992" fill="white"/>
<circle cx="200.929" cy="69.6506" r="5.46992" fill="white"/>
<circle cx="201.658" cy="84.237" r="5.46992" fill="white"/>
<circle cx="201.658" cy="113.41" r="5.46992" fill="white"/>
<circle cx="201.658" cy="127.996" r="5.46992" fill="white"/>
<circle cx="201.658" cy="142.583" r="5.46992" fill="white"/>
<circle cx="192.177" cy="152.064" r="5.46992" fill="white"/>
<circle cx="178.32" cy="152.064" r="5.46992" fill="white"/>
<circle cx="165.192" cy="164.463" r="5.46992" fill="white"/>
<circle cx="165.192" cy="178.32" r="5.46992" fill="white"/>
<circle cx="154.252" cy="184.154" r="5.46992" fill="white"/>
<circle cx="138.936" cy="184.154" r="5.46992" fill="white"/>
<circle cx="108.305" cy="184.154" r="5.46992" fill="white"/>
<circle cx="92.9887" cy="184.154" r="5.46992" fill="white"/>
<circle cx="77.6729" cy="184.154" r="5.46992" fill="white"/>
<circle cx="62.3571" cy="184.154" r="5.46992" fill="white"/>
<circle cx="62.3571" cy="169.568" r="5.46992" fill="white"/>
<circle cx="62.3571" cy="154.981" r="5.46992" fill="white"/>
<circle cx="48.5" cy="149.876" r="5.46992" fill="white"/>
<circle cx="33.1842" cy="152.064" r="5.46992" fill="white"/>
<circle cx="27.3496" cy="139.665" r="5.46992" fill="white"/>
<circle cx="27.3496" cy="102.47" r="5.46992" fill="white"/>
<circle cx="27.3496" cy="90.0715" r="5.46992" fill="white"/>
<circle cx="27.3496" cy="77.673" r="5.46992" fill="white"/>
<circle cx="27.3496" cy="65.2746" r="5.46992" fill="white"/>
<circle cx="27.3496" cy="52.8762" r="5.46992" fill="white"/>
<circle cx="40.4774" cy="65.2746" r="5.46992" fill="white"/>
<circle cx="40.4774" cy="90.0715" r="5.46992" fill="white"/>
<circle cx="40.4774" cy="102.47" r="5.46992" fill="white"/>
<circle cx="40.4774" cy="114.868" r="5.46992" fill="white"/>
<circle cx="40.4774" cy="127.267" r="5.46992" fill="white"/>
<circle cx="40.4774" cy="139.665" r="5.46992" fill="white"/>
<circle cx="53.6053" cy="52.8762" r="5.46992" fill="white"/>
<circle cx="53.6053" cy="77.673" r="5.46992" fill="white"/>
<circle cx="53.6053" cy="90.0715" r="5.46992" fill="white"/>
<circle cx="53.6053" cy="102.47" r="5.46992" fill="white"/>
<circle cx="53.6053" cy="114.868" r="5.46992" fill="white"/>
<circle cx="53.6053" cy="127.267" r="5.46992" fill="white"/>
<circle cx="53.6053" cy="139.665" r="5.46992" fill="white"/>
<circle cx="66.7331" cy="52.8762" r="5.46992" fill="white"/>
<circle cx="66.7331" cy="65.2746" r="5.46992" fill="white"/>
<circle cx="66.7331" cy="77.673" r="5.46992" fill="white"/>
<circle cx="66.7331" cy="90.0715" r="5.46992" fill="white"/>
<circle cx="66.7331" cy="102.47" r="5.46992" fill="white"/>
<circle cx="66.7331" cy="114.868" r="5.46992" fill="white"/>
<circle cx="66.7331" cy="40.4772" r="5.46992" fill="white"/>
<circle cx="79.8609" cy="52.8762" r="5.46992" fill="white"/>
<circle cx="79.8609" cy="65.2746" r="5.46992" fill="white"/>
<circle cx="79.8609" cy="77.673" r="5.46992" fill="white"/>
<circle cx="79.8609" cy="102.47" r="5.46992" fill="white"/>
<circle cx="79.8609" cy="127.267" r="5.46992" fill="white"/>
<circle cx="79.8609" cy="139.665" r="5.46992" fill="white"/>
<circle cx="79.8609" cy="152.064" r="5.46992" fill="white"/>
<circle cx="79.8609" cy="164.463" r="5.46992" fill="white"/>
<circle cx="86.4248" cy="24.4323" r="5.46992" fill="white"/>
<circle cx="92.9887" cy="52.8762" r="5.46992" fill="white"/>
<circle cx="92.9887" cy="65.2746" r="5.46992" fill="white"/>
<circle cx="92.9887" cy="77.673" r="5.46992" fill="white"/>
<circle cx="92.9887" cy="90.0715" r="5.46992" fill="white"/>
<circle cx="92.9887" cy="102.47" r="5.46992" fill="white"/>
<circle cx="92.9887" cy="114.868" r="5.46992" fill="white"/>
<circle cx="92.9887" cy="127.267" r="5.46992" fill="white"/>
<circle cx="92.9887" cy="139.665" r="5.46992" fill="white"/>
<circle cx="92.9887" cy="152.064" r="5.46992" fill="white"/>
<circle cx="92.9887" cy="164.463" r="5.46992" fill="white"/>
<circle cx="92.9887" cy="40.4772" r="5.46992" fill="white"/>
<circle cx="99.5526" cy="24.4323" r="5.46992" fill="white"/>
<circle cx="106.117" cy="52.8762" r="5.46992" fill="white"/>
<circle cx="106.117" cy="77.673" r="5.46992" fill="white"/>
<circle cx="106.117" cy="90.0715" r="5.46992" fill="white"/>
<circle cx="106.117" cy="102.47" r="5.46992" fill="white"/>
<circle cx="106.117" cy="114.868" r="5.46992" fill="white"/>
<circle cx="106.117" cy="139.665" r="5.46992" fill="white"/>
<circle cx="106.117" cy="152.064" r="5.46992" fill="white"/>
<circle cx="106.117" cy="164.463" r="5.46992" fill="white"/>
<circle cx="106.117" cy="40.4772" r="5.46992" fill="white"/>
<circle cx="112.68" cy="24.4323" r="5.46992" fill="white"/>
<circle cx="119.244" cy="52.8762" r="5.46992" fill="white"/>
<circle cx="119.244" cy="65.2746" r="5.46992" fill="white"/>
<circle cx="119.244" cy="77.673" r="5.46992" fill="white"/>
<circle cx="119.244" cy="90.0715" r="5.46992" fill="white"/>
<circle cx="119.244" cy="102.47" r="5.46992" fill="white"/>
<circle cx="119.244" cy="114.868" r="5.46992" fill="white"/>
<circle cx="119.244" cy="127.267" r="5.46992" fill="white"/>
<circle cx="119.244" cy="139.665" r="5.46992" fill="white"/>
<circle cx="119.244" cy="40.4772" r="5.46992" fill="white"/>
<circle cx="125.808" cy="24.4323" r="5.46992" fill="white"/>
<circle cx="132.372" cy="52.8762" r="5.46992" fill="white"/>
<circle cx="132.372" cy="77.673" r="5.46992" fill="white"/>
<circle cx="132.372" cy="90.0715" r="5.46992" fill="white"/>
<circle cx="132.372" cy="102.47" r="5.46992" fill="white"/>
<circle cx="132.372" cy="152.064" r="5.46992" fill="white"/>
<circle cx="132.372" cy="164.463" r="5.46992" fill="white"/>
<circle cx="145.5" cy="52.8762" r="5.46992" fill="white"/>
<circle cx="145.5" cy="65.2746" r="5.46992" fill="white"/>
<circle cx="145.5" cy="77.673" r="5.46992" fill="white"/>
<circle cx="145.5" cy="102.47" r="5.46992" fill="white"/>
<circle cx="145.5" cy="114.868" r="5.46992" fill="white"/>
<circle cx="145.5" cy="127.267" r="5.46992" fill="white"/>
<circle cx="145.5" cy="139.665" r="5.46992" fill="white"/>
<circle cx="145.5" cy="152.064" r="5.46992" fill="white"/>
<circle cx="145.5" cy="164.463" r="5.46992" fill="white"/>
<circle cx="145.5" cy="40.4772" r="5.46992" fill="white"/>
<circle cx="152.064" cy="24.4323" r="5.46992" fill="white"/>
<circle cx="158.628" cy="52.8762" r="5.46992" fill="white"/>
<circle cx="158.628" cy="65.2746" r="5.46992" fill="white"/>
<circle cx="171.026" cy="77.673" r="5.46992" fill="white"/>
<circle cx="183.425" cy="77.673" r="5.46992" fill="white"/>
<circle cx="158.628" cy="90.0715" r="5.46992" fill="white"/>
<circle cx="171.026" cy="90.0715" r="5.46992" fill="white"/>
<circle cx="183.425" cy="90.0715" r="5.46992" fill="white"/>
<circle cx="158.628" cy="102.47" r="5.46992" fill="white"/>
<circle cx="171.026" cy="102.47" r="5.46992" fill="white"/>
<circle cx="183.425" cy="102.47" r="5.46992" fill="white"/>
<circle cx="158.628" cy="114.868" r="5.46992" fill="white"/>
<circle cx="171.026" cy="114.868" r="5.46992" fill="white"/>
<circle cx="183.425" cy="114.868" r="5.46992" fill="white"/>
<circle cx="158.628" cy="127.267" r="5.46992" fill="white"/>
<circle cx="171.026" cy="127.267" r="5.46992" fill="white"/>
<circle cx="158.628" cy="139.665" r="5.46992" fill="white"/>
<circle cx="171.026" cy="139.665" r="5.46992" fill="white"/>
<circle cx="183.425" cy="139.665" r="5.46992" fill="white"/>
<circle cx="158.628" cy="152.064" r="5.46992" fill="white"/>
<circle cx="187.801" cy="63.0866" r="5.46992" fill="white"/>
<circle cx="27.3496" cy="40.4772" r="5.46992" fill="white"/>
<circle cx="40.4774" cy="40.4772" r="5.46992" fill="white"/>
<circle cx="53.6053" cy="40.4772" r="5.46992" fill="white"/>
<circle cx="60.1692" cy="24.4323" r="5.46992" fill="white"/>
<circle cx="201.658" cy="98.8234" r="5.46992" fill="white"/>
<rect y="93.3535" width="226.82" height="3.64662" fill="white"/>
<rect x="226.82" y="109.398" width="226.82" height="12.3985" transform="rotate(180 226.82 109.398)" fill="url(#paint0_linear_289_15839)"/>
<defs>
<linearGradient id="paint0_linear_289_15839" x1="325.64" y1="109.297" x2="325.64" y2="121.797" gradientUnits="userSpaceOnUse">
<stop stop-color="#D9D9D9" stop-opacity="0"/>
<stop offset="1" stop-color="white" stop-opacity="0.5"/>
</linearGradient>
</defs>
</svg>
