<svg width="63" height="63" viewBox="0 0 63 63" fill="none" xmlns="http://www.w3.org/2000/svg">
<circle cx="31.5" cy="31.5" r="31.5" fill="#DA2424" fill-opacity="0.2"/>
<path d="M32 34.9165C31.3167 34.9165 30.75 34.3498 30.75 33.6665V24.9165C30.75 24.2332 31.3167 23.6665 32 23.6665C32.6833 23.6665 33.25 24.2332 33.25 24.9165V33.6665C33.25 34.3498 32.6833 34.9165 32 34.9165Z" fill="#DA2424"/>
<path d="M32 40.75C31.55 40.75 31.1333 40.5834 30.8166 40.2667C30.6666 40.1001 30.55 39.9167 30.45 39.7167C30.3667 39.5167 30.3333 39.3 30.3333 39.0834C30.3333 38.65 30.5166 38.2167 30.8166 37.9C31.4333 37.2833 32.5667 37.2833 33.1833 37.9C33.4833 38.2167 33.6666 38.65 33.6666 39.0834C33.6666 39.3 33.6166 39.5167 33.5333 39.7167C33.4499 39.9167 33.3333 40.1001 33.1833 40.2667C32.8667 40.5834 32.45 40.75 32 40.75Z" fill="#DA2424"/>
<path d="M32.0003 49.9168C30.8837 49.9168 29.7503 49.6335 28.7503 49.0501L18.8503 43.3335C16.8503 42.1668 15.6003 40.0168 15.6003 37.7001V26.3002C15.6003 23.9835 16.8503 21.8335 18.8503 20.6668L28.7503 14.9502C30.7503 13.7835 33.2337 13.7835 35.2503 14.9502L45.1503 20.6668C47.1503 21.8335 48.4004 23.9835 48.4004 26.3002V37.7001C48.4004 40.0168 47.1503 42.1668 45.1503 43.3335L35.2503 49.0501C34.2503 49.6335 33.117 49.9168 32.0003 49.9168ZM32.0003 16.5835C31.317 16.5835 30.617 16.7668 30.0003 17.1168L20.1003 22.8335C18.867 23.5502 18.1003 24.8669 18.1003 26.3002V37.7001C18.1003 39.1168 18.867 40.4502 20.1003 41.1668L30.0003 46.8835C31.2336 47.6001 32.767 47.6001 33.9837 46.8835L43.8837 41.1668C45.117 40.4502 45.8837 39.1335 45.8837 37.7001V26.3002C45.8837 24.8835 45.117 23.5502 43.8837 22.8335L33.9837 17.1168C33.3837 16.7668 32.6837 16.5835 32.0003 16.5835Z" fill="#DA2424"/>
</svg>
