<svg width="21" height="20" viewBox="0 0 21 20" fill="none" xmlns="http://www.w3.org/2000/svg">
<path d="M10.5001 18.3333C5.90008 18.3333 2.16675 14.5999 2.16675 9.99992C2.16675 5.39992 5.90008 1.66658 10.5001 1.66658C15.1001 1.66658 18.8334 5.39992 18.8334 9.99992C18.8334 14.5999 15.1001 18.3333 10.5001 18.3333ZM13.4417 9.97492C13.3167 9.84992 13.1584 9.79158 13.0001 9.79158C12.8417 9.79158 12.6834 9.84992 12.5584 9.97492L11.1251 11.4083V7.08325C11.1251 6.74158 10.8417 6.45825 10.5001 6.45825C10.1584 6.45825 9.87508 6.74158 9.87508 7.08325V11.4083L8.44175 9.97492C8.20008 9.73325 7.80008 9.73325 7.55842 9.97492C7.31675 10.2166 7.31675 10.6166 7.55842 10.8583L10.0584 13.3583C10.3001 13.5999 10.7001 13.5999 10.9417 13.3583L13.4417 10.8583C13.6834 10.6166 13.6834 10.2166 13.4417 9.97492Z" fill="#384EDD"/>
</svg>
