<svg width="70" height="70" viewBox="0 0 70 70" fill="none" xmlns="http://www.w3.org/2000/svg">
<rect width="70" height="70" rx="35" fill="#249F58"/>
<path fill-rule="evenodd" clip-rule="evenodd" d="M60.6671 46.6672V42.0005H9.33378L18.6671 46.6672H46.6671C46.6671 49.2432 49.8031 51.3338 53.6671 51.3338C57.5311 51.3338 60.6671 49.2432 60.6671 46.6672ZM26.7404 18.2285C26.6844 18.2285 26.6004 18.2565 26.4931 18.3218C26.2411 18.4898 25.7464 19.0079 25.7278 19.6052C25.7138 19.9459 25.6484 19.9458 25.8678 20.1652C26.0264 20.3892 26.1944 20.3705 26.5118 20.1978C26.6984 20.0578 26.7591 19.9785 26.8244 19.7498C26.8991 19.3765 26.4184 19.9365 26.3578 19.5072C26.2504 19.1152 26.5584 18.9472 26.8478 18.5738C26.8571 18.3872 26.8571 18.2472 26.7404 18.2378V18.2285ZM31.4211 18.2518C31.3278 18.2705 31.2204 18.3918 31.0664 18.6625C30.9591 18.9518 30.4878 19.3905 30.8331 20.2958C31.1038 20.8698 31.2204 21.7985 31.0944 22.8392C30.8984 23.1332 30.8611 23.2358 30.6044 23.5298C30.2498 23.9172 29.8578 23.8192 29.5685 23.6698C29.2885 23.4832 29.0738 23.3898 28.9478 22.8019C28.9711 21.8685 29.0271 20.3192 28.8544 19.9925C28.6024 19.4885 28.1825 19.6659 28.0051 19.8199C27.1511 20.6132 26.7264 21.9338 26.4651 22.9932C26.2318 23.7585 25.9751 23.5345 25.7978 23.2265C25.3638 22.8159 25.3311 19.6332 24.8084 20.1605C23.9684 22.5592 25.2891 25.1865 26.2084 24.9298C26.8618 25.2098 27.2818 23.9498 27.5524 22.5732C27.7391 22.1858 27.8791 22.1392 27.9725 22.3399C27.9491 24.1692 28.1124 24.5799 28.5791 25.1305C29.6244 25.9425 30.4924 25.2332 30.5624 25.1678L31.3791 24.3558C31.5658 24.1692 31.7991 24.1505 32.0558 24.3185C32.3078 24.5518 32.2751 24.9392 32.8024 25.2052C33.2598 25.3918 34.2164 25.2518 34.4358 24.8645C34.7391 24.3512 34.8091 24.1738 34.9491 23.9778C35.1638 23.6978 35.5324 23.8238 35.5324 23.9125C35.4998 24.0758 35.2851 24.2392 35.4298 24.5192C35.6864 24.7059 35.7471 24.5845 35.8964 24.5425C36.4284 24.2905 36.8298 23.1332 36.8298 23.1332C36.8531 22.7038 36.6104 22.7365 36.4564 22.8252C36.2464 22.9512 36.2371 22.9932 36.0364 23.1192C35.7704 23.1565 35.2664 23.3292 35.0191 22.9418C34.7624 22.4752 34.7624 21.8312 34.5664 21.3552C34.5664 21.3272 34.2258 20.6225 34.5384 20.5805C34.6924 20.6085 35.0378 20.6972 35.0891 20.4125C35.2571 20.1325 34.7298 19.3392 34.3704 18.9472C34.0624 18.6065 33.6331 18.5645 33.2178 18.9098C32.9238 19.1805 32.9704 19.4792 32.9098 19.7639C32.8398 20.0905 32.8538 20.4965 33.1898 20.9305C33.4791 21.4998 34.0064 22.2372 33.8291 23.2732C33.8291 23.2732 33.5258 23.7678 32.9891 23.7025C32.7558 23.6558 32.3918 23.5625 32.1958 22.1158C32.0558 21.0285 32.2331 19.5025 31.7758 18.7885C31.6684 18.5225 31.5798 18.2612 31.4304 18.2752L31.4211 18.2518ZM29.9371 18.3732C29.7971 18.3872 29.6431 18.5505 29.5171 18.8632C29.4098 19.1058 29.2744 20.3565 29.2978 20.3565C29.2044 20.7298 29.6851 20.8885 29.9044 20.4125C30.2311 19.5258 30.2311 19.1525 30.2498 18.7885C30.2031 18.5085 30.0771 18.3685 29.9371 18.3778V18.3732ZM35.4111 18.4665C35.2711 18.4852 35.1544 18.5692 35.1124 18.7838C35.0518 19.2785 35.0844 19.5538 35.1684 19.9692C35.2291 20.2492 35.6351 20.7065 35.8311 20.9772C36.7784 22.2512 37.6978 23.5298 38.5751 24.8505C38.7151 25.8398 38.8084 26.8012 38.8784 27.7625C39.0278 29.8625 39.0651 32.4758 38.9391 34.6925C39.3311 34.7065 39.9658 34.0532 40.1851 33.1058C40.3251 31.7805 40.1384 29.0925 40.1198 28.3085L40.0731 27.1978C41.0998 28.8778 42.0891 30.6512 43.0598 32.5925C43.4191 32.4245 43.3398 30.4225 43.1344 30.1425C42.3504 28.4625 41.2678 26.8012 40.9271 26.1618C40.8011 25.9285 40.3764 25.2892 39.8771 24.5472C39.7838 23.4832 39.6811 22.5872 39.6158 22.3165C39.4524 21.1965 40.0731 22.4425 39.9891 21.7938C39.7838 20.6738 39.1678 19.9178 38.4398 18.8912C38.2064 18.5645 38.2064 18.4898 37.8471 18.9752C37.6371 19.4652 37.6371 19.8758 37.7071 20.2585C37.6044 20.1185 37.4878 19.9598 37.3198 19.7545L36.1298 18.7465C35.9664 18.6299 35.6491 18.4525 35.4111 18.4665V18.4665ZM51.6324 18.6392C51.5624 18.6298 51.4924 18.6625 51.3991 18.7885C51.2358 18.9285 51.0631 19.1945 51.0724 19.5352C51.1051 20.1185 51.2124 20.7205 51.2498 21.3085L51.2964 21.5419C51.2311 21.4672 51.1751 21.4018 51.1424 21.3738C49.9898 20.1605 51.6698 21.1685 50.9184 20.2398C50.2884 19.5398 50.1018 19.3252 49.5651 18.9052C49.2851 18.7372 49.1264 18.4012 49.0378 18.9705C49.0004 19.4698 48.9631 20.0532 48.9911 20.4732C48.9911 20.7065 49.2384 21.1498 49.4484 21.4065C50.2138 22.3538 50.9978 23.3572 51.7818 24.4025C51.9498 26.5352 51.9918 28.4905 52.1551 30.6278C52.1364 31.5425 51.8564 32.7558 51.5951 32.8678C51.5951 32.8678 51.1844 33.1012 50.9138 32.8445C50.7131 32.7652 49.9244 31.5238 49.9244 31.5238C49.5184 31.1505 49.2478 31.2578 48.9631 31.5238C48.1698 32.2892 47.8058 33.7265 47.2691 34.7158C47.1291 34.9352 46.7418 35.1265 46.3078 34.6972C45.2018 33.1852 45.8411 31.0338 45.7104 31.5892C44.7304 32.6998 45.1598 34.5385 45.3838 34.9352C45.7104 35.5885 45.9718 36.0085 46.5971 36.3212C47.1804 36.7412 47.6238 36.4845 47.8758 36.1812C48.4544 35.5838 48.4638 34.0485 48.7344 33.7452C48.9211 33.1852 49.4018 33.2785 49.6351 33.5305C49.8684 33.8572 50.1298 34.0672 50.4611 34.2445C51.0024 34.7205 51.6464 34.8045 52.2811 34.3705C52.7151 34.1278 52.9998 33.8105 53.2518 33.1852C53.5318 32.4572 53.3918 28.6305 53.3311 26.5025L54.5444 28.2572C54.7124 30.1238 54.7918 31.9672 54.7311 33.7312C54.6938 34.0812 55.9584 32.6858 55.9444 32.0232C55.9444 31.4492 55.9538 30.9218 55.9444 30.4365C56.5651 31.4165 57.1578 32.4105 57.7178 33.4232C58.0678 33.2365 57.9511 31.2625 57.7318 30.9965C57.1438 30.0072 56.3878 28.9432 55.8044 28.1125C55.6878 27.0718 55.5338 25.8445 55.4591 25.4665C55.3518 24.8785 55.2398 23.9965 55.0718 23.3012C55.0251 23.0352 54.8851 22.1672 54.9318 22.0878C54.9971 21.8872 55.2584 22.0878 55.3844 21.8638C55.5711 21.6538 54.7218 19.4372 54.2878 18.8119C54.1338 18.5319 53.8491 18.6252 53.5038 19.0918C53.1771 19.3905 53.2984 20.0812 53.4198 20.7392C53.7371 22.4192 54.0264 24.1178 54.2504 25.8258C53.8304 25.1958 53.3171 24.4398 52.8131 23.7165L52.7478 23.3898C52.7478 23.3525 52.6824 22.0132 52.6218 21.6959C52.6078 21.5652 52.5751 21.5278 52.7151 21.5465C52.8551 21.6678 52.8738 21.6725 52.9624 21.7145C53.1118 21.7332 53.2424 21.4905 53.1491 21.2619L51.7958 18.7698C51.7491 18.7092 51.6838 18.6532 51.6091 18.6438L51.6324 18.6392ZM9.77245 18.6859C9.51578 18.6765 9.24512 18.8258 9.35245 19.1292C9.28712 19.2925 9.83778 19.8432 9.93578 20.1465C10.0151 20.3658 9.84245 21.0565 10.0291 21.1265C10.1924 21.1965 10.4211 20.6412 10.5051 20.1325C10.5518 19.8525 10.5191 18.8912 9.86578 18.6952C9.83311 18.6858 9.80045 18.6858 9.76312 18.6812L9.77245 18.6859ZM57.4658 18.6859C57.4051 18.6952 57.3351 18.7792 57.2324 19.0125C56.9758 19.4325 56.8871 20.1792 56.9898 20.8325C57.5964 24.9859 58.0631 29.0085 58.1564 32.6858C58.1004 33.0405 58.0818 33.2272 57.9231 33.6658C57.5591 34.1325 57.1578 34.7112 56.7798 34.9912C56.4064 35.2712 55.6038 35.5418 55.3424 35.7472C54.5024 36.2232 54.5024 36.7738 55.1744 36.7972C56.3318 36.6572 57.7038 36.5638 58.6464 35.1405C58.8984 34.7438 59.1971 33.6612 59.2064 32.9938C59.2998 29.1205 59.1598 25.3172 58.5764 22.5125C58.5391 22.2325 58.4178 21.6118 58.4644 21.5325C58.5344 21.3365 58.9124 21.5465 59.0478 21.3272C59.2484 21.1219 58.0678 19.6145 57.6571 18.9705C57.5731 18.8118 57.5171 18.6765 57.4518 18.6905L57.4658 18.6859ZM45.3184 18.7512C45.2718 18.7605 45.2064 18.8352 45.0758 19.0078C44.7491 20.0625 44.6371 20.9212 44.7631 21.5838C45.6031 25.9238 46.4431 29.8672 46.3124 33.9972C46.7044 33.9972 47.1618 33.0965 47.3578 32.2005C47.4651 30.9638 47.2831 30.2125 47.2551 29.4938C47.2224 28.7658 46.4338 22.8859 46.2751 22.3399C46.0791 21.3039 47.0404 22.1999 46.9378 21.6025C46.6018 20.8372 45.7711 19.7358 45.5191 19.0685C45.4258 18.8912 45.4071 18.7278 45.3324 18.7418L45.3184 18.7512ZM15.7598 18.8352C15.6664 18.8538 15.5591 18.9378 15.5264 19.0685C15.5031 19.1618 15.5638 19.3159 15.4798 19.3625C15.4331 19.4092 15.2558 19.3765 15.2651 19.1292C15.2651 19.0452 15.2044 18.9612 15.1718 18.9098C15.1344 18.8912 15.1111 18.8865 15.0458 18.8865C14.9664 18.8865 14.9664 18.9098 14.9244 18.9798C14.9058 19.0452 14.8778 19.1105 14.8778 19.1852C14.8684 19.2785 14.8311 19.3018 14.7704 19.3158C14.6958 19.3158 14.7098 19.3252 14.6538 19.2832C14.6071 19.2505 14.5698 19.2365 14.5698 19.1712C14.5698 19.1012 14.5511 18.9845 14.5324 18.9472C14.4998 18.9005 14.4484 18.8819 14.3924 18.8679C14.0844 18.8679 14.0658 19.2319 14.0798 19.3625C14.0564 19.3905 14.0471 20.0159 14.4671 20.1932C15.0271 20.4639 16.0911 20.3472 16.0538 19.4372C16.0538 19.3578 16.0304 19.0872 16.0211 19.0172C15.9651 18.8772 15.8578 18.8305 15.7551 18.8445L15.7598 18.8352ZM23.3478 18.8445C23.1518 18.8538 22.9744 18.9098 22.8344 18.9845C22.4611 19.3438 22.3678 19.9178 22.6664 20.2772C22.9464 20.4172 23.2404 20.6972 23.0491 20.8605C22.2371 21.7238 20.1231 23.1752 20.0158 23.4412V23.4692H20.0344V23.4785C20.1418 23.5485 21.4671 23.5485 21.6118 23.4785H21.6211C22.0784 23.3058 24.2344 20.8418 24.2344 20.8418C24.1224 20.7485 24.0198 20.6738 23.9078 20.5758C23.7864 20.4732 23.8004 20.3705 23.9078 20.2678C24.4398 19.9598 24.2718 19.2739 23.9918 18.9612C23.7584 18.8585 23.5438 18.8212 23.3478 18.8352V18.8445ZM43.1811 18.8445C43.1251 18.8585 43.0551 18.9378 42.9478 19.1712C42.6911 19.5912 42.5184 20.3145 42.5418 20.9912C43.0924 24.8178 43.2604 28.1638 43.6244 31.9905C43.6524 32.3638 43.5964 32.8958 43.3538 33.1105C42.4391 34.0625 41.1278 35.2292 39.6998 35.7705C39.5458 35.9432 40.0824 36.6758 40.7731 36.6758C41.9304 36.5358 42.9478 35.8918 43.8998 34.1792C44.1471 33.7825 44.5904 32.9285 44.5998 32.2658C44.6931 28.3832 44.4131 25.3592 43.8251 22.5592C43.7924 22.2792 43.8158 21.9525 43.8624 21.8779C43.9371 21.7845 44.1891 21.8778 44.3291 21.6585C44.5251 21.4532 43.7971 19.7778 43.3864 19.1385C43.3024 18.9752 43.2558 18.8445 43.1811 18.8492V18.8445ZM12.4558 18.9705C12.2971 18.9892 12.1478 19.1105 12.0731 19.2972C12.0498 19.9039 12.0451 20.5105 12.1198 21.0799C12.3998 22.0739 12.4791 22.9465 12.6144 23.9592C12.6611 25.3218 11.8304 24.5472 11.8678 23.8752C12.0544 22.9979 12.0078 21.6212 11.8398 21.2712C11.6998 20.9212 11.5504 20.8372 11.2238 20.8979C10.9671 20.8792 10.2998 21.5978 10.1131 22.8112C10.1131 22.8112 9.95445 23.4272 9.88911 23.9778C9.79578 24.5985 9.38511 25.0418 9.09578 23.8938C8.84845 23.0538 8.69912 21.0005 8.28378 21.4765C8.16245 23.0819 8.02245 25.9098 9.38512 26.1992C11.0371 26.3578 10.1224 23.4085 10.7198 22.8718C10.8364 22.6152 11.0464 22.6105 11.0604 22.9418V25.4478C11.0418 26.2598 11.5738 26.5025 11.9938 26.6705C12.4278 26.6378 12.7124 26.6518 12.8804 27.0718L13.0904 31.4118C13.0904 31.4118 14.0891 31.6918 14.1358 28.9712C14.1824 27.3705 13.8091 26.0312 14.0284 25.7185C14.0378 25.4105 14.4298 25.3918 14.7004 25.5458C15.1344 25.8492 15.3258 26.2225 15.9978 26.0732C17.0244 25.7932 17.6311 25.2985 17.6451 24.5145C17.5984 23.7678 17.5051 23.0212 17.1784 22.2745C17.2251 22.1438 16.9918 21.7938 17.0384 21.6585C17.2158 21.9385 17.4958 21.9198 17.5518 21.6585C17.3838 21.0845 17.1131 20.5385 16.6744 20.3052C16.3151 19.9785 15.7878 20.0485 15.5918 20.7112C15.4984 21.4765 15.8718 22.3818 16.4318 23.1238C16.5438 23.4132 16.7118 23.8938 16.6371 24.3278C16.3431 24.4958 16.0491 24.4212 15.7971 24.1645C15.7971 24.1645 14.9898 23.5578 14.9898 23.4178C15.2091 22.0412 15.0364 21.8778 14.9198 21.5045C14.8358 20.9725 14.5838 20.8045 14.3831 20.4405C14.1778 20.2212 13.9024 20.2212 13.7764 20.4405C13.4124 21.0612 13.5804 22.4005 13.8418 22.9932C14.0284 23.5438 14.3178 23.8892 14.1824 23.8892C14.0704 24.1925 13.8371 24.1225 13.6691 23.7632C13.4358 23.0165 13.3798 21.9152 13.3798 21.4159C13.3098 20.7999 13.2304 19.4792 12.8198 19.1432C12.7124 18.9939 12.5864 18.9425 12.4604 18.9565L12.4558 18.9705ZM18.2518 18.9705C18.1724 18.9892 18.0791 19.0358 17.9718 19.0638C17.6218 19.1712 17.2951 19.4745 17.3978 20.0625C17.8178 22.5825 18.0838 24.5098 18.4991 27.0298C18.5598 27.3285 18.3124 27.7158 17.9951 27.6832C17.4538 27.3098 17.3184 26.5632 16.3944 26.6005C15.7224 26.6005 14.9571 27.3378 14.8638 28.0378C14.7518 28.5978 14.7144 29.2045 14.8638 29.6898C15.3304 30.2498 15.8998 30.1938 16.3944 30.0632C16.8004 29.8998 17.1411 29.5032 17.2811 29.5965C17.3744 29.7505 17.2718 31.0618 15.3678 32.0698C14.1918 32.6018 13.2584 32.7232 12.7544 31.7712C12.4464 31.1738 12.7824 28.8965 12.0171 29.4192C9.74911 35.2618 17.3231 36.0738 18.1678 29.6618C18.2238 29.4752 18.3871 29.2978 18.5084 29.3445C18.5551 29.3678 18.6018 29.4378 18.6204 29.5685C18.4431 35.3738 12.7591 35.7752 11.7978 33.9458C11.5551 33.5165 11.4851 32.5552 11.4618 31.9858C11.4151 31.6358 11.3311 31.4352 11.2284 31.3558C10.9951 31.1832 10.6871 31.6358 10.6218 32.4152C10.5284 33.0452 10.5518 33.2178 10.5518 33.8245C10.8598 38.4118 18.1724 36.4378 19.3624 32.6578C19.9504 30.6978 19.3484 29.2185 19.5491 29.0365L19.5631 29.0272H19.5771L19.6004 29.0178C20.3284 29.8018 21.3458 29.1112 21.5698 28.8452C21.6631 28.7052 21.9058 28.6118 22.0738 28.7985C22.6338 29.1998 23.6324 29.0085 23.8378 28.2852C23.9591 27.5852 24.0618 26.8665 24.0851 26.1152C23.7118 26.2319 23.4131 26.3158 23.2918 26.4418C23.2638 26.4745 23.2451 26.5118 23.2358 26.5492L23.1424 27.1698C23.1424 27.1932 23.1331 27.2072 23.1238 27.2165C23.1098 27.2492 23.0771 27.2725 23.0584 27.2865C22.9278 27.3565 22.6991 27.3192 22.6851 27.1279C22.5124 26.3345 21.7891 26.2318 21.3504 27.4685C21.0564 27.7018 20.5104 27.7485 20.4638 27.3938C20.5338 26.5632 20.1978 26.4512 19.5304 26.8432L18.8864 21.9898C19.1664 21.9758 19.4184 22.1765 19.6798 21.8592C19.3998 21.0005 18.8164 19.2552 18.4851 19.0872H18.4758L18.4291 19.0405C18.4291 19.0312 18.4151 19.0265 18.4058 19.0219L18.3871 18.9939C18.3684 18.9939 18.3498 18.9845 18.3404 18.9798C18.3078 18.9705 18.2798 18.9705 18.2471 18.9705H18.2518ZM40.8478 18.9892C40.5584 18.9798 40.2411 19.1618 40.3624 19.5258C40.2878 19.7265 40.9831 20.3985 41.0951 20.7625C41.2958 21.3225 40.9411 21.8685 41.1511 21.9478C41.3471 22.0318 41.6178 21.3645 41.7111 20.7439C41.8324 20.2399 41.4778 19.2132 40.9644 19.0032L40.8478 18.9939V18.9892ZM23.2404 19.6005C23.3711 19.5912 23.5298 19.7125 23.6138 19.8805C23.6931 20.0672 23.6511 20.2398 23.5204 20.2725C23.3804 20.3052 23.2031 20.1885 23.1191 20.0018C23.0351 19.8152 23.0724 19.6425 23.2124 19.6099H23.2404V19.6005ZM55.8931 20.4498C55.6271 20.4405 55.3331 20.6365 55.4544 21.0332C55.3891 21.2478 56.0144 21.9758 56.1218 22.3772C56.2151 22.6572 55.9818 23.5718 56.1684 23.6558C56.3458 23.7492 56.5884 23.0212 56.6818 22.3492C56.7378 21.9758 56.4671 20.6925 56.0051 20.4639C55.9724 20.4545 55.9351 20.4452 55.8978 20.4452L55.8931 20.4498ZM37.8331 20.8979C37.8658 21.0052 37.8891 21.1125 37.9031 21.2245C37.9591 21.4578 38.0058 21.6912 38.0524 21.9338C37.8471 21.6445 37.6791 21.4112 37.5998 21.3272C37.1331 20.7672 37.6091 20.9632 37.8331 20.8979V20.8979ZM42.0004 22.9418C41.8978 22.9605 41.7998 23.0492 41.7671 23.1892C41.7391 23.2732 41.8044 23.4225 41.7204 23.4692C41.6738 23.5158 41.4871 23.4878 41.5011 23.2358C41.5011 23.1518 41.4404 23.0632 41.4078 23.0165C41.3704 22.9932 41.3471 22.9839 41.2818 22.9839C41.2024 22.9839 41.2024 23.0072 41.1604 23.0772C41.1418 23.1425 41.1138 23.2078 41.1138 23.2872C41.1138 23.3805 41.0764 23.4085 41.0111 23.4272C40.9364 23.4272 40.9504 23.4272 40.8898 23.3945C40.8524 23.3478 40.8104 23.3385 40.8104 23.2732C40.8104 23.2032 40.7964 23.0958 40.7731 23.0492C40.7404 23.0025 40.6938 22.9885 40.6331 22.9698C40.3298 22.9698 40.3064 23.3245 40.3251 23.4552C40.3064 23.4832 40.2924 24.1178 40.7124 24.2952C41.2818 24.5612 42.3458 24.4352 42.2991 23.5298C42.2991 23.4505 42.2758 23.1798 42.2711 23.1098C42.2104 22.9698 42.1031 22.9232 42.0051 22.9372L42.0004 22.9418ZM23.0071 23.1285C22.9418 23.1285 22.8484 23.1472 22.7411 23.2125C22.2418 23.4832 22.0504 24.2858 22.3678 24.7525C22.6478 25.1725 23.1144 25.0185 23.1751 25.0185C23.6651 25.0838 23.9545 24.1038 23.9545 24.1038C23.9545 24.1038 23.9684 23.8238 23.3944 24.3465C23.1424 24.3932 23.1144 24.2998 23.0491 24.1598C22.9931 23.9125 23.0024 23.6465 23.1191 23.3992C23.1751 23.2452 23.1191 23.1472 23.0071 23.1379V23.1285ZM49.8544 23.2545C49.5744 23.2405 49.2804 23.4225 49.2011 23.8005C49.2011 24.0245 49.3038 24.1458 49.2851 24.3512C49.2618 24.4678 49.1451 24.5378 48.8558 24.4072C48.9024 24.3605 48.6691 24.0432 48.6691 24.0432C48.4498 23.9032 48.1558 24.0432 47.9598 24.1738C47.8524 24.3698 47.7731 24.7012 47.8944 25.0372C48.2118 25.6298 49.3084 26.6378 49.8311 26.6472C49.8404 26.1152 49.8918 25.4058 49.9244 24.9672C49.9338 24.7992 49.9711 24.6172 50.1344 24.5752C50.2931 24.5285 50.5684 24.7338 50.5684 24.5612C50.5404 24.2252 50.4751 23.7212 50.2884 23.4878C50.1858 23.3478 50.0224 23.2638 49.8591 23.2545H49.8544ZM27.6271 25.1072L27.6131 25.1212C27.6131 25.1212 27.6038 25.1212 27.5991 25.1305C27.5431 25.1772 27.4778 25.2705 27.3331 25.3638C27.0858 25.6438 27.0438 25.8445 27.0531 26.4045C27.0718 26.4652 27.5198 27.7252 27.9071 28.6072C28.1684 29.5265 28.4064 30.5812 28.2338 31.5752C27.6271 32.8912 26.4138 34.0718 25.2331 34.7158C24.6264 34.9025 24.1131 34.8372 23.9731 34.7065C23.6278 34.4732 23.6231 34.0532 23.6465 33.9878V33.9738C24.6358 33.2832 25.7698 32.7232 26.6564 30.8612C26.9178 30.1472 27.0018 29.7178 26.7404 28.6212C26.6378 28.2012 26.5071 27.8745 26.2271 27.5758H26.2364C26.4044 27.4965 26.8431 27.8185 26.9131 27.6225C26.8058 27.0905 26.4464 26.3859 26.0498 26.0219C25.6951 25.6952 25.3031 25.6625 24.9858 25.9565C24.6218 26.1618 24.5471 26.8898 24.7198 27.5245C24.9158 28.0005 25.4431 28.0845 25.8164 29.0505C25.8258 29.1158 25.9424 29.7738 25.7558 30.0445C25.5971 30.5205 23.6325 32.0698 23.4925 32.1632L23.4784 32.1725L23.4691 32.1818H23.4598H23.4504V32.1678C23.4411 32.1305 23.4504 32.0278 23.4504 31.8738C23.4364 31.5845 23.5578 30.9265 23.5438 30.8099V30.8005C22.8904 31.2205 22.6711 32.5038 22.5544 32.8865C20.9071 34.0205 19.0404 34.8652 17.9624 36.0132C17.4024 36.8998 21.8264 35.0145 22.3398 34.7858L22.3538 34.7998C22.4564 34.9072 22.4611 35.2805 22.7551 35.6212C23.2218 36.2418 24.1924 36.6245 25.1444 36.3865C26.7404 35.8125 27.6644 34.7252 28.5978 33.5165C28.7284 33.3298 28.9384 33.1712 29.1344 33.3205C29.7738 34.7578 31.6311 35.7845 34.0251 35.8872C34.5851 35.2152 34.3191 34.8838 34.0951 34.7438C34.0251 34.6972 32.9051 34.2585 32.7278 33.8245C32.6204 33.4232 32.8864 33.0638 33.4184 32.7978C34.9584 32.6112 36.4704 32.4012 37.9358 31.9298C37.9498 31.4352 38.2391 30.7025 38.4351 30.3805C38.5751 30.1612 38.6544 30.1378 38.6871 30.1098V30.1005H38.6964V30.0865V30.0398L38.4444 29.8905L33.5304 29.8718C33.4698 29.8485 33.4278 29.8252 33.3998 29.8018L33.3904 29.7878C33.3904 29.7878 33.3811 29.7878 33.3811 29.7785C33.3811 29.7692 33.3718 29.7692 33.3718 29.7692V29.7738V29.7645V29.7552V29.7458L33.3811 29.7318C33.4044 29.7038 33.4651 29.6712 33.5351 29.6385C34.7111 29.4845 36.7924 29.1438 36.9324 27.1418C36.9091 26.0965 36.4844 25.4152 35.2058 25.2285C34.2631 25.2985 33.5911 26.2085 33.6984 27.2072C33.6518 27.4732 33.7918 28.0005 33.5118 28.0612C31.7104 28.2292 29.7411 29.3585 29.6758 30.1705H29.6664H29.6571H29.6478C29.6478 30.1798 29.6384 30.1798 29.6338 30.1798H29.6151H29.6058H29.5871C29.4704 30.1425 29.3211 29.9465 29.3444 29.6805C29.2744 28.2805 28.8171 26.6938 28.1078 25.4805C27.8511 25.2238 27.7344 25.1212 27.6691 25.1072H27.6551H27.6411H27.6318H27.6271ZM32.3311 25.8445C32.2378 25.8632 32.1304 25.9472 32.0978 26.0872C32.0744 26.1805 32.1444 26.3298 32.0604 26.3765C32.0138 26.4232 31.8271 26.3952 31.8364 26.1432C31.8364 26.0639 31.7758 25.9752 31.7431 25.9238C31.7058 25.9005 31.6824 25.8958 31.6218 25.8958C31.5424 25.8958 31.5378 25.9145 31.4958 25.9798C31.4724 26.0452 31.4491 26.1198 31.4491 26.1898C31.4398 26.2832 31.4024 26.3112 31.3418 26.3205C31.2671 26.3205 31.2858 26.3345 31.2251 26.2972C31.1878 26.2599 31.1411 26.2412 31.1411 26.1759C31.1411 26.1059 31.1271 25.9892 31.1084 25.9425C31.0758 25.9098 31.0244 25.8958 30.9684 25.8772C30.6558 25.8772 30.6418 26.2272 30.6558 26.3625C30.6324 26.3858 30.6184 27.0158 31.0384 27.1932C31.5984 27.4638 32.9518 27.3052 32.6251 26.4325C32.6251 26.3532 32.6018 26.0825 32.5971 26.0125C32.5364 25.8725 32.4291 25.8259 32.3264 25.8399L32.3311 25.8445ZM51.3011 26.6238H51.2544C51.2544 26.6238 48.6318 28.4905 48.5711 28.5558C48.3098 28.7892 48.4404 29.5965 48.5711 29.5032C48.7578 29.5732 51.3944 27.7858 51.3431 27.5758C51.4598 27.5852 51.5158 26.6565 51.2964 26.6192L51.3011 26.6238ZM34.8091 26.9038C34.9118 26.8898 35.0518 26.9272 35.1824 26.9972C35.3831 27.1185 35.5091 27.2865 35.4858 27.4172V27.4358C35.4764 27.4358 35.4764 27.4358 35.4764 27.4452V27.4545C35.4764 27.4545 35.4671 27.4545 35.4671 27.4639C35.4671 27.4732 35.4531 27.4825 35.4438 27.4918C35.3504 27.5852 35.1358 27.5665 34.9304 27.4452C34.7344 27.3378 34.6178 27.1652 34.6271 27.0438V27.0298L34.6504 26.9832C34.6504 26.9832 34.6504 26.9738 34.6598 26.9692L34.6831 26.9412C34.7158 26.9178 34.7578 26.8945 34.8091 26.8945V26.9038ZM11.8584 27.3705C10.5051 27.3985 8.51245 29.1532 8.46112 30.1238L12.7544 28.0705C12.5211 27.7158 12.7404 27.3985 11.8584 27.3705V27.3705ZM16.2591 27.9772C16.3898 27.9865 16.5298 28.0518 16.6044 28.2385C16.6698 28.4112 16.6044 28.5885 16.5251 28.6772V28.6912C16.4598 28.7658 16.2638 28.7378 16.1191 28.7378C15.9464 28.7285 15.8624 28.7005 15.7598 28.5605C15.7038 28.3972 15.8531 28.2432 15.9231 28.1312L15.9558 28.0845C16.0024 28.0378 16.0958 28.0005 16.1891 27.9912L16.2498 27.9818L16.2591 27.9772ZM50.7924 28.5232C50.5451 28.5512 50.3164 28.7798 50.4191 29.1438C50.3538 29.3585 50.7458 30.1098 50.8531 30.5065C50.9464 30.7865 50.7318 31.5938 50.9231 31.6732C51.1004 31.7665 51.5624 31.2065 51.5484 30.4878C51.5951 30.1145 51.4178 28.7612 50.9558 28.5372C50.8998 28.5232 50.8438 28.5185 50.7878 28.5232H50.7924ZM21.4671 29.8485C21.2524 29.8625 21.0611 29.9745 21.1498 30.2778C21.1358 30.4925 21.7564 30.7585 21.7891 31.2578C21.8731 31.4725 21.6491 32.1445 21.8358 32.2005C22.0038 32.2705 22.2371 31.7338 22.3258 31.2485C22.3724 30.9778 22.1111 30.0352 21.6724 29.8625C21.6024 29.8438 21.5324 29.8392 21.4624 29.8438L21.4671 29.8485ZM30.2404 31.0432H30.2964C30.8471 31.1925 31.6498 31.2112 32.3498 31.2765C32.9238 31.3232 33.2038 31.7618 32.6764 31.9532C32.1444 32.1305 31.6358 32.2798 31.6358 33.0358C31.7011 33.4092 31.6825 33.6052 31.6265 33.6892C31.6265 33.7032 31.6124 33.7125 31.6078 33.7172C31.6078 33.7172 31.6078 33.7265 31.5984 33.7265V33.7358H31.5844L31.5518 33.7498H31.5284C31.4024 33.7732 31.2204 33.6565 31.0851 33.5818C30.7584 33.3485 29.8484 32.7885 29.7178 31.5752C29.6991 31.2952 29.9044 31.0618 30.2311 31.0385L30.2404 31.0432ZM8.80178 31.9765C8.76912 31.9765 8.70845 32.0792 8.61512 32.1958C7.80312 33.4792 7.72845 35.3972 8.17645 35.9758C8.40978 36.2418 8.80178 36.3632 9.09111 36.2792C9.60445 36.0598 9.82378 35.0285 9.69778 34.6552C9.53445 34.3892 9.39912 34.3472 9.23112 34.5712C8.87178 35.2945 8.71778 34.7952 8.69445 34.3845C8.63845 33.6238 8.71312 32.9145 8.79712 32.3545C8.84378 32.0745 8.84378 31.9672 8.79712 31.9672L8.80178 31.9765ZM36.3211 33.6658C36.2604 33.6658 36.1998 33.6752 36.1344 33.7125C36.1204 33.7125 35.5558 34.0858 35.3738 34.3565C35.2618 34.4405 35.2804 34.5105 35.3084 34.6598C35.3924 34.8605 35.5418 34.7998 35.7191 34.7065C35.9524 34.6692 36.0598 34.8232 36.0458 35.0985C35.9384 35.4485 36.0924 35.5745 36.0924 35.5978C36.0924 35.6165 36.3118 35.8078 36.5731 35.6585C37.1191 35.4485 37.4598 35.2385 38.2298 35.0752C38.4304 35.0752 38.4164 34.5338 38.0991 34.5152C37.6791 34.5338 37.3058 34.5618 36.8858 34.8885C36.6291 34.9445 36.5871 34.7858 36.5264 34.6458C36.4611 34.3005 36.6758 34.0578 36.6291 33.7965C36.6384 33.8105 36.4984 33.6845 36.3164 33.6752L36.3211 33.6658ZM53.9424 34.3192L53.5691 34.3565C53.4011 34.3892 53.3451 34.4638 53.3124 34.6692C53.3264 34.9725 53.5131 34.9585 53.7091 35.0798C53.8211 35.2198 53.8958 35.3505 53.6998 35.5932C53.5131 35.7565 53.3871 35.8498 53.2004 36.0132C53.1211 36.1625 53.0604 36.3865 53.3311 36.4612C53.8211 36.6012 54.9551 35.8638 54.9551 35.8545C55.1418 35.7145 55.0764 35.4485 55.0624 35.4485C54.9504 35.3272 54.7078 35.4018 54.5491 35.3785C54.4698 35.3785 54.2224 35.3412 54.3344 35.1172C54.4371 34.9772 54.4744 34.8978 54.5444 34.7252C54.6144 34.5572 54.5444 34.4452 54.2738 34.3518C54.1338 34.3238 54.0404 34.3145 53.9331 34.3192H53.9424ZM47.1618 52.3325C48.4218 52.3932 49.5978 52.3465 50.8484 52.4072C51.0538 52.5752 50.9558 52.9672 50.8251 53.0325L50.8018 53.0418H50.7878H50.7691L49.7144 53.0138V52.9532C49.6118 52.6638 48.9118 52.6825 48.7438 52.9065V52.9205C48.7344 52.9205 48.7298 52.9345 48.7298 52.9392L48.7204 52.9625V53.0185C48.1604 53.0885 47.6704 52.9998 47.1198 52.9812C46.9564 52.7805 46.9798 52.4212 47.1664 52.3278L47.1618 52.3325Z" fill="white"/>
</svg>
