<svg width="48" height="48" viewBox="0 0 48 48" fill="none" xmlns="http://www.w3.org/2000/svg">
<circle cx="24" cy="24" r="24" fill="#384EDD" fill-opacity="0.1"/>
<path d="M14.77 22C14.34 22 14 21.66 14 21.23V18.92C14 16.21 16.21 14 18.92 14H21.23C21.66 14 22 14.34 22 14.77C22 15.2 21.66 15.54 21.23 15.54H18.92C17.05 15.54 15.54 17.06 15.54 18.92V21.23C15.54 21.66 15.19 22 14.77 22Z" fill="#384EDD"/>
<path d="M33.23 22C32.81 22 32.46 21.66 32.46 21.23V18.92C32.46 17.05 30.94 15.54 29.08 15.54H26.77C26.34 15.54 26 15.19 26 14.77C26 14.35 26.34 14 26.77 14H29.08C31.79 14 34 16.21 34 18.92V21.23C34 21.66 33.66 22 33.23 22Z" fill="#384EDD"/>
<path d="M29.0799 33.9997H27.6899C27.2699 33.9997 26.9199 33.6597 26.9199 33.2297C26.9199 32.8097 27.2599 32.4597 27.6899 32.4597H29.0799C30.9499 32.4597 32.4599 30.9397 32.4599 29.0797V27.6997C32.4599 27.2797 32.7999 26.9297 33.2299 26.9297C33.6499 26.9297 33.9999 27.2697 33.9999 27.6997V29.0797C33.9999 31.7897 31.7899 33.9997 29.0799 33.9997Z" fill="#384EDD"/>
<path d="M21.23 34H18.92C16.21 34 14 31.79 14 29.08V26.77C14 26.34 14.34 26 14.77 26C15.2 26 15.54 26.34 15.54 26.77V29.08C15.54 30.95 17.06 32.46 18.92 32.46H21.23C21.65 32.46 22 32.8 22 33.23C22 33.66 21.66 34 21.23 34Z" fill="#384EDD"/>
<path d="M30.46 23.2305H29.1H18.9H17.54C17.11 23.2305 16.77 23.5805 16.77 24.0005C16.77 24.4205 17.11 24.7705 17.54 24.7705H18.9H29.1H30.46C30.89 24.7705 31.23 24.4205 31.23 24.0005C31.23 23.5805 30.89 23.2305 30.46 23.2305Z" fill="#384EDD"/>
<path d="M18.8999 25.9405V26.2705C18.8999 27.9305 20.2399 29.2705 21.8999 29.2705H26.0999C27.7599 29.2705 29.0999 27.9305 29.0999 26.2705V25.9405C29.0999 25.8205 29.0099 25.7305 28.8899 25.7305H19.1099C18.9899 25.7305 18.8999 25.8205 18.8999 25.9405Z" fill="#384EDD"/>
<path d="M18.8999 22.0605V21.7305C18.8999 20.0705 20.2399 18.7305 21.8999 18.7305H26.0999C27.7599 18.7305 29.0999 20.0705 29.0999 21.7305V22.0605C29.0999 22.1805 29.0099 22.2705 28.8899 22.2705H19.1099C18.9899 22.2705 18.8999 22.1805 18.8999 22.0605Z" fill="#384EDD"/>
</svg>
