<svg width="24" height="24" viewBox="0 0 24 24" fill="none" xmlns="http://www.w3.org/2000/svg">
<path d="M21.7501 10.2074L4.50005 1.2074C4.36328 1.13591 4.20778 1.10835 4.05477 1.12848C3.90175 1.14861 3.75867 1.21546 3.64505 1.3199C3.53262 1.42462 3.45506 1.56135 3.42287 1.71158C3.39068 1.86181 3.4054 2.01831 3.46505 2.1599L6.27755 8.9099C6.33382 9.04687 6.42937 9.16411 6.55216 9.24686C6.67495 9.32961 6.81948 9.37416 6.96755 9.3749H9.37505C9.57396 9.3749 9.76473 9.29589 9.90538 9.15523C10.046 9.01458 10.1251 8.82382 10.1251 8.6249C10.1251 8.42599 10.046 8.23523 9.90538 8.09457C9.76473 7.95392 9.57396 7.8749 9.37505 7.8749H7.44005L5.61005 3.4949L19.7551 10.8749L5.61005 18.2549L7.44005 13.8749H9.37505C9.57396 13.8749 9.76473 13.7959 9.90538 13.6552C10.046 13.5146 10.1251 13.3238 10.1251 13.1249C10.1251 12.926 10.046 12.7352 9.90538 12.5946C9.76473 12.4539 9.57396 12.3749 9.37505 12.3749H6.93755C6.78948 12.3756 6.64495 12.4202 6.52216 12.5029C6.39937 12.5857 6.30382 12.7029 6.24755 12.8399L3.43505 19.5899C3.3754 19.7315 3.36068 19.888 3.39287 20.0382C3.42506 20.1885 3.50262 20.3252 3.61505 20.4299C3.73108 20.5409 3.87969 20.6118 4.03901 20.632C4.19832 20.6523 4.35993 20.6209 4.50005 20.5424L21.7501 11.5424C21.8729 11.4795 21.976 11.3838 22.048 11.2661C22.12 11.1483 22.1581 11.0129 22.1581 10.8749C22.1581 10.7369 22.12 10.6015 22.048 10.4837C21.976 10.366 21.8729 10.2703 21.7501 10.2074Z" fill="#384EDD"/>
<path d="M13.875 10.875C13.875 10.6761 13.796 10.4853 13.6553 10.3447C13.5147 10.204 13.3239 10.125 13.125 10.125H3.375C3.17609 10.125 2.98532 10.204 2.84467 10.3447C2.70402 10.4853 2.625 10.6761 2.625 10.875C2.625 11.0739 2.70402 11.2647 2.84467 11.4053C2.98532 11.546 3.17609 11.625 3.375 11.625H13.125C13.3239 11.625 13.5147 11.546 13.6553 11.4053C13.796 11.2647 13.875 11.0739 13.875 10.875Z" fill="#384EDD"/>
</svg>
