<svg width="25" height="24" viewBox="0 0 25 24" fill="none" xmlns="http://www.w3.org/2000/svg">
<path d="M21.1199 13.0703C20.7399 13.0703 20.4199 12.7803 20.3699 12.4003C20.1299 10.1403 18.9099 8.09035 17.0299 6.79035C16.6899 6.55035 16.6099 6.09035 16.8399 5.75035C17.0799 5.41035 17.5499 5.33035 17.8799 5.56035C20.1199 7.11035 21.5599 9.55035 21.8499 12.2403C21.8899 12.6503 21.5999 13.0203 21.1799 13.0703C21.1699 13.0703 21.1399 13.0703 21.1199 13.0703Z" fill="white"/>
<path d="M3.98991 13.1203C3.95991 13.1203 3.93991 13.1203 3.90991 13.1203C3.49991 13.0703 3.19991 12.7003 3.23991 12.2903C3.50991 9.60026 4.93991 7.17026 7.14991 5.60026C7.48991 5.36026 7.95991 5.44026 8.19991 5.78026C8.43991 6.12026 8.35991 6.59026 8.01991 6.83026C6.15991 8.14026 4.95991 10.1903 4.72991 12.4503C4.69991 12.8303 4.36991 13.1203 3.98991 13.1203Z" fill="white"/>
<path d="M12.56 22.61C11.08 22.61 9.66997 22.27 8.34997 21.61C7.97997 21.42 7.82997 20.97 8.01997 20.6C8.20997 20.23 8.65997 20.08 9.02997 20.27C11.19 21.36 13.79 21.38 15.97 20.33C16.34 20.15 16.79 20.31 16.97 20.68C17.15 21.05 16.99 21.5 16.62 21.68C15.34 22.3 13.98 22.61 12.56 22.61Z" fill="white"/>
<path d="M12.56 8.43988C10.61 8.43988 9.03003 6.85988 9.03003 4.90988C9.03003 2.95988 10.61 1.37988 12.56 1.37988C14.51 1.37988 16.09 2.95988 16.09 4.90988C16.09 6.85988 14.5 8.43988 12.56 8.43988ZM12.56 2.88988C11.44 2.88988 10.53 3.79988 10.53 4.91988C10.53 6.03988 11.44 6.94988 12.56 6.94988C13.68 6.94988 14.59 6.03988 14.59 4.91988C14.59 3.79988 13.67 2.88988 12.56 2.88988Z" fill="white"/>
<path d="M5.33005 20.6704C3.38005 20.6704 1.80005 19.0904 1.80005 17.1404C1.80005 15.2004 3.38005 13.6104 5.33005 13.6104C7.28005 13.6104 8.86005 15.1904 8.86005 17.1404C8.86005 19.0804 7.28005 20.6704 5.33005 20.6704ZM5.33005 15.1104C4.21005 15.1104 3.30005 16.0204 3.30005 17.1404C3.30005 18.2604 4.21005 19.1704 5.33005 19.1704C6.45005 19.1704 7.36005 18.2604 7.36005 17.1404C7.36005 16.0204 6.45005 15.1104 5.33005 15.1104Z" fill="white"/>
<path d="M19.6699 20.6704C17.7199 20.6704 16.1399 19.0904 16.1399 17.1404C16.1399 15.2004 17.7199 13.6104 19.6699 13.6104C21.6199 13.6104 23.1999 15.1904 23.1999 17.1404C23.1899 19.0804 21.6099 20.6704 19.6699 20.6704ZM19.6699 15.1104C18.5499 15.1104 17.6399 16.0204 17.6399 17.1404C17.6399 18.2604 18.5499 19.1704 19.6699 19.1704C20.7899 19.1704 21.6999 18.2604 21.6999 17.1404C21.6899 16.0204 20.7899 15.1104 19.6699 15.1104Z" fill="white"/>
</svg>
