<svg width="40" height="40" viewBox="0 0 40 40" fill="none" xmlns="http://www.w3.org/2000/svg">
<path d="M20 37.9163C10.1167 37.9163 2.08337 29.883 2.08337 19.9997C2.08337 10.1163 10.1167 2.08301 20 2.08301C29.8834 2.08301 37.9167 10.1163 37.9167 19.9997C37.9167 29.883 29.8834 37.9163 20 37.9163ZM20 4.58301C11.5 4.58301 4.58337 11.4997 4.58337 19.9997C4.58337 28.4997 11.5 35.4163 20 35.4163C28.5 35.4163 35.4167 28.4997 35.4167 19.9997C35.4167 11.4997 28.5 4.58301 20 4.58301Z" fill="#17CE4E"/>
<path d="M17.6333 25.9663C17.2999 25.9663 16.9833 25.833 16.7499 25.5997L12.0333 20.883C11.5499 20.3997 11.5499 19.5997 12.0333 19.1163C12.5166 18.633 13.3166 18.633 13.7999 19.1163L17.6333 22.9497L26.1999 14.383C26.6833 13.8997 27.4833 13.8997 27.9666 14.383C28.4499 14.8663 28.4499 15.6663 27.9666 16.1497L18.5166 25.5997C18.2833 25.833 17.9666 25.9663 17.6333 25.9663Z" fill="#17CE4E"/>
</svg>
