<svg width="14" height="14" viewBox="0 0 14 14" fill="none" xmlns="http://www.w3.org/2000/svg">
<path d="M9.44425 1.16699H4.55591C2.43258 1.16699 1.16675 2.43283 1.16675 4.55616V9.43866C1.16675 11.5678 2.43258 12.8337 4.55591 12.8337H9.43841C11.5617 12.8337 12.8276 11.5678 12.8276 9.44449V4.55616C12.8334 2.43283 11.5676 1.16699 9.44425 1.16699ZM9.78841 5.65866L6.48091 8.96616C6.39925 9.04783 6.28841 9.09449 6.17175 9.09449C6.05508 9.09449 5.94425 9.04783 5.86258 8.96616L4.21175 7.31533C4.04258 7.14616 4.04258 6.86616 4.21175 6.69699C4.38091 6.52782 4.66091 6.52782 4.83008 6.69699L6.17175 8.03866L9.17008 5.04033C9.33925 4.87116 9.61925 4.87116 9.78841 5.04033C9.95758 5.20949 9.95758 5.48366 9.78841 5.65866Z" fill="#384EDD"/>
</svg>
