<svg width="32" height="32" viewBox="0 0 32 32" fill="none" xmlns="http://www.w3.org/2000/svg">
<rect width="32" height="32" rx="16" fill="#F93939"/>
<path fill-rule="evenodd" clip-rule="evenodd" d="M23.4711 18.4578L20.9922 19.7592L21.4658 17.0008L19.4604 15.0445L22.2338 14.6392L23.4711 12.1304L24.7084 14.6413L27.4818 15.0466L25.4765 16.9986L25.95 19.757" fill="white"/>
<path fill-rule="evenodd" clip-rule="evenodd" d="M13.8666 23.4665C17.9903 23.4665 21.3332 20.1236 21.3332 15.9999C21.3332 11.8761 17.9903 8.5332 13.8666 8.5332C9.74284 8.5332 6.3999 11.8761 6.3999 15.9999C6.3999 20.1236 9.74284 23.4665 13.8666 23.4665ZM15.9999 21.3332C18.9439 21.3332 21.3332 18.9439 21.3332 15.9999C21.3332 13.0559 18.9439 10.6665 15.9999 10.6665C13.0559 10.6665 10.6666 13.0559 10.6666 15.9999C10.6666 18.9439 13.0559 21.3332 15.9999 21.3332Z" fill="white"/>
</svg>
