<svg width="40" height="40" viewBox="0 0 40 40" fill="none" xmlns="http://www.w3.org/2000/svg">
<rect width="40" height="40" rx="20" fill="#DFE3FA"/>
<path d="M19.9999 24.33C17.6099 24.33 15.6699 22.39 15.6699 20C15.6699 17.61 17.6099 15.67 19.9999 15.67C22.3899 15.67 24.3299 17.61 24.3299 20C24.3299 22.39 22.3899 24.33 19.9999 24.33ZM19.9999 17.17C18.4399 17.17 17.1699 18.44 17.1699 20C17.1699 21.56 18.4399 22.83 19.9999 22.83C21.5599 22.83 22.8299 21.56 22.8299 20C22.8299 18.44 21.5599 17.17 19.9999 17.17Z" fill="#384EDD"/>
<path d="M20.0001 29.02C16.2401 29.02 12.6901 26.82 10.2501 23C9.19008 21.35 9.19008 18.66 10.2501 17C12.7001 13.18 16.2501 10.98 20.0001 10.98C23.7501 10.98 27.3001 13.18 29.7401 17C30.8001 18.65 30.8001 21.34 29.7401 23C27.3001 26.82 23.7501 29.02 20.0001 29.02ZM20.0001 12.48C16.7701 12.48 13.6801 14.42 11.5201 17.81C10.7701 18.98 10.7701 21.02 11.5201 22.19C13.6801 25.58 16.7701 27.52 20.0001 27.52C23.2301 27.52 26.3201 25.58 28.4801 22.19C29.2301 21.02 29.2301 18.98 28.4801 17.81C26.3201 14.42 23.2301 12.48 20.0001 12.48Z" fill="#384EDD"/>
</svg>
