<svg width="40" height="40" viewBox="0 0 40 40" fill="none" xmlns="http://www.w3.org/2000/svg">
<rect width="40" height="40" rx="20" fill="#F8AA00" fill-opacity="0.1"/>
<path d="M27.5099 13.85L21.5699 10.42C20.5999 9.86 19.3999 9.86 18.4199 10.42L12.4899 13.85C11.5199 14.41 10.9199 15.45 10.9199 16.58V23.42C10.9199 24.54 11.5199 25.58 12.4899 26.15L18.4299 29.58C19.3999 30.14 20.5999 30.14 21.5799 29.58L27.5199 26.15C28.4899 25.59 29.0899 24.55 29.0899 23.42V16.58C29.0799 15.45 28.4799 14.42 27.5099 13.85ZM19.2499 15.75C19.2499 15.34 19.5899 15 19.9999 15C20.4099 15 20.7499 15.34 20.7499 15.75V21C20.7499 21.41 20.4099 21.75 19.9999 21.75C19.5899 21.75 19.2499 21.41 19.2499 21V15.75ZM20.9199 24.63C20.8699 24.75 20.7999 24.86 20.7099 24.96C20.5199 25.15 20.2699 25.25 19.9999 25.25C19.8699 25.25 19.7399 25.22 19.6199 25.17C19.4899 25.12 19.3899 25.05 19.2899 24.96C19.1999 24.86 19.1299 24.75 19.0699 24.63C19.0199 24.51 18.9999 24.38 18.9999 24.25C18.9999 23.99 19.0999 23.73 19.2899 23.54C19.3899 23.45 19.4899 23.38 19.6199 23.33C19.9899 23.17 20.4299 23.26 20.7099 23.54C20.7999 23.64 20.8699 23.74 20.9199 23.87C20.9699 23.99 20.9999 24.12 20.9999 24.25C20.9999 24.38 20.9699 24.51 20.9199 24.63Z" fill="#F5A700"/>
</svg>
