<svg width="32" height="32" viewBox="0 0 32 32" fill="none" xmlns="http://www.w3.org/2000/svg">
<rect width="32" height="32" rx="16" fill="white"/>
<path fill-rule="evenodd" clip-rule="evenodd" d="M23.4665 15.9998C23.4665 20.1235 20.1236 23.4665 15.9999 23.4665C11.8761 23.4665 8.5332 20.1235 8.5332 15.9998C8.5332 13.6105 13.5465 12.6078 17.7663 12.9854C18.2143 12.8659 18.6964 12.7998 19.1999 12.7998C21.5572 12.7998 23.4665 14.2334 23.4665 15.9998Z" fill="#232C80"/>
<path fill-rule="evenodd" clip-rule="evenodd" d="M14.9332 14.9332C14.9332 14.9332 16.8425 12.7999 19.1999 12.7999C21.5572 12.7999 23.4665 14.2335 23.4665 15.9999C23.4665 11.8761 20.1236 8.5332 15.9999 8.5332C13.0196 8.5332 10.4468 10.2783 9.25 12.8041C8.5332 14.9332 8.5332 15.5561 8.5332 15.9999C9.59987 17.0665 10.786 17.0665 11.7332 17.0665C12.6804 17.0665 13.5316 16.6548 14.1183 15.9999L14.9332 14.9332Z" fill="#F93939"/>
<path fill-rule="evenodd" clip-rule="evenodd" d="M25.6 10.6666H29.8666L25.6 6.3999H23.4666L25.6 10.6666ZM6.39997 10.6666H2.1333L6.39997 6.3999H8.5333L6.39997 10.6666ZM25.6 21.3332H29.8666L25.6 25.5999H23.4666L25.6 21.3332ZM6.39997 21.3332H2.1333L6.39997 25.5999H8.5333L6.39997 21.3332Z" fill="#151515"/>
</svg>
